<svg id="Layer_1" data-name="Layer 1" xmlns="http://www.w3.org/2000/svg" viewBox="0 0 833.14 841.89"><path d="M504.45,147.53q0-9,0-18.07a6.58,6.58,0,0,1,5.24-6.61,6.44,6.44,0,0,1,1.39-.16h20.44a1,1,0,0,1,.79.36q5.78,6.46,11.56,12.92a1.33,1.33,0,0,1,.39,1q0,14.28,0,28.56A6.58,6.58,0,0,1,539,172.2a7.26,7.26,0,0,1-1.54.16H511.23a6.64,6.64,0,0,1-6.78-6.77c0-5.87,0-11.73,0-17.6Zm25-21.32H511.39a3.15,3.15,0,0,0-3.42,3.41q0,17.91,0,35.81a3.15,3.15,0,0,0,3.43,3.41h25.92a3.16,3.16,0,0,0,3.42-3.42v-26c0-.18,0-.36,0-.6H529.44ZM533,129.1v6.17h5.52Z"/><path d="M511.75,146.46V143h25.19v3.43Z"/><path d="M537,154.14H511.76v-3.46H537Z"/><path d="M511.74,161.78v-3.45h25.2v3.45Z"/><path d="M662.38,515.08q0-9,0-18.06a6.57,6.57,0,0,1,5.24-6.61,5.85,5.85,0,0,1,1.38-.16l20.45,0a1,1,0,0,1,.79.36q5.78,6.48,11.56,12.93a1.32,1.32,0,0,1,.39,1q0,14.28,0,28.57a6.57,6.57,0,0,1-5.24,6.71,6.66,6.66,0,0,1-1.54.16H669.16a6.65,6.65,0,0,1-6.78-6.78c0-5.86,0-11.73,0-17.59Zm25-21.31h-18a3.15,3.15,0,0,0-3.42,3.41q0,17.9,0,35.81a3.15,3.15,0,0,0,3.42,3.41h25.93a3.17,3.17,0,0,0,3.42-3.43V507c0-.18,0-.36,0-.59H687.37Zm3.55,2.89v6.17h5.52Z"/><path d="M669.68,514v-3.44h25.19V514Z"/><path d="M694.87,521.69H669.69v-3.46h25.18Z"/><path d="M669.67,529.33v-3.44h25.2v3.44Z"/><path d="M579.86,161.12V149.05q-5.65-1.61-8.28-4.88a12.24,12.24,0,0,1-2.64-7.94,11.24,11.24,0,0,1,3-7.93,12,12,0,0,1,7.94-3.71v-2.85H584v2.85a12.36,12.36,0,0,1,7.28,3.13,12,12,0,0,1,3.46,6.9l-7.29.95A5.86,5.86,0,0,0,584,131v11.26c4.61,1.25,7.74,2.87,9.42,4.86a11.47,11.47,0,0,1,2.5,7.65,12.8,12.8,0,0,1-3.15,8.78,13.91,13.91,0,0,1-8.77,4.38v5.39h-4.18V168a13.37,13.37,0,0,1-8.1-3.71,15.29,15.29,0,0,1-4-8.79l7.52-.8a9.42,9.42,0,0,0,1.73,4A7.76,7.76,0,0,0,579.86,161.12Zm0-30.25a5.46,5.46,0,0,0-2.71,2,5.08,5.08,0,0,0-1,3.06,4.85,4.85,0,0,0,.92,2.83,6.41,6.41,0,0,0,2.8,2.12ZM584,161.52a5.78,5.78,0,0,0,3.51-2,5.64,5.64,0,0,0,1.35-3.76,5.14,5.14,0,0,0-1.13-3.32,7.26,7.26,0,0,0-3.73-2.15Z" fill="#231f20"/><path d="M219.16,332.08l2.4.76a5.4,5.4,0,0,1-1.84,3,5.77,5.77,0,0,1-7.26-.7,6.36,6.36,0,0,1-1.57-4.56,6.66,6.66,0,0,1,1.58-4.75,5.39,5.39,0,0,1,4.15-1.69,5.06,5.06,0,0,1,3.65,1.33,4.77,4.77,0,0,1,1.26,2.26l-2.45.58a2.56,2.56,0,0,0-2.59-2.06,2.81,2.81,0,0,0-2.21,1,4.83,4.83,0,0,0-.84,3.17,5.13,5.13,0,0,0,.83,3.31,2.7,2.7,0,0,0,2.17,1,2.46,2.46,0,0,0,1.7-.62A3.72,3.72,0,0,0,219.16,332.08Z" fill="#231f20"/><path d="M223.66,336.58V324.33H226v12.25Z" fill="#231f20"/><path d="M228.42,326.5v-2.17h2.35v2.17Zm0,10.08v-8.87h2.35v8.87Z" fill="#231f20"/><path d="M238.31,333.76l2.34.39a3.82,3.82,0,0,1-1.42,2,4.18,4.18,0,0,1-2.44.67,4,4,0,0,1-3.42-1.51,5.06,5.06,0,0,1-.88-3.06,4.92,4.92,0,0,1,1.15-3.46,3.81,3.81,0,0,1,2.92-1.25,3.93,3.93,0,0,1,3.12,1.31,5.77,5.77,0,0,1,1.1,4H234.9a2.32,2.32,0,0,0,.57,1.63,1.79,1.79,0,0,0,1.35.58,1.39,1.39,0,0,0,.93-.31A1.79,1.79,0,0,0,238.31,333.76Zm.14-2.38a2.26,2.26,0,0,0-.53-1.55,1.62,1.62,0,0,0-1.22-.53,1.65,1.65,0,0,0-1.27.56,2.16,2.16,0,0,0-.49,1.52Z" fill="#231f20"/><path d="M250.77,336.58h-2.35v-4.53a7,7,0,0,0-.15-1.86,1.3,1.3,0,0,0-.49-.65,1.39,1.39,0,0,0-.82-.24,1.83,1.83,0,0,0-1.09.34,1.68,1.68,0,0,0-.67.88,8.13,8.13,0,0,0-.18,2v4h-2.34v-8.87h2.18V329a3.56,3.56,0,0,1,2.92-1.51,3.63,3.63,0,0,1,1.42.28,2.43,2.43,0,0,1,1,.72,2.65,2.65,0,0,1,.46,1,7.64,7.64,0,0,1,.13,1.57Z" fill="#231f20"/><path d="M257.22,327.71v1.87h-1.61v3.57a8.7,8.7,0,0,0,0,1.27.52.52,0,0,0,.21.3.71.71,0,0,0,.39.11,3,3,0,0,0,.95-.22l.2,1.82a4.74,4.74,0,0,1-1.86.35,3,3,0,0,1-1.14-.21,1.71,1.71,0,0,1-.75-.55,2.16,2.16,0,0,1-.33-.92,11.56,11.56,0,0,1-.07-1.65v-3.87h-1.08v-1.87h1.08v-1.77l2.35-1.37v3.14Z" fill="#231f20"/><path d="M232.44,241a19.65,19.65,0,0,1-14.79-6.23c-11.6-12.17-10.5-37.63-10.45-38.71,0-.43-.49-11.87,7-19.77,4.52-4.75,11-7.15,19.12-7.15,7.3,0,13.05,2.21,17.09,6.59,7.16,7.74,6.48,19.42,6.41,20.36.1,1.58,1.52,26.65-9.74,38.69A19.31,19.31,0,0,1,232.44,241Zm.91-70.68c-7.83,0-14,2.28-18.25,6.78-7.18,7.53-6.72,18.85-6.71,19,0,.32-1.12,26.1,10.12,37.9a18.53,18.53,0,0,0,13.93,5.86,18.17,18.17,0,0,0,13.8-5.85c11-11.79,9.44-37.58,9.43-37.84v-.09c0-.12.84-12-6.11-19.51C245.75,172.44,240.3,170.35,233.35,170.35Z" fill="#010101"/><path d="M256.85,218.67a3.27,3.27,0,0,1-2.71-1.47l1-.69a2.12,2.12,0,0,0,1.84,1c1.38,0,3.07-1.34,4.29-3.3a12.7,12.7,0,0,0,1.6-8.51,3.27,3.27,0,0,0-1.4-2.16c-2.46-1.46-4.6,1.56-4.69,1.69l-1-.67c1-1.42,3.55-3.66,6.28-2a4.39,4.39,0,0,1,1.94,2.9,14,14,0,0,1-1.74,9.42c-1.45,2.31-3.46,3.79-5.26,3.85Z" fill="#010101"/><path d="M207.37,218.67h-.12c-1.8-.06-3.82-1.54-5.26-3.85s-2.48-6.43-1.75-9.42a4.4,4.4,0,0,1,1.95-2.9c2.73-1.62,5.3.62,6.27,2l-1,.67c-.09-.13-2.24-3.15-4.7-1.69a3.23,3.23,0,0,0-1.39,2.16,12.64,12.64,0,0,0,1.59,8.51c1.22,2,2.91,3.25,4.3,3.3a2.08,2.08,0,0,0,1.84-1l1,.69A3.3,3.3,0,0,1,207.37,218.67Z" fill="#010101"/><path d="M236.79,189.29c.19.3,1.36,4,1.36,4H251l-4.35-2.46a9.6,9.6,0,0,0-3.52-1Z" fill="#010101"/><path d="M249.79,255.28a.6.6,0,0,1-.59-.57l-1.1-21.9a.59.59,0,0,1,1.18-.06l1.11,21.9a.61.61,0,0,1-.57.63Z" fill="#010101"/><path d="M216.06,250.81a.58.58,0,0,1-.59-.59V232.78a.58.58,0,0,1,.59-.59.59.59,0,0,1,.6.59v17.44A.59.59,0,0,1,216.06,250.81Z" fill="#010101"/><path d="M216.42,233.33s4.82,7.52,12.61,11c5.66,2.54,13,1.55,16.82-2.58a13.53,13.53,0,0,0,3.37-9.57S243,238.65,233.68,239,216.42,233.33,216.42,233.33Z" fill="#010101"/><path d="M222.61,179.38s-.46,21.84,31,23l.92,13.1s7.64-12.47,6.67-26C259.84,170.42,226.06,154.34,222.61,179.38Z" fill="#010101"/><path d="M221.15,176.94s-11.87,10.95-11,38.06c0,0-3.9-7.58-2.65-13.31-1.84-1.37-3.78.44-3.78.44s-8.27-36.53,23.67-31C256.8,176.18,221.15,176.94,221.15,176.94Z" fill="#010101"/><path d="M223.77,181a19.27,19.27,0,0,0,.92,4.82,24.16,24.16,0,0,0,2,4.55,23.9,23.9,0,0,0,6.61,7.37,31.22,31.22,0,0,0,8.9,4.55,49.27,49.27,0,0,0,9.86,2.15l-2.53-.24-2.51-.36c-.83-.17-1.66-.33-2.48-.52s-1.65-.39-2.46-.66a31.79,31.79,0,0,1-9.19-4.36,24.72,24.72,0,0,1-6.93-7.5,22,22,0,0,1-3.09-9.79Z" fill="#010101"/><path d="M294.74,308.5H170.4a.74.74,0,0,1-.6-.3.72.72,0,0,1-.12-.65c1.32-4.71,13-46.12,16.11-49.32,3.27-3.37,32.73-10.31,46.78-10.31s43.51,6.94,46.78,10.31c3.11,3.2,14.79,44.61,16.11,49.32a.72.72,0,0,1-.12.65A.75.75,0,0,1,294.74,308.5ZM171.39,307H293.75c-5.17-18.36-13.36-45.55-15.47-47.72-2.71-2.78-31.74-9.86-45.71-9.86s-43,7.08-45.71,9.86C184.75,261.45,176.56,288.64,171.39,307Z" fill="#010101"/><path d="M170.4,307.75s12.7-46.18,15.68-49.49,29.26-7.71,29.26-7.71l7.18,57.2H170.4" fill="#010101"/><path d="M249.8,250.55l-7.18,57.2h52.12s-12.7-46.18-15.68-49.49S249.8,250.55,249.8,250.55Z" fill="#010101"/><path d="M238.65,285.71q-1-10.54-2-21.07c-.13-1.39-.29-2.77-.44-4.14h-7.33c-.09.91-.18,1.77-.26,2.64-.46,4.81-.91,9.63-1.38,14.45q-.8,8.25-1.62,16.49c-.46,4.72-.91,9.44-1.38,14.16,5.34.31,11-.55,16.53-.79-.11-1.09-.22-2.19-.32-3.28Q239.52,294.93,238.65,285.71Z" fill="#010101"/><path d="M222.87,249.05h19.22c-.12.25-.2.47-.31.67-1.74,3-3.49,6.05-5.22,9.08a1.17,1.17,0,0,1-1.17.71c-1.93,0-3.87,0-5.8,0a1.33,1.33,0,0,1-1-.49C226.7,255.73,224.84,252.46,222.87,249.05Z" fill="#010101"/><polygon points="586.03 577.93 580.33 595.07 596.62 588.29 588.98 585.78 586.03 577.93" fill="#1a1a1a"/><polygon points="174.07 356.71 172.26 338.73 160.16 351.58 168.17 350.74 174.07 356.71" fill="#1a1a1a"/><path d="M404.58,176.39a244.73,244.73,0,0,1,174.94,73.46l1.81-1.18c-.59-.6-1.16-1.2-1.76-1.8a248,248,0,0,0-266.16-55.21q.73.84,1.44,1.71A244.2,244.2,0,0,1,404.58,176.39Z" fill="#1a1a1a"/><path d="M159.09,421.87A244.46,244.46,0,0,1,172,343.34c-.59-.45-1.17-.89-1.75-1.35a248.15,248.15,0,0,0,45.57,239.92c.34-.69.69-1.36,1.08-2A244.38,244.38,0,0,1,159.09,421.87Z" fill="#1a1a1a"/><path d="M652,420.19c-.66.15-1.33.29-2,.42,0,.42,0,.84,0,1.26a244.64,244.64,0,0,1-66.94,168.3c.53.47,1.08.93,1.63,1.35a245.72,245.72,0,0,0,67.31-169.65C652.06,421.31,652,420.75,652,420.19Z" fill="#1a1a1a"/><path d="M635.86,403.7a70.6,70.6,0,1,1,70.6-70.6A70.68,70.68,0,0,1,635.86,403.7Zm0-140.19a69.6,69.6,0,1,0,69.6,69.59A69.67,69.67,0,0,0,635.86,263.51Z" fill="#1a1a1a"/><path d="M635.86,404.2A71.1,71.1,0,1,1,707,333.1,71.18,71.18,0,0,1,635.86,404.2Zm-70.09-71.1a70.1,70.1,0,1,0,140.19,0,70.1,70.1,0,1,1-140.19,0ZM635.86,264A69.1,69.1,0,1,0,705,333.1,69.18,69.18,0,0,0,635.86,264Z" fill="#1a1a1a"/><path d="M622,304.14c-.72.27-1.27.45-1.79.69-6.62,3-13.23,6-19.88,9a2.06,2.06,0,0,0-1.43,2.25q.06,19.44,0,38.89v1.78c0,1.74.06,1.6-1.66,1.6-2.37,0-4.74,0-7.1,0-1.11,0-1.15,0-1.14-1,0-2.42-.29-2.06,2.05-2.08,2.57,0,2.57,0,2.57-2.5V313.81a10.26,10.26,0,0,0,0-1.24,1.81,1.81,0,0,1,1.31-2.14c4.17-1.81,8.3-3.73,12.44-5.61,1.13-.52,2.25-1.06,3.41-1.51a1.68,1.68,0,0,0,1.22-1.86c-.08-2.72,0-5.45,0-8.17a2,2,0,0,1,1.37-2.12c8-3.79,16-7.66,24-11.49,1.23-.59,1-.78,2,.43,3.68,4.33,7.33,8.68,11,13a2.68,2.68,0,0,1,.7,1.92c0,1.47,0,3,0,4.43,0,.46.07.91.12,1.52,1.82-.82,3.49-1.54,5.14-2.33a1.13,1.13,0,0,1,1.54.28c3.73,4,7.49,7.91,11.21,11.89a3.21,3.21,0,0,1,.55,1.41,4.69,4.69,0,0,1,0,1.06q0,19.89,0,39.78c0,2.27-.1,2.15,2.11,2.14H672c2.36,0,2.51.17,2.21,2.47,0,.42-.21.65-.65.65h-49.9c-1.74,0-1.6.08-1.6-1.67q0-25.22,0-50.43Zm-5.81-3.32,4.55-2c1.17-.51,1.17-.5,2.07.44,3.47,3.64,6.91,7.31,10.42,10.91a3.86,3.86,0,0,1,1.2,2.95q-.06,19.53,0,39.05c0,3.66-.78,3,3.23,3.06.12,0,.28,0,.34,0a2.24,2.24,0,0,0,.61-.7,2.33,2.33,0,0,0,0-.88q0-34.25,0-68.51a11,11,0,0,0-.15-1.31l-1.23.57-11.19,5.38L617.29,294c-.46.23-1.06.36-1.07,1C616.2,296.86,616.21,298.73,616.21,300.82Zm41,3.25c-1.67.76-3.08,1.49-4.56,2a2.19,2.19,0,0,0-1.64,2.47c.05,14.89,0,29.79,0,44.69,0,.23,0,.47,0,.7,0,1.2,0,1.21,1.17,1.23s2,0,3,0c2.18,0,2,.21,2-2V304.07Z" fill="#1a1a1a"/><path d="M602.77,324.27c0-1.74,0-3.26,0-4.79,0-.7.48-.88,1-1.1l8.19-3.79,4.73-2.2c0,.79,0,1.35,0,1.91,0,1.18,0,2.36,0,3.54,0,2.54.4,2-2,2.76C610.81,321.84,606.91,323,602.77,324.27Z" fill="#1a1a1a"/><path d="M609.79,358.28c-2,0-4,0-6,0-.78,0-1-.28-1-1,0-1.42,0-2.84,0-4.25,0-.61.12-1,.87-1,4.08,0,8.15,0,12.22,0,.63,0,.83.26.82.85,0,1.53,0,3.07,0,4.6,0,.62-.28.82-.86.82C613.81,358.27,611.8,358.28,609.79,358.28Z" fill="#1a1a1a"/><path d="M616.66,339.33c0,2,0,3.82,0,5.65a.69.69,0,0,1-.72.79c-.23,0-.47.08-.7.09-3.78.16-7.55.34-11.33.48-1.09,0-1.11,0-1.14-1,0-1.18,0-2.36,0-3.54,0-.76.28-1,1-1.08,3.7-.35,7.39-.75,11.09-1.14C615.38,339.5,615.91,339.42,616.66,339.33Z" fill="#1a1a1a"/><path d="M616.67,325.89c0,2.13,0,4,0,5.89,0,.59-.08,1-.82,1.08-4.07.64-8.12,1.34-12.19,2-.55.09-.91,0-.9-.7,0-1.29-.34-2.74.13-3.85s2.24-1,3.44-1.4C609.69,327.88,613.09,326.93,616.67,325.89Z" fill="#1a1a1a"/><path d="M604,380.2V367.94h8.4V370H606.5v2.9h5.11V375H606.5v5.21Z" fill="#231f20"/><path d="M614,377.36l2.28-.25a1.64,1.64,0,0,0,.43,1,1.29,1.29,0,0,0,.93.33,1.51,1.51,0,0,0,1.23-.66,5.79,5.79,0,0,0,.66-2.78,2.8,2.8,0,0,1-2.22,1,3.29,3.29,0,0,1-2.49-1.12,4.05,4.05,0,0,1-1-2.9,4.14,4.14,0,0,1,1.11-3,3.74,3.74,0,0,1,2.82-1.14,3.81,3.81,0,0,1,3.06,1.44c.79,1,1.19,2.55,1.19,4.75s-.42,3.85-1.25,4.84a4,4,0,0,1-3.24,1.49,3.41,3.41,0,0,1-2.32-.76A3.71,3.71,0,0,1,614,377.36Zm5.32-5.13a2.71,2.71,0,0,0-.52-1.76,1.56,1.56,0,0,0-1.21-.63,1.34,1.34,0,0,0-1.08.51,2.63,2.63,0,0,0-.44,1.69,2.68,2.68,0,0,0,.47,1.74,1.47,1.47,0,0,0,1.17.56,1.45,1.45,0,0,0,1.14-.54A2.32,2.32,0,0,0,619.31,372.23Z" fill="#231f20"/><path d="M631.49,380.2V370h-3.63v-2.08h9.73V370H634V380.2Z" fill="#231f20"/><path d="M643,377.37l2.34.39a3.82,3.82,0,0,1-1.42,2,4.18,4.18,0,0,1-2.44.68,4,4,0,0,1-3.43-1.52,5.08,5.08,0,0,1-.87-3.06,4.88,4.88,0,0,1,1.15-3.45,3.81,3.81,0,0,1,2.92-1.25,3.93,3.93,0,0,1,3.12,1.31,5.75,5.75,0,0,1,1.1,4h-5.89a2.41,2.41,0,0,0,.57,1.63,1.78,1.78,0,0,0,1.36.58,1.43,1.43,0,0,0,.92-.3A1.86,1.86,0,0,0,643,377.37Zm.14-2.37a2.29,2.29,0,0,0-.53-1.55,1.69,1.69,0,0,0-2.49,0,2.11,2.11,0,0,0-.49,1.52Z" fill="#231f20"/><path d="M655.16,373.94l-2.32.42a1.61,1.61,0,0,0-.53-1,1.55,1.55,0,0,0-1.07-.35,1.77,1.77,0,0,0-1.4.6,3.11,3.11,0,0,0-.52,2,3.54,3.54,0,0,0,.53,2.23,1.75,1.75,0,0,0,1.42.65,1.57,1.57,0,0,0,1.1-.38,2.32,2.32,0,0,0,.6-1.31l2.31.4a4.07,4.07,0,0,1-1.38,2.39,4.21,4.21,0,0,1-2.73.82,4.07,4.07,0,0,1-3.11-1.23,5.61,5.61,0,0,1,0-6.83,4.84,4.84,0,0,1,5.72-.52A3.84,3.84,0,0,1,655.16,373.94Z" fill="#231f20"/><path d="M659.28,367.94v4.51a3.52,3.52,0,0,1,4.18-1,2.43,2.43,0,0,1,1,.77,2.77,2.77,0,0,1,.45,1A9.22,9.22,0,0,1,665,375v5.21h-2.35v-4.69a7,7,0,0,0-.13-1.77,1.17,1.17,0,0,0-.47-.6,1.51,1.51,0,0,0-.85-.22,1.91,1.91,0,0,0-1,.28,1.64,1.64,0,0,0-.68.86,5.15,5.15,0,0,0-.21,1.69v4.45h-2.35V367.94Z" fill="#231f20"/><polygon points="566.68 246.71 583.93 252.08 576.84 235.92 574.48 243.62 566.68 246.71" fill="#1a1a1a"/><path d="M127.75,473.67H101.94a18.65,18.65,0,0,1,2.61,4.28h23.2Z"/><path d="M127.75,487.42v-4.27H106a18.29,18.29,0,0,1,.14,2.23,19.61,19.61,0,0,1-.11,2Z"/><path d="M96.55,468.45h31.19v-4.26H96.55Z"/><path d="M136.32,455.44q-7.17-8-14.31-16a1.19,1.19,0,0,0-1-.45c-8.44,0-16.88,0-25.32,0a7.61,7.61,0,0,0-1.71.2,8.14,8.14,0,0,0-6.49,8.19q0,9.69,0,19.39a18.31,18.31,0,0,1,4.35.52V447.59a3.91,3.91,0,0,1,4.25-4.22h22.34V459h14c0,.29,0,.52,0,.74q0,16.08,0,32.17a3.92,3.92,0,0,1-4.23,4.24H102.65a18.84,18.84,0,0,1-4.36,4.37H128.4a8.57,8.57,0,0,0,1.9-.2,8.15,8.15,0,0,0,6.5-8.32q0-17.69,0-35.37A1.67,1.67,0,0,0,136.32,455.44Zm-13.47-.85V447l6.84,7.64Z"/><path d="M84.86,471.62A14.49,14.49,0,1,0,99.34,486.1,14.5,14.5,0,0,0,84.86,471.62Zm0,27.11A12.63,12.63,0,1,1,97.48,486.1,12.65,12.65,0,0,1,84.86,498.73Z"/><polygon points="81.11 488.09 77.99 484.96 75.36 487.59 81.11 493.34 92.97 481.49 90.34 478.86 81.11 488.09"/><path d="M445.31,651.84l-34.22-16.28H376.8l-34.22,16.28s-20,7.32-18.33,28.62H463.64C465.64,659.36,445.31,651.84,445.31,651.84Z" fill="#1a1a1a" stroke="#1a1a1a" stroke-linejoin="round" stroke-width="1.14"/><path d="M411.4,635.56h0V599.11H376.8v36.45l-8.56,4.07s.67,16.19,26.22,16.53S422.58,641,422.58,641Z" fill="#f5f5f3" stroke="#1a1a1a" stroke-linejoin="round" stroke-width="1.14"/><path d="M377.06,610.48s2.89,14.7,15.69,16.39c14.73,2,18.65-16,18.65-16S404.89,619,394.6,619A22.51,22.51,0,0,1,377.06,610.48Z" fill="#1a1a1a"/><path d="M368.24,587.72s.48-8-5.8-11.6a9.36,9.36,0,0,1-1.52-15.62,2.55,2.55,0,0,0,.75-3,6.15,6.15,0,0,1,.89-5.92c1.25-1.31,2.37-2.85,6.38-2.3,4.83.66,3.45-4.66,3.38-8.6-.1-5.71,9.93-10,20.2-.29,0,0,1.67,2.39,7.06.88s16.37-4.91,24.2,1.63.12,13.46,2.82,18.75,5.13,10.19-.77,14.72S420,590.6,420,590.6Z" fill="#1a1a1a"/><path d="M418.46,586.68a4.64,4.64,0,0,1,6.14-1.88c4.13,1.82,2.26,13.51-3.94,15a4.39,4.39,0,0,1-4-1.21S418.22,590,418.46,586.68Z" fill="#f5f5f3" stroke="#1a1a1a" stroke-linejoin="round" stroke-width="1.14"/><path d="M369.94,586.68s-1.83-3.71-5.61-1.88-2.06,13.51,3.6,15a3.75,3.75,0,0,0,3.62-1.21S370.15,590,369.94,586.68Z" fill="#f5f5f3" stroke="#1a1a1a" stroke-linejoin="round" stroke-width="1.14"/><path d="M419.23,575.59c0,7-.69,21.79-5,30.53-4.07,8.22-10.79,12.64-19.61,12.9s-15.39-3.14-20.65-13.79-5-29.51-5-29.51,0-25.16,24.87-25.16C420,550.56,419.23,575.59,419.23,575.59Z" fill="#f5f5f3"/><path d="M393.68,619.61c-9.29,0-15.37-4.27-20.24-14.13-5.27-10.66-5.08-29-5.07-29.76,0-.25.29-25.73,25.44-25.73,8.09,0,14.48,2.35,19,7,7.23,7.45,7,18,7,18.61,0,4.82-.36,21.25-5.08,30.78-4.14,8.37-11.1,12.94-20.1,13.21Zm.13-68.48c-24,0-24.3,23.59-24.3,24.59,0,.2-.19,18.84,4.95,29.25,4.81,9.73,10.82,13.75,20.12,13.48,8.56-.26,15.17-4.61,19.12-12.58,4.61-9.31,5-25.53,5-30.28v0c0-.1.24-10.65-6.7-17.79C407.68,553.37,401.57,551.13,393.81,551.13Z" fill="#1a1a1a"/><path d="M369.43,585.3s6.59-19.81-.49-31.51l-2.68,18.66Z" fill="#1a1a1a"/><path d="M372.14,565.21s2.75-10.67,12.72-4.54c5.95,3.65,19.59,10.52,34.37.87,0,0-8.26-13.59-27.43-13.6C366.77,547.94,372.14,565.21,372.14,565.21Z" fill="#1a1a1a"/><path d="M280.5,600.77A15.31,15.31,0,0,1,269,595.94c-8.67-9.12-7.84-27.7-7.8-28.49,0-.3-.37-8.6,5.19-14.46,3.47-3.65,8.47-5.5,14.85-5.5,5.7,0,10.17,1.71,13.27,5.08,5.3,5.74,4.79,14.21,4.74,14.91.08,1.17,1.14,19.45-7.26,28.46A15,15,0,0,1,280.5,600.77Zm.7-52.39c-6.12,0-10.9,1.76-14.19,5.22-5.3,5.58-5,13.77-5,13.85,0,.24-.84,19,7.56,27.87a14.43,14.43,0,0,0,10.89,4.56,14.15,14.15,0,0,0,10.79-4.55c8.24-8.83,7-27.64,7-27.82v-.07c0-.09.64-8.7-4.5-14.27C290.88,550,286.64,548.38,281.2,548.38Z" fill="#1a1a1a"/><path d="M280.5,601.27a15.81,15.81,0,0,1-11.9-5c-8.83-9.28-8-28.06-7.94-28.85,0,0-.43-8.72,5.33-14.78,3.57-3.75,8.69-5.66,15.21-5.66,5.85,0,10.44,1.76,13.64,5.24,5.4,5.85,4.94,14.34,4.87,15.28.05.73,1.2,19.55-7.4,28.77A15.52,15.52,0,0,1,280.5,601.27Zm.7-52.39c-6,0-10.63,1.71-13.83,5.07-5.12,5.38-4.82,13.4-4.82,13.48,0,.82-.67,19,7.42,27.55a14,14,0,0,0,10.53,4.4A13.72,13.72,0,0,0,290.93,595c8.12-8.71,6.9-27.26,6.88-27.45v-.13c0-.1.63-8.49-4.37-13.9C290.61,550.44,286.49,548.88,281.2,548.88Z" fill="#1a1a1a"/><path d="M297.33,584.08c1.39,1.91,4.07.66,5.63-1.83s2.28-7.47,0-8.81-4.21,1.43-4.21,1.43-.55,5-.95,6.91Z" fill="#f6f6f4"/><path d="M299.08,585.51a2.57,2.57,0,0,1-2.15-1.14l-.13-.17.51-2.52c.39-1.84.94-6.82.95-6.87v-.12l.07-.11c.76-1.09,2.75-2.83,4.87-1.58a3.44,3.44,0,0,1,1.52,2.26,10.82,10.82,0,0,1-1.35,7.26c-1.1,1.76-2.75,2.94-4.2,3ZM297.87,584a1.56,1.56,0,0,0,1.28.56,4.89,4.89,0,0,0,3.39-2.52,9.68,9.68,0,0,0,1.21-6.49,2.43,2.43,0,0,0-1-1.63c-1.66-1-3.13.74-3.47,1.19-.1.82-.58,5.09-1,6.83Z" fill="#1a1a1a"/><path d="M299.08,585.46a2.56,2.56,0,0,1-2.12-1.11l-.11-.17.5-2.49c.4-1.84.95-6.82.95-6.87l0-.12.06-.09c.75-1.08,2.72-2.8,4.81-1.57a3.36,3.36,0,0,1,1.49,2.23,10.76,10.76,0,0,1-1.33,7.22,5.76,5.76,0,0,1-4.17,3Zm-1.26-1.5a1.63,1.63,0,0,0,1.33.59,4.92,4.92,0,0,0,3.42-2.54,9.7,9.7,0,0,0,1.23-6.52,2.53,2.53,0,0,0-1.07-1.66c-1.71-1-3.21.77-3.54,1.21-.09.79-.58,5.09-.95,6.84Z" fill="#1a1a1a"/><path d="M299.08,586a3,3,0,0,1-2.52-1.32l-.25-.34.55-2.71c.36-1.68.85-6,.94-6.81l0-.26.14-.2c.84-1.21,3.06-3.13,5.47-1.71a3.86,3.86,0,0,1,1.73,2.54,11.32,11.32,0,0,1-1.4,7.61c-1.18,1.89-3,3.15-4.57,3.2Zm-.72-2.16a1.07,1.07,0,0,0,.77.25,4.49,4.49,0,0,0,3-2.31,9.24,9.24,0,0,0,1.16-6.13,2,2,0,0,0-.84-1.35c-1.23-.73-2.37.45-2.8,1-.12,1.1-.58,5.06-.94,6.75Z" fill="#1a1a1a"/><path d="M298.14,579.72a.18.18,0,0,1-.1,0,.22.22,0,0,1-.1-.3c1.88-3.92,4.81-3.08,4.84-3.07a.23.23,0,0,1,.15.28.23.23,0,0,1-.29.15c-.1,0-2.58-.72-4.29,2.83A.22.22,0,0,1,298.14,579.72Z" fill="#1a1a1a"/><path d="M298.14,580.22a.71.71,0,0,1-.32-.07.73.73,0,0,1-.33-1c2.08-4.34,5.42-3.34,5.45-3.32a.69.69,0,0,1,.41.34.73.73,0,0,1-.84,1c-.1,0-2.19-.61-3.71,2.56A.73.73,0,0,1,298.14,580.22Z" fill="#1a1a1a"/><path d="M300.51,581.6a.2.2,0,0,1-.14-.06.22.22,0,0,1,0-.32,2,2,0,0,0,.55-1.68,3,3,0,0,0-1.44-1.72.22.22,0,0,1-.09-.3.23.23,0,0,1,.31-.1,3.43,3.43,0,0,1,1.66,2,2.43,2.43,0,0,1-.64,2.06A.23.23,0,0,1,300.51,581.6Z" fill="#1a1a1a"/><path d="M300.51,582.1a.71.71,0,0,1-.46-.17.73.73,0,0,1-.1-1,1.6,1.6,0,0,0,.45-1.27,2.5,2.5,0,0,0-1.19-1.38.74.74,0,0,1-.29-1,.74.74,0,0,1,1-.3,3.91,3.91,0,0,1,1.91,2.37,2.9,2.9,0,0,1-.75,2.48A.71.71,0,0,1,300.51,582.1Zm-.82-4.72h0Z" fill="#1a1a1a"/><path d="M261.28,585.45h-.09c-1.38-.05-2.93-1.18-4-3a10.76,10.76,0,0,1-1.33-7.22,3.36,3.36,0,0,1,1.49-2.23c2.09-1.23,4.06.49,4.81,1.57a.45.45,0,0,1-.12.63.46.46,0,0,1-.63-.11c-.07-.1-1.71-2.42-3.6-1.3a2.53,2.53,0,0,0-1.07,1.66,9.7,9.7,0,0,0,1.23,6.52c.93,1.5,2.22,2.49,3.29,2.53a1.58,1.58,0,0,0,1.41-.75.45.45,0,1,1,.73.54A2.52,2.52,0,0,1,261.28,585.45Z" fill="#1a1a1a"/><path d="M261.28,586h-.13c-1.52-.05-3.22-1.27-4.42-3.18a11.32,11.32,0,0,1-1.4-7.61,3.88,3.88,0,0,1,1.72-2.54c2.41-1.42,4.64.5,5.48,1.71a1,1,0,1,1-1.57,1.09c-.06-.08-1.44-2-2.93-1.15a2,2,0,0,0-.84,1.35,9.24,9.24,0,0,0,1.16,6.13c.84,1.34,2,2.27,2.88,2.3a1.08,1.08,0,0,0,1-.54,1,1,0,0,1,1.34-.21,1,1,0,0,1,.38.62.94.94,0,0,1-.17.71A3,3,0,0,1,261.28,586Zm-.06-.91.06.41V585Z" fill="#1a1a1a"/><path d="M303.58,617.67h-.1c-.57-.12-13.92-3.12-14.92-7.8a.31.31,0,0,1,0-.1V597.87a.45.45,0,0,1,.45-.45.46.46,0,0,1,.46.45v11.84c.81,3.4,10.52,6.25,14.22,7.06a.46.46,0,0,1,.34.55A.44.44,0,0,1,303.58,617.67Z" fill="#1a1a1a"/><path d="M303.58,618.17a.68.68,0,0,1-.2,0c-1.46-.32-14.26-3.27-15.31-8.19l0-.2V597.88a1,1,0,1,1,1.91,0v11.77c.75,2.78,8.86,5.54,13.82,6.64a1,1,0,0,1-.2,1.88Z" fill="#1a1a1a"/><path d="M257.88,617.64a.46.46,0,0,1-.45-.38.47.47,0,0,1,.37-.53c9.2-1.59,13.07-6.34,13.65-7.11V597.84a.46.46,0,0,1,.91,0v11.92a.5.5,0,0,1-.08.26c-.15.23-4,5.82-14.32,7.61Z" fill="#1a1a1a"/><path d="M257.88,618.14a1,1,0,0,1-.16-1.9c8.61-1.49,12.48-5.86,13.23-6.79V597.84a1,1,0,0,1,1.91,0v11.92a1,1,0,0,1-.16.53c-.16.25-4.1,6-14.66,7.83Zm0-1v0Z" fill="#1a1a1a"/><path d="M324.4,645.6H237.2a.45.45,0,0,1-.45-.45c0-16.17,16.76-26.35,20.13-28.23a1.69,1.69,0,0,1,1.76.07c20.1,13.18,38.67,3.55,43.88.29a2.68,2.68,0,0,1,2.77,0c4.59,2.67,19.56,12.57,19.56,27.91A.45.45,0,0,1,324.4,645.6Zm-86.74-.91h86.28c-.29-14.59-14.67-24.08-19.11-26.66a1.77,1.77,0,0,0-1.83,0c-5.32,3.34-24.3,13.18-44.86-.3a.78.78,0,0,0-.82,0C254.07,619.53,238,629.29,237.66,644.69Z" fill="#1a1a1a"/><path d="M324.4,646.1H237.2a.94.94,0,0,1-.95-1c0-16.45,17-26.76,20.38-28.67a2.24,2.24,0,0,1,2.29.09c19.85,13,38.19,3.51,43.34.28a3.17,3.17,0,0,1,3.28,0c4.65,2.7,19.81,12.73,19.81,28.34A.94.94,0,0,1,324.4,646.1Zm-86.22-1.91h85.24c-.61-14.05-14.54-23.23-18.84-25.73a1.26,1.26,0,0,0-1.31,0c-5.39,3.38-24.6,13.34-45.4-.3a.31.31,0,0,0-.31,0C254.41,619.91,238.82,629.36,238.18,644.19Z" fill="#1a1a1a"/><path d="M280.31,619.69A35.74,35.74,0,0,1,263.82,616a.45.45,0,1,1,.46-.78c.14.08,14.39,8.14,32.89-.07a.45.45,0,1,1,.37.83A42.21,42.21,0,0,1,280.31,619.69Z" fill="#1a1a1a"/><path d="M280.31,620.19a36.23,36.23,0,0,1-16.74-3.81.9.9,0,0,1-.44-.58,1,1,0,0,1,.09-.72,1,1,0,0,1,.59-.45,1,1,0,0,1,.72.1c.14.08,14.22,8,32.44-.09a1,1,0,0,1,1.28,1.22.92.92,0,0,1-.51.53A42.81,42.81,0,0,1,280.31,620.19Z" fill="#1a1a1a"/><path d="M272,598.48s3.55,7.95,10.74,7.44a6.74,6.74,0,0,0,6.35-5.16l-.5-2.28S282.09,603.09,272,598.48Z" fill="#1a1a1a"/><path d="M282.05,606.44c-7,0-10.49-7.67-10.53-7.75l-.54-1.21,1.2.55c9.71,4.42,16,.09,16.1,0l.61-.43.7,3.13,0,.11c-1.29,5.42-6.78,5.54-6.83,5.54Zm-8.94-6.94c1.31,2.14,4.51,6.26,9.58,5.92a6.2,6.2,0,0,0,5.87-4.66l-.33-1.49C286.44,600.26,281,602.59,273.11,599.5Z" fill="#1a1a1a"/><path d="M318,586.65a15.54,15.54,0,0,0-1.13-2.23,21.29,21.29,0,0,1-2.15-4.15,8.48,8.48,0,0,1,.18-3.64c.29-1.24.71-2.49,1-3.8v0a9.29,9.29,0,0,0-.7-4.66,11.7,11.7,0,0,0-2.73-3.78,18,18,0,0,0-3.73-2.71l-1-.52a4.36,4.36,0,0,1-.81-.6,2.38,2.38,0,0,1-.86-1.55v-.06A48.81,48.81,0,0,0,305,551a11.66,11.66,0,0,0-1.74-3.73,12.49,12.49,0,0,0-3-2.83,18.21,18.21,0,0,0-7.41-3.18,18,18,0,0,0-4.63-.21c-4.49-.45-9.14.77-12.08,5.64-13.31-.86-18.51,12.75-17.93,19.75a23.71,23.71,0,0,0,4.64,12c-1.07-3.48,1.16-10.59,1.16-10.59,9.25-5.38,11.88-12,12.52-16.41,2-.49,4.8-.64,6.59,1.34a7.2,7.2,0,0,1,1.12,2.88,24.39,24.39,0,0,1,.31,3.32c0,1.13.06,2.26.18,3.41a12.66,12.66,0,0,0,.27,1.71,5.17,5.17,0,0,0,.24.87,3.13,3.13,0,0,0,.46.84,3.72,3.72,0,0,0,1.53,1.1,12.8,12.8,0,0,0,1.68.51,6.86,6.86,0,0,1,2.91,1.17l0,0,0,0a.65.65,0,0,1,.36.61,1.93,1.93,0,0,1-.06.5c0,.16-.08.34-.11.57-.31,1.08-.61,2.17-.84,3.29a15.93,15.93,0,0,0-.35,3.46,7.44,7.44,0,0,0,.84,3.48,6.15,6.15,0,0,0,2.51,2.42,2.27,2.27,0,0,1,.48,1.1,1.56,1.56,0,0,1,0,.61,1.52,1.52,0,0,1-.09.28.75.75,0,0,1-.06.13l-.1.17-1.66,2.7c-1.1,1.8-2.2,3.63-3.2,5.52a33.48,33.48,0,0,0-2.5,5.91,23.9,23.9,0,0,0-1.11,6.33v0h0a13.15,13.15,0,0,0,2.34,6.67,11.23,11.23,0,0,0,2.46,2.55,9.45,9.45,0,0,0,3.17,1.51,10.14,10.14,0,0,1-5.33-4.26,12.45,12.45,0,0,1-1.42-3.13,13.69,13.69,0,0,1-.59-3.36,23.57,23.57,0,0,1,1.25-6.09,39.61,39.61,0,0,1,2.56-5.73c1-1.84,2.09-3.64,3.21-5.43l1.7-2.71.1-.17c0-.06.08-.15.12-.22a2.84,2.84,0,0,0,.15-.47,2.89,2.89,0,0,0,.06-1,3.24,3.24,0,0,0-.76-1.71l-.05-.07-.1,0a5.56,5.56,0,0,1-2.2-2.07,6.75,6.75,0,0,1-.74-3,15.53,15.53,0,0,1,.31-3.24c.21-1.08.49-2.15.79-3.23l0,0v-.06c0-.11.06-.31.1-.52a3.86,3.86,0,0,0,.08-.72,1.65,1.65,0,0,0-.24-.81,1.74,1.74,0,0,0-.6-.58l.07.05a5.34,5.34,0,0,0-1.78-.93,7.39,7.39,0,0,1,1.58.28c3.55,1.12-2.53,10.68,2.38,14s.78,4.1-3.92,14.5-1.5,18.35,6.17,20.59,5.87-4.76,13.72-2.93c2,.47,1.64.56,3.28,2.21,0,0,6.08-8.73-1.58-11.52s9.12-13.09,2.32-20,5.83-13.67-6.18-21.14c-8.95-5.57-1.05-7.95-8.12-16.49-1.22-1.47-4.42-3.49-8.22-4.63l.64.11a17.42,17.42,0,0,1,7,3.19,12.63,12.63,0,0,1,2.73,2.68,10.72,10.72,0,0,1,1.58,3.45,48.2,48.2,0,0,1,1.05,7.8V559a3.32,3.32,0,0,0,1.16,2.31,5.6,5.6,0,0,0,1,.75l1,.54a17,17,0,0,1,3.49,2.57,11.14,11.14,0,0,1,2.49,3.43,8.09,8.09,0,0,1,.65,4.09c-.25,1.23-.65,2.45-.95,3.75a9.5,9.5,0,0,0-.16,4.08v.06a22.07,22.07,0,0,0,2.29,4.37,14.64,14.64,0,0,1,1.07,2.08,6,6,0,0,1,.43,2.16,9,9,0,0,1-1,3,28.36,28.36,0,0,1-1.74,2.86c-.63.94-1.28,1.88-1.85,2.88a12.56,12.56,0,0,0-1.35,3.2v0h0l-.06.59a4.28,4.28,0,0,0,0,.62,2.27,2.27,0,0,0,.47,1.19,2.57,2.57,0,0,0,1,.73,10.27,10.27,0,0,0,1.1.38,8.36,8.36,0,0,1,1,.37,5.51,5.51,0,0,1,.91.57l.23.16.19.19c.13.13.27.25.38.38l.32.44a2.69,2.69,0,0,1,.24.48,4.29,4.29,0,0,1,.27,2.14,11.8,11.8,0,0,1-.55,2.16c-.52,1.41-1.19,2.77-1.69,4.2.56-1.41,1.3-2.72,1.87-4.13a11.13,11.13,0,0,0,.65-2.2,4.67,4.67,0,0,0-.21-2.31,3.71,3.71,0,0,0-.26-.53l-.32-.5c-.13-.15-.27-.29-.41-.43l-.2-.22-.23-.17a5.43,5.43,0,0,0-1-.66,8.17,8.17,0,0,0-1.08-.44,3.91,3.91,0,0,1-1.83-1,2.45,2.45,0,0,1-.26-1.92,12.19,12.19,0,0,1,1.34-3c.58-.95,1.23-1.87,1.88-2.79a28.05,28.05,0,0,0,1.86-2.9,10.06,10.06,0,0,0,1.17-3.34v-.06A7,7,0,0,0,318,586.65ZM285.86,564.3a6.28,6.28,0,0,0,.41.86A2.74,2.74,0,0,1,285.86,564.3Z" fill="#1a1a1a"/><path d="M299.61,617.22a10.31,10.31,0,0,1-2.88-.47,11.55,11.55,0,0,1-7.56-6.3c-1.86-4-1.47-9.34,1.07-15,.29-.64.57-1.24.85-1.8l-.23.43a37.66,37.66,0,0,0-2.52,5.65,22.53,22.53,0,0,0-1.23,6,12.6,12.6,0,0,0,.57,3.17,11.75,11.75,0,0,0,1.36,3A9.61,9.61,0,0,0,294.1,616l-.28,1a9.8,9.8,0,0,1-3.34-1.59,11.62,11.62,0,0,1-2.57-2.66,13.72,13.72,0,0,1-2.43-6.92,24.68,24.68,0,0,1,1.13-6.55,35.44,35.44,0,0,1,2.54-6c1.05-2,2.21-3.9,3.22-5.55l1.75-2.86a1.15,1.15,0,0,0,.09-.26,1.08,1.08,0,0,0,0-.44,1.65,1.65,0,0,0-.31-.77,6.62,6.62,0,0,1-2.62-2.57,7.94,7.94,0,0,1-.9-3.71,15.83,15.83,0,0,1,.36-3.56c.24-1.19.57-2.35.85-3.34,0-.1,0-.25.07-.39l0-.14a1.77,1.77,0,0,0,.05-.39c0-.1,0-.12-.13-.2l-.11-.08a6.46,6.46,0,0,0-2.71-1.07,13.86,13.86,0,0,1-1.76-.54,4.16,4.16,0,0,1-1.74-1.26,3.75,3.75,0,0,1-.54-1,4.83,4.83,0,0,1-.18-.62l-.06-.27a13.39,13.39,0,0,1-.29-1.81c-.09-.93-.13-1.86-.16-2.76l0-.67a23.81,23.81,0,0,0-.3-3.25,6.79,6.79,0,0,0-1-2.69c-1.5-1.65-3.89-1.6-5.74-1.21-.76,4.61-3.58,11.06-12.54,16.33-.33,1.12-2,7.12-1.1,10.11l.75,2.43-1.61-2a24,24,0,0,1-4.75-12.27,21.41,21.41,0,0,1,5.85-15.6,15.67,15.67,0,0,1,12.3-4.71c3.36-5.33,8.58-6,12.4-5.63a17.93,17.93,0,0,1,4.67.22,18.92,18.92,0,0,1,7.62,3.26,13.35,13.35,0,0,1,3.09,3,12.45,12.45,0,0,1,1.82,3.89,36.66,36.66,0,0,1,1,6.22c.05.6.11,1.21.18,1.81V559a2,2,0,0,0,.7,1.19,4.18,4.18,0,0,0,.72.53l1,.51a19.05,19.05,0,0,1,3.84,2.78,12.46,12.46,0,0,1,2.84,3.95,9.58,9.58,0,0,1,.73,4.91c-.17.86-.38,1.6-.58,2.32-.15.53-.3,1.06-.42,1.58a7.86,7.86,0,0,0-.18,3.43A17.39,17.39,0,0,0,317,583.6l.34.57a14.24,14.24,0,0,1,1.16,2.31,7.23,7.23,0,0,1,.52,2.71v.11a10.2,10.2,0,0,1-1.23,3.51,27.82,27.82,0,0,1-1.89,3l-.23.33c-.58.83-1.13,1.61-1.63,2.44a11.57,11.57,0,0,0-1.29,2.87,2,2,0,0,0,.18,1.49,3.15,3.15,0,0,0,1.42.74l.27.09a8.3,8.3,0,0,1,1,.43,5.53,5.53,0,0,1,1,.64l.72.66a2.27,2.27,0,0,1,.3.32l.35.53a1.81,1.81,0,0,1,.22.44,1.11,1.11,0,0,0,.07.16,5.09,5.09,0,0,1,.25,2.59,10.92,10.92,0,0,1-.67,2.31c-.29.72-.62,1.41-1,2.08s-.65,1.36-.93,2l-.93-.35c.27-.77.59-1.53.9-2.26s.55-1.29.79-2a9.93,9.93,0,0,0,.52-2,3.67,3.67,0,0,0-.23-1.87l-.08-.18a.56.56,0,0,0-.1-.19l-.32-.46-.18-.17-.57-.48a4.89,4.89,0,0,1,.62,1.28c1.19,3.78-2,8.39-2.11,8.59l-.35.49-.42-.43c-.37-.37-.63-.66-.85-.9-.71-.78-.77-.84-2.18-1.17-3.65-.86-5,.28-6.47,1.48A6.26,6.26,0,0,1,299.61,617.22ZM286.8,566.08l3.9.33a7.62,7.62,0,0,1,1.69.31c2,.63,1.6,3.19,1.16,5.9-.5,3-1.07,6.51,1.35,8.15,3.64,2.46,2.65,4,.5,7.4a58.63,58.63,0,0,0-4.25,7.72c-2.42,5.36-2.8,10.38-1.08,14.14a10.62,10.62,0,0,0,6.94,5.76c3.6,1.05,4.88,0,6.36-1.24s3.2-2.66,7.34-1.7a3.77,3.77,0,0,1,2.69,1.48l.38.42c.76-1.26,2.49-4.57,1.66-7.2a5,5,0,0,0-3.32-3,3.3,3.3,0,0,1-2.23-1.94c-.62-1.81.83-4.11,2.51-6.77,2.4-3.79,5.12-8.08,1.85-11.39s-2.37-6.45-1.58-9.57c1-3.86,1.92-7.5-4.5-11.5-5-3.09-5-5.35-5-8,0-2.22,0-4.74-3.24-8.61-1.14-1.38-4.25-3.35-8-4.47l.16-.66a16.87,16.87,0,0,0-3.83-.1c-3.68-.36-8.61.28-11.69,5.4l-.16.26-.3,0a14.6,14.6,0,0,0-11.83,4.4,20.69,20.69,0,0,0-5.57,14.81,23.5,23.5,0,0,0,3.35,10,32.19,32.19,0,0,1,1.48-8.7l.05-.18.17-.1c9-5.22,11.62-11.61,12.27-16l0-.34.33-.08c2.15-.52,5.12-.68,7.08,1.49a7.71,7.71,0,0,1,1.24,3.13,23.28,23.28,0,0,1,.32,3.4l0,.67c0,.88.07,1.8.16,2.7a13.9,13.9,0,0,0,.25,1.65c0,.08.05.19.08.3a.5.5,0,0,1,0,.12l.74-.25a4.74,4.74,0,0,0,.37.78l-.68.44.1.14A2.68,2.68,0,0,0,286.8,566.08Zm29.94,21.24c.29,3-1.75,6.25-3.49,9-1.48,2.34-2.88,4.55-2.42,5.9a1.58,1.58,0,0,0,.32.54,2.25,2.25,0,0,1-.06-.36,4,4,0,0,1,0-.49v-.17l.07-.66a13,13,0,0,1,1.41-3.42c.51-.89,1.08-1.73,1.63-2.55l.24-.36a27.76,27.76,0,0,0,1.72-2.8,8.55,8.55,0,0,0,.95-2.87A5.44,5.44,0,0,0,316.74,587.32ZM291.5,575.15a12.23,12.23,0,0,0-.1,1.87,6.93,6.93,0,0,0,.78,3.25,5.63,5.63,0,0,0,2.31,2.22l.15.13a2.82,2.82,0,0,1,.59,1.35,2.27,2.27,0,0,1,0,.78,1.52,1.52,0,0,1-.12.36,1.16,1.16,0,0,1-.09.19l-1.21,2,1.24-2,.05-.11a2.07,2.07,0,0,0,.2-1.23,2.73,2.73,0,0,0-.64-1.44h0a6,6,0,0,1-2.39-2.27,6.91,6.91,0,0,1-.81-3.23A13.44,13.44,0,0,1,291.5,575.15Zm4.6,8a3.93,3.93,0,0,1,.15.68,3.75,3.75,0,0,1,0,.67A1.62,1.62,0,0,0,296.1,583.16Zm18.27-12.32a18.09,18.09,0,0,1-.73,4.24c-.7,2.75-1.36,5.35.74,8a12.75,12.75,0,0,1-1.06-2.34l0-.12a9.9,9.9,0,0,1,.16-4.3c.13-.57.29-1.14.44-1.69.19-.71.37-1.37.51-2A8.15,8.15,0,0,0,314.37,570.84ZM305.62,559a2.77,2.77,0,0,0,1,2,5.92,5.92,0,0,0,.89.67l1,.53a18,18,0,0,1,3.6,2.64,12,12,0,0,1,2.6,3.59,8.53,8.53,0,0,1,.68,4.35c-.15.75-.34,1.46-.53,2.15-.15.54-.3,1.09-.43,1.66a9.19,9.19,0,0,0-.19,3.68,9.16,9.16,0,0,1,.21-3.68c.13-.54.28-1.08.44-1.62.19-.71.4-1.43.55-2.16a8.69,8.69,0,0,0-.66-4.4,11.34,11.34,0,0,0-2.61-3.62,17.66,17.66,0,0,0-3.63-2.63l-1-.52a5.22,5.22,0,0,1-.91-.67,2.83,2.83,0,0,1-1-1.92l-.18-1.83-.06-.6.06.65c.05.58.1,1.17.16,1.75h0Zm-18.43,7.34.24.11a11.11,11.11,0,0,0,1.51.47Zm17-12c0,.38,0,.75,0,1.1a8.18,8.18,0,0,0,.38,3c0-.37-.06-.74-.1-1.11C304.36,556.24,304.28,555.23,304.15,554.25Z" fill="#1a1a1a"/><path d="M513.6,619.23l30.55.89c-9.15-18.32-6.48-62.33-6.48-62.33l-23.62-1v0l-.45,0-.45,0v0l-23.63,1s3.58,44-5.57,62.33Z" fill="#1a1a1a"/><path d="M502.74,608.65l-23.39,13.57s-16.87,7.34-15.49,23.88H564.33c1.31-16-15.49-23.88-15.49-23.88l-24.31-13.57" fill="#1a1a1a" stroke="#1a1a1a" stroke-linejoin="round" stroke-width="1.15"/><path d="M524.7,608.74V577.93H502.91v30.72h0l-12.45,7.12s18.72,17.58,46.09-.15Z" fill="#f5f5f3" stroke="#1a1a1a" stroke-linejoin="round" stroke-width="1.02"/><path d="M502.91,591.27s1.8,9.65,10.38,9.83c11.25.23,11.06-9.4,11.06-9.4s-1.53,2.83-10.23,2.84C504.41,594.55,502.91,591.27,502.91,591.27Z" fill="#1a1a1a"/><ellipse cx="513.63" cy="557.79" rx="24.11" ry="23.79" fill="#1a1a1a"/><path d="M534.84,567.71a4.37,4.37,0,0,1,5.39-1.41c3.63,1.36,2,10.06-3.46,11.17a4.35,4.35,0,0,1-3.48-.9S534.63,570.14,534.84,567.71Z" fill="#f5f5f3" stroke="#1a1a1a" stroke-linejoin="round" stroke-width="1.06"/><path d="M493.16,567.71a4.37,4.37,0,0,0-5.39-1.41c-3.63,1.36-2,10.06,3.46,11.17a4.35,4.35,0,0,0,3.48-.9S493.37,570.14,493.16,567.71Z" fill="#f5f5f3" stroke="#1a1a1a" stroke-linejoin="round" stroke-width="1.06"/><path d="M535.18,560.21c0,5.57-.58,17.23-4.24,24.16a18.35,18.35,0,0,1-16.58,10.2c-7.46.21-13-2.48-17.46-10.91s-4.24-23.35-4.24-23.35,0-19.91,21-19.91C535.84,540.4,535.18,560.21,535.18,560.21Z" fill="#f5f5f3" stroke="#1a1a1a" stroke-linejoin="round" stroke-width="1.15"/><path d="M534.25,551a8.77,8.77,0,0,0-.46.92,17.38,17.38,0,0,0-11.89-11.47v0c-12.49-5.31-17.9-2-17.9-2-17.19,9.5-12.26,22.83-12.26,22.83h.18a13.08,13.08,0,0,0,1.23,6.49,27.47,27.47,0,0,0,1.89-6.55c13.34-.85,20.79-9.67,24.3-15.54,1.5,4,5.08,9.61,13.45,15a27.49,27.49,0,0,0,2,7.14C537.83,562.25,534.25,551,534.25,551Z" fill="#1a1a1a"/><path d="M376.22,707.4V697.22h-3.63v-2.07h9.73v2.07H378.7V707.4Z" fill="#231f20"/><path d="M387.77,704.57l2.34.39a3.78,3.78,0,0,1-1.42,2,4.18,4.18,0,0,1-2.44.68,4,4,0,0,1-3.42-1.52A5,5,0,0,1,382,703a4.89,4.89,0,0,1,1.15-3.46,3.81,3.81,0,0,1,2.92-1.25,3.93,3.93,0,0,1,3.12,1.31,5.77,5.77,0,0,1,1.1,4h-5.89a2.41,2.41,0,0,0,.57,1.62,1.78,1.78,0,0,0,1.36.58,1.43,1.43,0,0,0,.92-.3A1.86,1.86,0,0,0,387.77,704.57Zm.14-2.37a2.29,2.29,0,0,0-.53-1.55,1.59,1.59,0,0,0-1.22-.53,1.61,1.61,0,0,0-1.27.56,2.11,2.11,0,0,0-.49,1.52Z" fill="#231f20"/><path d="M393.91,701.23l-2.13-.39a3.29,3.29,0,0,1,1.23-1.9,4.57,4.57,0,0,1,2.61-.62,5.57,5.57,0,0,1,2.34.37,2.38,2.38,0,0,1,1.08.95,4.82,4.82,0,0,1,.31,2.1l0,2.74a10.23,10.23,0,0,0,.11,1.73,5.7,5.7,0,0,0,.42,1.19h-2.32c-.06-.16-.13-.39-.22-.7a2,2,0,0,0-.09-.27,4.16,4.16,0,0,1-1.28.87,3.65,3.65,0,0,1-1.47.3,3,3,0,0,1-2.16-.75,2.48,2.48,0,0,1-.79-1.88,2.51,2.51,0,0,1,.36-1.34,2.39,2.39,0,0,1,1-.9,7.89,7.89,0,0,1,1.87-.55,13.22,13.22,0,0,0,2.28-.57v-.24a1.18,1.18,0,0,0-.34-1,1.94,1.94,0,0,0-1.26-.29,1.73,1.73,0,0,0-1,.24A1.75,1.75,0,0,0,393.91,701.23Zm3.14,1.9c-.3.1-.78.22-1.43.36a4.47,4.47,0,0,0-1.28.41,1,1,0,0,0-.46.83,1.13,1.13,0,0,0,.37.85,1.27,1.27,0,0,0,.93.36,2,2,0,0,0,1.22-.42,1.5,1.5,0,0,0,.56-.77,4.74,4.74,0,0,0,.09-1.15Z" fill="#231f20"/><path d="M401.49,698.52h2.17v1.21a3.48,3.48,0,0,1,2.76-1.41,3,3,0,0,1,1.48.35,2.77,2.77,0,0,1,1,1.06,4.24,4.24,0,0,1,1.26-1.06,3.2,3.2,0,0,1,1.45-.35,3.15,3.15,0,0,1,1.65.4,2.42,2.42,0,0,1,1,1.16,5.14,5.14,0,0,1,.24,1.84v5.68H412.2v-5.08a3.79,3.79,0,0,0-.24-1.7,1.11,1.11,0,0,0-1-.5,1.6,1.6,0,0,0-.92.3,1.66,1.66,0,0,0-.63.88,6.3,6.3,0,0,0-.19,1.83v4.27h-2.35v-4.87a6.36,6.36,0,0,0-.13-1.67,1.06,1.06,0,0,0-.38-.56,1.28,1.28,0,0,0-.72-.18,1.68,1.68,0,0,0-1,.29,1.66,1.66,0,0,0-.62.84,6.47,6.47,0,0,0-.19,1.83v4.32h-2.35Z" fill="#231f20"/></svg>