<svg id="Layer_1" data-name="Layer 1" xmlns="http://www.w3.org/2000/svg" viewBox="0 0 833.14 841.89"><path d="M607.26,449V437.07h3.85a13.84,13.84,0,0,1,2.85.18,3.06,3.06,0,0,1,1.71,1.16,3.69,3.69,0,0,1,.69,2.31,3.94,3.94,0,0,1-.4,1.84,3.14,3.14,0,0,1-1,1.17,3.54,3.54,0,0,1-1.24.57,14.07,14.07,0,0,1-2.49.17h-1.56V449Zm2.4-9.87v3.37H611a5.93,5.93,0,0,0,1.89-.19,1.56,1.56,0,0,0,.75-.58,1.62,1.62,0,0,0,.28-.93,1.53,1.53,0,0,0-.39-1.07,1.63,1.63,0,0,0-1-.52,10.83,10.83,0,0,0-1.73-.08Z" fill="#231f20"/><path d="M620,443l-2.06-.38a3.22,3.22,0,0,1,1.19-1.84,4.4,4.4,0,0,1,2.53-.6,5.43,5.43,0,0,1,2.27.36,2.23,2.23,0,0,1,1,.91,4.76,4.76,0,0,1,.3,2l0,2.66a9.43,9.43,0,0,0,.11,1.67,4.77,4.77,0,0,0,.41,1.16h-2.25a6.12,6.12,0,0,1-.22-.68l-.08-.26a4.14,4.14,0,0,1-1.25.85,3.56,3.56,0,0,1-1.42.28,2.93,2.93,0,0,1-2.09-.72,2.4,2.4,0,0,1-.77-1.82,2.46,2.46,0,0,1,.35-1.3,2.27,2.27,0,0,1,1-.88,7.54,7.54,0,0,1,1.81-.53,12.71,12.71,0,0,0,2.21-.56v-.23a1.17,1.17,0,0,0-.33-.93,1.89,1.89,0,0,0-1.22-.28,1.65,1.65,0,0,0-1,.24A1.71,1.71,0,0,0,620,443Zm3,1.84a11.76,11.76,0,0,1-1.39.35,4.39,4.39,0,0,0-1.24.4,1,1,0,0,0-.44.8,1.14,1.14,0,0,0,.35.83,1.26,1.26,0,0,0,.91.35,2,2,0,0,0,1.18-.41,1.43,1.43,0,0,0,.54-.75,4.51,4.51,0,0,0,.09-1.11Z" fill="#231f20"/><path d="M629.72,449h-2.28v-8.61h2.12v1.23a3.88,3.88,0,0,1,1-1.15,1.84,1.84,0,0,1,1-.27,2.85,2.85,0,0,1,1.5.43l-.71,2a2,2,0,0,0-1.07-.37,1.29,1.29,0,0,0-.81.26,1.88,1.88,0,0,0-.52.95,13.42,13.42,0,0,0-.19,2.89Z" fill="#231f20"/><path d="M637.94,440.34v1.82h-1.55v3.46a8.86,8.86,0,0,0,0,1.23.5.5,0,0,0,.21.29.59.59,0,0,0,.38.11,2.86,2.86,0,0,0,.92-.22l.19,1.77a4.48,4.48,0,0,1-1.8.34,2.82,2.82,0,0,1-1.11-.21,1.51,1.51,0,0,1-.72-.53,2,2,0,0,1-.32-.89,10.44,10.44,0,0,1-.08-1.6v-3.75h-1v-1.82h1v-1.71l2.29-1.33v3Z" fill="#231f20"/><path d="M647.35,449h-2.27v-4.4a6.66,6.66,0,0,0-.15-1.8,1.27,1.27,0,0,0-1.26-.86,1.9,1.9,0,0,0-1.07.32,1.71,1.71,0,0,0-.64.86,7.36,7.36,0,0,0-.17,2V449h-2.28v-8.61h2.11v1.27a3.54,3.54,0,0,1,4.22-1.19,2.31,2.31,0,0,1,.94.69,2.65,2.65,0,0,1,.45,1,7.34,7.34,0,0,1,.12,1.53Z" fill="#231f20"/><path d="M654.64,446.21l2.27.38a3.73,3.73,0,0,1-1.38,1.9,4.08,4.08,0,0,1-2.36.65,3.86,3.86,0,0,1-3.32-1.46,4.94,4.94,0,0,1-.85-3,4.77,4.77,0,0,1,1.11-3.35,3.68,3.68,0,0,1,2.83-1.21,3.81,3.81,0,0,1,3,1.27A5.61,5.61,0,0,1,657,445.3h-5.71a2.34,2.34,0,0,0,.55,1.58,1.74,1.74,0,0,0,1.31.56,1.41,1.41,0,0,0,.9-.29A1.76,1.76,0,0,0,654.64,446.21Zm.13-2.3a2.16,2.16,0,0,0-.51-1.51,1.65,1.65,0,0,0-2.41,0,2.11,2.11,0,0,0-.48,1.48Z" fill="#231f20"/><path d="M661.07,449h-2.28v-8.61h2.12v1.23a3.88,3.88,0,0,1,1-1.15,1.84,1.84,0,0,1,1-.27,2.85,2.85,0,0,1,1.5.43l-.71,2a2,2,0,0,0-1.07-.37,1.29,1.29,0,0,0-.81.26,1.88,1.88,0,0,0-.52.95,13.42,13.42,0,0,0-.19,2.89Z" fill="#231f20"/><path d="M565.72,156.69c0-6,0-12.05,0-18.07A6.56,6.56,0,0,1,571,132a6.42,6.42,0,0,1,1.38-.16h20.44a1,1,0,0,1,.79.36q5.77,6.47,11.56,12.92a1.34,1.34,0,0,1,.4,1c0,9.52,0,19,0,28.56a6.58,6.58,0,0,1-5.24,6.72,7.19,7.19,0,0,1-1.54.16H572.51a6.64,6.64,0,0,1-6.78-6.77c0-5.87,0-11.73,0-17.6Zm25-21.32h-18a3.15,3.15,0,0,0-3.43,3.41v35.81a3.15,3.15,0,0,0,3.43,3.41H598.6a3.15,3.15,0,0,0,3.41-3.42v-26c0-.18,0-.36,0-.6H590.71Zm3.55,2.89v6.17h5.53Z"/><path d="M573,155.62v-3.43h25.19v3.43Z"/><path d="M598.22,163.3H573v-3.46h25.19Z"/><path d="M573,170.94v-3.45h25.21v3.45Z"/><path d="M156.23,414.86a250.58,250.58,0,0,0,3.64,42.66,18.24,18.24,0,0,1,2-.5,246.08,246.08,0,0,1,3.41-100.65l-2-.36A249.37,249.37,0,0,0,156.23,414.86Z" fill="#1a1a1a"/><path d="M248,604.51a15.52,15.52,0,0,0-1.76,1.32,245.6,245.6,0,0,0,72.08,41.45V645A245.46,245.46,0,0,1,248,604.51Z" fill="#1a1a1a"/><path d="M505.79,638.09c.41.57.84,1.15,1.29,1.76A248.82,248.82,0,0,0,637.75,495.67h-2.22A246.81,246.81,0,0,1,505.79,638.09Z" fill="#1a1a1a"/><path d="M578.72,239.86a247.83,247.83,0,0,0-289.4-44.58,15.44,15.44,0,0,1,1.69,1.54,244,244,0,0,1,112.71-27.45c98.35,0,183.36,58.15,222.51,141.86l1.69-1.45A247.61,247.61,0,0,0,578.72,239.86Z" fill="#1a1a1a"/><path d="M521.39,171.17V159.1q-5.65-1.62-8.28-4.89a12.2,12.2,0,0,1-2.64-7.93,11.26,11.26,0,0,1,3-7.94,12.06,12.06,0,0,1,7.94-3.7v-2.85h4.18v2.85a12.36,12.36,0,0,1,7.28,3.13,12,12,0,0,1,3.46,6.9l-7.29,1a5.85,5.85,0,0,0-3.45-4.61v11.26q6.91,1.88,9.42,4.85a11.49,11.49,0,0,1,2.5,7.65,12.81,12.81,0,0,1-3.15,8.79,13.91,13.91,0,0,1-8.77,4.38v5.38h-4.18v-5.24a13.37,13.37,0,0,1-8.1-3.71,15.38,15.38,0,0,1-4-8.79l7.52-.81a9.46,9.46,0,0,0,1.73,4A7.85,7.85,0,0,0,521.39,171.17Zm0-30.25a5.4,5.4,0,0,0-2.71,2,5.08,5.08,0,0,0-1,3.05,4.86,4.86,0,0,0,.92,2.84,6.49,6.49,0,0,0,2.8,2.12Zm4.18,30.65a5.88,5.88,0,0,0,3.51-2,5.65,5.65,0,0,0,1.35-3.76,5.09,5.09,0,0,0-1.13-3.33,7.32,7.32,0,0,0-3.73-2.14Z" fill="#231f20"/><path d="M653.17,616q0-9,0-18.06a6.56,6.56,0,0,1,5.24-6.61,5.85,5.85,0,0,1,1.38-.16l20.44,0a1,1,0,0,1,.8.36q5.76,6.48,11.55,12.92a1.37,1.37,0,0,1,.4,1q0,14.28,0,28.57a6.71,6.71,0,0,1-6.78,6.87H660a6.64,6.64,0,0,1-6.78-6.78c0-5.86,0-11.73,0-17.59Zm25-21.31h-18a3.15,3.15,0,0,0-3.43,3.4v35.82a3.16,3.16,0,0,0,3.43,3.41H686a3.16,3.16,0,0,0,3.41-3.43q0-13,0-26c0-.18,0-.36,0-.59H678.15Zm3.56,2.89v6.17h5.52Z"/><path d="M660.46,615v-3.44h25.2V615Z"/><path d="M685.66,622.64H660.48v-3.46h25.18Z"/><path d="M660.46,630.28v-3.44h25.2v3.44Z"/><path d="M396.33,475.29q0-9,0-18.06a6.59,6.59,0,0,1,5.24-6.62,6.41,6.41,0,0,1,1.38-.15l20.45,0a1,1,0,0,1,.79.36q5.78,6.46,11.56,12.92a1.34,1.34,0,0,1,.39,1q0,14.28,0,28.57a6.57,6.57,0,0,1-5.24,6.71,7.26,7.26,0,0,1-1.54.16H403.11a6.65,6.65,0,0,1-6.78-6.78c0-5.86,0-11.73,0-17.6Zm25-21.32H403.27a3.15,3.15,0,0,0-3.42,3.41q0,17.91,0,35.81a3.15,3.15,0,0,0,3.42,3.41H429.2a3.16,3.16,0,0,0,3.42-3.42v-26c0-.18,0-.36,0-.59H421.32Zm3.55,2.89V463h5.52Z"/><path d="M403.63,474.23v-3.44h25.19v3.44Z"/><path d="M428.82,481.9H403.64v-3.46h25.18Z"/><path d="M403.62,489.54V486.1h25.2v3.44Z"/><text transform="translate(594.75 636.76)" font-size="59" fill="#231f20" font-family="Arial-BoldMT, Arial" font-weight="700">$</text><path d="M203.38,344.21l2.39.77a5.27,5.27,0,0,1-1.83,3,5.21,5.21,0,0,1-3.25,1,5.3,5.3,0,0,1-4-1.67,6.41,6.41,0,0,1-1.57-4.56,6.71,6.71,0,0,1,1.58-4.75,5.43,5.43,0,0,1,4.16-1.69,5.09,5.09,0,0,1,3.65,1.33,4.78,4.78,0,0,1,1.25,2.25l-2.45.59a2.57,2.57,0,0,0-.9-1.51,2.65,2.65,0,0,0-1.68-.55,2.8,2.8,0,0,0-2.21,1,4.77,4.77,0,0,0-.85,3.17,5.12,5.12,0,0,0,.84,3.31,2.73,2.73,0,0,0,2.17,1,2.53,2.53,0,0,0,1.7-.62A3.71,3.71,0,0,0,203.38,344.21Z" fill="#231f20"/><path d="M207.88,348.72V336.47h2.35v12.25Z" fill="#231f20"/><path d="M212.64,338.64v-2.17H215v2.17Zm0,10.08v-8.88H215v8.88Z" fill="#231f20"/><path d="M222.53,345.9l2.34.39a3.88,3.88,0,0,1-1.42,2,4.2,4.2,0,0,1-2.44.67,4,4,0,0,1-3.43-1.51,5.12,5.12,0,0,1-.87-3.06,4.92,4.92,0,0,1,1.15-3.46,3.81,3.81,0,0,1,2.92-1.25A3.93,3.93,0,0,1,223.9,341a5.77,5.77,0,0,1,1.1,4h-5.89a2.39,2.39,0,0,0,.57,1.62,1.76,1.76,0,0,0,1.36.58,1.43,1.43,0,0,0,.92-.3A1.87,1.87,0,0,0,222.53,345.9Zm.14-2.38a2.29,2.29,0,0,0-.53-1.55,1.69,1.69,0,0,0-2.49,0,2.16,2.16,0,0,0-.5,1.52Z" fill="#231f20"/><path d="M235,348.72h-2.35v-4.53a7,7,0,0,0-.15-1.86,1.36,1.36,0,0,0-.48-.66,1.46,1.46,0,0,0-.82-.23,1.87,1.87,0,0,0-1.09.33,1.69,1.69,0,0,0-.67.89,7.67,7.67,0,0,0-.18,2v4h-2.35v-8.88h2.18v1.31a3.58,3.58,0,0,1,2.93-1.51,3.63,3.63,0,0,1,1.42.28,2.4,2.4,0,0,1,1,.72,2.53,2.53,0,0,1,.46,1,7.15,7.15,0,0,1,.13,1.58Z" fill="#231f20"/><path d="M241.43,339.84v1.88h-1.6v3.57a7.35,7.35,0,0,0,0,1.27.52.52,0,0,0,.21.3.69.69,0,0,0,.39.11,3.06,3.06,0,0,0,1-.22l.2,1.82a4.78,4.78,0,0,1-1.86.35,3,3,0,0,1-1.14-.21,1.72,1.72,0,0,1-.75-.56,2.11,2.11,0,0,1-.33-.91,11.07,11.07,0,0,1-.08-1.65v-3.87H236.4v-1.88h1.07v-1.76l2.36-1.37v3.13Z" fill="#231f20"/><path d="M637.75,473.1a70.59,70.59,0,1,1,70.6-70.59A70.67,70.67,0,0,1,637.75,473.1Zm0-140.18a69.59,69.59,0,1,0,69.6,69.59A69.67,69.67,0,0,0,637.75,332.92Z" fill="#1a1a1a"/><path d="M637.75,473.6a71.09,71.09,0,1,1,71.1-71.09A71.17,71.17,0,0,1,637.75,473.6Zm-70.09-71.09a70.1,70.1,0,0,0,140.19,0,70.1,70.1,0,0,1-140.19,0Zm70.09-69.09a69.09,69.09,0,1,0,69.1,69.09A69.17,69.17,0,0,0,637.75,333.42Z" fill="#1a1a1a"/><path d="M623.91,373.55c-.72.27-1.27.45-1.79.68-6.62,3-13.23,6-19.88,9a2,2,0,0,0-1.43,2.25q.06,19.44,0,38.89v1.77c0,1.74.06,1.61-1.66,1.61h-7.1c-1.11,0-1.15,0-1.15-1,0-2.42-.28-2.06,2.06-2.08,2.57,0,2.57,0,2.57-2.5V383.22a10.26,10.26,0,0,0,0-1.24,1.81,1.81,0,0,1,1.31-2.14c4.17-1.81,8.3-3.74,12.44-5.62,1.13-.51,2.25-1.05,3.4-1.51a1.67,1.67,0,0,0,1.23-1.86c-.08-2.72,0-5.44-.05-8.16a2,2,0,0,1,1.37-2.12c8-3.8,16-7.66,24-11.49,1.23-.59,1-.78,2,.42,3.68,4.34,7.33,8.69,11,13a2.65,2.65,0,0,1,.7,1.91c0,1.48,0,3,0,4.44,0,.46.07.91.12,1.51,1.81-.81,3.49-1.53,5.14-2.32a1.13,1.13,0,0,1,1.54.28c3.73,4,7.49,7.91,11.21,11.89a3.21,3.21,0,0,1,.55,1.41,4.68,4.68,0,0,1,0,1.06q0,19.89,0,39.78c0,2.27-.1,2.15,2.11,2.14h.18c2.36,0,2.5.17,2.21,2.47,0,.42-.21.65-.65.65H625.5c-1.74,0-1.6.08-1.6-1.67q0-25.21,0-50.43Zm-5.81-3.32c1.68-.75,3.11-1.4,4.55-2,1.17-.51,1.17-.51,2.07.44,3.47,3.64,6.91,7.31,10.42,10.91a3.85,3.85,0,0,1,1.2,2.95q-.08,19.53,0,39.05c0,3.66-.77,3,3.24,3.05.12,0,.28,0,.34,0a2.24,2.24,0,0,0,.61-.7,2.33,2.33,0,0,0,0-.88q0-34.26,0-68.51a11.33,11.33,0,0,0-.15-1.32l-1.23.58L628,359.14l-8.79,4.22c-.46.23-1.07.35-1.07,1C618.09,366.26,618.1,368.13,618.1,370.23Zm41,3.25c-1.67.75-3.08,1.49-4.56,2A2.21,2.21,0,0,0,653,378c0,14.89,0,29.79,0,44.68,0,.24,0,.48,0,.71,0,1.19,0,1.21,1.17,1.23s2,0,3,0c2.18,0,2,.21,2-2V373.48Z" fill="#1a1a1a"/><path d="M604.66,393.68c0-1.74,0-3.27,0-4.79,0-.7.48-.88,1-1.1L613.8,384l4.72-2.21c0,.8,0,1.36,0,1.92,0,1.18,0,2.36,0,3.54,0,2.54.4,2-2,2.76C612.7,391.25,608.8,392.41,604.66,393.68Z" fill="#1a1a1a"/><path d="M611.68,427.69c-2,0-4,0-6,0-.78,0-1-.29-1-1,.05-1.42,0-2.84,0-4.25,0-.62.12-1,.87-1,4.08,0,8.15,0,12.22,0,.63,0,.83.27.82.85,0,1.54,0,3.07,0,4.61,0,.62-.28.82-.86.81Z" fill="#1a1a1a"/><path d="M618.55,408.74c0,2,0,3.82,0,5.64a.7.7,0,0,1-.72.8c-.23,0-.47.08-.7.09-3.78.16-7.55.34-11.33.48-1.09,0-1.12,0-1.14-1,0-1.18,0-2.36,0-3.54,0-.76.28-1,1-1.08,3.7-.36,7.39-.76,11.09-1.14Z" fill="#1a1a1a"/><path d="M618.56,395.3c0,2.12,0,4,0,5.89,0,.59-.08,1-.82,1.07-4.07.65-8.13,1.35-12.19,2-.55.09-.91,0-.9-.7,0-1.3-.34-2.75.13-3.85s2.24-1,3.44-1.4C611.58,397.29,615,396.34,618.56,395.3Z" fill="#1a1a1a"/><circle cx="411.35" cy="651.08" r="70.09" fill="#fff"/><path d="M411.35,721.67A70.59,70.59,0,1,1,482,651.08,70.67,70.67,0,0,1,411.35,721.67Zm0-140.18A69.59,69.59,0,1,0,481,651.08,69.67,69.67,0,0,0,411.35,581.49Z" fill="#1a1a1a"/><path d="M411.35,722.17a71.09,71.09,0,1,1,71.1-71.09A71.17,71.17,0,0,1,411.35,722.17Zm-70.09-71.09a70.1,70.1,0,0,0,140.19,0,70.1,70.1,0,0,1-140.19,0ZM411.35,582a69.09,69.09,0,1,0,69.1,69.09A69.17,69.17,0,0,0,411.35,582Z" fill="#1a1a1a"/><path d="M397.51,622.12c-.72.27-1.27.45-1.79.68-6.62,3-13.23,6-19.88,9a2,2,0,0,0-1.43,2.25q.06,19.44,0,38.89v1.78c0,1.74.06,1.6-1.66,1.6-2.37,0-4.74,0-7.1,0-1.11,0-1.15,0-1.15-1,0-2.42-.28-2.06,2.06-2.08,2.57,0,2.57,0,2.57-2.5V631.79a8.55,8.55,0,0,0,0-1.24,1.82,1.82,0,0,1,1.32-2.14c4.17-1.81,8.3-3.73,12.44-5.61,1.13-.52,2.25-1.06,3.4-1.52a1.66,1.66,0,0,0,1.23-1.85c-.08-2.72,0-5.45-.05-8.17a2,2,0,0,1,1.37-2.12c8-3.79,16-7.66,24-11.49,1.23-.59,1-.78,2,.43,3.68,4.33,7.33,8.68,11,13a2.67,2.67,0,0,1,.7,1.91c0,1.48,0,3,0,4.44,0,.46.07.91.12,1.52,1.81-.82,3.49-1.54,5.14-2.33a1.14,1.14,0,0,1,1.54.28c3.73,4,7.49,7.91,11.21,11.89a3.21,3.21,0,0,1,.55,1.41,4.69,4.69,0,0,1,0,1.06q0,19.89,0,39.78c0,2.27-.1,2.15,2.11,2.14h.17c2.37,0,2.51.17,2.22,2.47,0,.42-.21.65-.65.65H399.1c-1.74,0-1.6.08-1.6-1.67q0-25.21,0-50.43Zm-5.81-3.32,4.55-2c1.17-.51,1.17-.5,2.07.44,3.47,3.64,6.91,7.31,10.42,10.91a3.82,3.82,0,0,1,1.19,3q-.06,19.53,0,39c0,3.66-.77,3,3.24,3.06.11,0,.28,0,.34,0a2.24,2.24,0,0,0,.61-.7,2.33,2.33,0,0,0,0-.88q0-34.25,0-68.51a11,11,0,0,0-.15-1.31l-1.24.57-11.18,5.38-8.79,4.22c-.46.23-1.07.35-1.07,1C391.69,614.84,391.7,616.71,391.7,618.8Zm41.05,3.25c-1.67.76-3.08,1.49-4.56,2a2.19,2.19,0,0,0-1.64,2.47c.05,14.89,0,29.79,0,44.68,0,.24,0,.48,0,.71,0,1.19,0,1.21,1.17,1.23s2,0,3,0c2.18,0,2,.21,2-2V622.05Z" fill="#1a1a1a"/><path d="M378.26,642.25c0-1.74,0-3.27,0-4.79,0-.7.48-.88,1-1.1l8.19-3.79,4.72-2.2c0,.79,0,1.35,0,1.91,0,1.18,0,2.36,0,3.54,0,2.54.4,2-2,2.76C386.3,639.82,382.4,641,378.26,642.25Z" fill="#1a1a1a"/><path d="M385.28,676.26c-2,0-4,0-6,0-.78,0-1-.28-1-1,.05-1.42,0-2.84,0-4.25,0-.61.12-1,.87-1,4.07,0,8.15,0,12.22,0,.63,0,.83.26.82.85,0,1.53,0,3.07,0,4.6,0,.62-.28.82-.86.81Z" fill="#1a1a1a"/><path d="M392.15,657.31c0,2,0,3.82,0,5.65a.69.69,0,0,1-.72.79c-.23,0-.47.08-.7.09-3.78.16-7.55.34-11.33.48-1.09,0-1.12,0-1.14-1s0-2.36,0-3.54c0-.76.28-1,1-1.08,3.7-.35,7.39-.75,11.09-1.14C390.87,657.48,391.39,657.4,392.15,657.31Z" fill="#1a1a1a"/><path d="M392.16,643.87c0,2.13,0,4,0,5.89,0,.59-.08,1-.82,1.08-4.07.64-8.13,1.34-12.19,2-.55.09-.91,0-.9-.7,0-1.29-.34-2.75.13-3.85s2.24-1,3.44-1.4C385.18,645.86,388.58,644.91,392.16,643.87Z" fill="#1a1a1a"/><path d="M378.38,698.17V685.92h8.39V688h-5.92v2.9H386V693h-5.11v5.2Z" fill="#231f20"/><path d="M388.35,695.34l2.27-.25a1.69,1.69,0,0,0,.43,1,1.32,1.32,0,0,0,.93.33,1.52,1.52,0,0,0,1.24-.66,5.7,5.7,0,0,0,.65-2.78,2.79,2.79,0,0,1-2.21,1,3.3,3.3,0,0,1-2.5-1.12,4.05,4.05,0,0,1-1.05-2.9,4.14,4.14,0,0,1,1.11-3,3.77,3.77,0,0,1,2.82-1.14,3.81,3.81,0,0,1,3.06,1.44c.79,1,1.19,2.55,1.19,4.75s-.41,3.85-1.24,4.84a4,4,0,0,1-3.24,1.49,3.44,3.44,0,0,1-2.33-.76A3.65,3.65,0,0,1,388.35,695.34Zm5.31-5.13a2.66,2.66,0,0,0-.52-1.76,1.54,1.54,0,0,0-1.21-.63,1.36,1.36,0,0,0-1.08.51,3.49,3.49,0,0,0,0,3.43,1.47,1.47,0,0,0,1.17.56,1.45,1.45,0,0,0,1.14-.54A2.34,2.34,0,0,0,393.66,690.21Z" fill="#231f20"/><path d="M405.85,698.17V688h-3.64v-2.08H412V688h-3.63v10.17Z" fill="#231f20"/><path d="M417.4,695.35l2.34.39a3.89,3.89,0,0,1-1.43,2,4.18,4.18,0,0,1-2.44.68,4,4,0,0,1-3.42-1.52,5,5,0,0,1-.88-3.06,4.92,4.92,0,0,1,1.15-3.45,3.83,3.83,0,0,1,2.92-1.25,4,4,0,0,1,3.13,1.31,5.8,5.8,0,0,1,1.09,4H414a2.32,2.32,0,0,0,.57,1.63,1.76,1.76,0,0,0,1.35.58,1.44,1.44,0,0,0,.93-.3A1.86,1.86,0,0,0,417.4,695.35Zm.13-2.37a2.24,2.24,0,0,0-.53-1.55,1.59,1.59,0,0,0-1.22-.53,1.62,1.62,0,0,0-1.27.56A2.16,2.16,0,0,0,414,693Z" fill="#231f20"/><path d="M429.51,691.92l-2.31.42a1.7,1.7,0,0,0-.53-1,1.6,1.6,0,0,0-1.08-.35,1.77,1.77,0,0,0-1.4.6,3.17,3.17,0,0,0-.52,2,3.61,3.61,0,0,0,.53,2.23,1.77,1.77,0,0,0,1.43.65,1.59,1.59,0,0,0,1.09-.38,2.2,2.2,0,0,0,.6-1.31l2.31.4a4.1,4.1,0,0,1-1.38,2.39,4.21,4.21,0,0,1-2.73.82,4.07,4.07,0,0,1-3.11-1.23,5.63,5.63,0,0,1,0-6.83,4.13,4.13,0,0,1,3.14-1.22,4.27,4.27,0,0,1,2.58.7A3.83,3.83,0,0,1,429.51,691.92Z" fill="#231f20"/><path d="M433.63,685.92v4.51a3.52,3.52,0,0,1,4.18-1,2.36,2.36,0,0,1,1,.77,2.77,2.77,0,0,1,.45,1,8.3,8.3,0,0,1,.13,1.76v5.2H437v-4.68a6.93,6.93,0,0,0-.14-1.78,1.1,1.1,0,0,0-.47-.59,1.49,1.49,0,0,0-.85-.22,1.93,1.93,0,0,0-1,.28,1.62,1.62,0,0,0-.67.86,4.85,4.85,0,0,0-.22,1.69v4.44h-2.35V685.92Z" fill="#231f20"/><polygon points="169.16 368.73 166.65 350.84 155.06 364.16 163.03 363.01 169.16 368.73" fill="#1a1a1a"/><polygon points="312.6 510.45 295.31 515.69 310.25 525.08 307.88 517.39 312.6 510.45" fill="#1a1a1a"/><polygon points="514.65 626.81 501.77 639.47 519.36 640.86 513.7 635.14 514.65 626.81" fill="#1a1a1a"/><polygon points="614.5 302.94 629.22 313.41 627.5 295.84 622.87 302.42 614.5 302.94" fill="#1a1a1a"/><path d="M228.36,552.2l-20.52-9.76H187.28l-20.51,9.76s-12,4.39-11,17.16h83.55C240.54,556.71,228.36,552.2,228.36,552.2Z" fill="#1a1a1a" stroke="#1a1a1a" stroke-linejoin="round" stroke-width="1.14"/><path d="M208,542.44h0V520.59H187.28v21.85l-5.13,2.44s.41,9.71,15.72,9.91,16.86-9.07,16.86-9.07Z" fill="#f5f5f3" stroke="#1a1a1a" stroke-linejoin="round" stroke-width="1.14"/><path d="M187.44,527.41s1.74,8.81,9.41,9.83c8.83,1.16,11.18-9.61,11.18-9.61s-3.9,4.89-10.07,4.9A13.5,13.5,0,0,1,187.44,527.41Z" fill="#1a1a1a"/><path d="M182.15,513.77s.3-4.77-3.47-7a5.62,5.62,0,0,1-.91-9.36,1.53,1.53,0,0,0,.45-1.8,3.65,3.65,0,0,1,.53-3.54,3.58,3.58,0,0,1,3.82-1.39c2.9.4,2.07-2.79,2-5.15-.06-3.43,6-6,12.11-.18,0,0,1,1.44,4.23.53s9.81-2.94,14.51,1,.07,8.07,1.69,11.24,3.07,6.11-.46,8.82-3.5,8.54-3.5,8.54Z" fill="#1a1a1a"/><path d="M212.26,513.14a2.79,2.79,0,0,1,3.68-1.13c2.48,1.1,1.35,8.1-2.36,9a2.64,2.64,0,0,1-2.38-.73S212.11,515.11,212.26,513.14Z" fill="#f5f5f3" stroke="#1a1a1a" stroke-linejoin="round" stroke-width="1.14"/><path d="M183.17,513.14a2.46,2.46,0,0,0-3.36-1.13c-2.26,1.1-1.23,8.1,2.16,9a2.26,2.26,0,0,0,2.17-.73S183.3,515.11,183.17,513.14Z" fill="#f5f5f3" stroke="#1a1a1a" stroke-linejoin="round" stroke-width="1.14"/><path d="M212.72,506.5c0,4.22-.41,13-3,18.3-2.44,4.92-6.47,7.57-11.75,7.73s-9.23-1.88-12.38-8.27-3-17.68-3-17.68,0-15.09,14.91-15.09C213.19,491.49,212.72,506.5,212.72,506.5Z" fill="#f5f5f3" stroke="#1a1a1a" stroke-linejoin="round" stroke-width="1.14"/><path d="M182.87,512.31s3.95-11.87-.3-18.88L181,504.61Z" fill="#1a1a1a"/><path d="M184.49,500.27s1.65-6.39,7.63-2.72c3.56,2.19,11.74,6.31,20.6.52,0,0-4.95-8.14-16.44-8.15C181.28,489.92,184.49,500.27,184.49,500.27Z" fill="#1a1a1a"/><path d="M142,526.39a7.58,7.58,0,0,1-5.7-2.39c-4.28-4.5-3.87-13.67-3.85-14.06a10.53,10.53,0,0,1,2.56-7.14,9.69,9.69,0,0,1,7.33-2.71,8.49,8.49,0,0,1,6.55,2.5c2.62,2.84,2.37,7,2.34,7.36,0,.58.57,9.6-3.58,14.05A7.45,7.45,0,0,1,142,526.39Zm.34-25.86c-3,0-5.38.86-7,2.57a10.28,10.28,0,0,0-2.45,6.84c0,.12-.42,9.4,3.73,13.76A7.15,7.15,0,0,0,142,526a7,7,0,0,0,5.32-2.25c4.07-4.36,3.48-13.64,3.47-13.73v0s.31-4.29-2.22-7A8.08,8.08,0,0,0,142.38,500.53Z" fill="#1a1a1a"/><path d="M142,526.89a8,8,0,0,1-6.06-2.55c-4.45-4.67-4-14-4-14.43h0a11.07,11.07,0,0,1,2.7-7.45c1.81-1.91,4.4-2.87,7.69-2.87a9,9,0,0,1,6.92,2.66c2.74,3,2.51,7.26,2.47,7.74.07.93.52,9.81-3.72,14.35A7.89,7.89,0,0,1,142,526.89Zm.34-25.86a8.76,8.76,0,0,0-6.64,2.42,9.82,9.82,0,0,0-2.31,6.47c0,.42-.35,9.29,3.59,13.43a6.66,6.66,0,0,0,5,2.1,6.53,6.53,0,0,0,5-2.09c3.87-4.15,3.36-13,3.33-13.36v-.1c0-.17.26-4.12-2.09-6.67A7.62,7.62,0,0,0,142.38,501Z" fill="#1a1a1a"/><path d="M150.35,518.15c.68.94,2,.32,2.77-.91s1.13-3.68,0-4.35-2.07.71-2.07.71-.28,2.48-.48,3.41Z" fill="#f6f6f4"/><path d="M151.21,519.11a1.54,1.54,0,0,1-1.27-.67l-.13-.18.27-1.35c.2-.9.47-3.34.47-3.37v-.12l.08-.11a2.11,2.11,0,0,1,2.74-.85,2,2,0,0,1,.86,1.27,5.58,5.58,0,0,1-.69,3.78,3,3,0,0,1-2.28,1.59Zm-.32-1.11a.53.53,0,0,0,.34.1A2.15,2.15,0,0,0,152.7,517a4.55,4.55,0,0,0,.57-3,1,1,0,0,0-.4-.65c-.58-.34-1.15.24-1.34.47-.06.55-.29,2.5-.47,3.33Z" fill="#1a1a1a"/><path d="M151.21,518.83a1.28,1.28,0,0,1-1.05-.55l0-.08.24-1.23c.2-.91.47-3.37.47-3.4v-.05l0,0a1.85,1.85,0,0,1,2.38-.77,1.63,1.63,0,0,1,.73,1.1,5.27,5.27,0,0,1-.66,3.56,2.83,2.83,0,0,1-2.05,1.47Zm-.62-.74a.79.79,0,0,0,.65.29,2.4,2.4,0,0,0,1.69-1.25,4.86,4.86,0,0,0,.61-3.22,1.25,1.25,0,0,0-.53-.82c-.84-.5-1.58.38-1.75.59,0,.4-.28,2.52-.47,3.38Z" fill="#1a1a1a"/><path d="M151.21,519.33a1.75,1.75,0,0,1-1.45-.76l-.13-.17v-.3l.24-1.23c.18-.83.44-3.12.47-3.34v-.13l.08-.16a2.31,2.31,0,0,1,3.07-1,2.15,2.15,0,0,1,1,1.41,5.82,5.82,0,0,1-.72,4,3.29,3.29,0,0,1-2.46,1.7Zm-.07-1.45h.08a2,2,0,0,0,1.29-1,4.25,4.25,0,0,0,.54-2.84.8.8,0,0,0-.3-.5c-.4-.24-.81.14-1,.37-.07.63-.28,2.46-.46,3.28Z" fill="#1a1a1a"/><path d="M150.75,516h-.05a.12.12,0,0,1-.06-.15c.94-1.94,2.38-1.52,2.39-1.52a.11.11,0,1,1-.06.22c-.05,0-1.28-.36-2.12,1.39A.12.12,0,0,1,150.75,516Z" fill="#1a1a1a"/><path d="M150.75,516.5h-.12l-.34-.16-.19-.45.09-.27c1.13-2.34,3-1.78,3-1.77a.61.61,0,0,1,.4.75.63.63,0,0,1-.76.42c-.09,0-.89-.2-1.53,1.13A.63.63,0,0,1,150.75,516.5Z" fill="#1a1a1a"/><path d="M151.91,516.92l-.07,0a.12.12,0,0,1,0-.16,1,1,0,0,0,.27-.83,1.46,1.46,0,0,0-.71-.85.11.11,0,0,1,0-.15.11.11,0,0,1,.15,0,1.7,1.7,0,0,1,.82,1,1.2,1.2,0,0,1-.32,1A.1.1,0,0,1,151.91,516.92Z" fill="#1a1a1a"/><path d="M151.91,517.42h-.18l-.21-.14a.62.62,0,0,1-.08-.86.56.56,0,0,0,.17-.42c0-.21-.33-.43-.46-.5a.62.62,0,0,1-.24-.83l.09-.18.47-.18.26.11a2.18,2.18,0,0,1,1.08,1.34,1.69,1.69,0,0,1-.42,1.44l-.15.18Zm-.28-2.8h0Z" fill="#1a1a1a"/><path d="M132.55,518.82h-.05a2.74,2.74,0,0,1-2-1.46,5.32,5.32,0,0,1-.66-3.56,1.67,1.67,0,0,1,.74-1.1,1.84,1.84,0,0,1,2.37.77.22.22,0,0,1-.05.31.24.24,0,0,1-.32,0c0-.05-.84-1.19-1.77-.64a1.22,1.22,0,0,0-.53.82,4.8,4.8,0,0,0,.6,3.22,2.4,2.4,0,0,0,1.63,1.24.75.75,0,0,0,.69-.37.23.23,0,0,1,.32,0,.22.22,0,0,1,.05.31A1.26,1.26,0,0,1,132.55,518.82Z" fill="#1a1a1a"/><path d="M132.55,519.32h-.06a3.19,3.19,0,0,1-2.4-1.69,5.76,5.76,0,0,1-.72-4,2.11,2.11,0,0,1,1-1.41,2.28,2.28,0,0,1,3,.92.71.71,0,0,1-.18,1,.72.72,0,0,1-1-.17s-.58-.82-1.12-.5a.83.83,0,0,0-.3.5,4.31,4.31,0,0,0,.55,2.84,2,2,0,0,0,1.22,1c.05,0,.15,0,.27-.16a.73.73,0,0,1,1-.16.71.71,0,0,1,.16,1A1.73,1.73,0,0,1,132.55,519.32Z" fill="#1a1a1a"/><path d="M153.43,534.73h-.05c-.28-.06-6.87-1.54-7.37-3.85V525a.23.23,0,1,1,.45,0v5.84c.4,1.68,5.19,3.08,7,3.49a.22.22,0,0,1,.17.26A.22.22,0,0,1,153.43,534.73Z" fill="#1a1a1a"/><path d="M153.43,535.23l-.15,0c-1.21-.26-7.21-1.71-7.76-4.23v-6a.73.73,0,0,1,.72-.73.73.73,0,0,1,.73.73v5.77c.37,1.18,4.15,2.52,6.63,3.07a.72.72,0,0,1-.16,1.43Z" fill="#1a1a1a"/><path d="M130.87,534.71a.22.22,0,0,1-.22-.19.22.22,0,0,1,.18-.25c4.54-.79,6.46-3.14,6.74-3.52v-5.81a.22.22,0,0,1,.22-.22.22.22,0,0,1,.23.22v5.88a.2.2,0,0,1,0,.13c-.08.12-2,2.87-7.07,3.76Z" fill="#1a1a1a"/><path d="M130.87,535.21a.72.72,0,0,1-.71-.6.7.7,0,0,1,.12-.54.75.75,0,0,1,.47-.3,10.42,10.42,0,0,0,6.32-3.19v-5.64a.72.72,0,0,1,.72-.72.73.73,0,0,1,.73.72v5.88a.68.68,0,0,1-.12.4c-.09.13-2.1,3.06-7.41,4Z" fill="#1a1a1a"/><path d="M163.71,548.52H120.66a.22.22,0,0,1-.22-.23c0-8,8.28-13,9.94-13.93a.85.85,0,0,1,.87,0c9.92,6.51,19.08,1.76,21.66.14a1.3,1.3,0,0,1,1.36,0c2.27,1.31,9.66,6.2,9.66,13.77A.22.22,0,0,1,163.71,548.52Zm-42.82-.45h42.59c-.15-7.21-7.24-11.89-9.43-13.16a.84.84,0,0,0-.9,0c-2.63,1.64-12,6.5-22.15-.15a.38.38,0,0,0-.4,0C129,535.65,121.05,540.47,120.89,548.07Z" fill="#1a1a1a"/><path d="M163.71,549H120.66a.73.73,0,0,1-.72-.73c0-8.26,8.49-13.42,10.19-14.37a1.36,1.36,0,0,1,1.39.05c9.68,6.35,18.61,1.71,21.12.14a1.81,1.81,0,0,1,1.88,0c2.33,1.36,9.91,6.37,9.91,14.21A.73.73,0,0,1,163.71,549Zm-42.3-1.45H163c-.46-6.66-7.1-11-9.16-12.23a.39.39,0,0,0-.39,0c-2.69,1.68-12.26,6.64-22.63-.12C129.14,536.15,121.89,540.61,121.41,547.57Z" fill="#1a1a1a"/><path d="M142,535.73a17.66,17.66,0,0,1-8.15-1.85.24.24,0,0,1-.08-.31.23.23,0,0,1,.31-.08c.07,0,7.11,4,16.24,0a.22.22,0,0,1,.29.11.23.23,0,0,1-.11.3A20.9,20.9,0,0,1,142,535.73Z" fill="#1a1a1a"/><path d="M142,536.23a18.21,18.21,0,0,1-8.4-1.92.74.74,0,0,1-.26-1,.74.74,0,0,1,.44-.33.71.71,0,0,1,.55.07c.07,0,6.93,3.87,15.78-.06a.73.73,0,0,1,1,.37.73.73,0,0,1-.37,1A21.37,21.37,0,0,1,142,536.23Z" fill="#1a1a1a"/><path d="M137.83,525.26s1.75,3.92,5.3,3.67a3.34,3.34,0,0,0,3.14-2.55l-.25-1.12S142.82,527.53,137.83,525.26Z" fill="#1a1a1a"/><path d="M142.78,529.44c-3.59,0-5.33-3.81-5.41-4l-.54-1.21,1.21.55c4.68,2.13,7.66.07,7.69.05l.61-.44.44,2,0,.11a3.81,3.81,0,0,1-3.62,2.93ZM139,526.26a4.78,4.78,0,0,0,4.07,2.17,2.83,2.83,0,0,0,2.66-2.06l-.08-.35A9,9,0,0,1,139,526.26Z" fill="#1a1a1a"/><path d="M160.56,519.42a7.06,7.06,0,0,0-.55-1.1,10.38,10.38,0,0,1-1.07-2.06,4.35,4.35,0,0,1,.09-1.79c.15-.61.35-1.23.49-1.88h0a4.55,4.55,0,0,0-.34-2.3,5.81,5.81,0,0,0-1.35-1.86,8.93,8.93,0,0,0-1.84-1.34l-.48-.26a2.27,2.27,0,0,1-.4-.29,1.2,1.2,0,0,1-.42-.77h0v0a24.19,24.19,0,0,0-.56-3.92,5.56,5.56,0,0,0-.87-1.84,6.06,6.06,0,0,0-1.46-1.4,9.18,9.18,0,0,0-3.66-1.57,8.8,8.8,0,0,0-2.29-.1,5.84,5.84,0,0,0-6,2.78c-6.57-.42-9.14,6.29-8.85,9.75a11.7,11.7,0,0,0,2.29,5.92c-.53-1.71.57-5.22.57-5.22,4.57-2.66,5.86-5.94,6.18-8.1a3.23,3.23,0,0,1,3.26.66,3.57,3.57,0,0,1,.55,1.42,11.11,11.11,0,0,1,.15,1.64c0,.56,0,1.12.09,1.68,0,.28.07.56.13.85a2.44,2.44,0,0,0,.12.42,1.72,1.72,0,0,0,.23.42,1.75,1.75,0,0,0,.76.54,5.13,5.13,0,0,0,.82.25,3.39,3.39,0,0,1,1.44.58h0a.33.33,0,0,1,.18.31,1.12,1.12,0,0,1,0,.24c0,.08,0,.17-.05.29-.16.53-.3,1.07-.41,1.62a7.41,7.41,0,0,0-.18,1.71,3.71,3.71,0,0,0,.41,1.71,3,3,0,0,0,1.24,1.2,1,1,0,0,1,.24.54,1,1,0,0,1,0,.3.58.58,0,0,1-.05.14.21.21,0,0,1,0,.07l-.05.08L148.1,520c-.54.89-1.08,1.79-1.57,2.73a16.22,16.22,0,0,0-1.24,2.91,12,12,0,0,0-.55,3.13h0a6.59,6.59,0,0,0,1.16,3.29,5.13,5.13,0,0,0,1.21,1.25,4.64,4.64,0,0,0,1.57.75,4.94,4.94,0,0,1-2.63-2.1,6.39,6.39,0,0,1-.71-1.55,7,7,0,0,1-.29-1.65,11.85,11.85,0,0,1,.62-3,19.85,19.85,0,0,1,1.26-2.83c.49-.91,1-1.8,1.59-2.68l.84-1.34,0-.08a.37.37,0,0,0,.05-.11,1,1,0,0,0,.08-.23,1.3,1.3,0,0,0,0-.48,1.61,1.61,0,0,0-.37-.84l0,0,0,0a2.68,2.68,0,0,1-1.08-1,3.21,3.21,0,0,1-.37-1.48,7.14,7.14,0,0,1,.15-1.59c.11-.54.25-1.07.39-1.6v0l.05-.26a2,2,0,0,0,0-.36.8.8,0,0,0-.12-.4.78.78,0,0,0-.29-.28l0,0a2.65,2.65,0,0,0-.88-.46,3.56,3.56,0,0,1,.78.14c1.76.55-1.25,5.27,1.18,6.91s.38,2-1.94,7.15-.74,9.06,3.05,10.17,2.9-2.35,6.77-1.45c1,.23.81.28,1.62,1.09,0,0,3-4.31-.78-5.68s4.5-6.47,1.14-9.87,2.88-6.74-3.05-10.43c-4.41-2.75-.51-3.93-4-8.14a9.34,9.34,0,0,0-4.06-2.29c.1,0,.21,0,.31.06a8.65,8.65,0,0,1,3.48,1.57,6.22,6.22,0,0,1,1.34,1.32,5.22,5.22,0,0,1,.78,1.71,24.12,24.12,0,0,1,.52,3.85v0a1.68,1.68,0,0,0,.57,1.14,3,3,0,0,0,.49.37l.49.26a8.7,8.7,0,0,1,1.72,1.27,5.52,5.52,0,0,1,1.23,1.7,4,4,0,0,1,.32,2c-.12.61-.32,1.22-.47,1.86a4.69,4.69,0,0,0-.08,2v0h0a10.78,10.78,0,0,0,1.13,2.16,7.62,7.62,0,0,1,.53,1,3.08,3.08,0,0,1,.21,1.07,4.56,4.56,0,0,1-.49,1.5,16.12,16.12,0,0,1-.86,1.41c-.31.46-.63.92-.92,1.42a6.29,6.29,0,0,0-.66,1.58h0l0,.3c0,.1,0,.2,0,.3a1.16,1.16,0,0,0,.23.59,1.36,1.36,0,0,0,.51.36,3.8,3.8,0,0,0,.54.18,3.84,3.84,0,0,1,.51.19,3,3,0,0,1,.45.28l.11.08.1.09c.06.07.13.12.19.19l.15.22a1.27,1.27,0,0,1,.12.23,2.12,2.12,0,0,1,.13,1.06,5.09,5.09,0,0,1-.27,1.07c-.26.69-.59,1.36-.83,2.07.28-.69.64-1.34.92-2a5.15,5.15,0,0,0,.32-1.08,2.21,2.21,0,0,0-.1-1.14,2.24,2.24,0,0,0-.13-.27l-.16-.24c-.06-.08-.13-.14-.2-.22l-.1-.1-.11-.09a2.8,2.8,0,0,0-.49-.33,3.44,3.44,0,0,0-.53-.21,1.85,1.85,0,0,1-.9-.48,1.18,1.18,0,0,1-.13-1,5.93,5.93,0,0,1,.66-1.48c.28-.47.61-.92.93-1.38a14,14,0,0,0,.92-1.43,4.92,4.92,0,0,0,.57-1.64v0h0A3.52,3.52,0,0,0,160.56,519.42Zm-15.88-11a3.45,3.45,0,0,0,.2.43A1.54,1.54,0,0,1,144.68,508.38Z" fill="#1a1a1a"/><path d="M151.47,534.76a5.31,5.31,0,0,1-1.49-.24,7,7,0,0,1-1.26-.5l-.17.58a5.08,5.08,0,0,1-1.74-.83,5.89,5.89,0,0,1-1.32-1.36,7.09,7.09,0,0,1-1.25-3.55v-.1a12.78,12.78,0,0,1,.57-3.23,17.65,17.65,0,0,1,1.27-3c.47-.89,1-1.74,1.6-2.75l.87-1.44a.5.5,0,0,0,0-.16.51.51,0,0,0-.09-.22,3.52,3.52,0,0,1-1.34-1.34,4.34,4.34,0,0,1-.47-1.94,8.28,8.28,0,0,1,.19-1.82c.11-.58.27-1.14.42-1.66a.53.53,0,0,1,0-.18.93.93,0,0,0,0-.14h0a3,3,0,0,0-1.24-.49,5.85,5.85,0,0,1-.9-.28,2.24,2.24,0,0,1-1-.7l-.13-.19-1.24-.41,1.09.09,0,0a2.75,2.75,0,0,1-.1-.34l0-.12a8.52,8.52,0,0,1-.15-.93c0-.47-.06-.94-.08-1.41v-.3a12.52,12.52,0,0,0-.14-1.57,3.26,3.26,0,0,0-.47-1.23,2.6,2.6,0,0,0-2.41-.53c-.42,2.31-1.87,5.44-6.19,8-.32,1.06-.89,3.54-.52,4.75l.75,2.42-1.62-2a12.15,12.15,0,0,1-2.4-6.2,10.82,10.82,0,0,1,3-7.89,7.93,7.93,0,0,1,6.11-2.41,6.33,6.33,0,0,1,6.28-2.77,8.8,8.8,0,0,1,2.33.11,9.44,9.44,0,0,1,3.86,1.65,6.63,6.63,0,0,1,1.58,1.52,6.15,6.15,0,0,1,.94,2,18.08,18.08,0,0,1,.49,3.11c0,.3.05.6.09.89a.66.66,0,0,0,.26.48,1.44,1.44,0,0,0,.32.23l.46.25a9.73,9.73,0,0,1,2,1.41,6.44,6.44,0,0,1,1.46,2,5,5,0,0,1,.38,2.56,11.87,11.87,0,0,1-.3,1.18c-.07.26-.14.52-.2.77a3.68,3.68,0,0,0-.09,1.59,8.63,8.63,0,0,0,.84,1.61l.17.28a8.66,8.66,0,0,1,.59,1.18h0a3.94,3.94,0,0,1,.27,1.44v.1a5.48,5.48,0,0,1-.63,1.8,16.2,16.2,0,0,1-.95,1.48l-.12.17c-.28.39-.55.78-.79,1.18a5.57,5.57,0,0,0-.61,1.35.75.75,0,0,0,.05.52,1.56,1.56,0,0,0,.58.28l.13,0c.18.07.37.14.55.23a2.38,2.38,0,0,1,.51.34l.32.28-.12.17,0,0,.14-.14.16.17.19.29a1.05,1.05,0,0,1,.13.26l0,.1a2.78,2.78,0,0,1,.14,1.39,6.72,6.72,0,0,1-.35,1.19c-.15.36-.31.7-.47,1.05s-.32.65-.46,1l-.69-.26-.17.27-.35.49-.42-.43-.43-.45c-.32-.36-.32-.36-.94-.5a2.78,2.78,0,0,0-3,.68A3.36,3.36,0,0,1,151.47,534.76ZM145.23,509l1.87.15a3.52,3.52,0,0,1,.88.17c1.21.38,1,1.81.75,3.19s-.5,3.06.56,3.77c2,1.35,1.4,2.29.32,4a28,28,0,0,0-2.08,3.78c-1.17,2.58-1.36,5-.54,6.77a5,5,0,0,0,3.27,2.71,2.55,2.55,0,0,0,2.91-.57,3.77,3.77,0,0,1,3.83-.89,2.17,2.17,0,0,1,1.42.76,4.33,4.33,0,0,0,.62-3.05,2.16,2.16,0,0,0-1.48-1.34,1.91,1.91,0,0,1-1.26-1.12c-.34-1,.41-2.19,1.27-3.56,1.42-2.23,2.31-3.92,1-5.31-1.68-1.69-1.24-3.43-.85-5,.49-1.89.9-3.52-2.11-5.4C153,506.52,153,505.28,153,504a5.42,5.42,0,0,0-1.54-4.09,8.84,8.84,0,0,0-3.82-2.13l.08-.32a7.72,7.72,0,0,0-1.8,0,5.43,5.43,0,0,0-5.57,2.54l-.16.26-.3,0a6.91,6.91,0,0,0-5.64,2.1,9.89,9.89,0,0,0-2.68,7.11,11.25,11.25,0,0,0,1.18,4,17.44,17.44,0,0,1,.71-3.46l0-.19.17-.1c4.34-2.52,5.62-5.6,5.94-7.74l0-.33.33-.08a3.64,3.64,0,0,1,3.75.81,4,4,0,0,1,.67,1.67,11.84,11.84,0,0,1,.16,1.71V506c0,.44,0,.89.08,1.34a5.39,5.39,0,0,0,.12.79s0,.09,0,.15v0l.36-.13a2.29,2.29,0,0,0,.16.35l-.33.22,0,.05A1,1,0,0,0,145.23,509Zm3.69,9.69Z" fill="#1a1a1a"/><path d="M253.86,534.7l15.08.44c-4.52-9-3.2-30.77-3.2-30.77l-11.66-.48v0h-.45v0l-11.66.48s1.77,21.73-2.75,30.77Z" fill="#1a1a1a"/><path d="M248.5,529.47,237,536.17s-8.33,3.63-7.65,11.79h49.6c.64-7.91-7.65-11.79-7.65-11.79l-12-6.7" fill="#1a1a1a" stroke="#1a1a1a" stroke-linejoin="round" stroke-width="1.15"/><path d="M259.33,529.52V514.31H248.58v15.16h0L242.43,533s9.24,8.68,22.76-.07Z" fill="#f5f5f3" stroke="#1a1a1a" stroke-linejoin="round" stroke-width="1.02"/><path d="M248.58,520.9s.89,4.76,5.12,4.85c5.56.11,5.46-4.64,5.46-4.64s-.75,1.4-5.05,1.4C249.32,522.52,248.58,520.9,248.58,520.9Z" fill="#1a1a1a"/><ellipse cx="253.87" cy="504.37" rx="11.9" ry="11.74" fill="#1a1a1a"/><path d="M264.34,509.27a2.16,2.16,0,0,1,2.66-.7c1.79.67,1,5-1.71,5.51a2.15,2.15,0,0,1-1.72-.44S264.24,510.47,264.34,509.27Z" fill="#f5f5f3" stroke="#1a1a1a" stroke-linejoin="round" stroke-width="1.06"/><path d="M243.77,509.27a2.16,2.16,0,0,0-2.66-.7c-1.8.67-1,5,1.7,5.51a2.15,2.15,0,0,0,1.72-.44S243.87,510.47,243.77,509.27Z" fill="#f5f5f3" stroke="#1a1a1a" stroke-linejoin="round" stroke-width="1.06"/><path d="M264.51,505.57c0,2.75-.29,8.5-2.1,11.92a9,9,0,0,1-8.18,5c-3.68.1-6.42-1.23-8.62-5.39s-2.09-11.52-2.09-11.52,0-9.83,10.38-9.83C264.83,495.79,264.51,505.57,264.51,505.57Z" fill="#f5f5f3" stroke="#1a1a1a" stroke-linejoin="round" stroke-width="1.15"/><path d="M264.05,501a3.81,3.81,0,0,0-.23.45,8.56,8.56,0,0,0-5.87-5.66v0c-6.17-2.62-8.84-1-8.84-1-8.48,4.69-6.05,11.27-6.05,11.27h.09a6.46,6.46,0,0,0,.61,3.21,13.82,13.82,0,0,0,.93-3.23,15,15,0,0,0,12-7.68c.75,2,2.51,4.75,6.64,7.38a13.47,13.47,0,0,0,1,3.53C265.82,506.57,264.05,501,264.05,501Z" fill="#1a1a1a"/><path d="M186.94,588.81v-6.1h-2.18v-1.24h5.84v1.24h-2.18v6.1Z" fill="#231f20"/><path d="M193.86,587.12l1.41.24a2.31,2.31,0,0,1-.86,1.17,2.49,2.49,0,0,1-1.46.4,2.38,2.38,0,0,1-2-.9,3.08,3.08,0,0,1-.53-1.84,2.94,2.94,0,0,1,.69-2.07,2.28,2.28,0,0,1,1.75-.75,2.33,2.33,0,0,1,1.87.79,3.44,3.44,0,0,1,.66,2.4h-3.53a1.39,1.39,0,0,0,.35,1,1,1,0,0,0,.81.35.85.85,0,0,0,.55-.18A1.06,1.06,0,0,0,193.86,587.12Zm.08-1.42a1.35,1.35,0,0,0-.31-.93,1,1,0,0,0-1.5,0,1.29,1.29,0,0,0-.29.91Z" fill="#231f20"/><path d="M197.54,585.12l-1.28-.23a2,2,0,0,1,.74-1.15,2.8,2.8,0,0,1,1.57-.37,3.32,3.32,0,0,1,1.4.23,1.35,1.35,0,0,1,.65.56,3,3,0,0,1,.19,1.26l0,1.65a5.23,5.23,0,0,0,.07,1,2.89,2.89,0,0,0,.25.71h-1.39c0-.09-.08-.23-.14-.41a1.34,1.34,0,0,0-.05-.17,2.42,2.42,0,0,1-.77.53,2.29,2.29,0,0,1-.87.17,1.86,1.86,0,0,1-1.3-.44,1.61,1.61,0,0,1-.26-1.93,1.39,1.39,0,0,1,.61-.54,4.34,4.34,0,0,1,1.12-.33,7.84,7.84,0,0,0,1.36-.35v-.14a.72.72,0,0,0-.2-.58,1.21,1.21,0,0,0-.75-.17,1,1,0,0,0-.59.15A1,1,0,0,0,197.54,585.12Zm1.88,1.14a8,8,0,0,1-.85.21,2.8,2.8,0,0,0-.77.25.58.58,0,0,0-.27.49.7.7,0,0,0,.22.52.76.76,0,0,0,.56.21,1.19,1.19,0,0,0,.72-.25.89.89,0,0,0,.34-.46,2.71,2.71,0,0,0,0-.69Z" fill="#231f20"/><path d="M202.09,583.49h1.3v.73a2.09,2.09,0,0,1,1.66-.85,1.76,1.76,0,0,1,.88.21,1.66,1.66,0,0,1,.62.64,2.47,2.47,0,0,1,.75-.64,1.86,1.86,0,0,1,.87-.21,1.91,1.91,0,0,1,1,.24,1.5,1.5,0,0,1,.61.7,3,3,0,0,1,.14,1.1v3.4h-1.4v-3a2.17,2.17,0,0,0-.15-1,.67.67,0,0,0-.6-.3,1,1,0,0,0-.56.18,1,1,0,0,0-.37.53,3.66,3.66,0,0,0-.12,1.1v2.55h-1.4V585.9a3.93,3.93,0,0,0-.08-1,.66.66,0,0,0-.23-.34.78.78,0,0,0-.43-.11,1,1,0,0,0-.59.18.91.91,0,0,0-.37.5,3.64,3.64,0,0,0-.11,1.1v2.58h-1.41Z" fill="#231f20"/><path d="M365.62,525.25a244,244,0,0,1-63.79-8.76l.52-1.93c74.71,20.23,132.66,1,168.12-18.61,38.46-21.32,59.52-47.77,59.73-48l1.57,1.24c-.21.27-21.47,27-60.25,48.51a216.26,216.26,0,0,1-105.9,27.59Z" fill="#1a1a1a"/><path d="M119.5,412H93.7a18.93,18.93,0,0,1,2.61,4.29H119.5Z"/><path d="M119.5,425.73v-4.26H97.72a20.39,20.39,0,0,1,.13,2.23,19.42,19.42,0,0,1-.11,2Z"/><path d="M88.3,406.77h31.2v-4.26H88.3Z"/><path d="M128.08,393.76q-7.17-8-14.32-16a1.18,1.18,0,0,0-1-.45l-25.31,0a7.54,7.54,0,0,0-1.71.2,8.12,8.12,0,0,0-6.49,8.19q0,9.69,0,19.39a18.9,18.9,0,0,1,4.35.51V385.91a3.9,3.9,0,0,1,4.24-4.22h22.35v15.64h13.94c0,.29,0,.51,0,.74v32.17a3.91,3.91,0,0,1-4.23,4.24H94.41A18.84,18.84,0,0,1,90,438.84q15.06,0,30.12,0a8.31,8.31,0,0,0,8.39-8.51q0-17.69,0-35.38A1.65,1.65,0,0,0,128.08,393.76Zm-13.47-.85v-7.64l6.84,7.64Z"/><path d="M76.61,409.94A14.48,14.48,0,1,0,91.1,424.42,14.5,14.5,0,0,0,76.61,409.94Zm0,27.1a12.63,12.63,0,1,1,12.63-12.62A12.63,12.63,0,0,1,76.61,437Z"/><polygon points="72.87 426.4 69.74 423.28 67.12 425.91 72.87 431.66 84.72 419.81 82.09 417.18 72.87 426.4"/><path d="M220.78,252.49A19.65,19.65,0,0,1,206,246.26c-11.6-12.17-10.5-37.63-10.45-38.71,0-.43-.49-11.87,7-19.77,4.52-4.75,11-7.16,19.12-7.16,7.3,0,13.05,2.22,17.09,6.6,7.16,7.74,6.48,19.42,6.41,20.36.1,1.57,1.52,26.65-9.74,38.69A19.31,19.31,0,0,1,220.78,252.49Zm.91-70.68c-7.83,0-14,2.28-18.25,6.78-7.18,7.52-6.72,18.84-6.71,19,0,.31-1.12,26.09,10.12,37.9a18.56,18.56,0,0,0,13.93,5.86,18.17,18.17,0,0,0,13.8-5.85c11-11.79,9.44-37.58,9.43-37.84v-.09c0-.12.84-12-6.11-19.52C234.09,183.9,228.64,181.81,221.69,181.81Z" fill="#010101"/><path d="M245.19,230.12a3.27,3.27,0,0,1-2.71-1.46l1-.7a2.13,2.13,0,0,0,1.84,1c1.38-.05,3.07-1.35,4.29-3.3a12.7,12.7,0,0,0,1.6-8.51,3.2,3.2,0,0,0-1.4-2.16c-2.46-1.46-4.6,1.56-4.69,1.69l-1-.67c1-1.42,3.55-3.66,6.28-2.05a4.43,4.43,0,0,1,1.94,2.91,14,14,0,0,1-1.74,9.42c-1.45,2.31-3.46,3.79-5.26,3.85Z" fill="#010101"/><path d="M195.71,230.12h-.12c-1.8-.06-3.82-1.54-5.26-3.85a14.06,14.06,0,0,1-1.75-9.42,4.45,4.45,0,0,1,1.95-2.91c2.73-1.61,5.3.63,6.27,2.05l-1,.67c-.09-.13-2.24-3.15-4.7-1.69a3.23,3.23,0,0,0-1.39,2.16,12.7,12.7,0,0,0,1.59,8.51c1.22,2,2.91,3.25,4.3,3.3a2.07,2.07,0,0,0,1.84-1l1,.7A3.29,3.29,0,0,1,195.71,230.12Z" fill="#010101"/><path d="M225.13,200.75c.19.29,1.36,4,1.36,4h12.8l-4.35-2.46a9.6,9.6,0,0,0-3.52-1Z" fill="#010101"/><path d="M238.13,266.74a.6.6,0,0,1-.59-.57l-1.1-21.9a.59.59,0,0,1,.56-.62.6.6,0,0,1,.63.56l1.1,21.9a.61.61,0,0,1-.57.63Z" fill="#010101"/><path d="M204.4,262.27a.59.59,0,0,1-.59-.59V244.24a.6.6,0,0,1,1.19,0v17.44A.59.59,0,0,1,204.4,262.27Z" fill="#010101"/><path d="M204.76,244.79s4.82,7.52,12.61,11c5.66,2.53,13,1.55,16.82-2.59a13.49,13.49,0,0,0,3.37-9.56s-6.24,6.46-15.54,6.76S204.76,244.79,204.76,244.79Z" fill="#010101"/><path d="M211,190.84s-.46,21.83,31,23l.91,13.1s7.64-12.48,6.67-26C248.18,181.88,214.4,165.8,211,190.84Z" fill="#010101"/><path d="M209.49,188.4s-11.87,10.95-11,38.06c0,0-3.9-7.58-2.65-13.31-1.84-1.38-3.78.44-3.78.44s-8.27-36.53,23.67-31C245.14,187.64,209.49,188.4,209.49,188.4Z" fill="#010101"/><path d="M212.11,192.45a19.36,19.36,0,0,0,.92,4.82,23.35,23.35,0,0,0,8.58,11.92,31.35,31.35,0,0,0,8.9,4.55,49.27,49.27,0,0,0,9.86,2.15l-2.53-.24-2.51-.36c-.82-.17-1.66-.33-2.48-.52s-1.65-.39-2.46-.66a32.07,32.07,0,0,1-9.19-4.37,24.57,24.57,0,0,1-6.93-7.49,22,22,0,0,1-3.09-9.79Z" fill="#010101"/><path d="M283.08,320H158.74a.74.74,0,0,1-.6-.3A.73.73,0,0,1,158,319c1.32-4.71,13-46.12,16.11-49.32,3.27-3.37,32.73-10.31,46.78-10.31s43.51,6.94,46.78,10.31c3.11,3.2,14.79,44.61,16.11,49.32a.73.73,0,0,1-.12.65A.74.74,0,0,1,283.08,320Zm-123.35-1.5H282.09c-5.17-18.36-13.36-45.55-15.47-47.72-2.71-2.78-31.74-9.86-45.71-9.86s-43,7.08-45.71,9.86C173.09,272.91,164.9,300.1,159.73,318.46Z" fill="#010101"/><path d="M158.74,319.21s12.7-46.18,15.68-49.49S203.68,262,203.68,262l7.18,57.2H158.74" fill="#010101"/><path d="M238.14,262,231,319.21h52.12S270.38,273,267.4,269.72,238.14,262,238.14,262Z" fill="#010101"/><path d="M227,297.17q-1-10.55-2.05-21.07c-.13-1.39-.29-2.77-.43-4.14h-7.33c-.1.91-.19,1.77-.27,2.64-.46,4.81-.91,9.63-1.38,14.45q-.79,8.24-1.62,16.49c-.46,4.72-.91,9.44-1.38,14.15,5.34.32,11-.54,16.53-.78-.11-1.09-.22-2.19-.32-3.28C228.16,309.47,227.59,303.32,227,297.17Z" fill="#010101"/><path d="M211.21,260.51h19.22c-.12.25-.2.47-.31.67-1.74,3-3.49,6.05-5.22,9.08a1.17,1.17,0,0,1-1.17.71c-1.93,0-3.87,0-5.8,0a1.33,1.33,0,0,1-1-.49C215,267.19,213.18,263.92,211.21,260.51Z" fill="#010101"/></svg>