<svg id="Layer_1" data-name="Layer 1" xmlns="http://www.w3.org/2000/svg" viewBox="0 0 833.14 841.89"><path d="M434.87,362.28q0-9,0-18.06a6.57,6.57,0,0,1,5.24-6.61,6.42,6.42,0,0,1,1.38-.16h20.44a1,1,0,0,1,.8.36q5.76,6.46,11.55,12.92a1.33,1.33,0,0,1,.4.95q0,14.29,0,28.57a6.59,6.59,0,0,1-5.25,6.72,7.1,7.1,0,0,1-1.53.16H441.65a6.64,6.64,0,0,1-6.78-6.77c0-5.87,0-11.73,0-17.6Zm25-21.31h-18a3.15,3.15,0,0,0-3.43,3.41v35.81a3.15,3.15,0,0,0,3.43,3.41h25.93a3.16,3.16,0,0,0,3.41-3.42q0-13,0-26c0-.18,0-.37,0-.6H459.85Zm3.56,2.89V350h5.52Z"/><path d="M442.16,361.22v-3.43h25.2v3.43Z"/><path d="M467.36,368.9H442.18v-3.47h25.18Z"/><path d="M442.16,376.54v-3.45h25.2v3.45Z"/><path d="M454.61,649.48l-34.22-16.27h-34.3l-34.22,16.27s-20,7.33-18.32,28.63H472.93C474.94,657,454.61,649.48,454.61,649.48Z" fill="#1a1a1a" stroke="#1a1a1a" stroke-linejoin="round" stroke-width="1.14"/><path d="M420.7,633.21h0V596.76H386.09v36.45l-8.56,4.07s.68,16.19,26.23,16.53,28.11-15.14,28.11-15.14Z" fill="#f5f5f3" stroke="#1a1a1a" stroke-linejoin="round" stroke-width="1.14"/><path d="M386.35,608.13s2.9,14.7,15.7,16.39c14.72,2,18.65-16,18.65-16s-6.51,8.16-16.8,8.17A22.54,22.54,0,0,1,386.35,608.13Z" fill="#1a1a1a"/><path d="M377.53,585.37s.49-8-5.8-11.6A9.34,9.34,0,0,1,368,560.69a9.23,9.23,0,0,1,2.2-2.54,2.54,2.54,0,0,0,.75-3,6.12,6.12,0,0,1,.9-5.92c1.25-1.31,2.36-2.85,6.37-2.3,4.83.66,3.46-4.66,3.39-8.6-.1-5.72,9.93-10,20.19-.3,0,0,1.67,2.4,7.06.89s16.37-4.91,24.2,1.63.13,13.46,2.82,18.75,5.14,10.19-.77,14.72-5.82,14.23-5.82,14.23Z" fill="#1a1a1a"/><path d="M427.75,584.33a4.65,4.65,0,0,1,6.14-1.89c4.14,1.83,2.27,13.52-3.94,15a4.37,4.37,0,0,1-4-1.21S427.51,587.61,427.75,584.33Z" fill="#f5f5f3" stroke="#1a1a1a" stroke-linejoin="round" stroke-width="1.14"/><path d="M379.23,584.33s-1.83-3.71-5.6-1.89-2.07,13.52,3.59,15a3.75,3.75,0,0,0,3.62-1.21S379.45,587.61,379.23,584.33Z" fill="#f5f5f3" stroke="#1a1a1a" stroke-linejoin="round" stroke-width="1.14"/><path d="M428.52,573.24c0,7-.68,21.78-5,30.53-4.06,8.22-10.79,12.64-19.6,12.9s-15.39-3.14-20.65-13.8-5-29.5-5-29.5,0-25.16,24.88-25.16C429.3,548.21,428.52,573.24,428.52,573.24Z" fill="#f5f5f3" stroke="#1a1a1a" stroke-linejoin="round" stroke-width="1.14"/><path d="M378.73,583s6.59-19.81-.5-31.51l-2.67,18.66Z" fill="#1a1a1a"/><path d="M381.43,562.86s2.76-10.67,12.72-4.54c6,3.65,19.59,10.52,34.38.87,0,0-8.26-13.59-27.43-13.6C376.07,545.59,381.43,562.86,381.43,562.86Z" fill="#1a1a1a"/><path d="M367.94,720.41V708.15h5.21a8.87,8.87,0,0,1,2.85.33,2.84,2.84,0,0,1,1.43,1.18,3.56,3.56,0,0,1,.53,1.93,3.28,3.28,0,0,1-.81,2.28,4,4,0,0,1-2.42,1.13,5.65,5.65,0,0,1,1.32,1,13.18,13.18,0,0,1,1.41,2l1.5,2.39h-3l-1.79-2.67a17.81,17.81,0,0,0-1.3-1.8,1.86,1.86,0,0,0-.75-.51,4.07,4.07,0,0,0-1.24-.14h-.5v5.12Zm2.48-7.08h1.83a9,9,0,0,0,2.22-.15,1.29,1.29,0,0,0,.69-.51,1.58,1.58,0,0,0,.25-.92,1.45,1.45,0,0,0-.33-1,1.5,1.5,0,0,0-.93-.48c-.2,0-.8,0-1.8,0h-1.93Z" fill="#231f20"/><path d="M385.42,717.58l2.34.39a3.83,3.83,0,0,1-1.43,2,4.17,4.17,0,0,1-2.43.68,4,4,0,0,1-3.43-1.52,5.09,5.09,0,0,1-.88-3.06,4.88,4.88,0,0,1,1.16-3.45,3.79,3.79,0,0,1,2.91-1.25,4,4,0,0,1,3.13,1.31,5.75,5.75,0,0,1,1.09,4H382a2.41,2.41,0,0,0,.57,1.63,1.76,1.76,0,0,0,1.35.58,1.44,1.44,0,0,0,.93-.3A1.86,1.86,0,0,0,385.42,717.58Zm.13-2.37a2.24,2.24,0,0,0-.53-1.55,1.59,1.59,0,0,0-1.22-.53,1.62,1.62,0,0,0-1.27.56,2.21,2.21,0,0,0-.49,1.52Z" fill="#231f20"/><path d="M389,717.87l2.36-.36a1.68,1.68,0,0,0,.61,1,2,2,0,0,0,1.28.36,2.33,2.33,0,0,0,1.37-.33.75.75,0,0,0,.31-.63.6.6,0,0,0-.16-.44,1.73,1.73,0,0,0-.79-.31,12.49,12.49,0,0,1-3.6-1.15,2.28,2.28,0,0,1-1.05-2,2.44,2.44,0,0,1,.91-1.93,4.2,4.2,0,0,1,2.82-.79,5,5,0,0,1,2.71.59,3,3,0,0,1,1.22,1.76l-2.22.41a1.34,1.34,0,0,0-.54-.8,2,2,0,0,0-1.13-.27,2.49,2.49,0,0,0-1.33.26.54.54,0,0,0-.26.47.51.51,0,0,0,.23.43,8.83,8.83,0,0,0,2.19.66,6.48,6.48,0,0,1,2.62,1,2.18,2.18,0,0,1,.74,1.75,2.7,2.7,0,0,1-1,2.1,4.55,4.55,0,0,1-3,.88,5,5,0,0,1-2.87-.74A3.43,3.43,0,0,1,389,717.87Z" fill="#231f20"/><path d="M398.77,715.84a4.72,4.72,0,0,1,.58-2.26,3.92,3.92,0,0,1,1.63-1.67,4.8,4.8,0,0,1,2.36-.58,4.41,4.41,0,0,1,3.3,1.31,4.9,4.9,0,0,1,0,6.64,4.4,4.4,0,0,1-3.27,1.33,5.16,5.16,0,0,1-2.33-.56,3.69,3.69,0,0,1-1.68-1.61A5.34,5.34,0,0,1,398.77,715.84Zm2.41.13a2.93,2.93,0,0,0,.63,2,2,2,0,0,0,3.08,0,3,3,0,0,0,.63-2,2.87,2.87,0,0,0-.63-2,2,2,0,0,0-3.08,0A2.91,2.91,0,0,0,401.18,716Z" fill="#231f20"/><path d="M415.61,720.41v-1.33a3.53,3.53,0,0,1-1.27,1.12,3.65,3.65,0,0,1-1.67.41,3.31,3.31,0,0,1-1.61-.4,2.31,2.31,0,0,1-1-1.1,4.93,4.93,0,0,1-.32-2v-5.62h2.35v4.08a10.94,10.94,0,0,0,.13,2.29,1.2,1.2,0,0,0,.47.67,1.42,1.42,0,0,0,.87.25,1.86,1.86,0,0,0,1.08-.33,1.77,1.77,0,0,0,.65-.82,9.54,9.54,0,0,0,.17-2.4v-3.74h2.35v8.88Z" fill="#231f20"/><path d="M422.47,720.41h-2.35v-8.88h2.19v1.26a3.81,3.81,0,0,1,1-1.18,1.86,1.86,0,0,1,1-.28,3,3,0,0,1,1.54.44l-.72,2.05a2.05,2.05,0,0,0-1.11-.38,1.29,1.29,0,0,0-.83.27,1.84,1.84,0,0,0-.54,1,13.85,13.85,0,0,0-.2,3Z" fill="#231f20"/><path d="M434.62,714.15l-2.31.42a1.7,1.7,0,0,0-.53-1,1.6,1.6,0,0,0-1.08-.35,1.77,1.77,0,0,0-1.4.6,3.17,3.17,0,0,0-.52,2,3.61,3.61,0,0,0,.53,2.23,1.77,1.77,0,0,0,1.43.65,1.54,1.54,0,0,0,1.09-.38,2.2,2.2,0,0,0,.6-1.31l2.31.4a4.07,4.07,0,0,1-1.38,2.39,4.21,4.21,0,0,1-2.73.82,4.08,4.08,0,0,1-3.11-1.23,5.63,5.63,0,0,1,0-6.83,4.13,4.13,0,0,1,3.14-1.22,4.27,4.27,0,0,1,2.58.7A3.78,3.78,0,0,1,434.62,714.15Z" fill="#231f20"/><path d="M441.54,717.58l2.34.39a3.82,3.82,0,0,1-1.42,2,4.18,4.18,0,0,1-2.44.68,4,4,0,0,1-3.42-1.52,5,5,0,0,1-.88-3.06,4.88,4.88,0,0,1,1.15-3.45,3.81,3.81,0,0,1,2.92-1.25,3.93,3.93,0,0,1,3.12,1.31,5.75,5.75,0,0,1,1.1,4h-5.88a2.36,2.36,0,0,0,.56,1.63,1.79,1.79,0,0,0,1.36.58,1.46,1.46,0,0,0,.93-.3A1.79,1.79,0,0,0,441.54,717.58Zm.14-2.37a2.29,2.29,0,0,0-.53-1.55,1.59,1.59,0,0,0-1.22-.53,1.61,1.61,0,0,0-1.27.56,2.16,2.16,0,0,0-.49,1.52Z" fill="#231f20"/><path d="M531.87,160.56V148.49q-5.64-1.61-8.28-4.88a12.27,12.27,0,0,1-2.63-7.94,11.2,11.2,0,0,1,3-7.93,12,12,0,0,1,7.93-3.7v-2.85h4.18V124a12.32,12.32,0,0,1,7.29,3.12,12.1,12.1,0,0,1,3.46,6.9l-7.29.95a5.89,5.89,0,0,0-3.46-4.61v11.27q6.91,1.86,9.42,4.85a11.5,11.5,0,0,1,2.51,7.65,12.74,12.74,0,0,1-3.16,8.78,13.76,13.76,0,0,1-8.77,4.38v5.39h-4.18v-5.24a13.32,13.32,0,0,1-8.09-3.72,15.32,15.32,0,0,1-4-8.78l7.52-.81a9.62,9.62,0,0,0,1.73,4A7.92,7.92,0,0,0,531.87,160.56Zm0-30.24a5.36,5.36,0,0,0-2.7,2,5.06,5.06,0,0,0-1,3.06,4.88,4.88,0,0,0,.92,2.84,6.42,6.42,0,0,0,2.79,2.11ZM536.05,161a5.94,5.94,0,0,0,3.52-2,5.65,5.65,0,0,0,1.35-3.76,5.1,5.1,0,0,0-1.14-3.33,7.29,7.29,0,0,0-3.73-2.15Z" fill="#231f20"/><path d="M236.9,332.08l2.4.76a5.4,5.4,0,0,1-1.84,3,5.78,5.78,0,0,1-7.27-.7,6.41,6.41,0,0,1-1.57-4.56,6.71,6.71,0,0,1,1.58-4.75,5.43,5.43,0,0,1,4.16-1.69,5.09,5.09,0,0,1,3.65,1.33,4.77,4.77,0,0,1,1.25,2.26l-2.45.58a2.51,2.51,0,0,0-.9-1.5,2.6,2.6,0,0,0-1.68-.56,2.8,2.8,0,0,0-2.21,1,4.83,4.83,0,0,0-.85,3.17,5.12,5.12,0,0,0,.84,3.31,2.7,2.7,0,0,0,2.17,1,2.48,2.48,0,0,0,1.7-.62A3.72,3.72,0,0,0,236.9,332.08Z" fill="#231f20"/><path d="M241.4,336.58V324.33h2.35v12.25Z" fill="#231f20"/><path d="M246.16,326.5v-2.17h2.35v2.17Zm0,10.08v-8.87h2.35v8.87Z" fill="#231f20"/><path d="M256.05,333.76l2.34.39a3.82,3.82,0,0,1-1.42,2,4.18,4.18,0,0,1-2.44.67,4,4,0,0,1-3.43-1.51,5.12,5.12,0,0,1-.87-3.06,4.92,4.92,0,0,1,1.15-3.46,3.81,3.81,0,0,1,2.92-1.25,3.93,3.93,0,0,1,3.12,1.31,5.77,5.77,0,0,1,1.1,4h-5.89a2.41,2.41,0,0,0,.57,1.63,1.81,1.81,0,0,0,1.36.58,1.38,1.38,0,0,0,.92-.31A1.87,1.87,0,0,0,256.05,333.76Zm.14-2.38a2.31,2.31,0,0,0-.53-1.55,1.69,1.69,0,0,0-2.49,0,2.11,2.11,0,0,0-.49,1.52Z" fill="#231f20"/><path d="M268.5,336.58h-2.34v-4.53a7.49,7.49,0,0,0-.15-1.86,1.36,1.36,0,0,0-.49-.65,1.39,1.39,0,0,0-.82-.24,1.81,1.81,0,0,0-1.09.34,1.63,1.63,0,0,0-.67.88,7.67,7.67,0,0,0-.18,2v4h-2.35v-8.87h2.19V329a3.55,3.55,0,0,1,2.92-1.51,3.63,3.63,0,0,1,1.42.28,2.4,2.4,0,0,1,1,.72,2.5,2.5,0,0,1,.46,1,7,7,0,0,1,.13,1.57Z" fill="#231f20"/><path d="M275,327.71v1.87h-1.61v3.57a8.7,8.7,0,0,0,0,1.27.52.52,0,0,0,.21.3.69.69,0,0,0,.39.11,3.06,3.06,0,0,0,.95-.22l.2,1.82a4.78,4.78,0,0,1-1.86.35,3,3,0,0,1-1.14-.21,1.71,1.71,0,0,1-.75-.55,2.16,2.16,0,0,1-.33-.92,11.07,11.07,0,0,1-.08-1.65v-3.87h-1.07v-1.87H271v-1.77l2.36-1.37v3.14Z" fill="#231f20"/><path d="M644.64,406.3a70.59,70.59,0,1,1,70.59-70.59A70.67,70.67,0,0,1,644.64,406.3Zm0-140.18a69.59,69.59,0,1,0,69.59,69.59A69.67,69.67,0,0,0,644.64,266.12Z" fill="#1a1a1a"/><path d="M644.64,406.8a71.09,71.09,0,1,1,71.09-71.09A71.17,71.17,0,0,1,644.64,406.8Zm-70.09-71.09a70.09,70.09,0,1,0,140.18,0,70.09,70.09,0,1,1-140.18,0Zm70.09-69.09a69.09,69.09,0,1,0,69.09,69.09A69.16,69.16,0,0,0,644.64,266.62Z" fill="#1a1a1a"/><path d="M630.79,306.75c-.71.27-1.26.45-1.78.68-6.63,3-13.23,6-19.88,9a2.08,2.08,0,0,0-1.44,2.26c0,13,0,25.92,0,38.89v1.77c0,1.74.06,1.61-1.66,1.61H599c-1.11,0-1.14,0-1.14-1,0-2.42-.28-2.06,2.06-2.08,2.57,0,2.57,0,2.57-2.5V316.42a10.23,10.23,0,0,0,0-1.24,1.83,1.83,0,0,1,1.31-2.14c4.18-1.81,8.3-3.74,12.45-5.62,1.13-.51,2.25-1.05,3.4-1.51a1.68,1.68,0,0,0,1.23-1.86c-.08-2.72,0-5.44-.05-8.16a2,2,0,0,1,1.36-2.12c8-3.8,16-7.66,24-11.49,1.23-.59,1-.79,2,.42q5.51,6.51,11,13a2.68,2.68,0,0,1,.7,1.92c0,1.48,0,3,0,4.44,0,.46.07.91.12,1.51,1.81-.81,3.49-1.53,5.13-2.32a1.14,1.14,0,0,1,1.55.28c3.73,4,7.49,7.91,11.2,11.89a3.21,3.21,0,0,1,.55,1.41,4.15,4.15,0,0,1,0,1.06v39.78c0,2.27-.1,2.15,2.1,2.14h.18c2.36,0,2.51.17,2.22,2.47-.06.42-.21.65-.65.65h-49.9c-1.75,0-1.6.08-1.6-1.67V306.75Zm-5.8-3.33,4.55-2c1.17-.52,1.17-.51,2.07.44,3.46,3.64,6.9,7.31,10.42,10.91a3.81,3.81,0,0,1,1.19,2.95q-.06,19.53,0,39.05c0,3.66-.77,3,3.23,3.05.12,0,.28.05.35,0a2.24,2.24,0,0,0,.61-.7,2.56,2.56,0,0,0,0-.88V287.7c0-.39-.09-.77-.15-1.32-.51.24-.88.4-1.24.58l-11.18,5.38-8.79,4.22c-.46.23-1.07.35-1.07,1C625,299.46,625,301.33,625,303.42Zm41,3.26c-1.68.75-3.08,1.49-4.56,2a2.22,2.22,0,0,0-1.65,2.48q.07,22.33,0,44.68c0,.24,0,.48,0,.71,0,1.19,0,1.21,1.17,1.23s2,0,3,0c2.17,0,2,.21,2-2q0-23.58,0-47.17Z" fill="#1a1a1a"/><path d="M611.55,326.88c0-1.74,0-3.27,0-4.79,0-.7.48-.88,1-1.1l8.19-3.79,4.72-2.21c0,.8,0,1.36,0,1.92,0,1.18,0,2.36,0,3.54,0,2.54.39,2-2,2.75C619.59,324.45,615.69,325.6,611.55,326.88Z" fill="#1a1a1a"/><path d="M618.57,360.89c-2,0-4,0-6,0-.77,0-1-.29-1-1,0-1.42,0-2.84,0-4.25,0-.62.11-1,.87-1q6.11,0,12.22,0c.62,0,.83.27.82.85,0,1.54,0,3.07,0,4.61,0,.62-.28.82-.86.81Z" fill="#1a1a1a"/><path d="M625.43,341.94c0,2,0,3.82,0,5.64a.71.71,0,0,1-.72.8c-.24,0-.47.08-.71.09-3.77.16-7.54.34-11.32.48-1.09,0-1.12,0-1.14-1,0-1.18,0-2.36,0-3.54,0-.77.28-1,1-1.08,3.69-.36,7.39-.76,11.08-1.14Z" fill="#1a1a1a"/><path d="M625.44,328.49c0,2.13,0,4,0,5.9,0,.59-.08,1-.82,1.07-4.07.65-8.13,1.35-12.19,2-.55.09-.91,0-.9-.7,0-1.3-.34-2.75.12-3.85s2.25-1,3.44-1.4C618.47,330.49,621.87,329.54,625.44,328.49Z" fill="#1a1a1a"/><path d="M612.8,382.8V370.55h8.4v2.07h-5.93v2.9h5.12v2.08h-5.12v5.2Z" fill="#231f20"/><path d="M622.77,380l2.27-.25a1.67,1.67,0,0,0,.44,1,1.28,1.28,0,0,0,.92.33,1.5,1.5,0,0,0,1.24-.67,5.62,5.62,0,0,0,.65-2.77,2.82,2.82,0,0,1-2.21,1,3.33,3.33,0,0,1-2.5-1.12,4.05,4.05,0,0,1-1.05-2.9,4.13,4.13,0,0,1,1.11-3,3.77,3.77,0,0,1,2.82-1.14,3.81,3.81,0,0,1,3.06,1.44c.8,1,1.2,2.54,1.2,4.75s-.42,3.85-1.25,4.84a4,4,0,0,1-3.24,1.49,3.42,3.42,0,0,1-2.32-.77A3.66,3.66,0,0,1,622.77,380Zm5.31-5.13a2.64,2.64,0,0,0-.52-1.76,1.54,1.54,0,0,0-1.21-.63,1.36,1.36,0,0,0-1.08.51,2.62,2.62,0,0,0-.43,1.69,2.68,2.68,0,0,0,.47,1.74,1.46,1.46,0,0,0,1.17.55,1.44,1.44,0,0,0,1.14-.53A2.34,2.34,0,0,0,628.08,374.84Z" fill="#231f20"/><path d="M640.27,382.8V372.62h-3.64v-2.07h9.74v2.07h-3.63V382.8Z" fill="#231f20"/><path d="M651.82,380l2.34.39a3.83,3.83,0,0,1-1.43,2,4.17,4.17,0,0,1-2.43.67,4,4,0,0,1-3.43-1.51,5.13,5.13,0,0,1-.88-3.06,4.88,4.88,0,0,1,1.16-3.45,3.76,3.76,0,0,1,2.91-1.25,4,4,0,0,1,3.13,1.3,5.79,5.79,0,0,1,1.09,4H648.4a2.41,2.41,0,0,0,.57,1.63,1.79,1.79,0,0,0,1.35.58,1.44,1.44,0,0,0,.93-.3A1.9,1.9,0,0,0,651.82,380Zm.13-2.38a2.26,2.26,0,0,0-.53-1.55,1.62,1.62,0,0,0-1.22-.53,1.65,1.65,0,0,0-1.27.56,2.22,2.22,0,0,0-.49,1.52Z" fill="#231f20"/><path d="M663.94,376.55l-2.32.42a1.71,1.71,0,0,0-.53-1.05,1.62,1.62,0,0,0-1.07-.35,1.75,1.75,0,0,0-1.4.61,3.09,3.09,0,0,0-.53,2,3.63,3.63,0,0,0,.53,2.23,1.77,1.77,0,0,0,1.43.65,1.59,1.59,0,0,0,1.09-.38,2.26,2.26,0,0,0,.61-1.31l2.3.39a4.09,4.09,0,0,1-1.38,2.4,4.27,4.27,0,0,1-2.73.81,4,4,0,0,1-3.1-1.23,4.71,4.71,0,0,1-1.16-3.4,4.8,4.8,0,0,1,1.16-3.42,4.11,4.11,0,0,1,3.14-1.22,4.33,4.33,0,0,1,2.58.69A3.9,3.9,0,0,1,663.94,376.55Z" fill="#231f20"/><path d="M668.06,370.55v4.51a3.51,3.51,0,0,1,4.17-1,2.32,2.32,0,0,1,1,.77,2.72,2.72,0,0,1,.45,1,9.42,9.42,0,0,1,.12,1.77v5.2h-2.35v-4.69a7,7,0,0,0-.13-1.77,1.18,1.18,0,0,0-.48-.6,1.54,1.54,0,0,0-.84-.22,2,2,0,0,0-1,.29,1.6,1.6,0,0,0-.67.85,5.26,5.26,0,0,0-.21,1.7v4.44h-2.35V370.55Z" fill="#231f20"/><polygon points="185.62 348.7 184.93 330.65 172.06 342.73 180.1 342.39 185.62 348.7" fill="#1a1a1a"/><polygon points="578.67 592.01 572.35 608.93 588.88 602.75 581.33 599.96 578.67 592.01" fill="#1a1a1a"/><path d="M413.87,174a244.81,244.81,0,0,1,179,77.66q.93-.57,1.86-1.11c-1.91-2.05-3.85-4.08-5.84-6.07A248.06,248.06,0,0,0,325.7,188.15c.53.55,1.05,1.11,1.57,1.68A244.08,244.08,0,0,1,413.87,174Z" fill="#1a1a1a"/><path d="M661.3,424.21l-2,.4A245.06,245.06,0,0,1,574,605.47c.55.47,1.14.91,1.73,1.33q6.77-5.88,13.19-12.28A245.83,245.83,0,0,0,661.3,424.21Z" fill="#1a1a1a"/><path d="M168.38,419.52a244.63,244.63,0,0,1,13.1-79.15l-1.7-1.49a248,248,0,0,0,59.09,255.64A250.85,250.85,0,0,0,271,621.65c.27-.7.53-1.4.73-2.11C209.21,575,168.38,501.94,168.38,419.52Z" fill="#1a1a1a"/><polygon points="581.73 248.06 598.33 255.19 592.95 238.38 589.81 245.79 581.73 248.06" fill="#1a1a1a"/><polygon points="440.08 506.26 445.79 523.4 454.77 508.21 447.15 510.79 440.08 506.26" fill="#1a1a1a"/><path d="M447.89,517l-2-.12c4.89-77.24-25.49-130.19-51.84-161-28.58-33.43-58.71-48.77-59-48.92l.9-1.79c.3.15,30.74,15.64,59.57,49.34a218.37,218.37,0,0,1,38.92,65.75C445.54,450.06,450.07,482.61,447.89,517Z" fill="#1a1a1a"/><path d="M137.51,484.35H111.7a18.3,18.3,0,0,1,2.61,4.28h23.2Z"/><path d="M137.51,498.1v-4.27H115.72a18.29,18.29,0,0,1,.14,2.23,19.61,19.61,0,0,1-.11,2Z"/><path d="M106.31,479.13H137.5v-4.26H106.31Z"/><path d="M146.08,466.12q-7.17-8-14.31-16a1.19,1.19,0,0,0-1-.45c-8.44,0-16.88,0-25.32,0a7.61,7.61,0,0,0-1.71.2,8.14,8.14,0,0,0-6.49,8.19q0,9.69,0,19.39a18.31,18.31,0,0,1,4.35.52V458.27a3.91,3.91,0,0,1,4.25-4.22h22.34v15.64h13.95c0,.29,0,.52,0,.74q0,16.08,0,32.17a3.92,3.92,0,0,1-4.23,4.24H112.41a18.84,18.84,0,0,1-4.36,4.37h30.11a8.57,8.57,0,0,0,1.9-.2,8.15,8.15,0,0,0,6.5-8.32q0-17.69,0-35.37A1.67,1.67,0,0,0,146.08,466.12Zm-13.47-.85v-7.64l6.84,7.64Z"/><path d="M94.62,482.3a14.49,14.49,0,1,0,14.48,14.48A14.5,14.5,0,0,0,94.62,482.3Zm0,27.11a12.63,12.63,0,1,1,12.62-12.63A12.65,12.65,0,0,1,94.62,509.41Z"/><polygon points="90.87 498.77 87.75 495.64 85.12 498.27 90.87 504.02 102.73 492.17 100.1 489.54 90.87 498.77"/><path d="M252.55,241a19.63,19.63,0,0,1-14.79-6.23c-11.6-12.17-10.5-37.63-10.45-38.71,0-.43-.5-11.87,7-19.77,4.52-4.75,10.95-7.15,19.11-7.15,7.3,0,13.05,2.21,17.1,6.59,7.15,7.74,6.48,19.42,6.41,20.36.1,1.58,1.52,26.65-9.74,38.69A19.32,19.32,0,0,1,252.55,241Zm.9-70.68c-7.82,0-14,2.28-18.25,6.78-7.17,7.53-6.71,18.85-6.71,19,0,.32-1.12,26.1,10.13,37.9a18.51,18.51,0,0,0,13.93,5.86,18.17,18.17,0,0,0,13.8-5.85c11-11.79,9.44-37.58,9.42-37.84v-.09c0-.12.85-12-6.1-19.51C265.86,172.44,260.4,170.35,253.45,170.35Z" fill="#010101"/><path d="M277,218.67a3.3,3.3,0,0,1-2.72-1.47l1-.69a2.12,2.12,0,0,0,1.84,1c1.39,0,3.08-1.34,4.3-3.3a12.64,12.64,0,0,0,1.59-8.51,3.23,3.23,0,0,0-1.39-2.16c-2.46-1.46-4.61,1.56-4.7,1.69l-1-.67c1-1.42,3.54-3.66,6.27-2a4.4,4.4,0,0,1,1.95,2.9c.73,3-.32,7.13-1.75,9.42s-3.46,3.79-5.26,3.85Z" fill="#010101"/><path d="M227.48,218.67h-.13c-1.8-.06-3.81-1.54-5.26-3.85a14,14,0,0,1-1.74-9.42,4.39,4.39,0,0,1,1.94-2.9c2.73-1.62,5.3.62,6.28,2l-1,.67c-.09-.13-2.23-3.15-4.69-1.69a3.27,3.27,0,0,0-1.4,2.16,12.7,12.7,0,0,0,1.6,8.51c1.22,2,2.91,3.25,4.29,3.3a2.07,2.07,0,0,0,1.84-1l1,.69A3.27,3.27,0,0,1,227.48,218.67Z" fill="#010101"/><path d="M256.9,189.29c.19.3,1.35,4,1.35,4h12.8l-4.34-2.46a9.65,9.65,0,0,0-3.53-1Z" fill="#010101"/><path d="M269.9,255.28a.59.59,0,0,1-.59-.57l-1.1-21.9a.59.59,0,0,1,.56-.62.61.61,0,0,1,.62.56l1.1,21.9a.59.59,0,0,1-.56.63Z" fill="#010101"/><path d="M236.17,250.81a.58.58,0,0,1-.59-.59V232.78a.59.59,0,0,1,1.18,0v17.44A.58.58,0,0,1,236.17,250.81Z" fill="#010101"/><path d="M236.53,233.33s4.81,7.52,12.61,11c5.65,2.54,13,1.55,16.81-2.58a13.49,13.49,0,0,0,3.38-9.57A24.7,24.7,0,0,1,253.78,239C244.48,239.26,236.53,233.33,236.53,233.33Z" fill="#010101"/><path d="M242.72,179.38s-.46,21.84,31,23l.92,13.1s7.64-12.47,6.66-26C280,170.42,246.16,154.34,242.72,179.38Z" fill="#010101"/><path d="M241.26,176.94S229.39,187.89,230.31,215c0,0-3.91-7.58-2.66-13.31-1.83-1.37-3.78.44-3.78.44s-8.27-36.53,23.67-31C276.9,176.18,241.26,176.94,241.26,176.94Z" fill="#010101"/><path d="M243.87,181a19.29,19.29,0,0,0,.93,4.82,23.53,23.53,0,0,0,2,4.55,23.78,23.78,0,0,0,6.61,7.37,31.16,31.16,0,0,0,8.89,4.55,49.42,49.42,0,0,0,9.86,2.15l-2.52-.24-2.51-.36c-.83-.17-1.66-.33-2.49-.52s-1.65-.39-2.45-.66a31.79,31.79,0,0,1-9.19-4.36,24.47,24.47,0,0,1-6.93-7.5,22.15,22.15,0,0,1-3.1-9.79Z" fill="#010101"/><path d="M314.85,308.5H190.5a.73.73,0,0,1-.59-.3.76.76,0,0,1-.13-.65c1.32-4.71,13-46.12,16.11-49.32,3.28-3.37,32.73-10.31,46.79-10.31s43.5,6.94,46.78,10.31c3.11,3.2,14.79,44.61,16.11,49.32a.73.73,0,0,1-.13.65A.73.73,0,0,1,314.85,308.5ZM191.49,307H313.86c-5.17-18.36-13.36-45.55-15.48-47.72-2.7-2.78-31.74-9.86-45.7-9.86s-43,7.08-45.71,9.86C204.86,261.45,196.66,288.64,191.49,307Z" fill="#010101"/><path d="M190.5,307.75s12.7-46.18,15.69-49.49,29.26-7.71,29.26-7.71l7.18,57.2H190.5" fill="#010101"/><path d="M269.9,250.55l-7.18,57.2h52.13s-12.7-46.18-15.69-49.49S269.9,250.55,269.9,250.55Z" fill="#010101"/><path d="M258.76,285.71q-1-10.54-2-21.07c-.14-1.39-.29-2.77-.44-4.14H249c-.09.91-.19,1.77-.27,2.64q-.69,7.22-1.37,14.45-.81,8.25-1.62,16.49c-.46,4.72-.91,9.44-1.39,14.16,5.35.31,11-.55,16.54-.79l-.33-3.28C259.92,298,259.35,291.86,258.76,285.71Z" fill="#010101"/><path d="M243,249.05h19.22a6,6,0,0,1-.31.67c-1.74,3-3.49,6.05-5.21,9.08a1.17,1.17,0,0,1-1.17.71c-1.93,0-3.87,0-5.8,0a1.31,1.31,0,0,1-1-.49C246.81,255.73,244.94,252.46,243,249.05Z" fill="#010101"/></svg>