<svg id="Layer_1" data-name="Layer 1" xmlns="http://www.w3.org/2000/svg" viewBox="0 0 833.14 841.89"><path d="M445.72,651.48,411.5,635.21H377.2L343,651.48s-20,7.33-18.32,28.63H464C466.05,659,445.72,651.48,445.72,651.48Z" fill="#1a1a1a" stroke="#1a1a1a" stroke-linejoin="round" stroke-width="1.14"/><path d="M411.81,635.21h0V598.76H377.2v36.45l-8.56,4.07s.68,16.19,26.23,16.53S423,640.67,423,640.67Z" fill="#f5f5f3" stroke="#1a1a1a" stroke-linejoin="round" stroke-width="1.14"/><path d="M377.46,610.13s2.9,14.7,15.7,16.39c14.73,2,18.65-16,18.65-16s-6.51,8.16-16.8,8.17A22.54,22.54,0,0,1,377.46,610.13Z" fill="#1a1a1a"/><path d="M368.64,587.37s.49-8-5.8-11.6a9.34,9.34,0,0,1-3.72-13.08,9.23,9.23,0,0,1,2.2-2.54,2.54,2.54,0,0,0,.75-3,6.15,6.15,0,0,1,.9-5.92c1.25-1.31,2.37-2.85,6.37-2.3,4.84.66,3.46-4.66,3.39-8.6-.1-5.72,9.93-10,20.2-.3,0,0,1.67,2.4,7.05.89s16.38-4.91,24.2,1.63S424.31,556,427,561.3s5.13,10.19-.77,14.72-5.83,14.23-5.83,14.23Z" fill="#1a1a1a"/><path d="M418.87,586.33a4.64,4.64,0,0,1,6.13-1.89c4.14,1.83,2.27,13.52-3.93,15a4.39,4.39,0,0,1-4-1.21S418.63,589.61,418.87,586.33Z" fill="#f5f5f3" stroke="#1a1a1a" stroke-linejoin="round" stroke-width="1.14"/><path d="M370.34,586.33s-1.83-3.71-5.6-1.89-2.06,13.52,3.59,15a3.75,3.75,0,0,0,3.62-1.21S370.56,589.61,370.34,586.33Z" fill="#f5f5f3" stroke="#1a1a1a" stroke-linejoin="round" stroke-width="1.14"/><path d="M419.64,575.24c0,7-.69,21.78-5,30.53-4.07,8.22-10.79,12.64-19.61,12.9s-15.39-3.14-20.65-13.8-5-29.5-5-29.5,0-25.16,24.87-25.16C420.41,550.21,419.64,575.24,419.64,575.24Z" fill="#f5f5f3" stroke="#1a1a1a" stroke-linejoin="round" stroke-width="1.14"/><path d="M369.84,585s6.59-19.81-.5-31.51l-2.67,18.66Z" fill="#1a1a1a"/><path d="M372.54,564.86s2.76-10.67,12.73-4.54c6,3.65,19.59,10.52,34.37.87,0,0-8.26-13.59-27.43-13.6C367.18,547.59,372.54,564.86,372.54,564.86Z" fill="#1a1a1a"/><path d="M244,594.09a15.34,15.34,0,0,1-11.54-4.83c-8.67-9.12-7.84-27.7-7.8-28.49,0-.3-.38-8.6,5.19-14.46,3.47-3.65,8.46-5.5,14.84-5.5,5.71,0,10.17,1.71,13.28,5.08,5.29,5.74,4.79,14.21,4.74,14.91.07,1.16,1.14,19.45-7.27,28.46A15,15,0,0,1,244,594.09Zm.69-52.39c-6.12,0-10.89,1.76-14.19,5.22-5.3,5.58-4.95,13.77-4.95,13.85,0,.23-.85,19,7.56,27.87A14.47,14.47,0,0,0,244,593.2a14.16,14.16,0,0,0,10.79-4.55c8.24-8.83,7-27.64,7-27.83v-.06c0-.09.64-8.7-4.5-14.27C254.41,543.31,250.16,541.7,244.72,541.7Z" fill="#1a1a1a"/><path d="M244,594.59a15.83,15.83,0,0,1-11.91-5c-8.8-9.26-8-28.06-7.93-28.85,0,0-.44-8.72,5.33-14.78,3.57-3.76,8.68-5.66,15.2-5.66,5.85,0,10.44,1.76,13.65,5.24,5.39,5.85,4.93,14.33,4.87,15.28.05.73,1.2,19.55-7.4,28.77A15.52,15.52,0,0,1,244,594.59Zm.69-52.39c-6,0-10.63,1.71-13.82,5.07-5.13,5.38-4.82,13.4-4.82,13.48,0,.82-.71,19,7.42,27.55A14,14,0,0,0,244,592.7a13.68,13.68,0,0,0,10.42-4.39c8.06-8.64,6.91-27.26,6.89-27.45v-.13c0-.1.6-8.52-4.37-13.9C254.14,543.76,250,542.2,244.72,542.2Z" fill="#1a1a1a"/><path d="M260.86,577.4c1.39,1.91,4.07.66,5.63-1.83s2.28-7.47,0-8.82-4.21,1.44-4.21,1.44-.55,5-1,6.91Z" fill="#f6f6f4"/><path d="M262.61,578.83a2.59,2.59,0,0,1-2.16-1.14l-.12-.18.5-2.51c.4-1.84.95-6.82.95-6.87l0-.12.07-.11c.76-1.09,2.75-2.83,4.87-1.58a3.37,3.37,0,0,1,1.51,2.26,10.83,10.83,0,0,1-1.34,7.26,5.83,5.83,0,0,1-4.2,3Zm-1.21-1.56a1.57,1.57,0,0,0,1.28.56,4.9,4.9,0,0,0,3.38-2.52,9.68,9.68,0,0,0,1.22-6.49,2.4,2.4,0,0,0-1-1.63c-1.65-1-3.13.74-3.47,1.18-.09.83-.58,5.1-.95,6.84Z" fill="#1a1a1a"/><path d="M262.61,578.78a2.54,2.54,0,0,1-2.12-1.11l-.12-.17.51-2.49c.39-1.84.94-6.82.95-6.87V568l.07-.09c.75-1.08,2.71-2.8,4.81-1.57a3.43,3.43,0,0,1,1.49,2.23,10.71,10.71,0,0,1-1.34,7.22,5.72,5.72,0,0,1-4.16,3Zm-1.26-1.5a1.61,1.61,0,0,0,1.33.59,4.94,4.94,0,0,0,3.42-2.54,9.7,9.7,0,0,0,1.23-6.52,2.53,2.53,0,0,0-1.07-1.66c-1.71-1-3.21.77-3.54,1.21-.09.79-.58,5.09-1,6.84Z" fill="#1a1a1a"/><path d="M262.61,579.28a3,3,0,0,1-2.52-1.32l-.25-.34.55-2.71c.38-1.81.94-6.78.94-6.83l0-.24.13-.19c.85-1.22,3.07-3.14,5.48-1.72a3.81,3.81,0,0,1,1.72,2.54,11.32,11.32,0,0,1-1.39,7.61c-1.19,1.89-3,3.14-4.57,3.2Zm0-.91v.41l.05-.41Zm-.72-1.25a1.07,1.07,0,0,0,.77.25,4.49,4.49,0,0,0,3-2.31,9.3,9.3,0,0,0,1.16-6.13,2,2,0,0,0-.84-1.35c-1.22-.73-2.37.45-2.8,1-.15,1.34-.6,5.12-.94,6.75Z" fill="#1a1a1a"/><path d="M261.67,573a.18.18,0,0,1-.1,0,.23.23,0,0,1-.11-.3c1.89-3.92,4.81-3.08,4.84-3.07a.22.22,0,0,1,.15.28.22.22,0,0,1-.28.15c-.1,0-2.58-.72-4.3,2.83A.21.21,0,0,1,261.67,573Z" fill="#1a1a1a"/><path d="M261.67,573.54a.71.71,0,0,1-.32-.07.73.73,0,0,1-.37-.42.7.7,0,0,1,0-.55c2.07-4.31,5.42-3.33,5.45-3.32a.72.72,0,0,1-.44,1.38c-.09,0-2.18-.6-3.71,2.57A.72.72,0,0,1,261.67,573.54Zm.25-.61h0Z" fill="#1a1a1a"/><path d="M264,574.91a.23.23,0,0,1-.15,0,.23.23,0,0,1,0-.32,2,2,0,0,0,.55-1.68,3,3,0,0,0-1.43-1.72.23.23,0,0,1-.09-.31.23.23,0,0,1,.31-.09,3.47,3.47,0,0,1,1.66,2,2.44,2.44,0,0,1-.65,2.06A.2.2,0,0,1,264,574.91Z" fill="#1a1a1a"/><path d="M264,575.41a.7.7,0,0,1-.46-.16.72.72,0,0,1-.1-1,1.56,1.56,0,0,0,.44-1.28,2.49,2.49,0,0,0-1.18-1.37.72.72,0,0,1-.29-1,.69.69,0,0,1,.43-.35.73.73,0,0,1,.56,0,4,4,0,0,1,1.91,2.37,2.93,2.93,0,0,1-.75,2.48A.71.71,0,0,1,264,575.41Zm-.21-.9h0Zm-.87-3.33Z" fill="#1a1a1a"/><path d="M224.81,578.77h-.1c-1.38,0-2.92-1.18-4-3a10.82,10.82,0,0,1-1.34-7.22,3.43,3.43,0,0,1,1.49-2.23c2.1-1.23,4.07.49,4.82,1.57a.45.45,0,0,1-.12.63.46.46,0,0,1-.63-.11c-.07-.1-1.72-2.42-3.6-1.3a2.46,2.46,0,0,0-1.07,1.66,9.75,9.75,0,0,0,1.22,6.52c.94,1.5,2.23,2.49,3.29,2.53a1.6,1.6,0,0,0,1.41-.75.46.46,0,1,1,.74.54A2.52,2.52,0,0,1,224.81,578.77Z" fill="#1a1a1a"/><path d="M224.81,579.27h-.12c-1.54,0-3.24-1.27-4.43-3.18a11.32,11.32,0,0,1-1.4-7.61,3.88,3.88,0,0,1,1.72-2.54c2.41-1.42,4.64.5,5.48,1.71a1,1,0,0,1-.24,1.33,1,1,0,0,1-.72.16,1,1,0,0,1-.61-.4c-.06-.08-1.44-2-2.94-1.15a2,2,0,0,0-.84,1.35,9.31,9.31,0,0,0,1.17,6.13c.83,1.34,2,2.27,2.88,2.3a1.08,1.08,0,0,0,1-.54,1,1,0,0,1,1.54,1.12A3,3,0,0,1,224.81,579.27Zm-.07-.91.07.41v-.41Z" fill="#1a1a1a"/><path d="M267.11,611H267c-.57-.12-13.92-3.12-14.93-7.8,0,0,0-.07,0-.1V591.19a.46.46,0,0,1,.46-.45.45.45,0,0,1,.45.45V603c.81,3.4,10.53,6.25,14.22,7.06a.47.47,0,0,1,.35.55A.45.45,0,0,1,267.11,611Z" fill="#1a1a1a"/><path d="M267.11,611.49l-.2,0c-1.46-.32-14.26-3.29-15.32-8.19l0-.2V591.19a1,1,0,0,1,1.91,0V603c.76,2.78,8.87,5.54,13.83,6.63a1,1,0,0,1,.73,1.14A1,1,0,0,1,267.11,611.49Z" fill="#1a1a1a"/><path d="M221.41,611a.46.46,0,0,1-.08-.91c9.19-1.59,13.07-6.34,13.65-7.11V591.16a.45.45,0,0,1,.45-.45.46.46,0,0,1,.46.45v11.92a.44.44,0,0,1-.08.25c-.16.24-4,5.83-14.32,7.62Z" fill="#1a1a1a"/><path d="M221.41,611.46a1,1,0,0,1-.17-1.9c8.62-1.49,12.49-5.86,13.24-6.79V591.16a1,1,0,0,1,1.91,0v11.92a1,1,0,0,1-.16.53c-.16.24-4.09,6-14.66,7.83Zm0-1v0Z" fill="#1a1a1a"/><path d="M287.93,638.92h-87.2a.46.46,0,0,1-.46-.45c0-16.17,16.77-26.35,20.13-28.23a1.71,1.71,0,0,1,1.77.07c20.1,13.18,38.67,3.55,43.88.29a2.66,2.66,0,0,1,2.76,0c4.59,2.67,19.57,12.57,19.57,27.91A.45.45,0,0,1,287.93,638.92ZM201.19,638h86.28c-.3-14.59-14.67-24.08-19.11-26.66a1.77,1.77,0,0,0-1.83,0c-5.33,3.34-24.31,13.18-44.86-.3a.81.81,0,0,0-.82,0C217.6,612.85,201.5,622.61,201.19,638Z" fill="#1a1a1a"/><path d="M287.93,639.42h-87.2a1,1,0,0,1-1-.95c0-16.45,17-26.77,20.39-28.67a2.2,2.2,0,0,1,2.28.09c19.85,13,38.2,3.51,43.34.28a3.19,3.19,0,0,1,3.29,0c4.64,2.7,19.81,12.74,19.81,28.34A1,1,0,0,1,287.93,639.42Zm-86.23-1.91H287c-.61-14-14.54-23.23-18.84-25.73a1.26,1.26,0,0,0-1.31,0c-5.39,3.38-24.6,13.34-45.41-.3a.3.3,0,0,0-.3,0C217.94,613.23,202.35,622.68,201.7,637.51Z" fill="#1a1a1a"/><path d="M243.84,613a35.69,35.69,0,0,1-16.49-3.74.46.46,0,0,1-.17-.62.47.47,0,0,1,.63-.17c.14.09,14.39,8.15,32.89-.06a.45.45,0,1,1,.37.83A42.24,42.24,0,0,1,243.84,613Z" fill="#1a1a1a"/><path d="M243.84,613.51a36,36,0,0,1-16.75-3.81,1,1,0,0,1-.34-1.3,1,1,0,0,1,.58-.45,1,1,0,0,1,.73.1c.14.08,14.2,8,32.44-.09a1,1,0,0,1,1.28,1.22,1,1,0,0,1-.51.53A42.85,42.85,0,0,1,243.84,613.51Z" fill="#1a1a1a"/><path d="M235.5,591.8s3.55,7.94,10.75,7.44a6.74,6.74,0,0,0,6.35-5.16l-.5-2.28S245.62,596.41,235.5,591.8Z" fill="#1a1a1a"/><path d="M245.57,599.76c-7,0-10.49-7.68-10.52-7.76l-.54-1.2,1.2.55c9.71,4.42,16,.09,16.1,0l.61-.43.69,3.13,0,.11c-1.29,5.42-6.78,5.54-6.83,5.54Zm-8.94-6.94c1.31,2.14,4.52,6.26,9.59,5.92a6.2,6.2,0,0,0,5.87-4.66l-.33-1.49C250,593.58,244.5,595.91,236.63,592.82Z" fill="#1a1a1a"/><path d="M281.55,580a14.09,14.09,0,0,0-1.12-2.23,21.36,21.36,0,0,1-2.16-4.15,8.64,8.64,0,0,1,.19-3.64c.29-1.24.71-2.49,1-3.8v0a9.15,9.15,0,0,0-.69-4.65,11.89,11.89,0,0,0-2.73-3.79,18.56,18.56,0,0,0-3.73-2.7l-1-.52a4.64,4.64,0,0,1-.8-.6,2.38,2.38,0,0,1-.86-1.55v-.06a48.81,48.81,0,0,0-1.14-8,11.47,11.47,0,0,0-1.75-3.73,12.45,12.45,0,0,0-3-2.83,18.26,18.26,0,0,0-7.41-3.18,18,18,0,0,0-4.63-.21c-4.49-.45-9.15.77-12.08,5.64-13.31-.86-18.51,12.75-17.93,19.75a23.71,23.71,0,0,0,4.64,12c-1.08-3.48,1.16-10.59,1.16-10.59,9.25-5.38,11.87-12,12.51-16.41,2-.49,4.81-.64,6.6,1.34a7.2,7.2,0,0,1,1.12,2.88,22.76,22.76,0,0,1,.3,3.32c0,1.13.07,2.26.19,3.41a14.42,14.42,0,0,0,.26,1.71,5.92,5.92,0,0,0,.25.86,3,3,0,0,0,.46.85,3.64,3.64,0,0,0,1.53,1.09,11.15,11.15,0,0,0,1.68.52,6.92,6.92,0,0,1,2.91,1.17l0,0,.05,0a.66.66,0,0,1,.36.61,2.49,2.49,0,0,1-.06.5c0,.16-.08.34-.11.57-.31,1.08-.61,2.17-.84,3.29a16.51,16.51,0,0,0-.36,3.46,7.69,7.69,0,0,0,.84,3.48,6.24,6.24,0,0,0,2.52,2.42,2.27,2.27,0,0,1,.48,1.1,2.09,2.09,0,0,1,0,.61c0,.09-.06.19-.09.28l-.07.13-.1.17-1.65,2.7c-1.11,1.8-2.2,3.63-3.2,5.52a33.48,33.48,0,0,0-2.5,5.91A24.32,24.32,0,0,0,249.5,599v0h0a13.33,13.33,0,0,0,2.34,6.67,11.24,11.24,0,0,0,2.47,2.54,9.2,9.2,0,0,0,3.17,1.52,10.14,10.14,0,0,1-5.33-4.26,12.45,12.45,0,0,1-1.42-3.13,13.24,13.24,0,0,1-.59-3.36,23.16,23.16,0,0,1,1.25-6.09,39.55,39.55,0,0,1,2.55-5.73c1-1.84,2.1-3.64,3.22-5.43l1.69-2.71.11-.17a1.51,1.51,0,0,0,.11-.22,2.9,2.9,0,0,0,.16-.47,2.65,2.65,0,0,0,0-1,3.27,3.27,0,0,0-.75-1.71l-.06-.07-.09-.05a5.49,5.49,0,0,1-2.2-2.07,6.5,6.5,0,0,1-.74-3,14.88,14.88,0,0,1,.31-3.24c.21-1.08.49-2.15.79-3.23l0-.05v-.06a3,3,0,0,1,.1-.52,3.2,3.2,0,0,0,.07-.72,1.54,1.54,0,0,0-.23-.81,1.84,1.84,0,0,0-.6-.58l.07,0a5.34,5.34,0,0,0-1.78-.93,7.62,7.62,0,0,1,1.58.28c3.55,1.12-2.53,10.67,2.38,14s.77,4.1-3.93,14.5-1.49,18.35,6.18,20.59,5.87-4.76,13.72-2.93c2,.47,1.64.56,3.27,2.21,0,0,6.08-8.73-1.57-11.52s9.12-13.09,2.31-20S284,563.7,272,556.23c-8.95-5.57-1-8-8.12-16.49-1.22-1.48-4.43-3.5-8.22-4.63.21,0,.42.06.64.11a17.42,17.42,0,0,1,7,3.19,12.36,12.36,0,0,1,2.72,2.68,10.75,10.75,0,0,1,1.59,3.45,50.53,50.53,0,0,1,1,7.8v-.06a3.33,3.33,0,0,0,1.17,2.31,5.92,5.92,0,0,0,1,.75l1,.54a17.33,17.33,0,0,1,3.49,2.56,11.47,11.47,0,0,1,2.49,3.44,8,8,0,0,1,.64,4.09c-.25,1.23-.65,2.45-1,3.75a9.65,9.65,0,0,0-.16,4.08v.06a21.56,21.56,0,0,0,2.29,4.37,14.12,14.12,0,0,1,1.07,2.08,6,6,0,0,1,.43,2.16,9,9,0,0,1-1,3,28.46,28.46,0,0,1-1.75,2.86c-.63.93-1.27,1.88-1.85,2.88a12.39,12.39,0,0,0-1.34,3.2v0h0l-.06.59c0,.21,0,.41,0,.62a2.37,2.37,0,0,0,.48,1.19,2.5,2.5,0,0,0,1,.73,10.12,10.12,0,0,0,1.09.38,6.72,6.72,0,0,1,1,.37,5.51,5.51,0,0,1,.91.57l.23.16.19.19.38.38.31.44a2.73,2.73,0,0,1,.25.48,4.27,4.27,0,0,1,.27,2.13,11,11,0,0,1-.56,2.17c-.51,1.41-1.18,2.77-1.68,4.19.56-1.4,1.3-2.71,1.87-4.12a11.13,11.13,0,0,0,.65-2.2,4.56,4.56,0,0,0-.22-2.31,2.92,2.92,0,0,0-.25-.54l-.33-.49a5.36,5.36,0,0,0-.4-.43l-.2-.22-.24-.17a5,5,0,0,0-1-.66,8.76,8.76,0,0,0-1.08-.44,3.91,3.91,0,0,1-1.83-1,2.45,2.45,0,0,1-.26-1.92,11.68,11.68,0,0,1,1.34-3c.57-1,1.23-1.87,1.88-2.79a29.83,29.83,0,0,0,1.86-2.9,10.14,10.14,0,0,0,1.17-3.34v-.06A6.62,6.62,0,0,0,281.55,580Zm-32.16-22.35a5.63,5.63,0,0,0,.4.85A2.78,2.78,0,0,1,249.39,557.62Z" fill="#1a1a1a"/><path d="M263.13,610.54a10.31,10.31,0,0,1-2.87-.47,11.57,11.57,0,0,1-7.57-6.3c-1.85-4-1.47-9.34,1.08-15,.28-.64.57-1.24.85-1.81l-.24.44a39.8,39.8,0,0,0-2.52,5.65,22.92,22.92,0,0,0-1.22,6,13,13,0,0,0,.56,3.18,12.12,12.12,0,0,0,1.37,3,9.61,9.61,0,0,0,5.06,4l-.28,1a9.72,9.72,0,0,1-3.34-1.59,11.66,11.66,0,0,1-2.58-2.66,13.62,13.62,0,0,1-2.42-6.92,24.21,24.21,0,0,1,1.13-6.55,33.88,33.88,0,0,1,2.54-6c1-2,2.2-3.9,3.21-5.55l1.76-2.86a1.15,1.15,0,0,0,.09-.26,1.29,1.29,0,0,0,0-.44,1.67,1.67,0,0,0-.32-.77,6.64,6.64,0,0,1-2.62-2.58,8,8,0,0,1-.9-3.7,16.64,16.64,0,0,1,.37-3.57c.23-1.15.55-2.28.85-3.33a3.48,3.48,0,0,1,.07-.38l0-.15a1.77,1.77,0,0,0,0-.39c0-.11,0-.12-.14-.21l-.1-.07a6.37,6.37,0,0,0-2.72-1.07,14.22,14.22,0,0,1-1.75-.54,4.18,4.18,0,0,1-1.74-1.26,4.27,4.27,0,0,1-.54-1,3.08,3.08,0,0,1-.18-.62,2.68,2.68,0,0,0-.07-.27,15.83,15.83,0,0,1-.28-1.81c-.1-.94-.13-1.88-.16-2.79l0-.64a22.25,22.25,0,0,0-.29-3.25,6.73,6.73,0,0,0-1-2.69c-1.5-1.66-3.89-1.6-5.75-1.21-.76,4.61-3.58,11.06-12.53,16.33-.33,1.12-2,7.12-1.1,10.11l.74,2.42L226,572a24,24,0,0,1-4.75-12.26,21.47,21.47,0,0,1,5.86-15.6,15.67,15.67,0,0,1,12.3-4.71c3.36-5.33,8.58-6,12.4-5.63a17.85,17.85,0,0,1,4.66.22,18.8,18.8,0,0,1,7.62,3.26,13.15,13.15,0,0,1,3.09,3,11.82,11.82,0,0,1,1.82,3.89,36,36,0,0,1,1,6.23q.07.9.18,1.8v.11a2,2,0,0,0,.7,1.19,4.18,4.18,0,0,0,.72.53l1,.51a19,19,0,0,1,3.83,2.78,12.38,12.38,0,0,1,2.84,3.94,9.53,9.53,0,0,1,.74,4.92c-.17.86-.38,1.6-.58,2.32-.15.53-.3,1.06-.43,1.58a8.18,8.18,0,0,0-.18,3.43,17.59,17.59,0,0,0,1.77,3.44l.33.56a15.44,15.44,0,0,1,1.16,2.3,7.07,7.07,0,0,1,.51,2.72v.11a10.63,10.63,0,0,1-1.23,3.51,28.14,28.14,0,0,1-1.89,3l-.23.33c-.59.83-1.14,1.61-1.63,2.44a11.22,11.22,0,0,0-1.29,2.87,2,2,0,0,0,.18,1.49,3.16,3.16,0,0,0,1.41.74l.18.06a8.88,8.88,0,0,1,1.15.46,6.52,6.52,0,0,1,.95.63l.73.66c.1.11.2.21.29.33l.36.53a2.26,2.26,0,0,1,.22.44l.06.16a5.09,5.09,0,0,1,.26,2.59,11.55,11.55,0,0,1-.67,2.31c-.29.72-.63,1.41-.95,2.08s-.65,1.36-.93,2l-.94-.35c.27-.77.6-1.53.91-2.26s.54-1.29.78-1.95a10,10,0,0,0,.53-2.05,3.72,3.72,0,0,0-.23-1.88,1.44,1.44,0,0,1-.08-.17,1.54,1.54,0,0,0-.1-.19l-.33-.46-.17-.17-.57-.48a4.89,4.89,0,0,1,.62,1.28c1.19,3.78-2,8.39-2.12,8.59l-.34.49-.42-.43c-.37-.37-.64-.66-.85-.9-.71-.78-.77-.84-2.19-1.17-3.65-.86-5,.28-6.46,1.48A6.33,6.33,0,0,1,263.13,610.54Zm-12.8-51.14,3.9.33a7.62,7.62,0,0,1,1.69.31c2,.63,1.6,3.19,1.15,5.9-.5,3-1.07,6.51,1.36,8.15,3.63,2.45,2.65,4,.5,7.4a58.63,58.63,0,0,0-4.25,7.72c-2.42,5.36-2.81,10.38-1.08,14.14a10.62,10.62,0,0,0,6.94,5.76c3.6,1,4.88,0,6.36-1.24s3.19-2.66,7.33-1.7a3.79,3.79,0,0,1,2.7,1.48l.38.42c.76-1.26,2.49-4.57,1.65-7.2a4.94,4.94,0,0,0-3.31-3,3.3,3.3,0,0,1-2.24-1.94c-.61-1.81.84-4.11,2.52-6.77,2.4-3.79,5.12-8.08,1.85-11.39s-2.37-6.45-1.58-9.57c1-3.86,1.91-7.5-4.5-11.5-5-3.09-5-5.36-5-8,0-2.22,0-4.74-3.24-8.61-1.13-1.38-4.24-3.36-8-4.47l.15-.66a16.78,16.78,0,0,0-3.82-.1c-3.69-.37-8.61.28-11.7,5.4l-.15.26-.31,0a14.59,14.59,0,0,0-11.82,4.4,20.63,20.63,0,0,0-5.57,14.81,23.45,23.45,0,0,0,3.35,10,32.76,32.76,0,0,1,1.47-8.7l.06-.19.17-.09c9-5.22,11.62-11.61,12.27-16.05l.05-.34.33-.08c2.15-.52,5.12-.68,7.08,1.49a7.71,7.71,0,0,1,1.24,3.13,24.67,24.67,0,0,1,.31,3.4l0,.64c0,.89.06,1.82.15,2.72a16.48,16.48,0,0,0,.26,1.66c0,.08,0,.19.08.3a.5.5,0,0,0,0,.12l.73-.25a5.72,5.72,0,0,0,.37.78l-.67.44.1.14A2.38,2.38,0,0,0,250.33,559.4Zm29.94,21.24c.29,3-1.75,6.25-3.49,9-1.48,2.34-2.88,4.55-2.42,5.9a1.58,1.58,0,0,0,.32.54,2.25,2.25,0,0,1-.06-.36,4,4,0,0,1,0-.49v-.17l.06-.66a13.1,13.1,0,0,1,1.42-3.42c.51-.9,1.09-1.75,1.64-2.58l.23-.33a30.19,30.19,0,0,0,1.72-2.8,8.74,8.74,0,0,0,.94-2.87A5.41,5.41,0,0,0,280.27,580.64ZM255,568.49a11.92,11.92,0,0,0-.11,1.84,7,7,0,0,0,.78,3.25,5.71,5.71,0,0,0,2.31,2.23l.15.13a2.64,2.64,0,0,1,.59,1.35,2.28,2.28,0,0,1,0,.78,2.17,2.17,0,0,1-.12.36,1.43,1.43,0,0,1-.09.18l-1.2,2,1.23-2,0-.12a2,2,0,0,0,.15-.42,2.38,2.38,0,0,0,.05-.8,2.73,2.73,0,0,0-.64-1.44h0a6,6,0,0,1-2.39-2.27,6.94,6.94,0,0,1-.81-3.23A11.79,11.79,0,0,1,255,568.49Zm4.6,8a3.93,3.93,0,0,1,.15.68,2.91,2.91,0,0,1,0,.66A1.6,1.6,0,0,0,259.63,576.48Zm18.26-12.32a17.58,17.58,0,0,1-.72,4.24c-.7,2.74-1.36,5.35.73,8a13.46,13.46,0,0,1-1.06-2.34l0-.12a10.07,10.07,0,0,1,.17-4.3c.13-.57.28-1.13.43-1.69s.38-1.37.51-2A7,7,0,0,0,277.89,564.16Zm-8.75-11.87a2.82,2.82,0,0,0,1,2,5.6,5.6,0,0,0,.89.67l1,.53a17.87,17.87,0,0,1,3.6,2.64,11.89,11.89,0,0,1,2.59,3.59,8.53,8.53,0,0,1,.69,4.35c-.15.75-.34,1.47-.53,2.16s-.3,1.09-.43,1.65a9.19,9.19,0,0,0-.19,3.68,9.16,9.16,0,0,1,.21-3.68c.13-.54.28-1.08.43-1.62.2-.71.4-1.43.56-2.16a8.8,8.8,0,0,0-.66-4.4,11.49,11.49,0,0,0-2.61-3.62,18,18,0,0,0-3.63-2.63l-1-.52a5.22,5.22,0,0,1-.91-.67,2.82,2.82,0,0,1-1-1.92c-.07-.6-.12-1.21-.18-1.82l-.06-.63.06.66c0,.58.1,1.17.16,1.75h0v0h0Zm-18.41,7.33.23.1a11.27,11.27,0,0,0,1.49.47Zm16.94-12c0,.38,0,.75,0,1.1a8.21,8.21,0,0,0,.39,3c0-.37-.07-.74-.1-1.12C267.89,549.55,267.8,548.55,267.67,547.57Z" fill="#1a1a1a"/><path d="M544.07,623.41l30.56.89C565.47,606,568.14,562,568.14,562l-23.62-1v0l-.45,0-.45,0v0L520,562s3.57,44-5.58,62.33Z" fill="#1a1a1a"/><path d="M533.22,612.82l-23.4,13.58s-16.87,7.34-15.49,23.88H594.8c1.31-16-15.49-23.88-15.49-23.88L555,612.82" fill="#1a1a1a" stroke="#1a1a1a" stroke-linejoin="round" stroke-width="1.15"/><path d="M555.17,612.92V582.11H533.38v30.71h0L520.93,620s18.72,17.58,46.1-.15Z" fill="#f5f5f3" stroke="#1a1a1a" stroke-linejoin="round" stroke-width="1.02"/><path d="M533.38,595.45s1.8,9.65,10.38,9.83c11.25.23,11.07-9.4,11.07-9.4s-1.54,2.83-10.24,2.84C534.88,598.73,533.38,595.45,533.38,595.45Z" fill="#1a1a1a"/><ellipse cx="544.1" cy="561.97" rx="24.11" ry="23.79" fill="#1a1a1a"/><path d="M565.31,571.88a4.37,4.37,0,0,1,5.39-1.4c3.63,1.36,2,10.06-3.46,11.17a4.35,4.35,0,0,1-3.48-.9S565.1,574.32,565.31,571.88Z" fill="#f5f5f3" stroke="#1a1a1a" stroke-linejoin="round" stroke-width="1.06"/><path d="M523.63,571.88a4.37,4.37,0,0,0-5.39-1.4c-3.63,1.36-2,10.06,3.46,11.17a4.35,4.35,0,0,0,3.48-.9S523.84,574.32,523.63,571.88Z" fill="#f5f5f3" stroke="#1a1a1a" stroke-linejoin="round" stroke-width="1.06"/><path d="M565.65,564.39c0,5.57-.58,17.23-4.24,24.15a18.34,18.34,0,0,1-16.58,10.21c-7.46.21-13-2.48-17.46-10.92s-4.24-23.34-4.24-23.34,0-19.91,21-19.91C566.31,544.58,565.65,564.39,565.65,564.39Z" fill="#f5f5f3" stroke="#1a1a1a" stroke-linejoin="round" stroke-width="1.15"/><path d="M564.72,555.17c-.17.3-.32.61-.46.92a17.37,17.37,0,0,0-11.89-11.47v0c-12.49-5.31-17.9-2-17.9-2-17.19,9.5-12.26,22.83-12.26,22.83h.18a13,13,0,0,0,1.23,6.48,27.29,27.29,0,0,0,1.89-6.54c13.34-.85,20.79-9.67,24.3-15.54,1.51,4,5.08,9.61,13.45,15a27.57,27.57,0,0,0,2,7.13C568.3,566.43,564.72,555.17,564.72,555.17Z" fill="#1a1a1a"/><path d="M378.13,713.52V703.34H374.5v-2.07h9.73v2.07h-3.62v10.18Z" fill="#231f20"/><path d="M389.68,710.7l2.34.39a3.82,3.82,0,0,1-1.42,2,4.18,4.18,0,0,1-2.44.67,4,4,0,0,1-3.42-1.51,5.06,5.06,0,0,1-.88-3.06A4.88,4.88,0,0,1,385,705.7a3.78,3.78,0,0,1,2.92-1.25,3.92,3.92,0,0,1,3.12,1.3,5.79,5.79,0,0,1,1.1,4h-5.88a2.36,2.36,0,0,0,.56,1.63,1.83,1.83,0,0,0,1.36.58,1.46,1.46,0,0,0,.93-.3A1.83,1.83,0,0,0,389.68,710.7Zm.14-2.38a2.26,2.26,0,0,0-.53-1.55,1.62,1.62,0,0,0-1.22-.53,1.65,1.65,0,0,0-1.27.56,2.17,2.17,0,0,0-.49,1.52Z" fill="#231f20"/><path d="M395.82,707.35l-2.13-.38a3.31,3.31,0,0,1,1.23-1.9,4.49,4.49,0,0,1,2.61-.62,5.57,5.57,0,0,1,2.34.37,2.36,2.36,0,0,1,1.08.94,4.79,4.79,0,0,1,.32,2.1l0,2.75a10,10,0,0,0,.11,1.72,5.07,5.07,0,0,0,.43,1.19h-2.33c-.06-.15-.13-.38-.22-.69,0-.14-.07-.23-.09-.28a4.2,4.2,0,0,1-1.28.88,3.64,3.64,0,0,1-1.47.29,3,3,0,0,1-2.16-.74,2.65,2.65,0,0,1-.43-3.22,2.32,2.32,0,0,1,1-.9,7.45,7.45,0,0,1,1.87-.55,12.74,12.74,0,0,0,2.28-.58v-.23a1.24,1.24,0,0,0-.33-1,2.06,2.06,0,0,0-1.27-.29,1.69,1.69,0,0,0-1,.25A1.62,1.62,0,0,0,395.82,707.35Zm3.14,1.91c-.3.1-.78.22-1.43.36a4.47,4.47,0,0,0-1.28.41,1,1,0,0,0-.46.83,1.17,1.17,0,0,0,.37.85,1.3,1.3,0,0,0,.94.36,2,2,0,0,0,1.21-.42,1.48,1.48,0,0,0,.56-.78,4.7,4.7,0,0,0,.09-1.14Z" fill="#231f20"/><path d="M403.41,704.65h2.16v1.21a3.5,3.5,0,0,1,2.77-1.41,3,3,0,0,1,1.48.35,2.68,2.68,0,0,1,1,1.06,4.1,4.1,0,0,1,1.26-1.06,3.07,3.07,0,0,1,1.45-.35,3.29,3.29,0,0,1,1.66.39,2.52,2.52,0,0,1,1,1.17,5.1,5.1,0,0,1,.24,1.84v5.67h-2.35v-5.07a3.76,3.76,0,0,0-.24-1.7,1.11,1.11,0,0,0-1-.51,1.61,1.61,0,0,0-.93.3,1.73,1.73,0,0,0-.63.89,6.21,6.21,0,0,0-.19,1.83v4.26h-2.35v-4.86a7,7,0,0,0-.12-1.67,1.13,1.13,0,0,0-.39-.56,1.2,1.2,0,0,0-.72-.19,1.69,1.69,0,0,0-1,.3,1.58,1.58,0,0,0-.62.84,6.47,6.47,0,0,0-.19,1.83v4.31h-2.34Z" fill="#231f20"/><path d="M662.79,514.73q0-9,0-18.06a6.56,6.56,0,0,1,5.24-6.61,5.85,5.85,0,0,1,1.38-.16l20.44,0a1,1,0,0,1,.8.36q5.76,6.48,11.55,12.93a1.33,1.33,0,0,1,.4.95q0,14.28,0,28.57a6.71,6.71,0,0,1-6.78,6.87H669.57a6.64,6.64,0,0,1-6.78-6.78c0-5.86,0-11.73,0-17.59Zm25-21.31h-18a3.15,3.15,0,0,0-3.43,3.4v35.82a3.16,3.16,0,0,0,3.43,3.41h25.93a3.16,3.16,0,0,0,3.41-3.43q0-13,0-26c0-.18,0-.36,0-.59H687.77Zm3.56,2.89v6.17h5.52Z"/><path d="M670.08,513.67v-3.44h25.2v3.44Z"/><path d="M695.28,521.34H670.1v-3.46h25.18Z"/><path d="M670.08,529v-3.44h25.2V529Z"/><path d="M445.69,135.45c0-6,0-12,0-18.06a6.55,6.55,0,0,1,5.24-6.61,5.85,5.85,0,0,1,1.38-.16l20.44,0a1,1,0,0,1,.79.36q5.77,6.47,11.56,12.92a1.35,1.35,0,0,1,.4,1c0,9.52,0,19,0,28.57a6.7,6.7,0,0,1-6.78,6.87H452.47a6.64,6.64,0,0,1-6.77-6.78c0-5.86,0-11.73,0-17.59Zm25-21.32h-18a3.15,3.15,0,0,0-3.43,3.4v35.82a3.15,3.15,0,0,0,3.43,3.4q13,0,25.92,0a3.15,3.15,0,0,0,3.42-3.42v-26c0-.18,0-.36,0-.59H470.68Zm3.55,2.9v6.17h5.53Z"/><path d="M453,134.39V131h25.19v3.44Z"/><path d="M478.19,142.06H453V138.6h25.19Z"/><path d="M453,149.7v-3.44h25.21v3.44Z"/><path d="M398.24,147.23V135.16q-5.64-1.6-8.28-4.88a12.29,12.29,0,0,1-2.63-7.94,11.2,11.2,0,0,1,3-7.93,12,12,0,0,1,7.93-3.7v-2.86h4.18v2.86a12.32,12.32,0,0,1,7.29,3.12,12.1,12.1,0,0,1,3.46,6.9l-7.29,1a5.89,5.89,0,0,0-3.46-4.61v11.26q6.91,1.88,9.42,4.86a11.5,11.5,0,0,1,2.51,7.65,12.76,12.76,0,0,1-3.16,8.78,13.86,13.86,0,0,1-8.77,4.38v5.39h-4.18v-5.24a13.38,13.38,0,0,1-8.09-3.72,15.33,15.33,0,0,1-4-8.79l7.52-.8a9.68,9.68,0,0,0,1.73,4A7.92,7.92,0,0,0,398.24,147.23Zm0-30.24a5.36,5.36,0,0,0-2.7,2,5,5,0,0,0-1,3.06,4.83,4.83,0,0,0,.92,2.83,6.36,6.36,0,0,0,2.79,2.12Zm4.18,30.65a5.9,5.9,0,0,0,3.52-2,5.64,5.64,0,0,0,1.35-3.76,5.09,5.09,0,0,0-1.14-3.32,7.29,7.29,0,0,0-3.73-2.15Z" fill="#231f20"/><path d="M759.37,538.87c.21.38.44.78.65,1.18s.47.93.75,1.37a3.65,3.65,0,0,1,.14.35c.13.25.28.49.42.74-.06,0,0,.11-.17.06a7,7,0,0,0-.79-.18,8.33,8.33,0,0,1-.86-.22,4.42,4.42,0,0,0-.74-.16l-.31-.08c-.47-.09-.94-.23-1.4-.36-.3-.08-.62-.1-.92-.17s-.43-.14-.65-.18-.55-.15-.83-.2a8.33,8.33,0,0,1-1.07-.26,2.36,2.36,0,0,0-.44-.11,6,6,0,0,1-.84-.19,2.22,2.22,0,0,1-.55-.14,1.42,1.42,0,0,0-.51-.13l-1.12-.23c-.17,0-.24-.14-.17-.29a.36.36,0,0,1,.08-.15,5.1,5.1,0,0,0,.57-.83c.54-.77,1-1.58,1.54-2.37l.75-1.13c.24-.37.51-.72.73-1.1.49-.84,1.07-1.63,1.57-2.47a.91.91,0,0,1,.17-.18,4,4,0,0,1,.42.68,2.76,2.76,0,0,0,.36.65c.08.09.08.25.15.36.27.4.41.88.7,1.27a.38.38,0,0,1,0,.11c.29-.17.56-.32.83-.49a12.34,12.34,0,0,0,1.12-.77,5,5,0,0,0,.92-.73,21.94,21.94,0,0,0,2.43-2.29,5.49,5.49,0,0,0,.76-.9c.1-.15.3-.22.35-.42a6.35,6.35,0,0,0,.77-1,11.2,11.2,0,0,0,.68-1c.1-.18.2-.37.32-.55a4.37,4.37,0,0,1,.32-.55,2.25,2.25,0,0,0,.19-.38l.36-.65a5.14,5.14,0,0,0,.39-.86c.08-.24.19-.46.28-.68.25-.59.43-1.19.64-1.79a12.23,12.23,0,0,0,.39-1.47,2.74,2.74,0,0,1,.15-.58c.09-.18,0-.37.13-.56s0-.37.08-.57a5.52,5.52,0,0,0,.09-.92c0-.14,0-.28.08-.42s-.07-.3.07-.43,0-.07,0-.11a8.19,8.19,0,0,1,0-.85,4.57,4.57,0,0,0,0-.83c0-.29,0-.58,0-.87a5,5,0,0,0-.07-.54,2.33,2.33,0,0,0,0-.53c-.07-.21,0-.42-.08-.61s0-.42-.07-.62a2.48,2.48,0,0,1-.07-.61c-.16-.17,0-.42-.15-.59a2.4,2.4,0,0,0-.15-.88c-.13-.48-.22-1-.38-1.44s-.28-1-.47-1.44-.26-.7-.41-1-.21-.39-.28-.6a9,9,0,0,0-.61-1.2c-.24-.45-.49-.91-.78-1.35l-.71-1.07c-.2-.3-.43-.58-.64-.87s-.7-.79-1-1.22a1.62,1.62,0,0,0-.18-.19c-.15-.16-.31-.33-.45-.5s-.35-.24-.44-.46a6.5,6.5,0,0,1-.91-.83c-.14,0-.12-.17-.25-.19s-.18-.12-.26-.19-.18-.18-.28-.26-.42-.29-.6-.46c-.43-.38-1-.61-1.38-1a.49.49,0,0,0-.18-.11.75.75,0,0,1-.4-.24.47.47,0,0,0-.12-.07c-.45-.21-.86-.48-1.31-.7a4.6,4.6,0,0,0-1-.44,2.07,2.07,0,0,0-.92-.44c-.31-.11-.6-.27-.92-.35-.6-.14-1.16-.39-1.77-.52a3.16,3.16,0,0,1-.94-.27c-.13-.07-.28,0-.43-.08a3.38,3.38,0,0,0-.72-.09l-.42-.07c-.15,0-.31.05-.43-.08h-.07a7.61,7.61,0,0,1-1-.08,8.19,8.19,0,0,0-1.64-.07c-.56,0-1.12,0-1.67,0a3.21,3.21,0,0,0-.43.07c-.13,0-.27-.05-.39.07s-.07,0-.11,0a4.25,4.25,0,0,0-.95.09,6.2,6.2,0,0,0-.71.12c-.2.09-.46,0-.68.1s-.61.18-.92.25a2.12,2.12,0,0,1-.41.12,3,3,0,0,0-.88.26l-.8.26c-.33.1-.63.25-.95.36a8.87,8.87,0,0,0-1.22.54c-.34.17-.67.35-1,.53l-1.14.66c-.4.23-.75.53-1.16.75a8,8,0,0,0-.81.63c-.32.23-.6.52-.95.73a3.45,3.45,0,0,0-.39.38c-.34-.37-.71-.73-1-1.13s-.43-.48-.65-.72l-.45-.53a4.14,4.14,0,0,1-.44-.5,3.86,3.86,0,0,0-.53-.54c-.16-.17-.17-.22,0-.37a1.82,1.82,0,0,1,.42-.36c.17-.08.23-.3.43-.34a5.53,5.53,0,0,1,.88-.72c.38-.31.79-.59,1.2-.87.25-.18.52-.34.78-.5l.3-.19.33-.22a.5.5,0,0,1,.12-.08c.75-.38,1.48-.82,2.26-1.15a5.6,5.6,0,0,1,.7-.33,7.24,7.24,0,0,0,.7-.32c.27-.11.55-.19.83-.29s.7-.27,1.06-.38l.84-.27c.27-.08.55-.12.82-.22s.28,0,.42-.07.34,0,.45-.1.28,0,.41-.12a1.7,1.7,0,0,1,.61-.1l.38-.07c.12,0,.25,0,.36-.07s.12,0,.18,0a1,1,0,0,0,.47-.07c.12-.06.3.07.42-.08h0a7.73,7.73,0,0,1,.95-.07c.55,0,1.09-.12,1.64-.09s1.12,0,1.68,0a8.79,8.79,0,0,0,1.26.07c.18.11.38,0,.57.09a3.33,3.33,0,0,0,.54.07c.13,0,.25.08.39.08a.58.58,0,0,1,.36,0c.11.05.28,0,.4,0a12.41,12.41,0,0,1,1.49.35c.14.07.32,0,.45.1a5,5,0,0,1,1.32.32,9.46,9.46,0,0,1,1.14.37h0a3.54,3.54,0,0,0,.82.31c.26.08.48.25.75.31a4.43,4.43,0,0,1,.45.2c.15.05.28.2.46.17.2.2.49.23.72.37s.47.22.69.35c.43.25.87.47,1.29.75s1,.61,1.5,1l.73.52c.36.27.71.56,1.06.83a9.71,9.71,0,0,1,1.23,1.08c.29.09.39.4.63.57a3,3,0,0,1,.62.61c.26.34.58.61.85.94l.41.47a6.12,6.12,0,0,1,.41.48c.23.37.56.67.77,1.05,0,.07.12.12.17.2.26.42.56.82.83,1.24a8.08,8.08,0,0,0,.7,1.12s0,0,0,.06c.12.34.36.61.49.94s.31.55.43.85a8.69,8.69,0,0,1,.6,1.45,3.83,3.83,0,0,1,.43,1c.11.34.24.69.35,1a6.39,6.39,0,0,0,.22.78c.16.39.22.8.36,1.18a2.33,2.33,0,0,1,.08.46c0,.29.17.55.17.85.12.1,0,.25.07.34a.66.66,0,0,1,.07.36c0,.14,0,.28.08.42s-.06.28.07.39,0,.05,0,.07c0,.36,0,.72.08,1.07,0,.16,0,.31.07.47s0,.32.08.46,0,.15,0,.23v3.15a3.4,3.4,0,0,1-.07.46c0,.16.07.33-.08.47s0,0,0,.07a8.17,8.17,0,0,1-.08,1.11,3.49,3.49,0,0,1-.07.43c0,.13,0,.27-.08.38a1.77,1.77,0,0,1-.08.69,3.11,3.11,0,0,1-.14.62.89.89,0,0,0-.08.31,2.38,2.38,0,0,1-.07.31,7.27,7.27,0,0,1-.32,1.32c-.1.33-.17.66-.3,1-.23.61-.4,1.24-.68,1.84-.12.24-.19.51-.31.75s-.21.47-.32.7A11.44,11.44,0,0,1,770,528c-.17.24-.25.53-.42.78-.34.51-.62,1.06-1,1.56-.26.33-.49.68-.73,1-.13.19-.28.36-.42.54-.25.35-.57.65-.81,1s-.41.44-.6.66-.39.45-.6.66-.33.35-.51.52a3,3,0,0,1-.53.46c-.19.12-.29.37-.53.45-.13.28-.43.36-.64.56a3.67,3.67,0,0,1-.67.58c-.31.18-.53.5-.89.6a4,4,0,0,1-.93.7C760.25,538.35,759.81,538.6,759.37,538.87Z"/><path d="M747.07,513.59h11.22v.84c0,.71,0,1.42,0,2.13,0,.26,0,.29-.3.29H747.31c-.2,0-.4,0-.46.24a3.23,3.23,0,0,1-1.44.84,3.81,3.81,0,0,1-1.3.05,2.68,2.68,0,0,1-1.49-.72,3.41,3.41,0,0,1-.88-1.5.53.53,0,0,1,0-.18c0-.13,0-.25,0-.38s-.06-.44.06-.66.12-.38.2-.56a1.59,1.59,0,0,1,.18-.27,2.62,2.62,0,0,1,1.15-1,.7.7,0,0,0,.16-.1V496h2.11v16.53A3.58,3.58,0,0,1,747.07,513.59Z"/><path d="M718.24,508.6c0-.12,0-.28,0-.38s0-.29.07-.39,0-.29.12-.37c.1-.38.19-.76.31-1.13a8.43,8.43,0,0,1,.34-1,4.32,4.32,0,0,0,.19-.64s0-.06,0-.07a15.56,15.56,0,0,0,.66-1.44,7.27,7.27,0,0,0,.34-.81,5.7,5.7,0,0,1,.32-.59c.43-.81.87-1.62,1.38-2.39.22-.33.45-.65.68-1a3.35,3.35,0,0,1,.34.22c.36.28.74.54,1.12.8a4.49,4.49,0,0,0,.8.54c.08,0,.14.13.22.19l1,.73.48.31a6.09,6.09,0,0,1-.66,1c-.14.17-.19.43-.33.62A9.8,9.8,0,0,0,725,504c-.11.21-.23.44-.32.66-.27.62-.53,1.23-.78,1.84s-.36,1.32-.67,1.93c0,.4-.22.76-.23,1.16a1.18,1.18,0,0,1-.1.3,1.11,1.11,0,0,1-.57-.06,1.52,1.52,0,0,0-.51-.16c-.11-.17-.35,0-.46-.15a3.25,3.25,0,0,1-.93-.23c-.29-.08-.58-.13-.86-.23a4.14,4.14,0,0,1-.91-.27C718.56,508.68,718.38,508.73,718.24,508.6Z"/><path d="M722.42,513.83c0,.29,0,.56,0,.84,0,.59,0,1.17.08,1.75a6.48,6.48,0,0,0,.08.77c0,.2,0,.41.07.61a3.91,3.91,0,0,0,.08.61,5.46,5.46,0,0,0,.28,1.21c.05.1,0,.21.08.32s0,.2-.1.25c-.33.16-.68.31-1,.46a2.49,2.49,0,0,1-.28.15l-1.42.69c-.17.08-.35.14-.51.23-.35.2-.72.34-1.08.54a.49.49,0,0,1-.23-.39,5.82,5.82,0,0,0-.17-.83,3.52,3.52,0,0,1-.12-.52c0-.3-.15-.56-.18-.84,0,0,0-.06,0-.09,0-.25-.05-.49-.08-.73s-.05-.31-.07-.46.05-.33-.08-.47,0,0,0-.07a10.52,10.52,0,0,0-.08-1.26,10.87,10.87,0,0,1-.07-1.71c0-.16-.15-.31-.07-.46a1.66,1.66,0,0,0,.07-.66v-.18a7.33,7.33,0,0,1,1.24,0,11.42,11.42,0,0,0,1.3.06l1,.08h1A1.58,1.58,0,0,1,722.42,513.83Z"/><path d="M724.08,523.25l.43.9c.17.36.31.73.5,1.08a11.22,11.22,0,0,0,.79,1.34s.05.11.08.16c.24.38.47.77.75,1.13s.58.83.89,1.22c.1.14.28.21.31.45l-.58.47a6.52,6.52,0,0,1-.55.5,6.8,6.8,0,0,0-.59.5c-.29.22-.52.5-.81.71a10.59,10.59,0,0,0-.85.79,2.45,2.45,0,0,1-.29.18l-.59-.69c-.11-.13-.18-.29-.29-.41a7.8,7.8,0,0,1-.7-.93c-.44-.62-.84-1.26-1.22-1.92,0,0,0-.08,0-.1s-.17-.26-.24-.39-.26-.45-.38-.68-.38-.73-.55-1.1a.68.68,0,0,1-.09-.35.24.24,0,0,1,.16-.21,5.77,5.77,0,0,0,.77-.52,7.11,7.11,0,0,0,.65-.47,3.45,3.45,0,0,1,.5-.35,2.15,2.15,0,0,0,.5-.35c.12-.11.29-.17.41-.28a8.27,8.27,0,0,0,.85-.61S724,523.28,724.08,523.25Z"/><path d="M737.27,536.2c-.11.28-.19.56-.31.81-.26.52-.41,1.09-.68,1.62-.15.29-.21.64-.36,1a7.27,7.27,0,0,0-.35.92,1,1,0,0,1-.2.24c-.39-.17-.77-.35-1.16-.51s-.76-.37-1.15-.53-.76-.43-1.16-.58a6.84,6.84,0,0,0-1.09-.68l-1.07-.71-1.09-.75a5.39,5.39,0,0,1,.53-.76c.16-.17.25-.38.4-.56s.24-.36.38-.52c.29-.32.45-.72.76-1a3.34,3.34,0,0,0,.37-.53,5.09,5.09,0,0,1,.34-.47.17.17,0,0,1,.28,0,10.67,10.67,0,0,0,1.41,1c.47.29.94.58,1.43.85.31.16.65.27,1,.45s.9.4,1.34.62Z"/><path d="M741.45,537.35l.82.14a.29.29,0,0,0,.1,0c.42,0,.84.07,1.26.08s.6.11.92.08.6,0,.91,0h.95c.17.52.34,1.05.5,1.57l.21.64c.1.26.17.54.26.8s.11.41.19.61a4.21,4.21,0,0,1,.28.87.58.58,0,0,1,0,.14c0,.16,0,.23-.21.23a6.24,6.24,0,0,0-1.06,0,12.62,12.62,0,0,1-1.94.06,6.68,6.68,0,0,1-.77-.07,3.85,3.85,0,0,1-.76,0,3.09,3.09,0,0,0-.8-.06c-.15,0-.27-.12-.43-.09s-.29,0-.42,0-.46-.09-.69-.1-.21-.06-.21-.23a.82.82,0,0,1,.06-.43c.07-.11,0-.28.07-.43s0-.19,0-.29a2.68,2.68,0,0,0,.07-.27c0-.11,0-.21.07-.32a1.13,1.13,0,0,0,.1-.42,1.8,1.8,0,0,1,.07-.38,7.25,7.25,0,0,1,.21-1.13,3.4,3.4,0,0,0,.07-.46A5.06,5.06,0,0,0,741.45,537.35Z"/><path d="M549.42,159.71c.21.38.44.78.65,1.18s.47.93.75,1.36c.07.11.08.25.14.36s.28.49.42.74c-.06,0,0,.11-.17.06a6.66,6.66,0,0,0-.8-.18c-.28-.08-.58-.11-.86-.22a4.1,4.1,0,0,0-.73-.16l-.31-.08c-.47-.09-.94-.23-1.41-.36-.3-.08-.61-.1-.91-.17s-.43-.14-.65-.18-.55-.15-.83-.2a7.94,7.94,0,0,1-1.07-.26,3.6,3.6,0,0,0-.44-.12,4.86,4.86,0,0,1-.84-.19,1.83,1.83,0,0,1-.55-.13,1.67,1.67,0,0,0-.51-.14l-1.13-.22c-.16,0-.23-.14-.17-.29s0-.12.09-.15a5.1,5.1,0,0,0,.57-.83c.54-.77,1-1.58,1.54-2.37L543,156c.24-.37.51-.72.73-1.1.49-.85,1.07-1.63,1.56-2.47a1.52,1.52,0,0,1,.18-.18,4.79,4.79,0,0,1,.42.68,2.76,2.76,0,0,0,.36.65c.08.09.08.25.15.36.26.4.41.88.7,1.27,0,0,0,.06.05.11.28-.17.56-.32.83-.49a12.34,12.34,0,0,0,1.12-.77,5,5,0,0,0,.92-.73,21.94,21.94,0,0,0,2.43-2.29,5.94,5.94,0,0,0,.76-.9c.1-.15.3-.23.35-.42a7,7,0,0,0,.77-1,11.2,11.2,0,0,0,.68-1,6.05,6.05,0,0,1,.32-.55,3.76,3.76,0,0,1,.32-.55,2.25,2.25,0,0,0,.19-.38l.36-.65a5.54,5.54,0,0,0,.39-.86c.08-.24.19-.46.28-.68.25-.59.43-1.19.64-1.79a11,11,0,0,0,.38-1.47,2.76,2.76,0,0,1,.16-.58c.08-.18,0-.38.13-.56s0-.38.08-.57a7,7,0,0,0,.09-.92c0-.14.05-.28.07-.42s-.06-.3.08-.43a.4.4,0,0,0,0-.11,8.06,8.06,0,0,1,0-.85,4.57,4.57,0,0,0,0-.83c0-.29,0-.58,0-.87a5,5,0,0,0-.07-.54,2.33,2.33,0,0,0,0-.53c-.07-.21,0-.42-.08-.61a4.53,4.53,0,0,1-.07-.62,2.62,2.62,0,0,1-.07-.62c-.16-.16,0-.42-.15-.58a2.18,2.18,0,0,0-.16-.88c-.12-.48-.21-1-.37-1.44s-.29-1-.47-1.44-.26-.71-.41-1.05-.21-.39-.28-.6a9,9,0,0,0-.61-1.2c-.25-.45-.49-.91-.78-1.35s-.47-.71-.71-1.07-.43-.58-.64-.87c-.3-.44-.7-.79-1-1.22a1.7,1.7,0,0,0-.19-.19c-.15-.17-.3-.33-.44-.5s-.35-.24-.44-.46a6.5,6.5,0,0,1-.91-.83c-.14,0-.12-.18-.26-.2s-.17-.11-.26-.19-.17-.17-.27-.25-.42-.29-.61-.46c-.42-.38-1-.61-1.37-1a.52.52,0,0,0-.19-.11.76.76,0,0,1-.39-.24.47.47,0,0,0-.12-.07c-.45-.21-.86-.48-1.31-.7a4.6,4.6,0,0,0-1-.44A2.07,2.07,0,0,0,544,114a9.38,9.38,0,0,0-.93-.35c-.59-.14-1.15-.39-1.76-.52a3.3,3.3,0,0,1-.95-.27c-.12-.07-.27,0-.42-.08a3.38,3.38,0,0,0-.72-.09l-.43-.08c-.14,0-.3.06-.42-.07s-.05,0-.08,0a7.63,7.63,0,0,1-1-.09,9,9,0,0,0-1.64-.06c-.56,0-1.12,0-1.67,0a3,3,0,0,0-.43.07c-.13,0-.28,0-.39.07s-.07,0-.11,0a4.25,4.25,0,0,0-1,.09,5.85,5.85,0,0,0-.71.12c-.2.09-.46,0-.68.1s-.61.18-.92.25a3.17,3.17,0,0,1-.41.12,3,3,0,0,0-.88.26l-.8.26c-.33.1-.63.25-1,.36a9.56,9.56,0,0,0-1.23.54l-1,.53c-.39.21-.76.44-1.14.66s-.75.53-1.16.75a6.79,6.79,0,0,0-.81.63c-.33.23-.6.52-1,.73a3.45,3.45,0,0,0-.39.38c-.34-.37-.71-.73-1-1.13s-.44-.48-.65-.72l-.46-.53c-.14-.17-.31-.31-.44-.5a3.78,3.78,0,0,0-.52-.54c-.17-.17-.17-.22,0-.37a1.82,1.82,0,0,1,.42-.36c.16-.08.22-.3.43-.34a5,5,0,0,1,.88-.72c.38-.31.79-.59,1.2-.87.25-.18.52-.34.78-.51l.3-.18.33-.22a.5.5,0,0,1,.12-.08c.75-.38,1.47-.82,2.26-1.15a5.52,5.52,0,0,1,.69-.34,4.93,4.93,0,0,0,.71-.31c.27-.11.55-.2.83-.3s.7-.26,1.06-.37l.83-.27c.27-.09.56-.12.82-.22s.29,0,.43-.08.34,0,.45-.09.28-.05.41-.13a2,2,0,0,1,.61-.09l.38-.07c.12,0,.25,0,.36-.07s.12,0,.18,0a1,1,0,0,0,.47-.07c.12-.06.3.06.42-.08h0a7.45,7.45,0,0,1,1-.07c.55,0,1.09-.12,1.64-.09s1.12,0,1.67,0a8.87,8.87,0,0,0,1.26.07c.19.11.39,0,.58.09a3.33,3.33,0,0,0,.54.07c.13,0,.25.08.39.08a.58.58,0,0,1,.36,0c.11,0,.28,0,.4,0a12.41,12.41,0,0,1,1.49.35c.14.07.32,0,.45.1a5,5,0,0,1,1.32.32,9.32,9.32,0,0,1,1.13.37s0,0,0,0a4.07,4.07,0,0,0,.82.31c.26.08.48.25.75.31a4.43,4.43,0,0,1,.45.2c.15,0,.28.2.46.16.19.21.49.24.72.38s.46.22.69.35c.43.25.87.47,1.29.74s1,.62,1.5,1l.73.52c.36.27.7.56,1.06.83a9.71,9.71,0,0,1,1.23,1.08c.29.09.39.4.63.57a3,3,0,0,1,.62.61c.26.33.58.61.85.94l.41.47a4.42,4.42,0,0,1,.4.48c.24.37.56.66.78,1,0,.07.12.12.17.19.26.43.56.83.83,1.25a8.72,8.72,0,0,0,.7,1.12l0,.06c.12.34.36.61.49.93s.31.56.42.86a8,8,0,0,1,.61,1.45,4.22,4.22,0,0,1,.43,1c.11.34.24.68.34,1s.12.54.23.78.22.79.36,1.18a1.77,1.77,0,0,1,.07.46,8,8,0,0,1,.18.85c.12.09,0,.25.07.34a.66.66,0,0,1,.07.36c0,.14,0,.28.08.42s-.06.28.07.39,0,0,0,.07c0,.36.05.72.08,1.07,0,.16,0,.31.07.47s0,.31.07.46,0,.15,0,.23V137a2.46,2.46,0,0,1-.08.46c0,.16.08.33-.07.47s0,0,0,.07a8.17,8.17,0,0,1-.08,1.11,3.07,3.07,0,0,1-.07.42c0,.13,0,.28-.08.39a1.77,1.77,0,0,1-.08.69,3.27,3.27,0,0,1-.14.62.71.71,0,0,0-.08.31c0,.12-.07.21-.07.31a7.27,7.27,0,0,1-.32,1.32c-.1.32-.18.66-.3,1-.23.61-.41,1.24-.68,1.84-.12.24-.19.51-.31.75s-.21.47-.33.7a11.37,11.37,0,0,1-.7,1.34c-.17.24-.26.53-.42.78-.34.51-.63,1.06-1,1.56-.25.33-.48.68-.72,1-.13.19-.28.36-.42.54-.25.34-.57.65-.82,1a6.27,6.27,0,0,1-.6.66c-.19.22-.39.45-.59.66s-.34.35-.51.52a3,3,0,0,1-.53.46c-.2.12-.29.37-.53.45-.13.28-.43.36-.64.56a4.1,4.1,0,0,1-.67.58c-.31.18-.53.5-.89.6a3.69,3.69,0,0,1-.93.69C550.3,159.19,549.86,159.44,549.42,159.71Z"/><path d="M537.12,134.43h11.22v3c0,.26,0,.29-.3.29H537.36c-.2,0-.4,0-.46.24a3.23,3.23,0,0,1-1.44.84,3.57,3.57,0,0,1-1.3,0,2.63,2.63,0,0,1-1.49-.71,3.41,3.41,0,0,1-.88-1.5.53.53,0,0,1,0-.18,1.61,1.61,0,0,1,0-.38c0-.22-.06-.44.06-.66s.12-.38.2-.56a1.59,1.59,0,0,1,.18-.27,2.62,2.62,0,0,1,1.15-1l.16-.1V116.8h2.11v16.53A3.58,3.58,0,0,1,537.12,134.43Z"/><path d="M508.29,129.44c0-.12,0-.29,0-.39s0-.28.08-.38,0-.29.12-.37c.1-.38.19-.76.31-1.13a8.43,8.43,0,0,1,.34-1,4.71,4.71,0,0,0,.19-.64s0-.06,0-.08a14.27,14.27,0,0,0,.66-1.43c.13-.25.23-.54.34-.81a5.7,5.7,0,0,1,.32-.59c.43-.81.87-1.62,1.38-2.39.22-.33.45-.65.68-1,.12.08.24.14.34.22.36.28.74.54,1.12.79a4.53,4.53,0,0,0,.8.55c.08,0,.14.13.22.19l1,.73.48.31a6.82,6.82,0,0,1-.66,1c-.15.17-.2.43-.33.61a10.86,10.86,0,0,0-.66,1.14c-.12.21-.23.44-.33.66-.26.61-.52,1.23-.77,1.84s-.36,1.32-.67,1.93c0,.4-.22.76-.23,1.16a1.76,1.76,0,0,1-.1.3,1.11,1.11,0,0,1-.57-.06,1.52,1.52,0,0,0-.51-.16c-.11-.17-.35,0-.47-.15a3.27,3.27,0,0,1-.92-.23c-.29-.08-.58-.13-.86-.23a4.76,4.76,0,0,1-.91-.27C508.61,129.52,508.43,129.56,508.29,129.44Z"/><path d="M512.47,134.67v.84c0,.58,0,1.17.09,1.75a6.1,6.1,0,0,0,.08.76,4.34,4.34,0,0,1,.06.62,5.58,5.58,0,0,0,.09.61,5.46,5.46,0,0,0,.28,1.21c0,.1,0,.21.08.31a.17.17,0,0,1-.1.25c-.34.17-.68.32-1,.47a2.49,2.49,0,0,1-.28.15l-1.42.69c-.17.08-.35.14-.51.23-.35.2-.72.34-1.08.54a.49.49,0,0,1-.23-.39,4.73,4.73,0,0,0-.18-.83,5,5,0,0,1-.11-.53c0-.29-.15-.55-.18-.83,0,0-.05-.06-.05-.1,0-.24-.05-.48-.08-.72s-.05-.31-.07-.46.05-.33-.08-.47,0-.05,0-.07a10.52,10.52,0,0,0-.08-1.26,11,11,0,0,1-.07-1.72c0-.15-.15-.3-.07-.45a1.66,1.66,0,0,0,.07-.66v-.19a7.32,7.32,0,0,1,1.24,0,11.21,11.21,0,0,0,1.3.06c.33,0,.66.06,1,.07s.68,0,1,0A1.21,1.21,0,0,1,512.47,134.67Z"/><path d="M514.13,144.09c.15.3.29.6.43.9s.31.73.5,1.08a11.22,11.22,0,0,0,.79,1.34c0,.05,0,.11.08.16.24.38.47.77.75,1.13s.58.82.89,1.22c.1.14.28.21.3.45l-.57.47a5.07,5.07,0,0,1-.55.49c-.22.14-.38.35-.59.51s-.53.5-.81.71-.57.52-.85.78a1.62,1.62,0,0,1-.29.19l-.6-.69a3.81,3.81,0,0,0-.29-.41,9,9,0,0,1-.69-.93,21.43,21.43,0,0,1-1.22-1.92s0-.08,0-.1-.17-.26-.24-.39-.26-.45-.38-.68-.38-.73-.55-1.1a.7.7,0,0,1-.09-.35.23.23,0,0,1,.16-.22,5.4,5.4,0,0,0,.77-.51,5.84,5.84,0,0,0,.64-.47,4.1,4.1,0,0,1,.5-.35,2.2,2.2,0,0,0,.51-.35c.12-.11.28-.17.41-.28a8.27,8.27,0,0,0,.85-.61S514.06,144.12,514.13,144.09Z"/><path d="M527.32,157c-.11.28-.19.55-.31.81-.26.52-.41,1.09-.68,1.62-.16.29-.21.64-.36.95a7.27,7.27,0,0,0-.35.92,1.33,1.33,0,0,1-.2.24c-.39-.17-.77-.35-1.16-.51s-.76-.37-1.15-.54-.76-.42-1.17-.57a6.05,6.05,0,0,0-1.09-.68c-.34-.24-.71-.47-1.06-.71l-1.09-.76a5.92,5.92,0,0,1,.53-.75c.15-.17.25-.39.39-.56s.25-.36.39-.52c.28-.32.45-.72.76-1a4.15,4.15,0,0,0,.37-.53,5.09,5.09,0,0,1,.34-.47.17.17,0,0,1,.28,0,9.75,9.75,0,0,0,1.41,1c.46.3.94.59,1.43.86.31.16.65.27.95.45s.9.39,1.34.62Z"/><path d="M531.5,158.19l.82.14a.29.29,0,0,0,.1,0c.42,0,.84.07,1.26.07a7,7,0,0,0,.91.09c.31,0,.61,0,.91,0h1c.17.52.33,1,.5,1.57l.21.64c.1.26.16.54.25.8s.12.41.19.61a3.71,3.71,0,0,1,.29.87.58.58,0,0,1,0,.14c0,.16,0,.23-.21.23a6.24,6.24,0,0,0-1.06,0,12.71,12.71,0,0,1-1.95.06c-.25,0-.51-.06-.76-.07a3.85,3.85,0,0,1-.76,0,3.12,3.12,0,0,0-.8-.06c-.15,0-.27-.12-.43-.09s-.29-.05-.42-.05-.46-.09-.69-.1-.21-.06-.21-.23a.82.82,0,0,1,.06-.43c.07-.12,0-.28.07-.43s0-.19,0-.29.06-.18.07-.27a1.83,1.83,0,0,1,.07-.32,1.13,1.13,0,0,0,.1-.42,1,1,0,0,1,.07-.38,7,7,0,0,1,.21-1.13,3.4,3.4,0,0,0,.07-.46A5.06,5.06,0,0,0,531.5,158.19Z"/><path d="M205.48,334.08l2.39.76a5.34,5.34,0,0,1-1.83,3,5.78,5.78,0,0,1-7.27-.7,6.41,6.41,0,0,1-1.57-4.56,6.71,6.71,0,0,1,1.58-4.75,5.43,5.43,0,0,1,4.16-1.69,5.09,5.09,0,0,1,3.65,1.33,4.77,4.77,0,0,1,1.25,2.26l-2.45.58a2.51,2.51,0,0,0-.9-1.5,2.6,2.6,0,0,0-1.68-.56,2.8,2.8,0,0,0-2.21,1,4.77,4.77,0,0,0-.85,3.17,5.12,5.12,0,0,0,.84,3.31,2.7,2.7,0,0,0,2.17,1,2.48,2.48,0,0,0,1.7-.62A3.72,3.72,0,0,0,205.48,334.08Z" fill="#231f20"/><path d="M210,338.58V326.33h2.35v12.25Z" fill="#231f20"/><path d="M214.74,328.5v-2.17h2.34v2.17Zm0,10.08v-8.87h2.34v8.87Z" fill="#231f20"/><path d="M224.63,335.76l2.34.39a3.88,3.88,0,0,1-1.42,2,4.2,4.2,0,0,1-2.44.67,4,4,0,0,1-3.43-1.51,5.12,5.12,0,0,1-.87-3.06,4.92,4.92,0,0,1,1.15-3.46,3.81,3.81,0,0,1,2.92-1.25,3.93,3.93,0,0,1,3.12,1.31,5.77,5.77,0,0,1,1.1,4h-5.89a2.41,2.41,0,0,0,.57,1.63,1.8,1.8,0,0,0,1.36.58,1.38,1.38,0,0,0,.92-.31A1.87,1.87,0,0,0,224.63,335.76Zm.14-2.38a2.31,2.31,0,0,0-.53-1.55,1.69,1.69,0,0,0-2.49,0,2.16,2.16,0,0,0-.5,1.52Z" fill="#231f20"/><path d="M237.08,338.58h-2.35v-4.53a7,7,0,0,0-.15-1.86,1.28,1.28,0,0,0-.48-.65,1.39,1.39,0,0,0-.82-.24,1.81,1.81,0,0,0-1.09.34,1.63,1.63,0,0,0-.67.88,7.67,7.67,0,0,0-.18,2v4H229v-8.87h2.18V331a3.58,3.58,0,0,1,2.93-1.51,3.63,3.63,0,0,1,1.42.28,2.4,2.4,0,0,1,1,.72,2.5,2.5,0,0,1,.46,1,7,7,0,0,1,.13,1.57Z" fill="#231f20"/><path d="M243.53,329.71v1.87h-1.6v3.57a7.35,7.35,0,0,0,0,1.27.52.52,0,0,0,.21.3.69.69,0,0,0,.39.11,3.06,3.06,0,0,0,.95-.22l.2,1.82a4.78,4.78,0,0,1-1.86.35,3,3,0,0,1-1.14-.21A1.71,1.71,0,0,1,240,338a2.16,2.16,0,0,1-.33-.92,11.07,11.07,0,0,1-.08-1.65v-3.87H238.5v-1.87h1.07v-1.77l2.36-1.37v3.14Z" fill="#231f20"/><path d="M630.69,408.3a70.59,70.59,0,1,1,70.6-70.59A70.67,70.67,0,0,1,630.69,408.3Zm0-140.18a69.59,69.59,0,1,0,69.6,69.59A69.67,69.67,0,0,0,630.69,268.12Z" fill="#1a1a1a"/><path d="M630.7,408.8a71.09,71.09,0,1,1,71.09-71.09A71.17,71.17,0,0,1,630.7,408.8Zm-70.1-71.09a70.1,70.1,0,0,0,140.19,0,70.1,70.1,0,0,1-140.19,0Zm70.1-69.09a69.09,69.09,0,1,0,69.09,69.09A69.17,69.17,0,0,0,630.7,268.62Z" fill="#1a1a1a"/><path d="M616.85,308.75c-.72.27-1.27.45-1.79.68-6.62,3-13.23,6-19.88,9a2.06,2.06,0,0,0-1.43,2.26q.06,19.44,0,38.89v1.77c0,1.74.06,1.61-1.66,1.61H585c-1.11,0-1.15,0-1.14-1,0-2.42-.29-2.06,2-2.08,2.57,0,2.57,0,2.57-2.5V318.42a10.26,10.26,0,0,0,0-1.24,1.82,1.82,0,0,1,1.31-2.14c4.17-1.81,8.3-3.74,12.44-5.62,1.13-.51,2.25-1.05,3.41-1.51a1.68,1.68,0,0,0,1.23-1.86c-.09-2.72,0-5.44-.06-8.16a2,2,0,0,1,1.37-2.12c8-3.8,16-7.66,24-11.49,1.23-.59,1-.79,2,.42,3.68,4.34,7.33,8.68,11,13a2.63,2.63,0,0,1,.7,1.92c0,1.48,0,3,0,4.44,0,.46.06.91.11,1.51,1.82-.81,3.49-1.53,5.14-2.32a1.12,1.12,0,0,1,1.54.28c3.73,4,7.49,7.91,11.21,11.89a3.21,3.21,0,0,1,.55,1.41,4.68,4.68,0,0,1,0,1.06q0,19.89,0,39.78c0,2.27-.1,2.15,2.11,2.14h.18c2.36,0,2.51.17,2.21,2.47,0,.42-.21.65-.65.65h-49.9c-1.74,0-1.6.08-1.6-1.67q0-25.22,0-50.43ZM611,305.42l4.55-2c1.17-.52,1.17-.51,2.07.44,3.47,3.64,6.91,7.31,10.42,10.91a3.85,3.85,0,0,1,1.2,2.95q-.06,19.53,0,39.05c0,3.66-.78,3,3.23,3.05.12,0,.28.05.34,0a2.41,2.41,0,0,0,.62-.7,2.57,2.57,0,0,0,0-.88q0-34.26,0-68.51a11.33,11.33,0,0,0-.15-1.32c-.5.24-.87.4-1.23.58l-11.19,5.38-8.78,4.22c-.47.23-1.07.35-1.08,1C611,301.46,611,303.33,611,305.42Zm41.05,3.26c-1.67.75-3.08,1.49-4.56,2a2.21,2.21,0,0,0-1.64,2.48c.05,14.89,0,29.79,0,44.68v.71c0,1.19,0,1.21,1.17,1.23s2,0,3,0c2.18,0,2,.21,2-2V308.68Z" fill="#1a1a1a"/><path d="M597.6,328.88c0-1.74,0-3.27,0-4.79,0-.7.48-.88,1-1.1l8.19-3.79,4.73-2.21c0,.8,0,1.36,0,1.92,0,1.18,0,2.36,0,3.54,0,2.54.4,2-2,2.75C605.64,326.45,601.74,327.6,597.6,328.88Z" fill="#1a1a1a"/><path d="M604.62,362.89c-2,0-4,0-6,0-.78,0-1-.29-1-1,0-1.42,0-2.84,0-4.25,0-.62.12-1,.87-1q6.12,0,12.22,0c.63,0,.83.27.82.85,0,1.54,0,3.07,0,4.61,0,.62-.28.82-.86.81Z" fill="#1a1a1a"/><path d="M611.49,343.94c0,2,0,3.82,0,5.64a.7.7,0,0,1-.72.8c-.23,0-.47.08-.7.09-3.78.16-7.55.34-11.33.48-1.09,0-1.11,0-1.14-1,0-1.18,0-2.36,0-3.54,0-.77.28-1,1-1.08,3.7-.36,7.39-.76,11.09-1.14Z" fill="#1a1a1a"/><path d="M611.5,330.49c0,2.13,0,4,0,5.9,0,.59-.08,1-.82,1.07-4.07.65-8.12,1.35-12.19,2-.55.09-.91,0-.9-.7,0-1.3-.34-2.75.13-3.85s2.24-1,3.44-1.4C604.52,332.49,607.92,331.54,611.5,330.49Z" fill="#1a1a1a"/><path d="M598.85,384.8V372.55h8.4v2.07h-5.92v2.9h5.11v2.08h-5.11v5.2Z" fill="#231f20"/><path d="M608.82,382l2.28-.25a1.66,1.66,0,0,0,.43,1,1.29,1.29,0,0,0,.93.33,1.5,1.5,0,0,0,1.23-.67,5.71,5.71,0,0,0,.66-2.77,2.83,2.83,0,0,1-2.22,1,3.33,3.33,0,0,1-2.49-1.12,4.05,4.05,0,0,1-1-2.9,4.13,4.13,0,0,1,1.11-3,3.74,3.74,0,0,1,2.82-1.14,3.81,3.81,0,0,1,3.06,1.44c.79,1,1.19,2.54,1.19,4.75s-.42,3.85-1.25,4.84a4,4,0,0,1-3.24,1.49,3.42,3.42,0,0,1-2.32-.77A3.71,3.71,0,0,1,608.82,382Zm5.32-5.13a2.7,2.7,0,0,0-.52-1.76,1.56,1.56,0,0,0-1.21-.63,1.34,1.34,0,0,0-1.08.51,2.62,2.62,0,0,0-.43,1.69,2.68,2.68,0,0,0,.46,1.74,1.47,1.47,0,0,0,1.17.55,1.44,1.44,0,0,0,1.14-.53A2.34,2.34,0,0,0,614.14,376.84Z" fill="#231f20"/><path d="M626.32,384.8V374.62h-3.63v-2.07h9.73v2.07H628.8V384.8Z" fill="#231f20"/><path d="M637.87,382l2.34.39a3.82,3.82,0,0,1-1.42,2,4.18,4.18,0,0,1-2.44.67,4,4,0,0,1-3.42-1.51,5.06,5.06,0,0,1-.88-3.06A4.88,4.88,0,0,1,633.2,377a3.78,3.78,0,0,1,2.92-1.25,3.92,3.92,0,0,1,3.12,1.3,5.79,5.79,0,0,1,1.1,4h-5.89a2.41,2.41,0,0,0,.57,1.63,1.81,1.81,0,0,0,1.36.58,1.43,1.43,0,0,0,.92-.3A1.9,1.9,0,0,0,637.87,382Zm.14-2.38a2.31,2.31,0,0,0-.53-1.55,1.62,1.62,0,0,0-1.22-.53,1.64,1.64,0,0,0-1.27.56,2.13,2.13,0,0,0-.49,1.52Z" fill="#231f20"/><path d="M650,378.55l-2.31.42a1.71,1.71,0,0,0-.54-1.05,1.6,1.6,0,0,0-1.07-.35,1.78,1.78,0,0,0-1.4.61,3.09,3.09,0,0,0-.52,2,3.56,3.56,0,0,0,.53,2.23,1.75,1.75,0,0,0,1.42.65,1.62,1.62,0,0,0,1.1-.38,2.32,2.32,0,0,0,.6-1.31l2.31.39a4.09,4.09,0,0,1-1.38,2.4A4.27,4.27,0,0,1,646,385a4.07,4.07,0,0,1-3.11-1.23,5.57,5.57,0,0,1,0-6.82,4.1,4.1,0,0,1,3.14-1.22,4.28,4.28,0,0,1,2.57.69A3.9,3.9,0,0,1,650,378.55Z" fill="#231f20"/><path d="M654.11,372.55v4.51a3.52,3.52,0,0,1,4.18-1,2.35,2.35,0,0,1,1,.77,2.72,2.72,0,0,1,.45,1,9.42,9.42,0,0,1,.12,1.77v5.2h-2.35v-4.69a7,7,0,0,0-.13-1.77,1.21,1.21,0,0,0-.47-.6,1.6,1.6,0,0,0-.85-.22,1.91,1.91,0,0,0-1,.29,1.67,1.67,0,0,0-.68.85,5.26,5.26,0,0,0-.21,1.7v4.44h-2.35V372.55Z" fill="#231f20"/><path d="M404.94,176c1,0,2.08,0,3.11,0a243.91,243.91,0,0,1,172.68,74.06c.74.76,1.46,1.54,2.19,2.31.58-.36,1.17-.71,1.76-1.05-.84-.89-1.67-1.78-2.52-2.65A248,248,0,0,0,302,196.35c.47.58.92,1.16,1.38,1.74A243.92,243.92,0,0,1,404.94,176Z" fill="#1a1a1a"/><path d="M159.52,418.45a244.71,244.71,0,0,1,9.83-65.87c-.62-.35-1.23-.71-1.85-1.08a249.08,249.08,0,0,0,18.27,185.11,23.35,23.35,0,0,0,1.48-1.81A243.83,243.83,0,0,1,159.52,418.45Z" fill="#1a1a1a"/><path d="M650.43,425.11A244,244,0,0,1,608.94,558c.53.49,1.06,1,1.6,1.47a245.79,245.79,0,0,0,41.91-134.76C651.78,424.83,651.11,425,650.43,425.11Z" fill="#1a1a1a"/><polygon points="172.28 362.92 171.58 344.87 158.72 356.95 166.76 356.61 172.28 362.92" fill="#1a1a1a"/><polygon points="606.73 549.12 602.82 566.75 618.33 558.34 610.47 556.63 606.73 549.12" fill="#1a1a1a"/><polygon points="573.74 251.37 590.34 258.49 584.96 241.69 581.81 249.09 573.74 251.37" fill="#1a1a1a"/><path d="M126.2,460.75H100.39A18.93,18.93,0,0,1,103,465h23.2Z"/><path d="M126.2,474.5v-4.26H104.41a18.16,18.16,0,0,1,.14,2.23,19.57,19.57,0,0,1-.11,2Z"/><path d="M95,455.53h31.2v-4.25H95Z"/><path d="M134.77,442.53q-7.17-8-14.31-16a1.2,1.2,0,0,0-1-.45c-8.44,0-16.88,0-25.32,0a8.25,8.25,0,0,0-8.2,8.38q0,9.7,0,19.39a18.84,18.84,0,0,1,4.35.52V434.68a3.91,3.91,0,0,1,4.25-4.23H116.9V446.1h13.95c0,.29,0,.51,0,.73q0,16.1,0,32.18a3.91,3.91,0,0,1-4.22,4.24H101.1a18.8,18.8,0,0,1-4.36,4.36h30.11a8.64,8.64,0,0,0,1.9-.2,8.15,8.15,0,0,0,6.5-8.31q0-17.68,0-35.38A1.63,1.63,0,0,0,134.77,442.53Zm-13.47-.86V434l6.84,7.64Z"/><path d="M83.31,458.7a14.49,14.49,0,1,0,14.48,14.49A14.51,14.51,0,0,0,83.31,458.7Zm0,27.11a12.63,12.63,0,1,1,12.62-12.62A12.64,12.64,0,0,1,83.31,485.81Z"/><polygon points="79.56 475.17 76.44 472.05 73.81 474.68 79.56 480.43 91.42 468.57 88.79 465.95 79.56 475.17"/><path d="M198.05,235.32a19.7,19.7,0,0,1-14.79-6.23c-11.59-12.18-10.5-37.64-10.44-38.72,0-.43-.5-11.87,7-19.77,4.52-4.75,10.95-7.15,19.12-7.15,7.3,0,13,2.21,17.09,6.59,7.16,7.74,6.48,19.42,6.42,20.36.1,1.58,1.52,26.65-9.75,38.69A19.3,19.3,0,0,1,198.05,235.32Zm.91-70.69c-7.82,0-14,2.28-18.25,6.78-7.17,7.53-6.72,18.85-6.71,19,0,.32-1.12,26.1,10.12,37.9a18.54,18.54,0,0,0,13.93,5.86,18.19,18.19,0,0,0,13.81-5.85c11-11.79,9.44-37.58,9.42-37.84v-.09c0-.12.85-12-6.1-19.51C211.37,166.72,205.91,164.63,199,164.63Z" fill="#010101"/><path d="M222.47,213a3.28,3.28,0,0,1-2.72-1.47l1-.69a2.12,2.12,0,0,0,1.84,1c1.39,0,3.07-1.34,4.29-3.3a12.63,12.63,0,0,0,1.6-8.5,3.25,3.25,0,0,0-1.39-2.17c-2.47-1.46-4.61,1.56-4.7,1.69l-1-.67c1-1.41,3.55-3.66,6.28-2a4.35,4.35,0,0,1,1.94,2.9,14,14,0,0,1-1.74,9.42c-1.45,2.32-3.46,3.79-5.26,3.85Z" fill="#010101"/><path d="M173,213h-.12c-1.8-.06-3.81-1.53-5.26-3.85a14,14,0,0,1-1.74-9.42,4.35,4.35,0,0,1,1.94-2.9c2.73-1.62,5.3.63,6.28,2l-1,.67c-.09-.13-2.23-3.14-4.7-1.69A3.25,3.25,0,0,0,167,200a12.68,12.68,0,0,0,1.6,8.5c1.22,2,2.9,3.25,4.29,3.3a2.06,2.06,0,0,0,1.84-1l1,.69A3.28,3.28,0,0,1,173,213Z" fill="#010101"/><path d="M202.4,183.58c.2.29,1.36,4,1.36,4h12.8l-4.34-2.46a9.71,9.71,0,0,0-3.53-1Z" fill="#010101"/><path d="M215.41,249.56a.6.6,0,0,1-.6-.56l-1.1-21.91a.6.6,0,0,1,1.19-.06l1.1,21.91a.6.6,0,0,1-.56.62Z" fill="#010101"/><path d="M181.68,245.09a.59.59,0,0,1-.6-.59V227.06a.6.6,0,0,1,1.19,0V244.5A.59.59,0,0,1,181.68,245.09Z" fill="#010101"/><path d="M182,227.61s4.81,7.52,12.6,11c5.66,2.54,13,1.55,16.82-2.58a13.51,13.51,0,0,0,3.37-9.57s-6.24,6.46-15.54,6.77S182,227.61,182,227.61Z" fill="#010101"/><path d="M188.22,173.67s-.45,21.83,31,23l.92,13.09s7.64-12.47,6.66-26C225.45,164.7,191.67,148.62,188.22,173.67Z" fill="#010101"/><path d="M186.76,171.23s-11.86,10.94-10.94,38.06c0,0-3.91-7.59-2.66-13.31-1.84-1.38-3.78.44-3.78.44s-8.27-36.54,23.67-31C222.41,170.46,186.76,171.23,186.76,171.23Z" fill="#010101"/><path d="M189.38,175.27a19.19,19.19,0,0,0,.92,4.82A23.35,23.35,0,0,0,198.88,192a31.64,31.64,0,0,0,8.9,4.56,50.11,50.11,0,0,0,9.86,2.14l-2.52-.24-2.51-.36c-.83-.17-1.66-.33-2.49-.52s-1.65-.39-2.45-.66a31.54,31.54,0,0,1-9.19-4.36,24.47,24.47,0,0,1-6.93-7.5,21.89,21.89,0,0,1-3.1-9.79Z" fill="#010101"/><path d="M260.35,302.78H136a.77.77,0,0,1-.6-.3.75.75,0,0,1-.12-.65c1.32-4.71,13-46.12,16.11-49.31,3.28-3.37,32.73-10.31,46.78-10.31s43.51,6.94,46.79,10.31c3.1,3.19,14.78,44.6,16.11,49.31a.76.76,0,0,1-.13.65A.74.74,0,0,1,260.35,302.78ZM137,301.28H259.36c-5.17-18.36-13.36-45.55-15.47-47.72-2.7-2.78-31.74-9.85-45.71-9.85s-43,7.07-45.7,9.85C150.36,255.73,142.17,282.92,137,301.28Z" fill="#010101"/><path d="M136,302s12.7-46.18,15.69-49.48S181,244.83,181,244.83l7.18,57.2H136" fill="#010101"/><path d="M215.41,244.83,208.23,302h52.12s-12.69-46.18-15.68-49.48S215.41,244.83,215.41,244.83Z" fill="#010101"/><path d="M204.27,280l-2-21.07c-.14-1.38-.3-2.77-.44-4.14h-7.33c-.1.91-.19,1.77-.27,2.64-.46,4.81-.91,9.63-1.38,14.45q-.8,8.25-1.62,16.49c-.46,4.72-.9,9.44-1.38,14.16,5.34.31,11-.55,16.53-.79-.11-1.09-.22-2.19-.32-3.28C205.43,292.3,204.86,286.14,204.27,280Z" fill="#010101"/><path d="M188.48,243.33H207.7a6,6,0,0,1-.31.67c-1.74,3-3.49,6.05-5.22,9.08a1.15,1.15,0,0,1-1.16.71c-1.94,0-3.87,0-5.81,0a1.33,1.33,0,0,1-1-.49C192.32,250,190.45,246.74,188.48,243.33Z" fill="#010101"/></svg>