<svg width="731" height="664" viewBox="0 0 731 664" fill="none" xmlns="http://www.w3.org/2000/svg">
<g opacity="0.88">
<circle opacity="0.2" cx="362" cy="332" r="331.5" stroke="#2B74E2"/>
<circle opacity="0.2" cx="362.004" cy="332" r="284.941" stroke="#2B74E2"/>
<circle opacity="0.2" cx="361.992" cy="332" r="226.922" stroke="#2B74E2"/>
<circle opacity="0.2" cx="362.001" cy="332" r="165.321" stroke="#2B74E2"/>
</g>
<path opacity="0.88" d="M322.869 323.62H328.371L333.996 305.919C334.125 305.485 334.23 305.093 334.312 304.741C334.406 304.378 334.488 304.044 334.558 303.739H334.664C334.734 304.044 334.81 304.378 334.892 304.741C334.974 305.093 335.086 305.491 335.226 305.937L340.957 323.62H346.916L338.056 297.956H331.728L322.869 323.62ZM327.914 318.259H341.572L340.5 314.233H328.951L327.914 318.259ZM348.463 329.21C349.365 329.808 350.496 330.312 351.855 330.722C353.215 331.144 354.715 331.354 356.355 331.354C359.109 331.354 361.33 330.563 363.017 328.981C364.705 327.411 365.549 325.144 365.549 322.179V306.288H360.099L360.029 308.433H359.959C359.525 307.706 358.84 307.108 357.902 306.64C356.976 306.171 355.945 305.937 354.808 305.937C352.558 305.937 350.783 306.745 349.482 308.362C348.181 309.979 347.531 312.083 347.531 314.673V315.235C347.531 317.813 348.193 319.905 349.517 321.511C350.853 323.104 352.617 323.901 354.808 323.901C356.097 323.901 357.158 323.69 357.99 323.269C358.834 322.835 359.502 322.261 359.994 321.546V322.829C359.994 324.446 359.56 325.606 358.693 326.31C357.826 327.024 356.795 327.382 355.599 327.382C354.474 327.382 353.385 327.183 352.33 326.784C351.287 326.386 350.531 325.981 350.062 325.571L348.463 329.21ZM353.174 315.323V314.603C353.174 313.231 353.461 312.112 354.035 311.245C354.609 310.378 355.488 309.944 356.672 309.944C357.48 309.944 358.166 310.167 358.728 310.612C359.291 311.058 359.695 311.608 359.941 312.265V317.661C359.707 318.259 359.308 318.786 358.746 319.243C358.183 319.7 357.504 319.929 356.707 319.929C355.512 319.929 354.621 319.507 354.035 318.663C353.461 317.808 353.174 316.694 353.174 315.323ZM369.31 323.62H375.006V306.288H369.31V323.62ZM368.941 300.874C368.941 301.694 369.217 302.392 369.767 302.966C370.318 303.54 371.109 303.827 372.14 303.827C373.183 303.827 373.98 303.54 374.531 302.966C375.094 302.392 375.375 301.694 375.375 300.874C375.375 300.042 375.099 299.345 374.549 298.782C373.998 298.22 373.207 297.938 372.176 297.938C371.133 297.938 370.33 298.22 369.767 298.782C369.217 299.345 368.941 300.042 368.941 300.874ZM378.803 323.62H384.463V297.358H378.803V323.62ZM387.363 315.2C387.363 317.919 388.189 320.081 389.842 321.687C391.506 323.292 393.82 324.095 396.785 324.095C398.871 324.095 400.588 323.708 401.935 322.935C403.283 322.161 404.232 321.136 404.783 319.858L400.406 318.03C400.043 318.604 399.556 319.091 398.947 319.489C398.338 319.888 397.594 320.087 396.715 320.087C395.484 320.087 394.547 319.671 393.902 318.839C393.269 317.995 392.953 316.835 392.953 315.358V314.181C392.953 312.868 393.246 311.796 393.832 310.964C394.429 310.132 395.297 309.716 396.433 309.716C397.453 309.716 398.221 310.009 398.736 310.595C399.263 311.181 399.527 311.907 399.527 312.774V313.038H390.721V316.132H405.012V314.392C405.012 311.708 404.262 309.604 402.762 308.081C401.262 306.546 399.164 305.778 396.469 305.778C393.75 305.778 391.553 306.587 389.877 308.204C388.201 309.81 387.363 311.954 387.363 314.638V315.2ZM259.148 367.62H267.937C271.301 367.62 274.013 366.554 276.076 364.421C278.138 362.288 279.17 359.329 279.17 355.544V354.05C279.17 350.253 278.133 347.3 276.058 345.19C273.996 343.081 271.289 342.026 267.937 342.026H259.148V367.62ZM264.844 363.454V346.28H267.568C269.303 346.292 270.685 346.901 271.717 348.108C272.76 349.315 273.281 351.155 273.281 353.628V356.036C273.281 358.497 272.765 360.349 271.734 361.591C270.715 362.833 269.326 363.454 267.568 363.454H264.844ZM281.525 359.2C281.525 361.919 282.351 364.081 284.004 365.687C285.668 367.292 287.982 368.095 290.947 368.095C293.033 368.095 294.75 367.708 296.097 366.935C297.445 366.161 298.394 365.136 298.945 363.858L294.568 362.03C294.205 362.604 293.719 363.091 293.109 363.489C292.5 363.888 291.756 364.087 290.877 364.087C289.646 364.087 288.709 363.671 288.064 362.839C287.431 361.995 287.115 360.835 287.115 359.358V358.181C287.115 356.868 287.408 355.796 287.994 354.964C288.592 354.132 289.459 353.716 290.596 353.716C291.615 353.716 292.383 354.009 292.898 354.595C293.426 355.181 293.689 355.907 293.689 356.774V357.038H284.883V360.132H299.174V358.392C299.174 355.708 298.424 353.604 296.924 352.081C295.424 350.546 293.326 349.778 290.631 349.778C287.912 349.778 285.715 350.587 284.039 352.204C282.363 353.81 281.525 355.954 281.525 358.638V359.2ZM299.631 350.288L306.328 367.62H311.601L318.246 350.288H313.183L309.703 360.044C309.597 360.419 309.498 360.771 309.404 361.099C309.322 361.415 309.258 361.696 309.211 361.942H309.123C309.076 361.696 309.006 361.415 308.912 361.099C308.83 360.771 308.73 360.419 308.613 360.044L305.185 350.288H299.631ZM318.721 359.2C318.721 361.919 319.547 364.081 321.199 365.687C322.863 367.292 325.178 368.095 328.142 368.095C330.228 368.095 331.945 367.708 333.293 366.935C334.64 366.161 335.59 365.136 336.14 363.858L331.763 362.03C331.4 362.604 330.914 363.091 330.304 363.489C329.695 363.888 328.951 364.087 328.072 364.087C326.842 364.087 325.904 363.671 325.26 362.839C324.627 361.995 324.31 360.835 324.31 359.358V358.181C324.31 356.868 324.603 355.796 325.189 354.964C325.787 354.132 326.654 353.716 327.791 353.716C328.81 353.716 329.578 354.009 330.094 354.595C330.621 355.181 330.885 355.907 330.885 356.774V357.038H322.078V360.132H336.369V358.392C336.369 355.708 335.619 353.604 334.119 352.081C332.619 350.546 330.521 349.778 327.826 349.778C325.107 349.778 322.91 350.587 321.234 352.204C319.558 353.81 318.721 355.954 318.721 358.638V359.2ZM339.094 367.62H344.754V341.358H339.094V367.62ZM347.654 359.218C347.654 361.913 348.51 364.069 350.221 365.687C351.943 367.292 354.217 368.095 357.041 368.095C359.853 368.095 362.121 367.292 363.844 365.687C365.566 364.069 366.428 361.913 366.428 359.218V358.638C366.428 355.954 365.566 353.81 363.844 352.204C362.121 350.587 359.853 349.778 357.041 349.778C354.228 349.778 351.961 350.587 350.238 352.204C348.515 353.81 347.654 355.954 347.654 358.638V359.218ZM353.367 358.409C353.367 356.979 353.683 355.866 354.316 355.069C354.949 354.272 355.851 353.874 357.023 353.874C358.207 353.874 359.115 354.272 359.748 355.069C360.381 355.866 360.697 356.979 360.697 358.409V359.446C360.697 360.876 360.381 361.995 359.748 362.804C359.127 363.612 358.219 364.017 357.023 364.017C355.84 364.017 354.931 363.612 354.299 362.804C353.678 361.995 353.367 360.876 353.367 359.446V358.409ZM369.275 375.056H374.883V365.845C375.387 366.501 376.066 367.022 376.922 367.409C377.789 367.784 378.808 367.972 379.98 367.972C382.172 367.972 383.947 367.175 385.306 365.581C386.666 363.987 387.346 361.854 387.346 359.183V358.62C387.346 355.913 386.666 353.78 385.306 352.222C383.947 350.663 382.16 349.884 379.945 349.884C378.773 349.884 377.724 350.118 376.799 350.587C375.873 351.044 375.205 351.618 374.795 352.31L374.724 352.327L374.654 350.288H369.275V375.056ZM374.883 361.696V356.177C375.14 355.579 375.551 355.058 376.113 354.612C376.676 354.167 377.373 353.944 378.205 353.944C379.365 353.944 380.226 354.337 380.789 355.122C381.351 355.907 381.633 357.003 381.633 358.409V359.429C381.633 360.823 381.351 361.931 380.789 362.751C380.226 363.56 379.365 363.964 378.205 363.964C377.408 363.964 376.717 363.735 376.131 363.278C375.545 362.821 375.129 362.294 374.883 361.696ZM390.193 367.62H395.818V356.353C396.123 355.673 396.521 355.134 397.013 354.735C397.517 354.325 398.115 354.12 398.806 354.12C399.603 354.12 400.207 354.349 400.617 354.806C401.039 355.251 401.25 355.983 401.25 357.003V367.62H406.892V356.353C407.185 355.673 407.584 355.134 408.088 354.735C408.603 354.325 409.207 354.12 409.898 354.12C410.683 354.12 411.281 354.343 411.691 354.788C412.101 355.233 412.306 355.96 412.306 356.968V367.62H417.949V356.616C417.949 354.202 417.422 352.479 416.367 351.448C415.312 350.405 413.918 349.884 412.183 349.884C410.941 349.884 409.787 350.153 408.721 350.692C407.666 351.22 406.828 351.976 406.207 352.96H406.154C405.779 351.952 405.14 351.19 404.238 350.675C403.336 350.159 402.263 349.901 401.021 349.901C399.885 349.901 398.859 350.136 397.945 350.604C397.043 351.062 396.316 351.706 395.765 352.538H395.678L395.625 350.306H390.193V367.62ZM420.674 359.2C420.674 361.919 421.5 364.081 423.152 365.687C424.816 367.292 427.131 368.095 430.096 368.095C432.181 368.095 433.898 367.708 435.246 366.935C436.594 366.161 437.543 365.136 438.094 363.858L433.717 362.03C433.353 362.604 432.867 363.091 432.258 363.489C431.648 363.888 430.904 364.087 430.025 364.087C428.795 364.087 427.857 363.671 427.213 362.839C426.58 361.995 426.263 360.835 426.263 359.358V358.181C426.263 356.868 426.556 355.796 427.142 354.964C427.74 354.132 428.607 353.716 429.744 353.716C430.763 353.716 431.531 354.009 432.047 354.595C432.574 355.181 432.838 355.907 432.838 356.774V357.038H424.031V360.132H438.322V358.392C438.322 355.708 437.572 353.604 436.072 352.081C434.572 350.546 432.474 349.778 429.779 349.778C427.06 349.778 424.863 350.587 423.187 352.204C421.512 353.81 420.674 355.954 420.674 358.638V359.2ZM441.029 367.62H446.654V356.335C446.947 355.655 447.369 355.116 447.92 354.718C448.482 354.319 449.103 354.12 449.783 354.12C450.58 354.12 451.201 354.337 451.646 354.771C452.092 355.204 452.314 355.937 452.314 356.968V367.62H457.939V356.493C457.939 354.091 457.377 352.392 456.252 351.396C455.138 350.388 453.691 349.884 451.91 349.884C450.679 349.884 449.601 350.124 448.676 350.604C447.75 351.073 447.064 351.688 446.619 352.45H446.549L446.496 350.288H441.029V367.62ZM459.767 354.349H471.439V350.288H459.767V354.349ZM462.404 362.329C462.404 364.321 462.896 365.774 463.881 366.688C464.865 367.603 466.224 368.06 467.959 368.06C468.779 368.06 469.482 368.007 470.068 367.901C470.666 367.796 471.117 367.685 471.422 367.567V363.683C471.164 363.776 470.9 363.853 470.631 363.911C470.361 363.958 470.08 363.981 469.787 363.981C469.178 363.981 468.721 363.823 468.416 363.507C468.111 363.179 467.959 362.511 467.959 361.503V345.419H462.492V351.308L462.404 351.659V362.329Z" fill="#212121"/>
<path fill-rule="evenodd" clip-rule="evenodd" d="M375.044 148.915C375.971 150.126 374.887 151.857 373.368 151.726C371.804 151.591 370.435 151.48 369.066 151.435C322.505 150.017 281.049 163.732 245.027 193.454C244.877 193.576 244.719 193.692 244.56 193.808L244.56 193.808C244.207 194.065 243.853 194.324 243.597 194.655C239.146 200.383 233.212 201.627 226.241 201.365C220.419 201.143 214.578 201.352 208.737 201.561L208.736 201.561C205.952 201.66 203.167 201.76 200.385 201.812C196.316 201.889 196.098 201.671 196.022 197.699C195.922 193.107 195.835 188.514 195.748 183.921L195.748 183.919C195.606 176.462 195.465 169.004 195.269 161.55C195.204 159.171 195.934 157.458 197.68 155.821C223.906 131.304 254.07 113.486 288.195 102.367C307.843 95.962 327.97 91.9248 348.644 91.1719C355.89 90.9098 363.152 91.0018 370.411 91.0937C373.426 91.1319 376.44 91.17 379.452 91.1829C380.705 91.1829 381.124 92.963 380.155 93.7587C379.868 93.9951 379.592 94.2137 379.31 94.4235C377.094 96.0932 374.882 97.7687 372.67 99.4445L372.669 99.4452C366.265 104.296 359.859 109.148 353.356 113.867C350.836 115.701 350.88 116.999 352.669 119.312C358.424 126.781 364.084 134.321 369.745 141.862C371.51 144.213 373.276 146.565 375.044 148.915ZM184.638 171.484C184.638 171.093 184.356 170.757 183.974 170.671C183.714 170.612 183.447 170.675 183.238 170.841C183.19 170.879 183.142 170.917 183.094 170.955C182.703 171.264 182.312 171.573 181.987 171.937C164.542 191.632 150.589 213.542 140.378 237.798C126.556 270.652 120.218 304.869 121.527 340.538C122.258 360.484 125.367 379.983 130.789 399.165C131.476 401.587 132.665 403.049 135.055 403.966C144.655 407.654 154.211 411.451 163.735 415.346C166.157 416.339 167.324 416.121 168.361 413.437C170.706 407.348 173.124 401.287 175.541 395.226L175.542 395.223C178.206 388.544 180.87 381.864 183.438 375.149C184.223 373.076 184.387 370.468 183.961 368.275C179.696 346.332 179.172 324.324 182.827 302.273C188.172 269.953 201.569 241.278 222.438 216.073C223.525 214.769 222.489 212.789 220.792 212.789H198.128C190.677 212.789 184.638 206.749 184.638 199.299V171.484ZM397.904 570.322C397.737 570.059 397.738 569.726 397.899 569.459C398.007 569.281 398.114 569.102 398.22 568.923C398.643 568.215 399.067 567.503 399.553 566.838C400.863 565.043 402.171 563.246 403.479 561.45L403.479 561.449L403.479 561.449L403.479 561.449L403.48 561.448L403.48 561.448C408.348 554.76 413.216 548.072 418.186 541.458C419.714 539.429 419.397 538.425 417.445 537.018C408.804 530.791 400.223 524.491 391.64 518.19L391.635 518.187L391.63 518.183L391.625 518.18L391.621 518.177L391.616 518.173C389.738 516.795 387.861 515.416 385.982 514.038C384.689 513.101 385.283 511.035 386.857 510.76C387.188 510.703 387.517 510.645 387.844 510.589L388.015 510.559L388.05 510.553L388.051 510.553L388.053 510.552L388.054 510.552L388.055 510.552L388.056 510.552C391.524 509.95 394.743 509.39 397.928 508.681C452.769 496.449 493.537 465.483 520.745 416.426C521.509 415.04 523.047 413.687 524.52 413.174C530.459 411.126 536.424 409.152 542.39 407.178L542.392 407.177L542.394 407.177L542.397 407.176L542.399 407.175L542.401 407.174L542.404 407.173L542.406 407.173L542.409 407.172L542.411 407.171L542.413 407.17C547.881 405.361 553.349 403.552 558.797 401.685C561.437 400.779 562.441 401.467 563.259 404.02C564.972 409.384 566.733 414.732 568.494 420.079L568.497 420.089C570.829 427.171 573.161 434.253 575.379 441.369C575.914 443.093 575.641 445.57 574.779 447.163C561.35 471.866 544.113 493.569 523.069 512.238C492.196 539.625 456.631 557.913 416.441 567.198C412.256 568.167 408.03 568.947 403.801 569.727L403.791 569.729C402.104 570.04 400.417 570.351 398.732 570.675C398.41 570.736 398.081 570.598 397.904 570.322ZM3.09389 512.402C70.3988 512.393 137.704 512.392 205.014 512.391L232.149 539.526C233.711 541.088 233.711 543.621 232.149 545.183L202.387 574.945C137.879 574.947 73.3702 574.941 8.86494 574.935C8.33536 574.946 7.80712 574.935 7.24035 574.909C5.74787 574.843 4.98804 572.973 6.06124 571.934C7.86241 570.194 9.66115 568.452 11.4599 566.709L11.4751 566.694C17.2866 561.064 23.0984 555.433 28.9927 549.904C31.0328 547.995 30.8909 546.871 28.9927 544.939C21.4426 537.311 13.9806 529.594 6.52118 521.879L6.49867 521.856L6.48795 521.845L6.48441 521.841L6.48255 521.839L6.48112 521.838L6.48011 521.837L6.47953 521.836C4.48951 519.778 2.49967 517.72 0.508376 515.664C-0.599667 514.522 0.224771 512.541 1.8137 512.445C2.25181 512.418 2.67285 512.402 3.09389 512.402ZM249.12 545.183L219.358 574.945C267.379 574.943 315.4 574.937 363.419 574.924C368.514 574.924 373.608 574.716 378.67 574.269C380.088 574.149 381.867 573.145 382.696 571.989C386.562 566.594 390.354 561.145 394.148 555.693C396.884 551.761 399.621 547.828 402.387 543.914C403.74 541.993 403.685 540.902 401.645 539.429C390.431 531.344 379.292 523.161 368.208 514.901C365.743 513.068 363.223 512.326 360.146 512.337C332.721 512.405 305.289 512.4 277.861 512.394H277.827C270.342 512.393 262.857 512.391 255.373 512.391L221.985 512.391L249.12 539.526C250.682 541.088 250.682 543.621 249.12 545.183ZM440.556 573.872C440.338 573.95 440.208 574.182 440.247 574.41C440.284 574.627 440.464 574.781 440.683 574.8C440.844 574.814 441.004 574.83 441.164 574.845C441.687 574.895 442.209 574.946 442.732 574.946C528.196 574.957 613.649 574.968 699.113 574.858C700.934 574.858 703.16 573.855 704.524 572.589C709.055 568.375 713.514 564.075 717.973 559.775L717.975 559.773C721.598 556.279 725.222 552.785 728.884 549.337C730.684 547.635 730.717 546.565 728.993 544.82C719.229 534.879 709.52 524.885 699.887 514.824C698.153 513.013 696.309 512.348 693.843 512.348C674.91 512.368 655.975 512.377 637.04 512.385H637.039H637.038H637.037H637.037H637.036H637.035C606.275 512.398 575.513 512.411 544.756 512.479C542.902 512.479 540.6 513.341 539.28 514.606C513.206 539.517 483.347 558.317 449.452 570.668C447.492 571.382 445.528 572.087 443.565 572.791C442.561 573.151 441.558 573.511 440.556 573.872ZM137.465 418.609C137.33 417.957 138.225 417.542 138.857 417.749C139.56 417.979 140.226 418.197 140.869 418.456C150.316 422.2 159.752 425.956 169.188 429.711L169.199 429.716L169.21 429.72L169.233 429.729L169.255 429.738C173.226 431.32 173.226 431.32 174.754 427.469C179.281 416.077 183.819 404.686 188.368 393.294C188.814 392.163 190.51 392.337 190.95 393.47C210.628 444.17 245.397 479.643 295.387 500.412C295.65 500.521 295.785 500.817 295.69 501.085C295.614 501.302 295.41 501.447 295.181 501.447H292.367C285.797 501.447 279.228 501.446 272.659 501.445H272.658H272.657H272.656C246.382 501.442 220.111 501.438 193.834 501.491C191.314 501.502 189.623 500.651 187.921 498.839C166.506 476.1 150 450.24 138.404 421.249C138.054 420.387 137.738 419.503 137.465 418.609ZM582.254 425.459C582.752 426.746 584.7 426.896 585.235 425.624C597.115 397.222 603.399 367.62 604.087 336.85C604.512 317.657 602.603 298.682 598.457 279.937C593.614 257.994 585.944 237.077 575.089 217.382C574.402 216.149 573.093 214.905 571.784 214.414C563.8 211.386 555.792 208.409 547.783 205.432C541.478 203.088 535.173 200.744 528.877 198.375C526.674 197.545 525.79 198.102 525.016 200.251C521.426 210.224 517.728 220.154 513.932 230.05C512.993 232.483 513.07 234.371 514.51 236.695C530.394 262.249 539.405 290.095 541.292 320.101C542.918 345.917 539.394 371.089 530.208 395.378C529.53 397.166 531.399 398.963 533.217 398.372L533.263 398.357C536.037 397.438 538.813 396.523 541.589 395.608C549.761 392.914 557.935 390.22 566.078 387.435C568.631 386.551 569.733 387.107 570.562 389.715C573.674 399.547 576.908 409.34 580.144 419.133C580.754 420.98 581.364 422.827 581.973 424.675C582.059 424.936 582.152 425.195 582.254 425.459ZM562.762 198.732C562.959 198.792 563.175 198.722 563.302 198.559C563.429 198.394 563.442 198.17 563.334 197.991C563.182 197.74 563.032 197.487 562.882 197.234C562.478 196.551 562.074 195.87 561.628 195.222C550.053 178.462 536.657 163.318 521.253 149.984C487.041 120.371 447.68 101.647 403.072 93.9654C400.595 93.5399 398.697 93.9654 396.733 95.4603C387.482 102.52 378.187 109.536 368.816 116.443C366.776 117.948 366.46 119.029 368.074 121.135C371.839 126.027 375.556 130.95 379.272 135.872C383.32 141.235 387.368 146.596 391.475 151.915C392.435 153.17 394.17 154.25 395.719 154.567C435.603 162.837 469.204 181.987 496.358 212.375C498.22 214.453 500.022 216.576 501.918 218.811C502.126 219.055 502.335 219.302 502.545 219.549C503.547 220.73 505.554 220.545 506.1 219.096C510.092 208.381 514.074 197.677 518.034 186.951C518.796 184.875 519.161 183.855 519.848 183.544C520.518 183.24 521.495 183.611 523.445 184.333C535.62 188.85 547.795 193.356 559.981 197.852C560.657 198.099 561.353 198.308 562.049 198.516C562.287 198.588 562.525 198.659 562.762 198.732Z" fill="url(#paint0_linear_1962_101)"/>
<path d="M297.332 539.495C297.332 540.378 297.129 541.19 296.723 541.929C296.317 542.653 295.694 543.24 294.854 543.689C294.014 544.138 292.97 544.363 291.724 544.363H289.421V549.84H285.704V534.583H291.724C292.941 534.583 293.97 534.793 294.81 535.213C295.651 535.633 296.281 536.213 296.701 536.952C297.122 537.691 297.332 538.538 297.332 539.495ZM291.442 541.407C292.152 541.407 292.681 541.241 293.028 540.907C293.376 540.574 293.55 540.103 293.55 539.495C293.55 538.886 293.376 538.415 293.028 538.082C292.681 537.749 292.152 537.582 291.442 537.582H289.421V541.407H291.442ZM302.983 546.971H307.851V549.84H299.266V534.583H302.983V546.971ZM319.121 547.145H313.427L312.514 549.84H308.624L314.144 534.583H318.448L323.968 549.84H320.034L319.121 547.145ZM318.165 544.276L316.274 538.69L314.405 544.276H318.165ZM339.297 549.84H335.58L329.365 540.429V549.84H325.648V534.583H329.365L335.58 544.037V534.583H339.297V549.84Z" fill="white"/>
<path d="M79.0554 542.016C79.9392 542.204 80.6492 542.646 81.1853 543.341C81.7214 544.022 81.9895 544.805 81.9895 545.689C81.9895 546.964 81.5403 547.978 80.642 548.731C79.7581 549.47 78.5193 549.84 76.9255 549.84H69.8186V534.583H76.6864C78.2368 534.583 79.4466 534.938 80.316 535.648C81.1998 536.358 81.6417 537.321 81.6417 538.538C81.6417 539.437 81.4026 540.183 80.9245 540.777C80.4609 541.371 79.8378 541.784 79.0554 542.016ZM73.5351 540.755H75.9692C76.5778 540.755 77.0414 540.625 77.3602 540.364C77.6934 540.089 77.8601 539.69 77.8601 539.169C77.8601 538.647 77.6934 538.249 77.3602 537.973C77.0414 537.698 76.5778 537.56 75.9692 537.56H73.5351V540.755ZM76.2735 546.841C76.8965 546.841 77.3747 546.703 77.7079 546.428C78.0557 546.138 78.2295 545.725 78.2295 545.189C78.2295 544.653 78.0484 544.233 77.6862 543.928C77.3384 543.624 76.8531 543.472 76.23 543.472H73.5351V546.841H76.2735ZM93.6426 547.145H87.9484L87.0356 549.84H83.1452L88.6656 534.583H92.9689L98.4892 549.84H94.5554L93.6426 547.145ZM92.6863 544.276L90.7955 538.69L88.9264 544.276H92.6863ZM99.5391 542.19C99.5391 540.683 99.8651 539.342 100.517 538.169C101.169 536.981 102.075 536.061 103.234 535.409C104.407 534.742 105.733 534.409 107.211 534.409C109.022 534.409 110.573 534.887 111.862 535.843C113.152 536.8 114.014 538.104 114.448 539.755H110.362C110.058 539.118 109.623 538.633 109.058 538.299C108.508 537.966 107.878 537.799 107.168 537.799C106.023 537.799 105.096 538.198 104.386 538.995C103.676 539.792 103.321 540.857 103.321 542.19C103.321 543.523 103.676 544.588 104.386 545.384C105.096 546.181 106.023 546.58 107.168 546.58C107.878 546.58 108.508 546.413 109.058 546.08C109.623 545.747 110.058 545.261 110.362 544.624H114.448C114.014 546.276 113.152 547.58 111.862 548.536C110.573 549.478 109.022 549.949 107.211 549.949C105.733 549.949 104.407 549.623 103.234 548.97C102.075 548.304 101.169 547.384 100.517 546.21C99.8651 545.037 99.5391 543.696 99.5391 542.19ZM125.57 549.84L120.441 543.102V549.84H116.724V534.583H120.441V541.277L125.526 534.583H129.895L123.983 542.059L130.112 549.84H125.57ZM135.595 546.971H140.463V549.84H131.878V534.583H135.595V546.971ZM149.451 549.992C148.017 549.992 146.699 549.659 145.496 548.992C144.308 548.326 143.359 547.398 142.649 546.21C141.953 545.008 141.606 543.66 141.606 542.168C141.606 540.675 141.953 539.335 142.649 538.147C143.359 536.959 144.308 536.032 145.496 535.365C146.699 534.699 148.017 534.365 149.451 534.365C150.886 534.365 152.197 534.699 153.385 535.365C154.588 536.032 155.53 536.959 156.211 538.147C156.906 539.335 157.254 540.675 157.254 542.168C157.254 543.66 156.906 545.008 156.211 546.21C155.515 547.398 154.573 548.326 153.385 548.992C152.197 549.659 150.886 549.992 149.451 549.992ZM149.451 546.602C150.669 546.602 151.639 546.196 152.364 545.384C153.103 544.573 153.472 543.501 153.472 542.168C153.472 540.82 153.103 539.748 152.364 538.951C151.639 538.14 150.669 537.734 149.451 537.734C148.22 537.734 147.235 538.133 146.496 538.93C145.771 539.726 145.409 540.806 145.409 542.168C145.409 543.515 145.771 544.595 146.496 545.406C147.235 546.203 148.22 546.602 149.451 546.602ZM169.449 539.408C169.174 538.901 168.776 538.517 168.254 538.256C167.747 537.981 167.146 537.843 166.45 537.843C165.247 537.843 164.284 538.241 163.56 539.038C162.835 539.821 162.473 540.871 162.473 542.19C162.473 543.595 162.85 544.696 163.603 545.493C164.371 546.276 165.421 546.667 166.754 546.667C167.667 546.667 168.435 546.435 169.058 545.971C169.696 545.508 170.159 544.841 170.449 543.972H165.733V541.233H173.818V544.689C173.543 545.616 173.072 546.478 172.405 547.275C171.753 548.072 170.92 548.717 169.906 549.21C168.891 549.702 167.747 549.949 166.472 549.949C164.965 549.949 163.617 549.623 162.429 548.97C161.256 548.304 160.336 547.384 159.669 546.21C159.017 545.037 158.691 543.696 158.691 542.19C158.691 540.683 159.017 539.342 159.669 538.169C160.336 536.981 161.256 536.061 162.429 535.409C163.603 534.742 164.943 534.409 166.45 534.409C168.276 534.409 169.812 534.851 171.058 535.735C172.318 536.619 173.151 537.843 173.557 539.408H169.449Z" fill="white"/>
<path d="M568.424 549.84L565.251 544.08H564.36V549.84H560.643V534.583H566.881C568.083 534.583 569.105 534.793 569.945 535.213C570.8 535.633 571.437 536.213 571.858 536.952C572.278 537.676 572.488 538.488 572.488 539.386C572.488 540.4 572.198 541.306 571.619 542.103C571.054 542.9 570.213 543.465 569.097 543.798L572.618 549.84H568.424ZM564.36 541.451H566.663C567.344 541.451 567.851 541.284 568.185 540.951C568.532 540.618 568.706 540.147 568.706 539.538C568.706 538.959 568.532 538.502 568.185 538.169C567.851 537.836 567.344 537.669 566.663 537.669H564.36V541.451ZM578.537 537.56V540.646H583.514V543.515H578.537V546.862H584.166V549.84H574.821V534.583H584.166V537.56H578.537ZM590.296 546.971H595.164V549.84H586.579V534.583H590.296V546.971ZM600.653 537.56V540.646H605.63V543.515H600.653V546.862H606.282V549.84H596.937V534.583H606.282V537.56H600.653ZM618.192 547.145H612.498L611.585 549.84H607.695L613.215 534.583H617.519L623.039 549.84H619.105L618.192 547.145ZM617.236 544.276L615.345 538.69L613.476 544.276H617.236ZM630.24 549.992C629.124 549.992 628.124 549.811 627.24 549.449C626.356 549.086 625.647 548.55 625.11 547.84C624.589 547.13 624.314 546.276 624.285 545.276H628.24C628.298 545.841 628.494 546.276 628.827 546.58C629.16 546.87 629.595 547.014 630.131 547.014C630.681 547.014 631.116 546.891 631.435 546.645C631.754 546.384 631.913 546.029 631.913 545.58C631.913 545.203 631.783 544.892 631.522 544.645C631.276 544.399 630.964 544.196 630.587 544.037C630.225 543.878 629.703 543.696 629.022 543.494C628.037 543.189 627.233 542.885 626.61 542.581C625.987 542.277 625.451 541.827 625.002 541.233C624.553 540.639 624.328 539.864 624.328 538.908C624.328 537.488 624.842 536.379 625.871 535.583C626.9 534.771 628.24 534.365 629.892 534.365C631.573 534.365 632.927 534.771 633.956 535.583C634.985 536.379 635.535 537.495 635.608 538.93H631.587C631.558 538.437 631.377 538.053 631.044 537.778C630.71 537.488 630.283 537.343 629.761 537.343C629.312 537.343 628.95 537.466 628.675 537.712C628.399 537.944 628.262 538.285 628.262 538.734C628.262 539.227 628.494 539.611 628.957 539.886C629.421 540.161 630.145 540.458 631.131 540.777C632.116 541.11 632.913 541.429 633.521 541.733C634.144 542.037 634.68 542.479 635.13 543.059C635.579 543.639 635.803 544.385 635.803 545.298C635.803 546.167 635.579 546.957 635.13 547.666C634.695 548.376 634.057 548.942 633.217 549.362C632.377 549.782 631.384 549.992 630.24 549.992ZM641.807 537.56V540.646H646.784V543.515H641.807V546.862H647.436V549.84H638.091V534.583H647.436V537.56H641.807Z" fill="white"/>
<path d="M468.287 504.188C469.43 503.056 470.652 502.293 471.956 501.9C473.259 501.507 474.55 501.493 475.829 501.857C477.108 502.202 478.277 502.909 479.338 503.98C480.388 505.04 481.084 506.217 481.426 507.509C481.778 508.792 481.746 510.088 481.33 511.397C480.924 512.696 480.155 513.907 479.023 515.028L474.961 519.05L464.225 508.21L468.287 504.188ZM476.589 512.911C477.588 511.922 478.095 510.879 478.111 509.783C478.126 508.687 477.64 507.64 476.651 506.641C475.662 505.642 474.614 505.14 473.507 505.135C472.401 505.13 471.348 505.621 470.35 506.61L469.099 507.849L475.339 514.15L476.589 512.911ZM480.181 496.599L482.353 498.791L485.889 495.289L487.908 497.328L484.372 500.83L486.727 503.208L490.726 499.247L492.821 501.363L486.181 507.939L475.445 497.098L482.086 490.522L484.181 492.638L480.181 496.599ZM498.565 495.888C497.773 496.673 496.935 497.248 496.052 497.613C495.169 497.977 494.287 498.096 493.407 497.969C492.537 497.831 491.739 497.418 491.015 496.728L493.826 493.944C494.265 494.305 494.71 494.476 495.16 494.458C495.601 494.429 496.012 494.226 496.393 493.849C496.784 493.462 497.006 493.068 497.059 492.669C497.102 492.26 496.966 491.895 496.65 491.576C496.385 491.308 496.073 491.179 495.714 491.187C495.366 491.186 495.002 491.261 494.622 491.412C494.252 491.554 493.754 491.792 493.128 492.128C492.214 492.605 491.428 492.954 490.771 493.177C490.115 493.399 489.418 493.457 488.68 493.351C487.943 493.245 487.238 492.852 486.565 492.173C485.566 491.164 485.152 490.014 485.322 488.724C485.482 487.424 486.149 486.192 487.322 485.03C488.516 483.847 489.765 483.182 491.066 483.035C492.358 482.877 493.534 483.283 494.595 484.251L491.738 487.08C491.371 486.75 490.972 486.605 490.542 486.644C490.101 486.673 489.695 486.87 489.325 487.237C489.006 487.553 488.835 487.896 488.813 488.265C488.78 488.623 488.922 488.962 489.238 489.281C489.585 489.631 490.02 489.741 490.543 489.61C491.066 489.479 491.79 489.181 492.714 488.714C493.649 488.257 494.439 487.923 495.086 487.711C495.742 487.489 496.434 487.426 497.161 487.521C497.888 487.617 498.573 487.989 499.215 488.638C499.827 489.255 500.223 489.975 500.403 490.795C500.594 491.605 500.539 492.455 500.237 493.345C499.936 494.235 499.379 495.083 498.565 495.888ZM495.941 476.8L506.677 487.641L504.036 490.256L493.301 479.415L495.941 476.8ZM508.446 471.206C507.894 471.04 507.34 471.047 506.786 471.229C506.232 471.39 505.708 471.716 505.214 472.205C504.36 473.051 503.955 474.012 504.001 475.088C504.037 476.154 504.519 477.155 505.447 478.092C506.436 479.091 507.478 479.608 508.574 479.644C509.67 479.66 510.692 479.199 511.639 478.261C512.288 477.618 512.67 476.913 512.787 476.145C512.913 475.367 512.774 474.567 512.368 473.746L509.017 477.065L507.09 475.119L512.835 469.43L515.266 471.885C515.723 472.738 515.995 473.681 516.082 474.717C516.18 475.742 516.042 476.786 515.668 477.85C515.294 478.914 514.654 479.894 513.748 480.791C512.677 481.852 511.49 482.568 510.187 482.941C508.884 483.293 507.583 483.287 506.284 482.922C504.995 482.547 503.82 481.824 502.76 480.753C501.699 479.683 500.988 478.501 500.625 477.208C500.263 475.895 500.269 474.594 500.644 473.305C501.009 472.005 501.727 470.826 502.798 469.765C504.095 468.481 505.497 467.714 507.004 467.465C508.522 467.206 509.975 467.49 511.365 468.316L508.446 471.206ZM530.051 464.492L527.411 467.107L516.372 464.795L522.994 471.481L520.354 474.096L509.618 463.256L512.258 460.641L523.327 462.984L516.675 456.267L519.315 453.652L530.051 464.492Z" fill="white"/>
<path d="M567.055 349.556C566.93 347.953 567.139 346.527 567.681 345.278C568.224 344.03 569.047 343.036 570.152 342.296C571.242 341.542 572.538 341.107 574.04 340.99C575.528 340.875 576.875 341.104 578.083 341.678C579.289 342.239 580.257 343.101 580.987 344.264C581.716 345.414 582.143 346.783 582.266 348.372L582.71 354.071L567.499 355.255L567.055 349.556ZM579.078 348.86C578.969 347.459 578.501 346.398 577.675 345.678C576.848 344.957 575.735 344.652 574.333 344.761C572.932 344.87 571.872 345.345 571.153 346.185C570.433 347.026 570.128 348.147 570.237 349.548L570.374 351.304L579.215 350.615L579.078 348.86ZM568.953 335.575L572.03 335.336L571.644 330.374L574.504 330.151L574.89 335.113L578.227 334.853L577.79 329.241L580.759 329.01L581.484 338.328L566.273 339.512L565.548 330.194L568.516 329.963L568.953 335.575ZM564.249 313.51L579.88 317.721L580.241 322.358L565.45 328.937L565.143 324.994L576.334 320.33L564.554 317.432L564.249 313.51ZM566.809 308.025L569.885 307.785L569.499 302.823L572.359 302.601L572.746 307.563L576.083 307.303L575.646 301.691L578.614 301.46L579.34 310.777L564.129 311.961L563.403 302.644L566.372 302.413L566.809 308.025ZM575.278 295.572L574.9 290.718L577.761 290.495L578.427 299.054L563.216 300.238L562.927 296.533L575.278 295.572ZM577.215 281.522C577.326 282.952 577.096 284.293 576.525 285.544C575.953 286.78 575.102 287.798 573.972 288.598C572.827 289.385 571.511 289.836 570.023 289.952C568.535 290.068 567.172 289.825 565.934 289.224C564.694 288.608 563.696 287.734 562.939 286.601C562.181 285.454 561.747 284.165 561.635 282.735C561.524 281.305 561.754 279.972 562.327 278.736C562.898 277.485 563.749 276.474 564.881 275.703C566.012 274.917 567.321 274.467 568.809 274.351C570.297 274.235 571.667 274.477 572.92 275.077C574.158 275.678 575.156 276.545 575.913 277.678C576.669 278.811 577.103 280.092 577.215 281.522ZM573.834 281.785C573.74 280.572 573.26 279.636 572.395 278.976C571.529 278.303 570.431 278.018 569.102 278.121C567.759 278.226 566.718 278.677 565.981 279.476C565.229 280.261 564.899 281.26 564.994 282.474C565.089 283.702 565.563 284.653 566.415 285.328C567.266 285.988 568.37 286.266 569.728 286.16C571.071 286.055 572.119 285.61 572.872 284.825C573.609 284.027 573.93 283.013 573.834 281.785ZM565.081 260.904C565.962 260.836 566.786 260.975 567.555 261.322C568.308 261.67 568.942 262.246 569.455 263.049C569.968 263.852 570.273 264.875 570.369 266.117L570.548 268.414L576.009 267.989L576.297 271.694L561.086 272.878L560.619 266.876C560.524 265.663 560.654 264.621 561.008 263.75C561.361 262.88 561.89 262.206 562.594 261.73C563.298 261.254 564.127 260.979 565.081 260.904ZM567.444 266.628C567.389 265.92 567.182 265.406 566.823 265.085C566.464 264.764 565.981 264.627 565.374 264.675C564.767 264.722 564.311 264.932 564.006 265.304C563.701 265.677 563.576 266.217 563.631 266.925L563.788 268.94L567.601 268.643L567.444 266.628Z" fill="white"/>
<path d="M432.611 125.192L431.274 127.853L427.662 126.038L422.149 137.01L418.828 135.341L424.341 124.369L420.729 122.554L422.066 119.893L432.611 125.192ZM436.262 130.359L434.876 133.116L439.323 135.351L438.035 137.914L433.588 135.68L432.085 138.67L437.115 141.198L435.778 143.858L427.427 139.662L434.278 126.03L442.628 130.226L441.291 132.886L436.262 130.359ZM442.798 147.556C441.801 147.055 440.989 146.445 440.362 145.724C439.735 145.004 439.341 144.206 439.181 143.331C439.034 142.462 439.172 141.575 439.595 140.668L443.129 142.444C442.927 142.975 442.907 143.452 443.068 143.873C443.235 144.282 443.559 144.606 444.038 144.847C444.53 145.094 444.973 145.179 445.369 145.102C445.771 145.012 446.073 144.767 446.274 144.365C446.443 144.029 446.467 143.692 446.344 143.355C446.235 143.024 446.048 142.703 445.783 142.391C445.53 142.086 445.146 141.69 444.628 141.203C443.885 140.489 443.303 139.856 442.883 139.305C442.462 138.753 442.185 138.111 442.051 137.378C441.916 136.646 442.063 135.852 442.493 134.998C443.13 133.729 444.088 132.97 445.365 132.72C446.648 132.456 448.028 132.696 449.504 133.437C451.005 134.192 452.034 135.163 452.589 136.35C453.15 137.524 453.141 138.768 452.562 140.082L448.969 138.277C449.164 137.823 449.175 137.399 449.001 137.003C448.833 136.595 448.516 136.274 448.05 136.039C447.649 135.838 447.27 135.785 446.913 135.882C446.563 135.965 446.287 136.208 446.086 136.609C445.865 137.049 445.899 137.496 446.19 137.95C446.481 138.405 446.995 138.995 447.732 139.722C448.463 140.463 449.031 141.105 449.439 141.65C449.859 142.202 450.139 142.838 450.28 143.557C450.422 144.277 450.287 145.044 449.877 145.86C449.487 146.637 448.932 147.241 448.212 147.674C447.504 148.113 446.681 148.332 445.742 148.33C444.802 148.328 443.821 148.07 442.798 147.556ZM466.539 142.241L465.202 144.901L461.59 143.086L456.076 154.058L452.756 152.39L458.269 141.418L454.657 139.602L455.994 136.942L466.539 142.241ZM471.526 144.747L464.676 158.38L461.355 156.711L468.205 143.078L471.526 144.747ZM479.278 165.717L475.957 164.049L474.628 152.849L470.403 161.258L467.082 159.589L473.933 145.956L477.253 147.625L478.563 158.863L482.808 150.416L486.128 152.085L479.278 165.717ZM495.419 162.153C495.4 161.576 495.217 161.054 494.868 160.587C494.538 160.113 494.063 159.72 493.441 159.408C492.367 158.868 491.327 158.791 490.322 159.178C489.323 159.552 488.528 160.328 487.936 161.506C487.305 162.762 487.147 163.915 487.462 164.965C487.797 166.009 488.56 166.83 489.751 167.429C490.567 167.839 491.357 167.976 492.122 167.842C492.9 167.714 493.613 167.327 494.263 166.68L490.049 164.562L491.278 162.115L498.502 165.746L496.951 168.833C496.288 169.538 495.48 170.097 494.527 170.51C493.587 170.929 492.553 171.131 491.425 171.116C490.298 171.101 489.165 170.807 488.025 170.234C486.679 169.558 485.621 168.662 484.852 167.546C484.103 166.423 483.694 165.188 483.625 163.84C483.57 162.498 483.88 161.155 484.557 159.808C485.233 158.462 486.126 157.411 487.236 156.655C488.365 155.892 489.6 155.483 490.942 155.428C492.29 155.359 493.637 155.663 494.983 156.34C496.614 157.159 497.788 158.244 498.505 159.593C499.234 160.949 499.429 162.417 499.089 163.997L495.419 162.153Z" fill="white"/>
<path d="M240.218 149.9C241.685 149.242 243.098 148.958 244.456 149.047C245.814 149.137 247.028 149.577 248.097 150.368C249.174 151.139 250.02 152.213 250.637 153.588C251.248 154.949 251.486 156.295 251.352 157.626C251.232 158.95 250.747 160.152 249.897 161.232C249.061 162.306 247.915 163.169 246.461 163.821L241.246 166.16L235.002 152.239L240.218 149.9ZM244.927 160.984C246.209 160.409 247.05 159.611 247.45 158.59C247.849 157.569 247.762 156.418 247.187 155.135C246.611 153.853 245.807 153.015 244.773 152.621C243.739 152.227 242.58 152.318 241.298 152.893L239.692 153.613L243.32 161.704L244.927 160.984ZM254.02 146.973L255.283 149.789L259.824 147.752L260.998 150.37L256.457 152.407L257.826 155.461L262.963 153.157L264.181 155.874L255.654 159.698L249.41 145.777L257.938 141.953L259.156 144.67L254.02 146.973ZM272.759 140.689C273.12 141.496 273.267 142.319 273.199 143.159C273.126 143.986 272.797 144.777 272.214 145.53C271.631 146.284 270.771 146.916 269.634 147.426L267.532 148.368L269.774 153.366L266.383 154.887L260.139 140.966L265.632 138.502C266.743 138.004 267.767 137.775 268.706 137.814C269.645 137.854 270.457 138.125 271.143 138.627C271.829 139.129 272.367 139.817 272.759 140.689ZM268.167 144.844C268.815 144.554 269.229 144.185 269.41 143.739C269.591 143.293 269.557 142.792 269.308 142.237C269.059 141.681 268.708 141.323 268.254 141.161C267.8 140.999 267.25 141.064 266.602 141.354L264.758 142.181L266.323 145.671L268.167 144.844ZM280.974 145.198L285.416 143.206L286.59 145.824L278.757 149.337L272.514 135.416L275.905 133.895L280.974 145.198ZM294.854 142.284C293.545 142.871 292.206 143.107 290.836 142.991C289.479 142.869 288.233 142.411 287.099 141.618C285.973 140.805 285.104 139.718 284.493 138.356C283.883 136.994 283.651 135.629 283.8 134.26C283.961 132.886 284.448 131.651 285.259 130.557C286.084 129.457 287.15 128.613 288.459 128.026C289.768 127.439 291.101 127.207 292.458 127.329C293.828 127.445 295.067 127.905 296.174 128.711C297.295 129.51 298.161 130.591 298.771 131.952C299.382 133.314 299.616 134.686 299.474 136.068C299.325 137.437 298.845 138.668 298.034 139.762C297.223 140.857 296.163 141.697 294.854 142.284ZM293.466 139.191C294.577 138.693 295.297 137.925 295.626 136.889C295.968 135.846 295.866 134.716 295.321 133.5C294.769 132.27 293.994 131.443 292.993 131.019C292 130.575 290.948 130.602 289.838 131.1C288.714 131.604 287.978 132.371 287.63 133.4C287.295 134.424 287.406 135.557 287.964 136.8C288.515 138.029 289.287 138.866 290.28 139.31C291.281 139.734 292.343 139.695 293.466 139.191ZM309.492 118.831L308.853 130.313L310.917 134.914L307.526 136.435L305.462 131.834L296.463 124.675L300.31 122.949L305.622 127.57L305.685 120.539L309.492 118.831Z" fill="white"/>
<path d="M148.447 275.135L154.41 272.364L154.471 271.475L148.726 271.08L148.98 267.372L164.202 268.418L163.774 274.641C163.691 275.841 163.412 276.845 162.935 277.655C162.457 278.479 161.835 279.075 161.069 279.444C160.318 279.813 159.494 279.967 158.598 279.906C157.586 279.836 156.702 279.485 155.947 278.852C155.191 278.234 154.685 277.357 154.429 276.221L148.159 279.319L148.447 275.135ZM157.095 271.655L156.937 273.953C156.89 274.633 157.022 275.15 157.332 275.505C157.64 275.875 158.098 276.081 158.705 276.123C159.283 276.162 159.751 276.02 160.107 275.696C160.462 275.387 160.663 274.892 160.71 274.213L160.868 271.914L157.095 271.655ZM160.004 286.066L156.925 285.855L156.584 290.82L153.722 290.623L154.063 285.658L150.724 285.428L150.338 291.044L147.368 290.84L148.008 281.517L163.23 282.563L162.589 291.886L159.618 291.682L160.004 286.066ZM161.442 308.582L146.591 302.137L146.91 297.497L162.502 293.144L162.231 297.09L150.48 300.073L161.711 304.657L161.442 308.582ZM161.08 313.839L145.859 312.793L146.114 309.086L161.335 310.132L161.08 313.839ZM157.67 320.03L154.591 319.818L154.25 324.784L151.388 324.587L151.729 319.622L148.39 319.392L148.004 325.008L145.034 324.804L145.675 315.48L160.896 316.526L160.255 325.85L157.284 325.646L157.67 320.03ZM158.65 349.202L143.702 344.188L144.01 339.7L154.194 337.96L144.35 334.756L144.658 330.268L160.145 327.455L159.872 331.423L148.642 332.851L159.535 336.323L159.255 340.399L147.997 342.24L158.924 345.213L158.65 349.202Z" fill="white"/>
<defs>
<linearGradient id="paint0_linear_1962_101" x1="365" y1="337.5" x2="365" y2="-908.5" gradientUnits="userSpaceOnUse">
<stop stop-color="#2B74E2"/>
<stop offset="0.972828" stop-color="white" stop-opacity="0"/>
</linearGradient>
</defs>
</svg>
