<svg width="299" height="303" viewBox="0 0 299 303" fill="none" xmlns="http://www.w3.org/2000/svg">
<path opacity="0.15" fill-rule="evenodd" clip-rule="evenodd" d="M87.6591 290.711C86.4621 290.199 85.9425 288.779 86.4808 287.573C87.0163 286.357 88.4244 285.787 89.6012 286.306C90.7909 286.832 91.3077 288.242 90.7722 289.458C90.2339 290.664 88.8532 291.214 87.685 290.725C87.6829 290.724 87.6811 290.723 87.6794 290.722C87.6772 290.72 87.6753 290.718 87.6736 290.717C87.6688 290.713 87.6653 290.709 87.6591 290.711ZM94.9992 291.153C95.47 289.901 96.8221 289.249 98.0451 289.699C99.2652 290.138 99.8699 291.509 99.3992 292.76C98.9458 293.995 97.5735 294.653 96.3634 294.211C96.3368 294.197 96.3176 294.19 96.2923 294.182L96.2923 294.182L96.2922 294.182C96.2807 294.178 96.2679 294.174 96.2526 294.168C95.1175 293.68 94.5473 292.354 94.9992 291.153ZM79.1849 286.665C78.0313 286.072 77.5953 284.638 78.2055 283.454C78.8287 282.277 80.2496 281.791 81.396 282.397C82.5395 282.993 82.9756 284.427 82.3653 285.612C81.771 286.736 80.4567 287.21 79.3403 286.749C79.3125 286.729 79.2757 286.711 79.239 286.692C79.2287 286.687 79.2184 286.682 79.2084 286.677C79.2004 286.673 79.1926 286.669 79.1849 286.665ZM103.732 294.168C104.131 292.895 105.45 292.165 106.683 292.534C107.937 292.896 108.626 294.219 108.235 295.479C107.849 296.759 106.53 297.489 105.289 297.133C105.194 297.108 105.12 297.076 105.045 297.044C103.961 296.584 103.374 295.351 103.732 294.168ZM70.9927 282.1C69.8825 281.428 69.5343 279.955 70.2223 278.813C70.9102 277.671 72.3698 277.284 73.4699 277.96C74.5772 278.622 74.9254 280.095 74.2374 281.237C73.6174 282.269 72.3522 282.684 71.2948 282.238C71.1869 282.206 71.0834 282.149 70.9928 282.1L70.9927 282.1ZM112.649 296.629C112.953 295.33 114.226 294.515 115.49 294.797C116.756 295.089 117.538 296.35 117.224 297.652C116.928 298.938 115.647 299.766 114.381 299.474C114.242 299.451 114.111 299.414 113.985 299.354C112.963 298.919 112.378 297.774 112.649 296.629ZM63.117 276.984C62.0631 276.238 61.8086 274.748 62.5569 273.664C63.3124 272.568 64.7775 272.279 65.8516 273.018C66.9127 273.75 67.1672 275.24 66.4117 276.337C65.7587 277.291 64.5498 277.633 63.5442 277.216C63.3946 277.152 63.255 277.084 63.117 276.984ZM121.705 298.494C121.93 297.186 123.157 296.286 124.441 296.484C125.735 296.679 126.572 297.901 126.361 299.216C126.133 300.513 124.916 301.411 123.632 301.212C123.437 301.184 123.26 301.14 123.098 301.068C122.118 300.665 121.513 299.604 121.705 298.494ZM55.5952 271.37C54.5803 270.569 54.4094 269.063 55.2325 268.012C56.0556 266.961 57.5392 266.777 58.5569 267.588C59.5747 268.4 59.7226 269.901 58.9067 270.94C58.2309 271.812 57.0711 272.095 56.1273 271.703C55.9388 271.617 55.7649 271.506 55.5952 271.37ZM130.894 299.776C131.039 298.46 132.201 297.48 133.495 297.598C134.786 297.706 135.715 298.866 135.573 300.192C135.438 301.505 134.273 302.475 132.969 302.36C132.731 302.334 132.501 302.295 132.29 302.206C131.376 301.804 130.776 300.841 130.894 299.776ZM48.4431 265.278C47.4946 264.4 47.4202 262.887 48.3065 261.904C49.1871 260.902 50.6762 260.815 51.6348 261.689C52.6034 262.561 52.6549 264.07 51.7714 265.063C51.0699 265.844 49.9923 266.068 49.0974 265.694C48.86 265.59 48.6343 265.45 48.4431 265.278ZM140.14 300.444C140.196 299.122 141.307 298.081 142.609 298.108C143.913 298.145 144.912 299.239 144.856 300.561C144.789 301.886 143.688 302.924 142.387 302.897L142.38 302.91C142.092 302.9 141.81 302.833 141.549 302.726C140.697 302.349 140.097 301.463 140.14 300.444ZM41.6938 258.706C40.7944 257.77 40.8323 256.266 41.7631 255.324C42.717 254.387 44.1988 254.392 45.1082 255.325C46.0048 256.252 45.9726 257.776 45.0317 258.72C44.3174 259.417 43.3018 259.589 42.4587 259.243C42.1696 259.111 41.9223 258.934 41.6938 258.706ZM149.426 300.513C149.406 299.193 150.431 298.079 151.743 298.025C153.045 297.975 154.113 299.003 154.143 300.32C154.163 301.641 153.128 302.758 151.826 302.808C151.468 302.82 151.145 302.765 150.836 302.64C150.016 302.298 149.436 301.483 149.426 300.513ZM35.3847 251.711C34.5444 250.712 34.6788 249.2 35.6728 248.327C36.6669 247.455 38.1513 247.547 39.0016 248.543L38.9887 248.536C39.839 249.533 39.6946 251.048 38.7005 251.92C37.9964 252.536 37.0357 252.669 36.2387 252.33C35.9192 252.208 35.6202 252.003 35.3847 251.711ZM158.7 299.989C158.593 298.674 159.558 297.501 160.86 297.374C162.159 297.236 163.293 298.188 163.397 299.493C163.503 300.809 162.539 301.981 161.242 302.129C160.836 302.167 160.447 302.111 160.099 301.965C159.338 301.637 158.768 300.897 158.7 299.989ZM29.5314 244.309C28.7633 243.254 28.9768 241.751 30.0341 240.947C31.0813 240.147 32.5612 240.34 33.3236 241.374C34.0989 242.416 33.8652 243.925 32.818 244.726C32.117 245.275 31.2211 245.365 30.473 245.044C30.1147 244.901 29.7812 244.651 29.5314 244.309ZM167.95 298.876C167.757 297.565 168.651 296.337 169.937 296.115C171.224 295.892 172.414 296.772 172.614 298.069C172.794 299.373 171.91 300.598 170.627 300.831C170.176 300.904 169.734 300.854 169.337 300.689C168.615 300.383 168.065 299.714 167.95 298.876ZM24.1657 236.534C23.4625 235.437 23.7883 233.943 24.8656 233.211C25.963 232.472 27.4254 232.759 28.1315 233.866C28.8318 234.953 28.5161 236.444 27.4187 237.183C26.7307 237.661 25.8897 237.712 25.1933 237.42C24.8035 237.243 24.4226 236.941 24.1657 236.534ZM177.118 297.158C176.854 295.869 177.665 294.579 178.938 294.272C180.215 293.975 181.461 294.782 181.732 296.058C182.006 297.343 181.172 298.63 179.909 298.934C179.416 299.054 178.918 298.998 178.485 298.823C177.804 298.548 177.271 297.939 177.118 297.158ZM19.309 228.425C18.6707 227.285 19.0814 225.82 20.232 225.154C21.3696 224.48 22.8045 224.864 23.4428 226.003C24.0681 227.136 23.6704 228.608 22.5327 229.281C21.8522 229.669 21.0846 229.709 20.4243 229.427C19.9754 229.235 19.573 228.895 19.309 228.425ZM186.176 294.855C185.832 293.591 186.562 292.248 187.818 291.881C189.069 291.492 190.379 292.213 190.721 293.467C191.068 294.741 190.335 296.074 189.084 296.462C188.539 296.631 187.988 296.581 187.513 296.375C186.879 296.107 186.379 295.577 186.176 294.855ZM14.9829 220.018C14.4224 218.843 14.9181 217.407 16.0959 216.799C17.2664 216.203 18.6838 216.681 19.2471 217.865C19.8076 219.04 19.312 220.476 18.1313 221.075C17.4898 221.406 16.777 221.407 16.1684 221.153C15.6678 220.933 15.2309 220.549 14.9829 220.018ZM195.087 291.99C194.652 290.754 195.307 289.379 196.535 288.91L196.528 288.923C197.769 288.461 199.11 289.095 199.532 290.323C199.967 291.559 199.304 292.947 198.083 293.404C197.5 293.629 196.888 293.598 196.364 293.373C195.792 293.131 195.306 292.652 195.087 291.99ZM11.1902 211.324C10.6947 210.107 11.2853 208.697 12.4989 208.177C13.7096 207.646 15.0865 208.214 15.572 209.434C16.0675 210.65 15.4741 212.05 14.2633 212.581C13.6479 212.849 13.0057 212.828 12.446 212.592C11.8893 212.367 11.4251 211.925 11.1902 211.324ZM203.828 288.559C203.322 287.345 203.893 285.941 205.088 285.393C206.296 284.853 207.674 285.386 208.18 286.6C208.685 287.814 208.128 289.225 206.92 289.766C206.297 290.047 205.625 290.035 205.065 289.8C204.519 289.571 204.067 289.137 203.828 288.559ZM7.94528 202.394C7.5304 201.152 8.21161 199.791 9.43514 199.345C10.6817 198.903 12.0152 199.55 12.42 200.795C12.8276 202.05 12.1565 203.408 10.9229 203.857C10.3536 204.056 9.75181 204.022 9.24395 203.815C8.64833 203.568 8.16987 203.076 7.94528 202.394ZM212.339 284.58C211.758 283.412 212.228 281.961 213.403 281.343C214.567 280.727 215.989 281.181 216.57 282.349C217.15 283.518 216.681 284.968 215.506 285.587C214.854 285.921 214.134 285.935 213.513 285.675C213.018 285.474 212.594 285.098 212.339 284.58ZM5.26232 193.278C4.94107 192.018 5.68416 190.682 6.95358 190.321C8.21006 189.954 9.50299 190.691 9.82996 191.971C10.1641 193.238 9.40813 194.567 8.13871 194.928C7.61134 195.08 7.07288 195.037 6.60099 194.841C5.96654 194.574 5.46085 194.023 5.26232 193.278ZM220.601 280.07C219.953 278.934 220.327 277.458 221.462 276.774C222.597 276.09 224.036 276.451 224.692 277.574C225.34 278.71 224.952 280.179 223.818 280.862C223.143 281.271 222.355 281.316 221.695 281.035C221.262 280.86 220.869 280.517 220.601 280.07ZM3.16726 183.991C2.91376 182.699 3.7503 181.422 5.02964 181.136C6.30898 180.849 7.54847 181.67 7.80197 182.962C8.04538 184.257 7.21892 185.53 5.93957 185.817C5.45406 185.923 4.96889 185.875 4.54592 185.697C3.86254 185.411 3.32393 184.782 3.16726 183.991ZM228.588 275.049C227.875 273.955 228.157 272.463 229.252 271.715C230.331 270.949 231.798 271.212 232.521 272.303C233.241 273.384 232.939 274.881 231.857 275.637C231.159 276.119 230.324 276.19 229.614 275.891C229.201 275.71 228.849 275.432 228.588 275.049ZM1.66142 174.576C1.49148 173.269 2.39847 172.048 3.69344 171.857C4.98556 171.654 6.16872 172.547 6.32858 173.857C6.5086 175.161 5.59154 176.385 4.30951 176.584C3.85863 176.658 3.43684 176.601 3.05271 176.444C2.3147 176.12 1.76177 175.441 1.66142 174.576ZM236.257 269.518C235.461 268.483 235.662 266.973 236.703 266.152C237.742 265.321 239.219 265.504 240.011 266.529C240.797 267.568 240.593 269.068 239.565 269.896C238.857 270.458 237.943 270.565 237.185 270.247C236.824 270.094 236.514 269.848 236.257 269.518ZM0.736095 165.081C0.649703 163.759 1.62998 162.604 2.93488 162.486C4.24985 162.366 5.35651 163.337 5.45299 164.656C5.53652 165.968 4.54616 167.126 3.25136 167.241C2.86537 167.272 2.49687 167.209 2.16166 167.07C1.35741 166.745 0.794584 165.991 0.736095 165.081ZM243.572 263.512C242.717 262.539 242.826 261.013 243.817 260.131L243.804 260.124C244.795 259.241 246.277 259.323 247.141 260.293C247.996 261.266 247.875 262.784 246.896 263.674C246.178 264.317 245.217 264.449 244.41 264.114C244.091 263.992 243.805 263.793 243.572 263.512ZM0.417129 155.519C0.417146 154.192 1.46787 153.093 2.77831 153.073C4.07294 153.036 5.13339 154.077 5.14346 155.401C5.14344 156.727 4.09272 157.827 2.78229 157.847C2.44673 157.862 2.12143 157.798 1.83514 157.676C1.00215 157.327 0.416445 156.492 0.417129 155.519ZM250.499 257.062C249.583 256.142 249.597 254.634 250.523 253.672C251.451 252.721 252.937 252.702 253.864 253.619C254.77 254.543 254.758 256.061 253.84 257.009C253.135 257.736 252.099 257.914 251.24 257.551C250.969 257.447 250.725 257.279 250.499 257.062ZM0.70154 145.958C0.77788 144.63 1.89466 143.609 3.20207 143.656C4.50948 143.704 5.49058 144.814 5.4013 146.135C5.32496 147.463 4.20816 148.484 2.90076 148.436C2.62286 148.423 2.35372 148.363 2.1034 148.253C1.22149 147.885 0.628734 146.986 0.70154 145.958ZM257.032 250.182C256.066 249.321 255.971 247.814 256.839 246.804C257.71 245.804 259.197 245.674 260.173 246.532C261.139 247.393 261.224 248.903 260.353 249.903C259.66 250.715 258.562 250.945 257.644 250.567C257.433 250.477 257.22 250.345 257.032 250.182ZM1.57635 136.39C1.74482 135.077 2.91186 134.118 4.21188 134.257C5.50903 134.385 6.42086 135.561 6.26534 136.88C6.09687 138.192 4.91688 139.145 3.62695 139.003C3.39227 138.988 3.17927 138.932 2.98073 138.85C2.02972 138.471 1.44437 137.481 1.57635 136.39ZM263.114 242.911C262.079 242.116 261.908 240.61 262.708 239.555C263.516 238.486 264.994 238.282 266.016 239.07C267.038 239.858 267.222 241.371 266.422 242.426C265.731 243.326 264.585 243.615 263.615 243.209C263.439 243.131 263.268 243.029 263.114 242.911ZM3.05435 126.9C3.302 125.596 4.54521 124.713 5.81479 124.938C7.09161 125.15 7.93416 126.392 7.68652 127.695C7.44896 128.996 6.20289 129.869 4.92608 129.658C4.74183 129.626 4.58498 129.576 4.42242 129.504C3.44989 129.088 2.85177 128.013 3.05435 126.9ZM268.73 235.265C267.651 234.55 267.377 233.066 268.116 231.952C268.859 230.848 270.328 230.536 271.407 231.251C272.485 231.966 272.753 233.464 272.01 234.568C271.373 235.539 270.147 235.898 269.125 235.463C268.994 235.426 268.852 235.349 268.73 235.265ZM5.13117 117.512C5.458 116.217 6.7471 115.419 8.00643 115.724C9.27584 116.027 10.0333 117.317 9.70365 118.602C9.38405 119.884 8.08486 120.685 6.83562 120.377C6.71715 120.352 6.60242 120.307 6.49819 120.267L6.49796 120.267L6.47301 120.257C5.42853 119.819 4.84066 118.664 5.13117 117.512ZM273.869 227.292C272.755 226.643 272.389 225.187 273.048 224.021L273.041 224.034C273.713 222.875 275.157 222.471 276.275 223.13C277.399 223.776 277.767 225.242 277.093 226.391L277.105 226.398C276.484 227.465 275.199 227.886 274.141 227.44L273.869 227.292ZM7.79235 108.252C8.19398 106.989 9.52898 106.276 10.7651 106.655C12.0012 107.034 12.6866 108.38 12.2821 109.633C11.8805 110.896 10.5383 111.623 9.29927 111.233C9.22732 111.211 9.16543 111.186 9.09063 111.154C7.98428 110.691 7.40382 109.445 7.79235 108.252ZM278.495 219.014C277.335 218.435 276.888 217.004 277.486 215.813C278.083 214.621 279.504 214.136 280.652 214.708C281.815 215.298 282.279 216.713 281.682 217.904C281.113 219.042 279.777 219.556 278.645 219.078C278.593 219.05 278.544 219.032 278.495 219.014ZM10.9989 99.1768C11.4955 97.9394 12.8562 97.3181 14.0663 97.7605C15.272 98.2264 15.8565 99.6035 15.3829 100.845C14.8964 102.079 13.5284 102.714 12.3227 102.248C12.3162 102.244 12.3099 102.241 12.3039 102.239C12.2958 102.236 12.2883 102.233 12.2816 102.231C12.2733 102.228 12.2662 102.226 12.2609 102.223C11.0926 101.734 10.5297 100.395 10.9989 99.1768ZM281.398 207.336C281.417 207.286 281.438 207.246 281.47 207.203C281.486 207.143 281.512 207.08 281.538 207.017L281.538 207.016C282.061 205.793 283.443 205.209 284.644 205.698C285.849 206.198 286.386 207.601 285.873 208.821C285.86 208.852 285.849 208.878 285.837 208.903L285.836 208.904L285.836 208.906C285.824 208.931 285.812 208.956 285.799 208.988C285.78 209.038 285.752 209.091 285.733 209.141C285.213 210.374 283.818 210.951 282.624 210.449C281.422 209.959 280.868 208.573 281.398 207.336ZM15.8972 93.4671C14.7147 92.9277 14.2182 91.5122 14.7666 90.303C15.3279 89.1007 16.7316 88.5545 17.9141 89.0939C19.0866 89.6364 19.6033 91.0457 19.0347 92.2613C18.5008 93.4439 17.1302 93.9909 15.972 93.4991C15.9361 93.4882 15.9231 93.4812 15.8972 93.4671ZM284.907 198.321C285.354 197.066 286.701 196.394 287.928 196.82C289.156 197.246 289.788 198.597 289.34 199.853C288.892 201.108 287.546 201.78 286.319 201.354C286.27 201.336 286.221 201.318 286.169 201.29C285.06 200.816 284.488 199.524 284.907 198.321ZM20.0055 84.9077C18.8592 84.3018 18.4505 82.8479 19.0867 81.6777C19.7127 80.5107 21.1451 80.0662 22.2785 80.665C23.4176 81.2842 23.8335 82.7248 23.2103 83.902C22.6103 85.0057 21.3032 85.4666 20.1968 85.003C20.1859 84.9986 20.1747 84.9943 20.1633 84.9899L20.1627 84.9896C20.1096 84.9693 20.0527 84.9474 20.0055 84.9077ZM287.74 189.439C288.106 188.165 289.416 187.405 290.674 187.744C291.922 188.086 292.629 189.392 292.266 190.676C291.9 191.95 290.597 192.698 289.352 192.366C289.247 192.343 289.159 192.304 289.061 192.268C288.004 191.822 287.402 190.616 287.74 189.439ZM24.6215 76.6328C23.5185 75.9471 23.2006 74.4651 23.8943 73.3434C24.598 72.2186 26.0633 71.8522 27.1663 72.5378C28.2591 73.2266 28.5742 74.6986 27.8834 75.8304C27.2504 76.8559 25.9997 77.2441 24.9552 76.8055L24.9356 76.7962C24.8169 76.7398 24.7101 76.6891 24.6215 76.6328ZM290.026 180.406C290.32 179.11 291.575 178.268 292.843 178.526C294.114 178.795 294.916 180.049 294.632 181.342C294.338 182.638 293.084 183.481 291.816 183.222C291.665 183.192 291.521 183.148 291.384 183.091C290.363 182.656 289.776 181.545 290.026 180.406ZM29.7423 68.6322C28.6956 67.8738 28.4642 66.3871 29.2355 65.3076C30.0068 64.2281 31.4748 63.9494 32.5344 64.7149C33.581 65.4733 33.8024 66.9632 33.0441 68.0497C32.3854 68.9837 31.1938 69.3093 30.2011 68.8989C30.0284 68.8309 29.8832 68.7433 29.7423 68.6322ZM291.734 171.265C291.933 169.944 293.144 169.026 294.435 169.211C295.714 169.389 296.601 170.595 296.397 171.896C296.205 173.205 294.993 174.122 293.695 173.951C293.491 173.926 293.298 173.864 293.122 173.786C292.155 173.389 291.559 172.359 291.734 171.265ZM35.3476 60.9899C34.35 60.172 34.2122 58.6673 35.0483 57.623L35.0612 57.63C35.89 56.599 37.3765 56.4251 38.374 57.243C39.3845 58.0679 39.5123 59.5757 38.6734 60.6098C37.9846 61.4758 36.8594 61.7255 35.9157 61.3331C35.7171 61.251 35.5201 61.1353 35.3476 60.9899ZM292.876 162.024C292.998 160.703 294.147 159.717 295.442 159.801C296.741 159.896 297.687 161.039 297.575 162.356C297.453 163.676 296.304 164.663 295.009 164.578C294.741 164.562 294.505 164.503 294.28 164.406C293.362 164.028 292.778 163.082 292.876 162.024ZM41.4172 53.7119C40.4659 52.8244 40.4347 51.3086 41.3238 50.3363C42.2202 49.3506 43.705 49.2878 44.6563 50.1753C45.6077 51.0628 45.6418 52.5886 44.7497 53.5508C44.0453 54.3221 42.9778 54.5429 42.0931 54.1653C41.8528 54.052 41.6213 53.8917 41.4172 53.7119ZM293.429 152.755C293.462 151.429 294.547 150.374 295.843 150.381C297.149 150.384 298.178 151.469 298.142 152.784C298.099 154.113 297.016 155.179 295.707 155.165C295.399 155.161 295.107 155.097 294.834 154.983C293.975 154.619 293.394 153.761 293.429 152.755ZM47.9339 46.8147C47.0446 45.8748 47.0997 44.3543 48.0593 43.4375C49.006 42.5136 50.5035 42.5352 51.3856 43.4884C52.2677 44.4416 52.2198 45.9487 51.2602 46.8656C50.5531 47.5493 49.5447 47.7075 48.7146 47.3682C48.4384 47.2439 48.1551 47.0555 47.9339 46.8147ZM293.381 143.495C293.328 142.174 294.357 141.037 295.653 140.966C296.957 140.882 298.052 141.891 298.095 143.215C298.148 144.536 297.116 145.663 295.823 145.744C295.454 145.759 295.099 145.704 294.789 145.579C293.992 145.24 293.428 144.443 293.381 143.495ZM54.8658 40.3412C54.0356 39.3387 54.193 37.8308 55.2 36.9655C56.1998 36.1136 57.6899 36.226 58.5201 37.2284C59.3401 38.2341 59.1856 39.7521 58.1858 40.6041L58.1786 40.6174C57.4688 41.2135 56.5282 41.3396 55.7441 41.0081C55.4118 40.8792 55.1041 40.6431 54.8658 40.3412ZM292.782 134.264C292.646 132.957 293.594 131.768 294.895 131.596C296.198 131.435 297.35 132.371 297.477 133.68C297.606 134.999 296.67 136.196 295.367 136.358C294.951 136.398 294.555 136.355 294.194 136.202C293.433 135.875 292.868 135.154 292.782 134.264ZM62.158 34.3307C61.4101 33.2695 61.6467 31.7702 62.7169 30.9738C63.7799 30.1907 65.2525 30.3969 66.0005 31.4581C66.7585 32.5161 66.5219 34.0154 65.4618 34.8087C64.755 35.3376 63.8793 35.4214 63.1442 35.108C62.75 34.954 62.4265 34.7006 62.158 34.3307ZM291.59 125.105C291.38 123.811 292.242 122.548 293.536 122.313C294.824 122.057 296.031 122.92 296.244 124.224C296.455 125.519 295.589 126.771 294.299 127.017C293.828 127.097 293.376 127.049 292.976 126.875C292.256 126.579 291.725 125.937 291.59 125.105ZM69.8165 28.8035C69.1306 27.6899 69.4722 26.2133 70.5725 25.4849C71.6757 24.7667 73.1337 25.0769 73.8268 26.1771C74.5127 27.2907 74.1711 28.7674 73.0708 29.4958C72.3844 29.9409 71.5664 29.9959 70.8729 29.7137C70.4499 29.5354 70.0791 29.2305 69.8165 28.8035ZM289.833 116.045C289.539 114.765 290.334 113.458 291.604 113.141C292.872 112.813 294.131 113.584 294.425 114.863C294.718 116.142 293.924 117.45 292.656 117.778C292.133 117.907 291.624 117.854 291.188 117.669C290.528 117.388 290.004 116.81 289.833 116.045ZM77.7878 23.7651C77.1668 22.6092 77.6034 21.1583 78.7467 20.505C79.9002 19.8486 81.3205 20.2589 81.9387 21.4046C82.5597 22.5604 82.1231 24.0113 80.9797 24.6646C80.3064 25.0394 79.5561 25.0622 78.9217 24.7949C78.4498 24.5987 78.0546 24.246 77.7878 23.7651ZM287.502 107.129C287.138 105.872 287.845 104.525 289.09 104.116C290.335 103.708 291.649 104.405 292.024 105.66C292.388 106.917 291.681 108.264 290.436 108.673C289.884 108.855 289.313 108.811 288.818 108.611C288.206 108.348 287.709 107.828 287.502 107.129ZM86.0546 19.2318C85.5115 18.0408 86.0301 16.6086 87.2092 16.0436C88.3827 15.4584 89.7957 15.9595 90.3259 17.1434C90.8763 18.3212 90.3504 19.7666 89.1712 20.3316C88.5369 20.65 87.8443 20.6439 87.2458 20.3874C86.738 20.1803 86.3011 19.7964 86.0546 19.2318ZM284.627 98.383C284.174 97.1637 284.801 95.7644 286.026 95.2847C287.251 94.805 288.603 95.4023 289.049 96.6348C289.494 97.8673 288.874 99.2533 287.649 99.733C287.058 99.9717 286.439 99.9538 285.893 99.7256C285.323 99.4934 284.85 99.0211 284.627 98.383ZM94.5622 15.2428C94.0868 14.0197 94.6903 12.6164 95.9125 12.1266C97.1217 11.6297 98.4913 12.2105 98.9538 13.4266C99.4163 14.6427 98.8127 16.0459 97.6035 16.5428C97.0025 16.7846 96.3631 16.773 95.8035 16.5377C95.2467 16.3126 94.7898 15.8575 94.5622 15.2428ZM281.201 89.8626C280.678 88.6653 281.223 87.2472 282.405 86.6925C283.594 86.1244 284.999 86.6387 285.522 87.836C286.035 89.0365 285.517 90.4686 284.312 91.0195C283.692 91.3113 282.992 91.3185 282.419 91.0762C281.893 90.8417 281.447 90.4272 281.201 89.8626ZM103.287 11.7942C102.903 10.5429 103.584 9.18191 104.839 8.77026C106.078 8.3414 107.397 9.01528 107.792 10.2635C108.177 11.5148 107.483 12.8687 106.253 13.2944C105.684 13.4932 105.092 13.4558 104.595 13.2455C103.986 12.9922 103.495 12.4926 103.287 11.7942ZM277.25 81.5825C276.652 80.4306 277.109 78.9734 278.266 78.3271C279.415 77.6941 280.841 78.1248 281.452 79.2837L281.439 79.2767C282.039 80.4388 281.593 81.8928 280.424 82.5321C279.77 82.9006 279.027 82.9101 278.406 82.6498C277.931 82.4434 277.513 82.0869 277.25 81.5825ZM112.193 8.9087C111.882 7.64566 112.661 6.32057 113.923 5.97305C115.195 5.62238 116.471 6.37609 116.778 7.66261C117.082 8.93893 116.31 10.2507 115.058 10.5951C114.53 10.7477 114.002 10.7016 113.54 10.5023C112.883 10.2311 112.371 9.66026 112.193 8.9087ZM272.797 73.5801C272.131 72.4603 272.486 70.9906 273.602 70.2794C274.721 69.5784 276.174 69.9121 276.837 71.0218C277.503 72.1416 277.141 73.6245 276.032 74.3224C275.353 74.7543 274.545 74.8061 273.872 74.5176C273.436 74.3324 273.062 74.0173 272.797 73.5801ZM121.248 6.5956C121.028 5.30439 121.877 4.0349 123.152 3.77186C123.152 3.77186 123.152 3.7718 123.165 3.77881C124.44 3.51578 125.675 4.35943 125.906 5.64752C126.136 6.93559 125.277 8.20829 123.989 8.46431L124.002 8.47135C123.513 8.56764 123.059 8.50987 122.638 8.34181C121.929 8.0424 121.39 7.41366 121.248 6.5956ZM267.838 65.8891C267.088 64.8178 267.37 63.3263 268.433 62.5432C269.512 61.7772 270.97 62.01 271.711 63.0844C272.449 64.1487 272.179 65.6473 271.116 66.4304C270.421 66.9225 269.555 67.0033 268.823 66.7C268.439 66.5428 268.1 66.2723 267.838 65.8891ZM130.423 4.86443C130.264 3.55446 131.196 2.34748 132.494 2.16575C133.792 1.98402 134.958 2.89332 135.111 4.21663C135.257 5.51959 134.338 6.73366 133.037 6.9052C132.616 6.96942 132.202 6.89913 131.828 6.73891C131.075 6.44186 130.517 5.74196 130.423 4.86443ZM262.397 58.547C261.584 57.5281 261.762 56.014 262.777 55.1792C263.8 54.3312 265.289 54.4771 266.094 55.5093C266.894 56.5212 266.727 58.0323 265.701 58.8701C264.998 59.453 264.065 59.5658 263.294 59.2414C262.959 59.1022 262.641 58.8692 262.397 58.547ZM139.658 3.73392C139.584 2.41922 140.588 1.26772 141.898 1.17047C143.199 1.07635 144.298 2.06157 144.361 3.37942C144.435 4.69412 143.429 5.83542 142.121 5.94286C141.745 5.97108 141.39 5.91564 141.064 5.77334C140.28 5.4419 139.702 4.67086 139.658 3.73392ZM256.504 51.5883C255.639 50.6187 255.72 49.1123 256.682 48.2057C257.658 47.306 259.141 47.3542 260.013 48.3105C260.885 49.2669 260.797 50.7865 259.834 51.6932C259.121 52.3566 258.123 52.5116 257.313 52.1661C257.014 52.0379 256.728 51.8393 256.504 51.5883ZM148.935 3.18682C148.948 1.8674 150.028 0.791756 151.318 0.778185C152.628 0.758353 153.674 1.82656 153.651 3.14909C153.638 4.46852 152.559 5.54409 151.269 5.55767C150.94 5.56005 150.638 5.49916 150.355 5.38817C149.509 5.03169 148.917 4.1762 148.935 3.18682ZM250.172 45.0199C249.238 44.116 249.217 42.5972 250.132 41.6389C251.047 40.6806 252.545 40.6248 253.469 41.5318C254.403 42.4357 254.411 43.9476 253.499 44.916C252.799 45.6638 251.735 45.8612 250.877 45.4977C250.613 45.3804 250.382 45.2201 250.172 45.0199ZM158.209 3.24901C158.311 1.93506 159.441 0.921179 160.744 0.992092C162.037 1.06609 163.011 2.18981 162.911 3.51393C162.809 4.82789 161.679 5.84171 160.386 5.76768C160.108 5.75445 159.849 5.69122 159.612 5.58803C158.72 5.22375 158.129 4.29081 158.209 3.24901ZM243.426 38.8896C242.436 38.0585 242.318 36.5475 243.17 35.5204C244.025 34.5035 245.51 34.3632 246.497 35.1841C247.48 36.0286 247.585 37.5326 246.743 38.5566C246.053 39.3787 244.941 39.6355 244.02 39.2469C243.811 39.168 243.604 39.0554 243.426 38.8896ZM167.465 3.91345C167.654 2.59477 168.849 1.65986 170.129 1.80426C171.425 1.96589 172.317 3.1483 172.128 4.46694C171.949 5.78251 170.756 6.72748 169.471 6.56274C169.256 6.54088 169.053 6.48228 168.865 6.39705C167.911 6.00776 167.31 5.0006 167.465 3.91345ZM236.31 33.2389C235.271 32.4671 235.06 30.9741 235.844 29.9017C236.628 28.8293 238.115 28.5779 239.147 29.3629C240.194 30.1213 240.398 31.6276 239.613 32.7C238.939 33.6168 237.765 33.926 236.792 33.5094C236.617 33.4312 236.459 33.3366 236.31 33.2389ZM176.648 5.17534C176.906 3.86839 178.157 3.01561 179.44 3.2476C180.705 3.49606 181.538 4.74103 181.264 6.0308C180.993 7.3307 179.755 8.19053 178.472 7.95851C178.308 7.92101 178.161 7.86705 178.015 7.81313C177.006 7.38552 176.408 6.31101 176.648 5.17534ZM228.842 28.0511C227.747 27.3521 227.449 25.8639 228.166 24.7461C228.879 23.6181 230.353 23.2823 231.432 23.9977C232.527 24.6967 232.822 26.1748 232.109 27.3028C231.467 28.2978 230.234 28.6695 229.192 28.2411C229.078 28.188 228.962 28.1246 228.842 28.0511ZM185.712 7.02699C186.054 5.74895 187.346 4.96114 188.611 5.28703C189.853 5.60899 190.591 6.90554 190.251 8.19374C189.908 9.47179 188.616 10.2597 187.351 9.93376C187.243 9.90095 187.135 9.86811 187.024 9.82514C185.977 9.37642 185.401 8.18457 185.712 7.02699ZM221.046 23.3742C219.915 22.7417 219.526 21.2816 220.165 20.1216C220.824 18.9553 222.262 18.5312 223.391 19.1535C224.526 19.7961 224.912 21.2461 224.273 22.4061C223.667 23.4894 222.367 23.9371 221.274 23.4806C221.263 23.4761 221.253 23.4714 221.243 23.4666C221.224 23.4573 221.205 23.4475 221.186 23.4375C221.142 23.4148 221.097 23.3915 221.046 23.3742ZM194.63 9.45436C195.055 8.19507 196.395 7.50263 197.627 7.90515C198.859 8.30767 199.521 9.64963 199.096 10.9089C198.672 12.1682 197.321 12.8638 196.099 12.4581L196.092 12.4714L195.907 12.3964C194.8 11.9328 194.221 10.6534 194.63 9.45436ZM212.976 19.2026C211.811 18.6468 211.324 17.2281 211.908 16.0298C212.48 14.8244 213.892 14.3087 215.057 14.8646L215.065 14.8513C216.243 15.4141 216.706 16.8289 216.145 18.0311C215.585 19.1997 214.229 19.7201 213.084 19.2354C213.04 19.2378 213.002 19.2167 212.976 19.2026ZM203.373 12.4667C203.872 11.2395 205.256 10.6221 206.454 11.1013C207.653 11.5805 208.23 12.971 207.731 14.1982C207.231 15.4255 205.847 16.0428 204.649 15.5637L204.61 15.5425C203.432 15.0571 202.88 13.6807 203.373 12.4667ZM115.736 239.089C114.984 238.767 114.657 237.875 114.995 237.116C115.332 236.352 116.217 235.994 116.957 236.32C117.705 236.651 118.03 237.537 117.693 238.301C117.355 239.059 116.487 239.405 115.752 239.098C115.746 239.095 115.744 239.09 115.74 239.089C115.739 239.089 115.738 239.089 115.736 239.089ZM120.35 239.366C120.646 238.58 121.496 238.17 122.265 238.453C123.032 238.729 123.412 239.591 123.116 240.377C122.831 241.154 121.969 241.567 121.208 241.289C121.191 241.28 121.179 241.276 121.163 241.271L121.163 241.271C121.156 241.268 121.148 241.266 121.138 241.262C120.425 240.956 120.066 240.122 120.35 239.366ZM110.409 236.545C109.684 236.173 109.409 235.271 109.793 234.527C110.185 233.787 111.078 233.482 111.799 233.863C112.518 234.237 112.792 235.139 112.408 235.883C112.034 236.59 111.208 236.888 110.506 236.599C110.489 236.585 110.466 236.574 110.443 236.563C110.431 236.557 110.42 236.551 110.409 236.545ZM125.84 241.262C126.091 240.462 126.92 240.003 127.695 240.235C128.483 240.463 128.917 241.294 128.671 242.086C128.428 242.891 127.599 243.35 126.819 243.126C126.759 243.11 126.712 243.09 126.665 243.07C125.984 242.781 125.615 242.006 125.84 241.262ZM105.259 233.676C104.561 233.253 104.342 232.327 104.775 231.609C105.207 230.892 106.125 230.648 106.816 231.073C107.512 231.489 107.731 232.415 107.299 233.133C106.909 233.782 106.114 234.043 105.449 233.763C105.381 233.742 105.316 233.707 105.259 233.676ZM131.445 242.809C131.636 241.993 132.437 241.48 133.231 241.657C134.027 241.841 134.519 242.634 134.322 243.452C134.135 244.261 133.33 244.781 132.534 244.598C132.447 244.583 132.365 244.56 132.285 244.522C131.643 244.249 131.275 243.529 131.445 242.809ZM100.308 230.459C99.6454 229.991 99.4854 229.054 99.9558 228.373C100.431 227.683 101.352 227.502 102.027 227.966C102.694 228.426 102.854 229.363 102.379 230.053C101.969 230.653 101.209 230.868 100.576 230.605C100.482 230.565 100.395 230.523 100.308 230.459ZM137.139 243.982C137.28 243.16 138.051 242.593 138.859 242.718C139.672 242.841 140.198 243.609 140.065 244.435C139.922 245.251 139.157 245.815 138.35 245.69C138.227 245.673 138.116 245.645 138.014 245.6C137.398 245.346 137.018 244.679 137.139 243.982ZM95.5795 226.931C94.9415 226.427 94.834 225.48 95.3514 224.82C95.8689 224.159 96.8015 224.043 97.4413 224.553C98.0811 225.063 98.1741 226.007 97.6612 226.66C97.2363 227.209 96.5072 227.386 95.914 227.14C95.7955 227.086 95.6861 227.016 95.5795 226.931ZM142.915 244.788C143.006 243.96 143.736 243.344 144.55 243.419C145.362 243.486 145.946 244.215 145.856 245.049C145.771 245.875 145.039 246.484 144.219 246.412C144.07 246.396 143.925 246.371 143.792 246.315C143.218 246.063 142.841 245.457 142.915 244.788ZM91.0834 223.101C90.4872 222.549 90.4404 221.598 90.9975 220.98C91.5511 220.35 92.4872 220.295 93.0898 220.845C93.6987 221.393 93.7311 222.341 93.1757 222.966C92.7347 223.457 92.0573 223.598 91.4947 223.362C91.3455 223.297 91.2036 223.209 91.0834 223.101ZM148.727 245.207C148.763 244.376 149.461 243.722 150.279 243.739C151.099 243.762 151.727 244.45 151.692 245.281C151.65 246.114 150.958 246.766 150.14 246.749L150.135 246.758C149.954 246.751 149.777 246.709 149.613 246.642C149.078 246.405 148.701 245.848 148.727 245.207ZM86.8406 218.97C86.2752 218.381 86.299 217.435 86.8841 216.844C87.4838 216.255 88.4153 216.257 88.987 216.844C89.5506 217.427 89.5304 218.385 88.9389 218.979C88.4898 219.417 87.8514 219.525 87.3214 219.307C87.1396 219.224 86.9842 219.113 86.8406 218.97ZM154.565 245.251C154.552 244.421 155.197 243.721 156.021 243.687C156.84 243.655 157.511 244.302 157.53 245.13C157.543 245.96 156.892 246.662 156.074 246.694C155.848 246.701 155.646 246.667 155.451 246.588C154.936 246.373 154.571 245.861 154.565 245.251ZM82.8744 214.572C82.3462 213.944 82.4306 212.993 83.0555 212.445C83.6805 211.897 84.6136 211.955 85.1481 212.581L85.14 212.576C85.6745 213.203 85.5838 214.155 84.9588 214.703C84.5162 215.091 83.9123 215.174 83.4112 214.961C83.2104 214.885 83.0224 214.755 82.8744 214.572ZM160.395 244.922C160.328 244.095 160.934 243.358 161.752 243.277C162.569 243.191 163.282 243.789 163.347 244.61C163.414 245.437 162.808 246.174 161.993 246.267C161.738 246.291 161.493 246.255 161.274 246.163C160.796 245.958 160.438 245.492 160.395 244.922ZM79.1948 209.919C78.712 209.256 78.8462 208.311 79.5108 207.806C80.1691 207.302 81.0994 207.424 81.5787 208.074C82.0661 208.729 81.9192 209.678 81.2609 210.181C80.8202 210.526 80.257 210.583 79.7867 210.381C79.5615 210.291 79.3519 210.134 79.1948 209.919ZM166.21 244.222C166.088 243.398 166.65 242.626 167.459 242.486C168.268 242.346 169.016 242.899 169.142 243.715C169.255 244.534 168.699 245.304 167.892 245.451C167.609 245.497 167.331 245.465 167.081 245.362C166.627 245.169 166.282 244.748 166.21 244.222ZM75.8217 205.031C75.3797 204.342 75.5845 203.403 76.2617 202.942C76.9516 202.478 77.8709 202.658 78.3148 203.354C78.755 204.038 78.5566 204.975 77.8667 205.439C77.4342 205.74 76.9055 205.772 76.4678 205.588C76.2227 205.477 75.9832 205.287 75.8217 205.031ZM171.973 243.142C171.807 242.332 172.317 241.52 173.117 241.327C173.92 241.141 174.703 241.648 174.874 242.45C175.046 243.258 174.522 244.067 173.727 244.258C173.418 244.333 173.104 244.299 172.832 244.188C172.404 244.015 172.069 243.633 171.973 243.142ZM72.7687 199.934C72.3674 199.217 72.6256 198.296 73.3489 197.877C74.064 197.454 74.966 197.695 75.3673 198.411C75.7604 199.123 75.5104 200.048 74.7952 200.472C74.3674 200.716 73.8849 200.741 73.4697 200.564C73.1876 200.443 72.9346 200.229 72.7687 199.934ZM177.667 241.694C177.451 240.9 177.91 240.055 178.7 239.824C179.486 239.58 180.309 240.033 180.524 240.821C180.742 241.622 180.282 242.46 179.495 242.704C179.153 242.81 178.806 242.779 178.508 242.649C178.109 242.481 177.795 242.148 177.667 241.694ZM70.0491 194.649C69.6968 193.91 70.0084 193.008 70.7488 192.625C71.4846 192.251 72.3756 192.551 72.7298 193.296C73.0821 194.034 72.7705 194.937 72.0283 195.313C71.625 195.522 71.1769 195.522 70.7944 195.362C70.4797 195.224 70.205 194.983 70.0491 194.649ZM183.269 239.893C182.996 239.116 183.407 238.252 184.179 237.957L184.175 237.965C184.955 237.674 185.798 238.073 186.063 238.845C186.337 239.622 185.92 240.495 185.153 240.782C184.786 240.923 184.401 240.904 184.072 240.763C183.712 240.61 183.407 240.309 183.269 239.893ZM67.6649 189.183C67.3534 188.419 67.7246 187.532 68.4876 187.205C69.2487 186.871 70.1142 187.228 70.4194 187.995C70.731 188.76 70.3579 189.64 69.5968 189.974C69.2099 190.142 68.8062 190.129 68.4544 189.981C68.1043 189.839 67.8126 189.562 67.6649 189.183ZM188.764 237.736C188.446 236.973 188.805 236.09 189.556 235.746C190.315 235.406 191.182 235.742 191.5 236.505C191.817 237.268 191.467 238.155 190.708 238.495C190.316 238.672 189.893 238.664 189.542 238.516C189.198 238.373 188.914 238.099 188.764 237.736ZM65.625 183.57C65.3642 182.789 65.7924 181.933 66.5616 181.653C67.3452 181.375 68.1835 181.782 68.438 182.565C68.6942 183.354 68.2723 184.207 67.4968 184.49C67.139 184.615 66.7607 184.593 66.4414 184.463C66.067 184.308 65.7662 183.998 65.625 183.57ZM194.114 235.235C193.749 234.5 194.044 233.589 194.783 233.2C195.515 232.812 196.409 233.098 196.774 233.832C197.139 234.567 196.844 235.478 196.105 235.868C195.695 236.078 195.243 236.087 194.852 235.923C194.541 235.797 194.274 235.56 194.114 235.235ZM63.9384 177.839C63.7365 177.047 64.2036 176.207 65.0016 175.98C65.7915 175.749 66.6042 176.213 66.8098 177.017C67.0199 177.814 66.5446 178.649 65.7466 178.876C65.4151 178.972 65.0766 178.945 64.7799 178.822C64.3811 178.654 64.0632 178.308 63.9384 177.839ZM199.308 232.4C198.9 231.685 199.136 230.758 199.849 230.328C200.563 229.898 201.467 230.124 201.88 230.83C202.287 231.545 202.043 232.468 201.33 232.898C200.906 233.155 200.411 233.183 199.996 233.006C199.723 232.896 199.477 232.681 199.308 232.4ZM62.6214 172.001C62.462 171.189 62.9879 170.386 63.7921 170.206C64.5964 170.026 65.3756 170.542 65.5349 171.354C65.6879 172.168 65.1684 172.969 64.3642 173.149C64.0589 173.216 63.7539 173.185 63.4881 173.073C63.0585 172.894 62.7199 172.498 62.6214 172.001ZM204.329 229.243C203.881 228.555 204.058 227.618 204.746 227.147C205.424 226.666 206.347 226.831 206.801 227.517C207.254 228.196 207.064 229.138 206.384 229.613C205.945 229.916 205.42 229.961 204.974 229.773C204.715 229.659 204.493 229.484 204.329 229.243ZM61.6748 166.083C61.5679 165.261 62.1381 164.493 62.9522 164.373C63.7644 164.246 64.5082 164.807 64.6087 165.631C64.7219 166.45 64.1454 167.22 63.3394 167.345C63.056 167.391 62.7908 167.355 62.5494 167.256C62.0854 167.053 61.7378 166.626 61.6748 166.083ZM209.15 225.767C208.65 225.116 208.776 224.166 209.43 223.65C210.083 223.128 211.012 223.243 211.51 223.887C212.004 224.54 211.876 225.483 211.229 226.004C210.784 226.357 210.21 226.424 209.733 226.225C209.506 226.128 209.311 225.974 209.15 225.767ZM61.0931 160.113C61.0388 159.283 61.655 158.556 62.4753 158.482C63.3019 158.406 63.9976 159.017 64.0583 159.846C64.1108 160.671 63.4882 161.399 62.6743 161.471C62.4316 161.491 62.2 161.451 61.9892 161.364C61.4836 161.16 61.1298 160.686 61.0931 160.113ZM213.748 221.991C213.211 221.379 213.279 220.42 213.902 219.865L213.894 219.861C214.517 219.306 215.449 219.357 215.992 219.967C216.53 220.578 216.453 221.533 215.838 222.092C215.387 222.497 214.783 222.58 214.275 222.369C214.074 222.292 213.895 222.168 213.748 221.991ZM60.8926 154.102C60.8926 153.269 61.5531 152.577 62.3769 152.565C63.1907 152.541 63.8574 153.196 63.8637 154.028C63.8637 154.862 63.2032 155.553 62.3794 155.566C62.1684 155.576 61.9639 155.535 61.784 155.459C61.2603 155.239 60.8921 154.714 60.8926 154.102ZM218.103 217.936C217.527 217.357 217.536 216.409 218.118 215.805C218.701 215.207 219.635 215.195 220.218 215.772C220.788 216.352 220.78 217.307 220.203 217.903C219.76 218.36 219.109 218.472 218.569 218.243C218.399 218.178 218.245 218.073 218.103 217.936ZM61.0713 148.092C61.1193 147.257 61.8214 146.615 62.6433 146.645C63.4651 146.675 64.0819 147.373 64.0258 148.203C63.9778 149.038 63.2757 149.68 62.4538 149.65C62.2792 149.642 62.11 149.604 61.9526 149.535C61.3982 149.304 61.0256 148.738 61.0713 148.092ZM222.21 213.611C221.603 213.07 221.543 212.122 222.089 211.487C222.636 210.859 223.571 210.777 224.185 211.316C224.792 211.858 224.845 212.807 224.298 213.435C223.862 213.946 223.172 214.091 222.595 213.853C222.462 213.797 222.328 213.713 222.21 213.611ZM61.6213 142.077C61.7272 141.252 62.4608 140.649 63.2781 140.736C64.0935 140.817 64.6667 141.556 64.5689 142.385C64.463 143.21 63.7213 143.809 62.9104 143.72C62.7628 143.71 62.6289 143.675 62.5041 143.624C61.9063 143.385 61.5383 142.763 61.6213 142.077ZM226.033 209.04C225.383 208.54 225.275 207.594 225.778 206.93C226.286 206.259 227.215 206.13 227.857 206.626C228.5 207.121 228.615 208.072 228.113 208.735C227.679 209.301 226.958 209.483 226.348 209.227C226.238 209.178 226.13 209.114 226.033 209.04ZM62.5504 136.112C62.7061 135.292 63.4876 134.737 64.2857 134.878C65.0884 135.011 65.618 135.792 65.4623 136.612C65.313 137.429 64.5297 137.978 63.727 137.845C63.6112 137.825 63.5126 137.793 63.4104 137.749C62.7991 137.487 62.423 136.811 62.5504 136.112ZM229.563 204.234C228.886 203.784 228.713 202.851 229.178 202.151C229.645 201.457 230.568 201.261 231.246 201.71C231.924 202.16 232.092 203.102 231.626 203.795C231.225 204.406 230.454 204.631 229.812 204.358C229.73 204.335 229.64 204.286 229.563 204.234ZM63.856 130.21C64.0614 129.396 64.8718 128.894 65.6635 129.086C66.4615 129.276 66.9376 130.087 66.7304 130.895C66.5295 131.701 65.7128 132.205 64.9274 132.011C64.853 131.995 64.7809 131.967 64.7154 131.942L64.7151 131.942L64.6995 131.936C64.0429 131.66 63.6733 130.934 63.856 130.21ZM232.794 199.222C232.094 198.814 231.864 197.898 232.278 197.165L232.274 197.174C232.696 196.445 233.604 196.191 234.306 196.605C235.013 197.011 235.245 197.933 234.821 198.655L234.829 198.66C234.438 199.33 233.63 199.595 232.965 199.315L232.794 199.222ZM65.5289 124.389C65.7814 123.595 66.6206 123.147 67.3977 123.385C68.1747 123.623 68.6056 124.469 68.3513 125.257C68.0988 126.051 67.2551 126.508 66.4762 126.263C66.4309 126.249 66.3921 126.233 66.345 126.213C65.6495 125.922 65.2846 125.139 65.5289 124.389ZM235.702 194.018C234.973 193.654 234.692 192.754 235.068 192.005C235.443 191.256 236.336 190.951 237.058 191.311C237.79 191.682 238.081 192.571 237.705 193.32C237.348 194.035 236.508 194.358 235.797 194.058C235.764 194.04 235.733 194.029 235.702 194.018ZM67.5446 118.684C67.8568 117.906 68.7122 117.515 69.4729 117.793C70.2308 118.086 70.5983 118.952 70.3006 119.732C69.9947 120.508 69.1348 120.907 68.3768 120.614C68.3673 120.609 68.3584 120.606 68.351 120.604C68.3458 120.602 68.3413 120.6 68.3379 120.599C67.6036 120.291 67.2497 119.449 67.5446 118.684ZM237.527 186.676C237.539 186.645 237.553 186.62 237.573 186.593C237.583 186.555 237.599 186.515 237.615 186.475C237.944 185.706 238.813 185.339 239.568 185.647C240.325 185.961 240.662 186.843 240.34 187.61C240.324 187.65 240.31 187.675 240.294 187.715C240.288 187.73 240.281 187.747 240.273 187.763C240.27 187.77 240.266 187.778 240.263 187.785C240.259 187.794 240.255 187.803 240.252 187.811C239.925 188.587 239.048 188.949 238.298 188.633C237.543 188.325 237.194 187.454 237.527 186.676ZM70.6239 115.094C69.8805 114.755 69.5684 113.865 69.9131 113.105C70.266 112.35 71.1484 112.006 71.8918 112.345C72.6288 112.686 72.9537 113.572 72.5963 114.336C72.2606 115.08 71.399 115.424 70.6709 115.115C70.6483 115.108 70.6402 115.103 70.6239 115.094ZM239.733 181.01C240.014 180.22 240.861 179.798 241.632 180.066C242.404 180.333 242.801 181.183 242.52 181.972C242.238 182.761 241.392 183.184 240.62 182.916C240.59 182.905 240.559 182.893 240.526 182.876C239.829 182.578 239.47 181.765 239.733 181.01ZM73.2065 109.714C72.4859 109.333 72.229 108.419 72.6289 107.683C73.0225 106.95 73.9229 106.67 74.6354 107.047C75.3515 107.436 75.6129 108.341 75.2211 109.081C74.8439 109.775 74.0223 110.065 73.3268 109.774C73.2879 109.758 73.2427 109.744 73.2065 109.714ZM241.514 175.426C241.744 174.625 242.568 174.147 243.358 174.36C244.143 174.575 244.587 175.396 244.359 176.204C244.129 177.005 243.31 177.474 242.527 177.265C242.477 177.255 242.432 177.238 242.387 177.22C242.373 177.215 242.359 177.209 242.345 177.204C241.68 176.924 241.301 176.166 241.514 175.426ZM76.1083 104.512C75.4149 104.081 75.2151 103.149 75.6511 102.444C76.0935 101.737 77.0146 101.506 77.708 101.938C78.395 102.371 78.5931 103.296 78.1588 104.007C77.7609 104.652 76.9747 104.896 76.3181 104.62L76.3056 104.614C76.231 104.579 76.164 104.547 76.1083 104.512ZM242.951 169.747C243.136 168.933 243.924 168.403 244.722 168.566C245.521 168.735 246.025 169.523 245.847 170.336C245.662 171.151 244.873 171.68 244.076 171.518C243.981 171.498 243.891 171.471 243.805 171.435C243.163 171.162 242.794 170.463 242.951 169.747ZM79.3274 99.4823C78.6694 99.0055 78.5239 98.0709 79.0088 97.3923C79.4937 96.7138 80.4165 96.5385 81.0826 97.0197C81.7406 97.4965 81.8797 98.4331 81.403 99.1161C80.9889 99.7032 80.2399 99.9079 79.6158 99.6499C79.5073 99.6072 79.416 99.5521 79.3274 99.4823ZM244.025 164.001C244.15 163.17 244.911 162.593 245.723 162.71C246.527 162.822 247.084 163.58 246.956 164.398C246.835 165.22 246.074 165.797 245.257 165.689C245.129 165.674 245.008 165.635 244.897 165.586C244.29 165.336 243.914 164.689 244.025 164.001ZM82.8511 94.6781C82.224 94.1639 82.1374 93.218 82.6629 92.5615L82.6711 92.5659C83.1921 91.9178 84.1265 91.8085 84.7536 92.3226C85.3889 92.8412 85.4692 93.7891 84.9418 94.4391C84.5088 94.9835 83.8015 95.1405 83.2082 94.8938C83.0834 94.8422 82.9595 94.7695 82.8511 94.6781ZM244.742 158.192C244.819 157.362 245.541 156.741 246.356 156.794C247.172 156.854 247.767 157.572 247.697 158.4C247.62 159.23 246.898 159.85 246.083 159.797C245.915 159.787 245.767 159.75 245.625 159.689C245.048 159.452 244.681 158.857 244.742 158.192ZM86.6667 90.1028C86.0686 89.5449 86.049 88.5921 86.608 87.9808C87.1715 87.3612 88.1048 87.3217 88.7029 87.8796C89.3009 88.4375 89.3224 89.3967 88.7616 90.0016C88.3188 90.4865 87.6477 90.6252 87.0915 90.3879C86.9405 90.3166 86.795 90.2159 86.6667 90.1028ZM245.09 152.365C245.111 151.531 245.793 150.868 246.608 150.872C247.429 150.875 248.076 151.556 248.053 152.383C248.026 153.219 247.345 153.888 246.523 153.88C246.329 153.877 246.145 153.837 245.973 153.765C245.433 153.537 245.068 152.997 245.09 152.365ZM90.7633 85.767C90.2042 85.1761 90.2389 84.2203 90.8422 83.644C91.4373 83.0632 92.3787 83.0768 92.9332 83.676C93.4877 84.2752 93.4575 85.2226 92.8543 85.799C92.4098 86.2288 91.7759 86.3282 91.2541 86.115C91.0804 86.0368 90.9024 85.9184 90.7633 85.767ZM245.06 146.544C245.027 145.714 245.674 144.999 246.489 144.954C247.308 144.901 247.996 145.535 248.024 146.368C248.057 147.198 247.408 147.907 246.595 147.958C246.363 147.967 246.14 147.932 245.945 147.854C245.444 147.641 245.09 147.139 245.06 146.544ZM95.1209 81.6976C94.5991 81.0674 94.698 80.1194 95.331 79.5755C95.9595 79.04 96.8963 79.1106 97.4181 79.7408C97.9336 80.3729 97.8365 81.3273 97.208 81.8628L97.2035 81.8712C96.7573 82.2459 96.166 82.3252 95.6731 82.1168C95.4641 82.0357 95.2708 81.8873 95.1209 81.6976ZM244.684 140.741C244.598 139.919 245.194 139.172 246.012 139.064C246.831 138.962 247.555 139.551 247.635 140.374C247.716 141.203 247.128 141.955 246.308 142.057C246.047 142.082 245.798 142.055 245.571 141.959C245.093 141.753 244.738 141.301 244.684 140.741ZM99.7051 77.9192C99.2349 77.2521 99.3836 76.3095 100.056 75.8089C100.725 75.3166 101.65 75.4462 102.121 76.1133C102.597 76.7784 102.448 77.721 101.782 78.2196C101.338 78.5521 100.787 78.6048 100.325 78.4078C100.077 78.311 99.8739 78.1517 99.7051 77.9192ZM243.934 134.983C243.802 134.17 244.344 133.376 245.157 133.228C245.967 133.067 246.726 133.61 246.86 134.43C246.992 135.243 246.448 136.031 245.637 136.185C245.341 136.235 245.057 136.205 244.805 136.096C244.353 135.91 244.019 135.506 243.934 134.983ZM104.519 74.4446C104.088 73.7445 104.303 72.8163 104.995 72.3584C105.688 71.9069 106.605 72.1019 107.041 72.7935C107.472 73.4936 107.257 74.4219 106.565 74.8797C106.134 75.1596 105.619 75.1941 105.184 75.0167C104.918 74.9047 104.685 74.713 104.519 74.4446ZM242.83 129.288C242.645 128.483 243.144 127.661 243.943 127.462C244.74 127.256 245.531 127.74 245.716 128.545C245.901 129.349 245.401 130.171 244.604 130.377C244.275 130.458 243.956 130.425 243.682 130.309C243.267 130.132 242.937 129.768 242.83 129.288ZM109.531 71.2772C109.14 70.5506 109.415 69.6385 110.133 69.2278C110.858 68.8152 111.751 69.0731 112.14 69.7933C112.53 70.5199 112.256 71.432 111.537 71.8427C111.114 72.0783 110.642 72.0926 110.243 71.9246C109.947 71.8012 109.698 71.5795 109.531 71.2772ZM241.364 123.683C241.135 122.892 241.58 122.046 242.362 121.789C243.145 121.532 243.972 121.97 244.207 122.759C244.436 123.55 243.992 124.396 243.209 124.653C242.862 124.768 242.503 124.74 242.192 124.615C241.807 124.449 241.495 124.122 241.364 123.683ZM114.727 68.4274C114.386 67.6787 114.712 66.7784 115.453 66.4232C116.191 66.0553 117.079 66.3703 117.412 67.1146C117.758 67.855 117.428 68.7637 116.687 69.1188C116.288 69.319 115.852 69.3151 115.476 69.1539C115.157 69.0237 114.882 68.7824 114.727 68.4274ZM239.557 118.185C239.273 117.418 239.666 116.539 240.437 116.237C241.207 115.935 242.057 116.311 242.337 117.086C242.616 117.861 242.227 118.732 241.457 119.033C241.085 119.183 240.696 119.172 240.353 119.029C239.994 118.883 239.697 118.586 239.557 118.185ZM120.075 65.9198C119.777 65.1509 120.156 64.2688 120.924 63.9608C121.685 63.6485 122.546 64.0136 122.836 64.7781C123.127 65.5426 122.748 66.4247 121.987 66.737C121.61 66.889 121.208 66.8818 120.856 66.7338C120.506 66.5923 120.219 66.3062 120.075 65.9198ZM237.403 112.828C237.075 112.076 237.417 111.184 238.16 110.836C238.907 110.479 239.791 110.802 240.12 111.555C240.442 112.309 240.116 113.209 239.359 113.556C238.969 113.739 238.529 113.744 238.169 113.591C237.838 113.444 237.558 113.183 237.403 112.828ZM125.561 63.7519C125.319 62.9653 125.747 62.1097 126.536 61.8509C127.315 61.5813 128.144 62.005 128.392 62.7896C128.634 63.5762 128.198 64.4274 127.425 64.695C127.067 64.82 126.695 64.7964 126.382 64.6642C126 64.505 125.691 64.1909 125.561 63.7519ZM234.92 107.623C234.544 106.899 234.831 105.983 235.558 105.577C236.28 105.179 237.177 105.45 237.561 106.178L237.553 106.174C237.93 106.904 237.65 107.818 236.915 108.22C236.504 108.452 236.037 108.458 235.646 108.294C235.348 108.165 235.085 107.94 234.92 107.623ZM131.159 61.938C130.963 61.144 131.453 60.311 132.246 60.0925C133.046 59.8721 133.848 60.3459 134.041 61.1546C134.232 61.957 133.747 62.7816 132.96 62.9981C132.628 63.094 132.296 63.0651 132.006 62.9398C131.592 62.7692 131.271 62.4104 131.159 61.938ZM232.12 102.593C231.702 101.889 231.924 100.965 232.626 100.518C233.33 100.077 234.243 100.287 234.66 100.984C235.079 101.688 234.851 102.621 234.154 103.059C233.727 103.331 233.219 103.363 232.796 103.182C232.522 103.066 232.287 102.868 232.12 102.593ZM136.851 60.4839C136.713 59.6722 137.247 58.8741 138.048 58.7088L138.056 58.7131C138.858 58.5478 139.634 59.0781 139.779 59.8879C139.924 60.6976 139.384 61.4977 138.574 61.6586L138.582 61.663C138.275 61.7236 137.989 61.6872 137.725 61.5816C137.279 61.3934 136.941 60.9981 136.851 60.4839ZM229.003 97.7579C228.531 97.0844 228.709 96.1468 229.377 95.6545C230.055 95.173 230.972 95.3193 231.437 95.9948C231.901 96.6638 231.732 97.6059 231.064 98.0982C230.627 98.4075 230.082 98.4583 229.622 98.2676C229.381 98.1688 229.167 97.9988 229.003 97.7579ZM142.619 59.3956C142.519 58.5721 143.105 57.8133 143.921 57.6991C144.737 57.5849 145.47 58.1565 145.566 58.9884C145.658 59.8075 145.08 60.5706 144.262 60.6785C143.998 60.7189 143.737 60.6747 143.502 60.5739C143.029 60.3872 142.678 59.9472 142.619 59.3956ZM225.582 93.1424C225.071 92.5019 225.183 91.55 225.821 91.0253C226.464 90.4922 227.4 90.5839 227.907 91.2328C228.409 91.8689 228.304 92.8188 227.659 93.3455C227.218 93.7119 226.631 93.7828 226.146 93.5789C225.935 93.4914 225.736 93.3449 225.582 93.1424ZM148.424 58.6849C148.378 57.8584 149.009 57.1346 149.833 57.0734C150.65 57.0143 151.341 57.6336 151.381 58.4621C151.427 59.2885 150.795 60.006 149.973 60.0735C149.736 60.0913 149.513 60.0564 149.308 59.967C148.816 59.7586 148.452 59.2739 148.424 58.6849ZM221.878 88.7679C221.334 88.1584 221.385 87.2114 221.99 86.6414C222.603 86.0759 223.536 86.1062 224.084 86.7074C224.632 87.3086 224.576 88.2639 223.971 88.8338C223.523 89.2509 222.896 89.3483 222.387 89.1311C222.198 89.0505 222.019 88.9257 221.878 88.7679ZM154.256 58.341C154.265 57.5115 154.943 56.8354 155.754 56.8268C156.578 56.8144 157.236 57.4859 157.221 58.3173C157.213 59.1467 156.534 59.8229 155.723 59.8314C155.517 59.8329 155.327 59.7946 155.149 59.7248C154.617 59.5007 154.245 58.9629 154.256 58.341ZM217.897 84.6388C217.31 84.0705 217.297 83.1157 217.872 82.5133C218.447 81.9109 219.389 81.8758 219.97 82.446C220.557 83.0143 220.562 83.9646 219.989 84.5734C219.549 85.0436 218.88 85.1676 218.34 84.9391C218.175 84.8654 218.029 84.7646 217.897 84.6388ZM160.086 58.3801C160.15 57.5541 160.86 56.9167 161.68 56.9613C162.492 57.0078 163.105 57.7142 163.042 58.5466C162.978 59.3726 162.268 60.0099 161.455 59.9634C161.28 59.9551 161.117 59.9153 160.968 59.8505C160.407 59.6215 160.036 59.035 160.086 58.3801ZM213.657 80.7851C213.034 80.2626 212.96 79.3127 213.496 78.667C214.033 78.0277 214.966 77.9395 215.587 78.4557C216.205 78.9865 216.271 79.932 215.742 80.5757C215.308 81.0925 214.609 81.2539 214.03 81.0097C213.899 80.96 213.769 80.8893 213.657 80.7851ZM165.905 58.7978C166.023 57.9688 166.775 57.3811 167.58 57.4719C168.394 57.5735 168.955 58.3168 168.836 59.1457C168.724 59.9727 167.974 60.5668 167.166 60.4632C167.031 60.4495 166.903 60.4126 166.785 60.3591C166.185 60.1143 165.807 59.4812 165.905 58.7978ZM209.183 77.2328C208.53 76.7476 208.397 75.8091 208.89 75.1349C209.383 74.4607 210.318 74.3027 210.967 74.7962C211.625 75.273 211.753 76.2199 211.26 76.8941C210.836 77.4704 210.098 77.6647 209.486 77.4028C209.376 77.3537 209.277 77.2942 209.183 77.2328ZM171.678 59.591C171.84 58.7694 172.626 58.2334 173.433 58.3792C174.228 58.5354 174.751 59.318 174.579 60.1288C174.409 60.946 173.631 61.4865 172.824 61.3406C172.721 61.3171 172.629 61.2832 172.537 61.2494L172.537 61.2492C171.903 60.9804 171.527 60.305 171.678 59.591ZM204.489 73.9716C203.8 73.5322 203.613 72.5966 204.063 71.8939C204.512 71.1848 205.439 70.9737 206.117 71.4234C206.805 71.8628 206.991 72.7921 206.542 73.5011C206.139 74.1266 205.363 74.3603 204.709 74.091C204.637 74.0576 204.564 74.0178 204.489 73.9716ZM177.375 60.7551C177.591 59.9516 178.403 59.4564 179.198 59.6612C179.979 59.8637 180.442 60.6787 180.229 61.4885C180.013 62.2919 179.201 62.7872 178.406 62.5824C178.338 62.5617 178.27 62.5411 178.201 62.5141C177.542 62.232 177.18 61.4828 177.375 60.7551ZM199.588 71.0315C198.876 70.6339 198.632 69.716 199.034 68.9868C199.448 68.2536 200.352 67.987 201.062 68.3782C201.775 68.7822 202.018 69.6937 201.616 70.4229C201.235 71.1039 200.418 71.3853 199.731 71.0984C199.684 71.0782 199.641 71.0497 199.588 71.0315ZM182.982 62.281C183.249 61.4893 184.091 61.054 184.866 61.3071C185.64 61.5601 186.056 62.4037 185.789 63.1954C185.523 63.987 184.673 64.4243 183.905 64.1693L183.901 64.1776L183.784 64.1304C183.089 63.839 182.725 63.0348 182.982 62.281ZM194.514 68.4091C193.782 68.0597 193.476 67.1678 193.844 66.4145C194.203 65.6568 195.091 65.3326 195.823 65.682L195.828 65.6737C196.568 66.0275 196.86 66.9169 196.507 67.6726C196.155 68.4072 195.302 68.7344 194.582 68.4297C194.555 68.4312 194.531 68.418 194.515 68.4091L194.514 68.4091ZM188.478 64.1747C188.792 63.4032 189.662 63.0151 190.415 63.3163C191.168 63.6175 191.531 64.4917 191.217 65.2631C190.903 66.0346 190.033 66.4227 189.28 66.1215L189.256 66.1082C188.515 65.8031 188.168 64.9378 188.478 64.1747ZM98.7439 261.099C98.3106 262.069 98.7288 263.212 99.6922 263.625C99.6972 263.623 99.7 263.626 99.7039 263.629C99.7063 263.631 99.7091 263.634 99.7131 263.636C100.653 264.029 101.765 263.586 102.198 262.616C102.629 261.637 102.213 260.502 101.255 260.079C100.308 259.661 99.1748 260.12 98.7439 261.099ZM108.052 262.809C107.067 262.448 105.979 262.972 105.6 263.98C105.236 264.947 105.695 266.014 106.609 266.407C106.621 266.411 106.632 266.415 106.641 266.418C106.661 266.425 106.677 266.43 106.698 266.441C107.672 266.797 108.777 266.268 109.142 265.274C109.52 264.266 109.034 263.163 108.052 262.809ZM92.0833 257.783C91.5921 258.736 91.9431 259.891 92.8715 260.368C92.8854 260.375 92.9002 260.383 92.915 260.39C92.9446 260.404 92.9742 260.419 92.9966 260.436C93.8952 260.806 94.953 260.425 95.4314 259.52C95.9225 258.567 95.5716 257.412 94.6512 256.933C93.7285 256.445 92.5849 256.836 92.0833 257.783ZM115.004 265.091C114.012 264.794 112.95 265.382 112.629 266.407C112.341 267.359 112.814 268.351 113.686 268.721C113.746 268.747 113.806 268.773 113.882 268.794C114.881 269.08 115.943 268.492 116.253 267.462C116.568 266.447 116.013 265.383 115.004 265.091ZM85.6577 254.048C85.104 254.967 85.3842 256.152 86.2778 256.693L86.2779 256.693C86.3508 256.733 86.4341 256.778 86.521 256.805C87.372 257.163 88.3904 256.83 88.8894 255.999C89.4431 255.079 89.1629 253.894 88.2716 253.361C87.3862 252.817 86.2114 253.129 85.6577 254.048ZM122.092 266.913C121.075 266.686 120.05 267.342 119.806 268.388C119.588 269.309 120.059 270.231 120.881 270.58C120.983 270.629 121.089 270.659 121.2 270.677C122.219 270.913 123.25 270.246 123.489 269.211C123.741 268.163 123.112 267.148 122.092 266.913ZM79.488 249.904C78.8857 250.776 79.0906 251.976 79.9388 252.575C80.0499 252.656 80.1622 252.711 80.2827 252.762C81.0921 253.098 82.0651 252.823 82.5907 252.055C83.1987 251.172 82.9939 249.972 82.1398 249.383C81.2753 248.789 80.0961 249.021 79.488 249.904ZM129.297 268.271C128.264 268.111 127.276 268.836 127.095 269.889C126.94 270.782 127.427 271.636 128.216 271.961C128.347 272.018 128.489 272.054 128.646 272.076C129.679 272.236 130.659 271.514 130.842 270.469C131.013 269.411 130.339 268.428 129.297 268.271ZM73.5928 245.354C72.9303 246.201 73.0679 247.412 73.8847 248.057C74.0212 248.166 74.1613 248.256 74.313 248.325C75.0726 248.641 76.0061 248.413 76.5501 247.711C77.2067 246.875 77.0877 245.667 76.2685 245.013C75.4494 244.36 74.2552 244.508 73.5928 245.354ZM136.584 269.168C135.543 269.073 134.608 269.861 134.491 270.921C134.396 271.777 134.879 272.553 135.614 272.876C135.785 272.948 135.97 272.979 136.161 273C137.211 273.093 138.148 272.312 138.257 271.255C138.372 270.188 137.624 269.254 136.584 269.168ZM68.0182 240.439C67.3048 241.229 67.3647 242.447 68.1281 243.154C68.282 243.293 68.4637 243.405 68.6548 243.488C69.375 243.79 70.2424 243.609 70.807 242.98C71.5181 242.182 71.4767 240.967 70.697 240.265C69.9255 239.562 68.7269 239.631 68.0182 240.439ZM143.92 269.578C142.872 269.556 141.978 270.394 141.933 271.458C141.899 272.278 142.382 272.991 143.067 273.295C143.277 273.381 143.504 273.435 143.736 273.443L143.741 273.432C144.789 273.454 145.675 272.619 145.729 271.552C145.774 270.488 144.97 269.608 143.92 269.578ZM62.7516 235.142C62.0023 235.9 61.9719 237.11 62.6958 237.864C62.8797 238.048 63.0787 238.19 63.3114 238.296C63.99 238.575 64.8074 238.437 65.3824 237.876C66.1397 237.116 66.1656 235.889 65.444 235.143C64.712 234.392 63.5193 234.388 62.7516 235.142ZM151.272 269.511C150.216 269.554 149.391 270.451 149.407 271.514C149.415 272.294 149.882 272.95 150.542 273.226C150.791 273.326 151.05 273.37 151.339 273.361C152.387 273.32 153.22 272.421 153.203 271.359C153.179 270.299 152.32 269.471 151.272 269.511ZM57.8496 229.511C57.0495 230.213 56.9414 231.43 57.6177 232.234C57.8072 232.469 58.048 232.634 58.305 232.732C58.9465 233.005 59.7198 232.898 60.2865 232.402C61.0866 231.7 61.2029 230.481 60.5185 229.679L60.5289 229.684C59.8445 228.883 58.6497 228.809 57.8496 229.511ZM158.61 268.987C157.562 269.09 156.785 270.033 156.871 271.092C156.926 271.822 157.385 272.418 157.998 272.682C158.278 272.8 158.591 272.845 158.918 272.815C159.961 272.696 160.737 271.752 160.652 270.693C160.568 269.642 159.655 268.876 158.61 268.987ZM53.3111 223.57C52.4602 224.217 52.2883 225.427 52.9065 226.276C53.1076 226.552 53.376 226.753 53.6644 226.868C54.2665 227.126 54.9876 227.054 55.5518 226.612C56.3947 225.967 56.5828 224.753 55.9587 223.914C55.3451 223.081 54.154 222.926 53.3111 223.57ZM165.916 267.974C164.881 268.153 164.161 269.141 164.316 270.196C164.409 270.87 164.852 271.409 165.433 271.656C165.752 271.788 166.108 271.829 166.471 271.769C167.504 271.582 168.216 270.596 168.071 269.547C167.91 268.503 166.951 267.795 165.916 267.974ZM49.1511 217.344C48.284 217.933 48.0218 219.135 48.5878 220.018C48.7945 220.346 49.1011 220.589 49.4149 220.731C49.9754 220.967 50.6523 220.926 51.206 220.54C52.0893 219.946 52.3435 218.746 51.7798 217.871C51.2115 216.98 50.0344 216.749 49.1511 217.344ZM173.161 266.49C172.136 266.737 171.483 267.776 171.695 268.813C171.819 269.442 172.248 269.932 172.796 270.153C173.144 270.294 173.545 270.339 173.942 270.243C174.959 269.998 175.63 268.962 175.41 267.928C175.192 266.901 174.188 266.251 173.161 266.49ZM45.4216 210.859C44.4956 211.395 44.165 212.574 44.6787 213.491C44.8912 213.87 45.2151 214.143 45.5764 214.298C46.1079 214.525 46.7257 214.493 47.2734 214.181C48.1891 213.639 48.5093 212.454 48.0059 211.542C47.4922 210.625 46.3373 210.316 45.4216 210.859ZM180.308 264.566C179.297 264.862 178.709 265.943 178.986 266.96C179.15 267.541 179.552 267.968 180.063 268.183C180.445 268.349 180.889 268.389 181.327 268.253C182.334 267.941 182.924 266.868 182.644 265.842C182.369 264.833 181.315 264.253 180.308 264.566ZM42.0926 204.134C41.1446 204.624 40.7456 205.78 41.1968 206.725C41.3963 207.152 41.748 207.461 42.151 207.639C42.6408 207.843 43.2145 207.843 43.7308 207.575C44.6811 207.094 45.08 205.938 44.6289 204.992C44.1755 204.039 43.0347 203.654 42.0926 204.134ZM187.324 262.175C186.336 262.552 185.808 263.659 186.159 264.654C186.335 265.186 186.726 265.572 187.187 265.767C187.608 265.948 188.101 265.973 188.57 265.791C189.553 265.424 190.086 264.307 189.736 263.312C189.396 262.323 188.317 261.813 187.318 262.185L187.324 262.175ZM39.1974 197.194C38.2206 197.613 37.7452 198.748 38.1441 199.727C38.3331 200.211 38.7067 200.567 39.1549 200.748C39.6053 200.938 40.1222 200.955 40.6176 200.739C41.5921 200.312 42.0697 199.185 41.6709 198.206C41.2801 197.224 40.1719 196.767 39.1974 197.194ZM194.208 259.344C193.246 259.785 192.787 260.915 193.194 261.892C193.387 262.357 193.75 262.707 194.19 262.891C194.64 263.08 195.182 263.09 195.683 262.863C196.655 262.428 197.104 261.292 196.697 260.316C196.29 259.339 195.18 258.909 194.208 259.344ZM36.7315 190.086C35.7467 190.445 35.1984 191.54 35.5323 192.54C35.7131 193.089 36.0982 193.485 36.5776 193.683C36.9864 193.85 37.4708 193.878 37.9289 193.718C38.9218 193.356 39.462 192.263 39.1339 191.253C38.8081 190.251 37.7348 189.73 36.7315 190.086ZM200.9 256.084C199.955 256.582 199.577 257.749 200.044 258.689C200.249 259.106 200.591 259.409 200.989 259.571C201.489 259.78 202.069 259.769 202.593 259.5C203.539 259.002 203.917 257.834 203.45 256.894C202.982 255.954 201.838 255.588 200.9 256.084ZM34.7341 182.823C33.7124 183.113 33.1143 184.189 33.3729 185.203C33.5327 185.803 33.9397 186.246 34.4503 186.461C34.8301 186.619 35.2635 186.653 35.688 186.53C36.7097 186.24 37.3182 185.17 37.0493 184.151C36.7861 183.12 35.7454 182.527 34.7341 182.823ZM207.387 252.407C206.474 252.957 206.172 254.145 206.694 255.06C206.91 255.42 207.226 255.695 207.575 255.836C208.106 256.063 208.74 256.026 209.283 255.697C210.197 255.147 210.509 253.965 209.987 253.05C209.459 252.146 208.301 251.856 207.387 252.407ZM33.1856 175.43C32.1559 175.66 31.4826 176.688 31.6866 177.728C31.8127 178.365 32.2462 178.871 32.7963 179.1C33.1367 179.244 33.5272 179.283 33.918 179.197C34.9477 178.966 35.6129 177.942 35.417 176.899C35.2129 175.859 34.2153 175.199 33.1856 175.43ZM213.657 248.334C212.776 248.937 212.549 250.138 213.123 251.018C213.333 251.327 213.617 251.55 213.949 251.696C214.52 251.937 215.192 251.879 215.754 251.492C216.625 250.883 216.868 249.678 216.288 248.808C215.706 247.93 214.526 247.718 213.657 248.334ZM32.1101 167.961C31.0678 168.115 30.3378 169.098 30.4746 170.15C30.5554 170.846 31.0004 171.393 31.5944 171.653C31.9036 171.779 32.2431 171.825 32.606 171.766C33.6378 171.606 34.376 170.621 34.2311 169.571C34.1024 168.517 33.1501 167.798 32.1101 167.961ZM219.654 243.857C218.816 244.518 218.655 245.734 219.295 246.567C219.502 246.832 219.752 247.03 220.043 247.153C220.653 247.409 221.388 247.323 221.958 246.87C222.786 246.204 222.949 244.997 222.317 244.161C221.679 243.336 220.49 243.189 219.654 243.857ZM31.4996 160.419C30.4493 160.514 29.6603 161.444 29.7298 162.507C29.7769 163.24 30.2299 163.847 30.8772 164.109C31.147 164.221 31.4436 164.271 31.7543 164.246C32.7964 164.154 33.5936 163.221 33.5263 162.165C33.4487 161.104 32.558 160.322 31.4996 160.419ZM225.38 239.011C224.582 239.721 224.495 240.949 225.183 241.732C225.37 241.959 225.601 242.119 225.858 242.217C226.507 242.487 227.281 242.38 227.859 241.863C228.646 241.147 228.744 239.924 228.056 239.141C227.36 238.361 226.168 238.295 225.37 239.005L225.38 239.011ZM31.3735 152.842C30.3188 152.858 29.4731 153.744 29.4731 154.811C29.4725 155.594 29.9439 156.266 30.6144 156.548C30.8448 156.645 31.1067 156.697 31.3767 156.685C32.4315 156.669 33.2772 155.784 33.2772 154.716C33.2691 153.651 32.4156 152.812 31.3735 152.842ZM230.778 233.813C230.033 234.586 230.021 235.8 230.759 236.541C230.94 236.716 231.137 236.851 231.355 236.934C232.046 237.227 232.88 237.084 233.448 236.498C234.187 235.735 234.196 234.513 233.467 233.77C232.721 233.032 231.524 233.047 230.778 233.813ZM31.7146 145.263C30.6623 145.225 29.7634 146.047 29.702 147.115C29.6434 147.943 30.1205 148.667 30.8303 148.963C31.0318 149.052 31.2484 149.1 31.4721 149.111C32.5244 149.149 33.4233 148.327 33.4847 147.258C33.5566 146.195 32.7669 145.301 31.7146 145.263ZM235.861 228.284C235.163 229.097 235.239 230.31 236.017 231.003C236.168 231.134 236.339 231.241 236.51 231.313C237.248 231.617 238.132 231.432 238.69 230.779C239.39 229.974 239.322 228.758 238.545 228.065C237.76 227.375 236.562 227.48 235.861 228.284ZM32.5274 137.697C31.481 137.586 30.5417 138.358 30.4061 139.415C30.2999 140.293 30.771 141.09 31.5365 141.395C31.6963 141.461 31.8677 141.505 32.0566 141.518C33.0948 141.632 34.0446 140.865 34.1802 139.809C34.3053 138.747 33.5714 137.801 32.5274 137.697ZM240.586 222.45C239.942 223.299 240.079 224.511 240.912 225.151C241.036 225.246 241.174 225.328 241.315 225.391C242.096 225.718 243.019 225.485 243.574 224.761C244.218 223.911 244.07 222.694 243.248 222.06C242.425 221.425 241.235 221.59 240.586 222.45ZM33.8175 130.197C32.7957 130.016 31.7951 130.727 31.5957 131.777C31.4327 132.672 31.9141 133.537 32.6969 133.873C32.8277 133.93 32.9539 133.971 33.1022 133.996C34.1299 134.166 35.1328 133.464 35.324 132.417C35.5234 131.367 34.8452 130.368 33.8175 130.197ZM244.938 216.33C244.343 217.227 244.564 218.422 245.432 218.997C245.53 219.065 245.645 219.127 245.75 219.157C246.573 219.506 247.56 219.218 248.072 218.436C248.67 217.548 248.455 216.342 247.587 215.766C246.719 215.19 245.536 215.442 244.938 216.33ZM35.5815 122.781C34.5679 122.536 33.5304 123.178 33.2673 124.22C33.0335 125.147 33.5066 126.077 34.3473 126.43L34.3673 126.437C34.4513 126.47 34.5437 126.506 34.6392 126.526C35.6447 126.774 36.6904 126.13 36.9476 125.098C37.2129 124.063 36.6033 123.025 35.5815 122.781ZM248.908 209.947C248.377 210.886 248.672 212.058 249.569 212.58L249.788 212.699C250.639 213.058 251.673 212.719 252.173 211.86L252.163 211.855C252.706 210.93 252.41 209.75 251.505 209.23C250.605 208.699 249.443 209.025 248.902 209.958L248.908 209.947ZM37.8019 115.482C36.807 115.177 35.7325 115.75 35.4092 116.767C35.0965 117.727 35.5637 118.73 36.4542 119.103C36.5144 119.129 36.5642 119.149 36.6221 119.167C37.6194 119.48 38.6997 118.896 39.0229 117.879C39.3485 116.87 38.7969 115.787 37.8019 115.482ZM252.479 203.34C251.999 204.299 252.358 205.451 253.292 205.917C253.332 205.932 253.371 205.946 253.413 205.969C254.324 206.353 255.399 205.939 255.857 205.023C256.337 204.064 255.964 202.926 255.028 202.451C254.104 201.991 252.96 202.381 252.479 203.34ZM40.459 108.323C39.485 107.967 38.3898 108.467 37.9901 109.463C37.6124 110.443 38.0656 111.521 39.0058 111.914C39.0102 111.917 39.0159 111.919 39.0225 111.921C39.032 111.924 39.0434 111.928 39.0556 111.934C40.0261 112.309 41.1271 111.799 41.5187 110.805C41.8999 109.806 41.4294 108.698 40.459 108.323ZM255.687 196.411C255.661 196.445 255.644 196.477 255.628 196.518C255.202 197.513 255.648 198.629 256.615 199.023C257.576 199.427 258.699 198.963 259.117 197.97C259.127 197.945 259.14 197.918 259.152 197.892C259.159 197.877 259.165 197.862 259.171 197.847C259.181 197.821 259.191 197.801 259.201 197.78C259.21 197.759 259.22 197.738 259.23 197.713C259.643 196.731 259.211 195.602 258.241 195.199C257.274 194.806 256.162 195.275 255.741 196.26C255.72 196.311 255.699 196.362 255.687 196.411ZM41.0226 102.32C40.5812 103.294 40.9809 104.433 41.9327 104.867C41.9535 104.878 41.9639 104.884 41.9929 104.893C42.925 105.289 44.0282 104.848 44.458 103.896C44.9156 102.918 44.4997 101.784 43.556 101.347C42.6043 100.913 41.4744 101.353 41.0226 102.32ZM260.885 188.053C259.897 187.711 258.813 188.252 258.453 189.262C258.115 190.23 258.576 191.27 259.468 191.651C259.51 191.674 259.549 191.688 259.589 191.703C260.577 192.046 261.66 191.505 262.021 190.494C262.381 189.484 261.872 188.396 260.885 188.053ZM44.4998 95.3779C43.9877 96.3198 44.3167 97.49 45.2393 97.9777C45.2773 98.0097 45.3231 98.0273 45.3658 98.0436C45.3751 98.0472 45.3844 98.0508 45.3933 98.0544C46.2838 98.4275 47.3358 98.0565 47.8188 97.1682C48.3204 96.2207 47.9856 95.0612 47.0688 94.5629C46.1565 94.0808 45.0037 94.4386 44.4998 95.3779ZM263.094 180.748C262.082 180.475 261.027 181.087 260.733 182.113C260.461 183.06 260.945 184.031 261.797 184.39C261.815 184.396 261.833 184.403 261.85 184.41C261.909 184.432 261.966 184.454 262.03 184.468C263.032 184.735 264.082 184.134 264.376 183.109C264.668 182.075 264.099 181.024 263.094 180.748ZM48.3693 88.6698C47.811 89.5727 48.0669 90.7655 48.9546 91.3174C49.0259 91.3627 49.1118 91.4035 49.2072 91.4488L49.2232 91.4564C50.0639 91.8094 51.0706 91.497 51.5801 90.6716C52.1361 89.7606 51.8825 88.5759 51.0029 88.0215C50.1151 87.4696 48.9357 87.7645 48.3693 88.6698ZM264.84 173.329C263.819 173.121 262.809 173.799 262.573 174.842C262.372 175.759 262.844 176.653 263.666 177.003C263.776 177.049 263.892 177.084 264.013 177.109C265.034 177.317 266.044 176.639 266.28 175.596C266.509 174.555 265.863 173.546 264.84 173.329ZM52.6683 82.202C52.0475 83.0709 52.2338 84.2675 53.0763 84.8779C53.1897 84.9673 53.3066 85.0378 53.4455 85.0926C54.2445 85.4229 55.2036 85.1608 55.7338 84.409C56.3442 83.5345 56.166 82.3354 55.3236 81.7249C54.4707 81.1089 53.2892 81.3332 52.6683 82.202ZM266.122 165.832C265.083 165.683 264.107 166.421 263.948 167.485C263.807 168.365 264.287 169.195 265.065 169.514C265.206 169.577 265.361 169.626 265.526 169.646C266.571 169.785 267.546 169.046 267.7 167.993C267.865 166.945 267.151 165.975 266.122 165.832ZM57.3469 76.0168C56.674 76.8573 56.7849 78.0685 57.5879 78.7268C57.7267 78.8438 57.8853 78.9369 58.0451 79.003C58.8047 79.3188 59.7103 79.1179 60.2647 78.4209C60.9399 77.5885 60.8371 76.3749 60.0238 75.711C59.2208 75.0527 58.0244 75.1927 57.3573 76.0225L57.3469 76.0168ZM266.932 158.258C265.889 158.19 264.965 158.984 264.867 160.047C264.788 160.898 265.258 161.66 265.997 161.965C266.178 162.042 266.368 162.09 266.583 162.103C267.626 162.171 268.551 161.377 268.649 160.314C268.739 159.254 267.978 158.334 266.932 158.258ZM62.398 70.1519C61.6823 70.9345 61.7075 72.1545 62.4732 72.8688C62.6374 73.0136 62.8238 73.1426 63.0171 73.2338C63.7293 73.5377 64.5885 73.36 65.1554 72.7392C65.8734 71.9648 65.8459 70.7367 65.0802 70.0223C64.3145 69.308 63.1195 69.3586 62.398 70.1519ZM267.255 150.675C266.212 150.67 265.338 151.519 265.312 152.586C265.283 153.396 265.751 154.087 266.443 154.38C266.663 154.471 266.898 154.523 267.146 154.526C268.199 154.537 269.07 153.68 269.105 152.61C269.134 151.551 268.306 150.678 267.255 150.675ZM67.8193 64.5992C67.0469 65.3372 67.0025 66.5609 67.7183 67.3174C67.8963 67.5113 68.1243 67.6629 68.3466 67.763C69.0148 68.036 69.8264 67.9087 70.3955 67.3584C71.1679 66.6205 71.2065 65.4074 70.4965 64.6402C69.7865 63.873 68.5812 63.8556 67.8193 64.5992ZM267.102 143.098C266.059 143.155 265.231 144.07 265.274 145.134C265.311 145.896 265.765 146.538 266.407 146.81C266.656 146.911 266.942 146.956 267.239 146.944C268.28 146.879 269.11 145.971 269.068 144.908C269.033 143.842 268.151 143.031 267.102 143.098ZM73.5666 59.3901C72.7561 60.0865 72.6294 61.3002 73.2976 62.1071C73.4894 62.35 73.7371 62.5401 74.0046 62.6439C74.6356 62.9107 75.3927 62.8092 75.964 62.3294L75.9698 62.3187C76.7745 61.633 76.8989 60.4111 76.2388 59.6017C75.5707 58.7948 74.3713 58.7044 73.5666 59.3901ZM266.492 135.556C265.445 135.694 264.681 136.652 264.791 137.703C264.861 138.42 265.315 139 265.927 139.263C266.218 139.387 266.537 139.421 266.872 139.389C267.921 139.259 268.674 138.295 268.57 137.233C268.468 136.18 267.541 135.426 266.492 135.556ZM79.6168 54.5675C78.7554 55.2085 78.565 56.4153 79.167 57.2694C79.3831 57.5671 79.6434 57.771 79.9607 57.895C80.5524 58.1473 81.2572 58.0798 81.8261 57.6541C82.6794 57.0156 82.8698 55.8088 82.2597 54.9573C81.6577 54.1031 80.4724 53.9372 79.6168 54.5675ZM265.398 128.084C264.357 128.274 263.662 129.29 263.832 130.332C263.94 131.001 264.368 131.518 264.947 131.756C265.269 131.897 265.633 131.935 266.012 131.871C267.051 131.673 267.747 130.665 267.578 129.623C267.406 128.573 266.434 127.878 265.398 128.084ZM85.9396 50.1496C85.054 50.7358 84.779 51.9244 85.3311 52.8207C85.5425 53.1643 85.8409 53.4098 86.1814 53.5532C86.7395 53.7804 87.3979 53.7361 87.9504 53.3779C88.836 52.7916 89.111 51.6031 88.559 50.7068C88.0011 49.8212 86.8275 49.5715 85.9396 50.1496ZM263.843 120.702C262.821 120.957 262.181 122.01 262.417 123.039C262.555 123.655 262.977 124.12 263.509 124.347C263.859 124.496 264.268 124.538 264.689 124.434C265.71 124.171 266.35 123.118 266.113 122.088C265.877 121.058 264.864 120.438 263.843 120.702ZM92.5189 46.1414C91.5986 46.6672 91.2472 47.835 91.747 48.7653C91.9618 49.1524 92.2799 49.4363 92.6597 49.5942C93.1703 49.8094 93.7742 49.791 94.3161 49.4894C95.2364 48.9635 95.5878 47.7958 95.088 46.8654C94.5905 45.9433 93.4472 45.6131 92.5189 46.1414ZM261.819 113.438C260.817 113.767 260.248 114.851 260.541 115.863C260.708 116.426 261.108 116.844 261.601 117.056C261.999 117.217 262.459 117.252 262.903 117.106C263.905 116.777 264.474 115.693 264.181 114.681C263.88 113.671 262.821 113.11 261.819 113.438ZM99.3301 42.5505C98.3811 43.0052 97.9636 44.158 98.4008 45.1166C98.5992 45.5711 98.9508 45.88 99.3596 46.0468C99.8413 46.2531 100.399 46.2581 100.909 46.0018C101.858 45.5471 102.282 44.3837 101.839 43.4357C101.412 42.4828 100.275 42.0794 99.3301 42.5505ZM259.353 106.33C258.367 106.716 257.863 107.842 258.227 108.824C258.407 109.337 258.787 109.717 259.246 109.904C259.686 110.088 260.184 110.102 260.66 109.91C261.646 109.524 262.144 108.409 261.786 107.417C261.428 106.425 260.339 105.944 259.353 106.33ZM106.335 39.3978C105.351 39.7921 104.866 40.9215 105.248 41.9059C105.432 42.4007 105.799 42.767 106.247 42.9482C106.698 43.1376 107.213 43.1469 107.696 42.9523C108.67 42.5524 109.155 41.4229 108.783 40.4441C108.411 39.4653 107.308 38.9978 106.335 39.3978ZM256.439 99.4142C255.487 99.8607 255.049 101.002 255.47 101.966C255.668 102.42 256.027 102.754 256.451 102.943C256.911 103.138 257.475 103.132 257.974 102.897C258.943 102.454 259.361 101.301 258.948 100.335C258.527 99.371 257.396 98.957 256.439 99.4142ZM113.52 36.6963C112.51 37.0277 111.962 38.1231 112.271 39.1302C112.438 39.6924 112.833 40.0945 113.323 40.2984C113.724 40.4676 114.2 40.4978 114.658 40.3378C115.648 39.9951 116.207 38.9053 115.897 37.8982C115.579 36.8936 114.518 36.3512 113.52 36.6963ZM253.107 92.6811C252.176 93.2013 251.809 94.3741 252.29 95.3013C252.501 95.7073 252.838 95.9943 253.22 96.1604C253.72 96.3699 254.318 96.3622 254.844 96.0656C255.785 95.5511 256.145 94.3808 255.661 93.4454L255.672 93.4511C255.18 92.5183 254.032 92.1717 253.107 92.6811ZM120.831 34.4449C119.816 34.7246 119.188 35.7912 119.439 36.8078C119.582 37.4127 119.994 37.8721 120.523 38.0904C120.895 38.2509 121.32 38.2879 121.745 38.1651C122.753 37.8879 123.374 36.8321 123.129 35.8048C122.882 34.7693 121.855 34.1627 120.831 34.4449ZM249.353 86.2037C248.455 86.7761 248.17 87.959 248.705 88.8604C248.919 89.2122 249.22 89.4658 249.571 89.6149C250.113 89.8471 250.763 89.8054 251.31 89.4578C252.202 88.8961 252.493 87.7025 251.957 86.8012C251.424 85.9081 250.254 85.6395 249.353 86.2037ZM128.26 32.6732C127.234 32.885 126.55 33.9067 126.727 34.946C126.842 35.6044 127.275 36.1105 127.846 36.3515C128.184 36.4867 128.551 36.5333 128.944 36.4558L128.933 36.4501C129.97 36.244 130.662 35.2197 130.476 34.1829C130.291 33.1462 129.297 32.4671 128.27 32.6788L128.26 32.6732ZM245.193 79.9769C244.338 80.6073 244.11 81.8078 244.715 82.6701C244.925 82.9785 245.198 83.1962 245.507 83.3227C246.096 83.5668 246.793 83.5018 247.353 83.1057C248.208 82.4754 248.425 81.2692 247.831 80.4126C247.235 79.5478 246.062 79.3605 245.193 79.9769ZM135.779 31.3805C134.734 31.5268 133.984 32.4982 134.112 33.5526C134.187 34.2589 134.637 34.8223 135.242 35.0613C135.544 35.1903 135.877 35.2469 136.216 35.1952C137.263 35.0571 138.003 34.0799 137.885 33.0312C137.762 31.9661 136.824 31.2342 135.779 31.3805ZM240.641 74.0499C239.823 74.7217 239.681 75.9405 240.335 76.7606C240.531 77.0199 240.787 77.2074 241.057 77.3194C241.677 77.5805 242.429 77.4897 242.994 77.0206C243.82 76.3463 243.954 75.13 243.311 74.3156C242.662 73.4848 241.464 73.3673 240.641 74.0499ZM143.348 30.5794C142.293 30.6577 141.486 31.5845 141.545 32.6427C141.58 33.3968 142.046 34.0174 142.677 34.2842C142.939 34.3987 143.225 34.4434 143.527 34.4206C144.58 34.3342 145.39 33.4156 145.331 32.3574C145.28 31.2967 144.395 30.5037 143.348 30.5794ZM235.735 68.437C234.961 69.1668 234.895 70.3792 235.592 71.1597C235.772 71.3617 236.002 71.5215 236.243 71.6247C236.895 71.9028 237.698 71.778 238.272 71.2441C239.047 70.5143 239.118 69.2912 238.416 68.5214C237.714 67.7517 236.52 67.7129 235.735 68.437ZM150.93 30.2637C149.891 30.2746 149.023 31.1404 149.012 32.2023C148.998 32.9987 149.474 33.6873 150.155 33.9742C150.383 34.0635 150.626 34.1125 150.89 34.1106C151.929 34.0997 152.798 33.234 152.808 32.172C152.827 31.1075 151.985 30.2477 150.93 30.2637ZM230.463 63.1516C229.726 63.9229 229.744 65.1454 230.495 65.8729C230.664 66.034 230.85 66.163 231.062 66.2574C231.754 66.55 232.609 66.3912 233.173 65.7893C233.907 65.0098 233.9 63.7929 233.149 63.0654C232.405 62.3353 231.199 62.3803 230.463 63.1516ZM158.516 30.4358C157.468 30.3788 156.558 31.1948 156.476 32.2524C156.412 33.0909 156.888 33.8418 157.605 34.135C157.797 34.2181 158.005 34.269 158.229 34.2796C159.269 34.3392 160.179 33.5232 160.261 32.4657C160.341 31.3999 159.557 30.4954 158.516 30.4358ZM224.859 58.2269C224.174 59.0536 224.269 60.2698 225.066 60.9388C225.209 61.0722 225.376 61.1628 225.544 61.2263C226.285 61.5391 227.18 61.3324 227.735 60.6707C228.413 59.8465 228.329 58.636 227.537 57.9563C226.743 57.2955 225.547 57.4084 224.859 58.2269ZM166.071 31.0896C165.041 30.9733 164.078 31.7258 163.926 32.7872C163.801 33.6622 164.285 34.4729 165.053 34.7862C165.205 34.8548 165.368 34.902 165.541 34.9196C166.575 35.0522 167.536 34.2916 167.679 33.2327C167.831 32.1713 167.113 31.2197 166.071 31.0896ZM218.963 53.7046C218.332 54.5677 218.502 55.7694 219.338 56.3906C219.458 56.4692 219.585 56.5454 219.726 56.6083C220.509 56.9437 221.454 56.6948 221.997 55.9569C222.628 55.0937 222.464 53.8813 221.622 53.2709C220.791 52.6391 219.594 52.8414 218.963 53.7046ZM173.565 32.2513C172.532 32.0645 171.525 32.7509 171.317 33.8029C171.124 34.7169 171.606 35.5818 172.417 35.926L172.418 35.9261C172.536 35.9695 172.654 36.0128 172.786 36.043C173.818 36.2297 174.815 35.5377 175.033 34.4914C175.253 33.4533 174.583 32.4513 173.565 32.2513ZM212.783 49.5549C212.206 50.4546 212.446 51.6525 213.328 52.2151C213.424 52.2742 213.517 52.3252 213.609 52.368C214.447 52.7128 215.44 52.4136 215.956 51.6128C216.531 50.7049 216.294 49.5151 215.412 48.9526C214.544 48.3767 213.357 48.6471 212.783 49.5549ZM180.946 33.8928C179.928 33.6305 178.888 34.2646 178.612 35.2932C178.362 36.2249 178.826 37.1842 179.669 37.5454C179.758 37.58 179.845 37.6064 179.932 37.6328C180.95 37.8951 181.99 37.261 182.266 36.2323C182.539 35.1955 181.946 34.1519 180.946 33.8928ZM206.343 45.8328C205.829 46.7664 206.142 47.9417 207.053 48.4507C207.094 48.4647 207.13 48.4834 207.165 48.5016C207.188 48.5139 207.212 48.526 207.236 48.5363C208.116 48.9038 209.162 48.5435 209.65 47.6715C210.164 46.7379 209.853 45.5708 208.94 45.0536C208.031 44.5527 206.874 44.8941 206.343 45.8328ZM188.203 36C187.212 35.676 186.132 36.2334 185.791 37.247C185.462 38.2121 185.928 39.2418 186.818 39.6149L186.968 39.6753L186.973 39.6646C187.957 39.9911 189.044 39.4313 189.386 38.4177C189.728 37.4041 189.194 36.324 188.203 36ZM199.698 42.5394C199.227 43.5039 199.619 44.6457 200.557 45.0931C200.578 45.1044 200.609 45.1214 200.644 45.1195C201.565 45.5096 202.657 45.0907 203.108 44.1502C203.559 43.1825 203.186 42.0438 202.238 41.5908L202.232 41.6015C201.294 41.1541 200.158 41.5692 199.698 42.5394ZM195.308 38.5726C194.343 38.1869 193.23 38.6838 192.828 39.6716C192.431 40.6486 192.875 41.7565 193.824 42.1472L193.855 42.1642C194.819 42.5499 195.933 42.053 196.335 41.0652C196.737 40.0774 196.273 38.9582 195.308 38.5726Z" fill="white"/>
</svg>
