<svg width="330" height="330" viewBox="0 0 330 330" fill="none" xmlns="http://www.w3.org/2000/svg">
<circle cx="165.5" cy="165.5" r="158.5" stroke="#212121" stroke-width="3" stroke-linecap="round" stroke-linejoin="round" stroke-dasharray="0.1 8"/>
<path d="M7 159.365C7 118.024 23.6457 81.8871 53.2753 52.6548C82.9048 23.4225 123.091 7 164.994 7" stroke="#DE3730" stroke-width="14"/>
<path d="M322.824 159.365C324.957 203.603 306.195 248.084 276.597 277.319C246.998 306.554 206.854 322.978 164.995 322.978" stroke="#DE3730" stroke-width="14"/>
<path d="M79.3648 246.903C77.3968 246.903 75.5608 246.555 73.8568 245.859C72.1528 245.163 70.6648 244.191 69.3928 242.943C68.1208 241.695 67.1248 240.231 66.4048 238.551C65.7088 236.847 65.3608 235.011 65.3608 233.043C65.3608 231.051 65.7088 229.215 66.4048 227.535C67.1008 225.855 68.0848 224.391 69.3568 223.143C70.6288 221.895 72.1168 220.935 73.8208 220.263C75.5248 219.567 77.3728 219.219 79.3648 219.219C81.3568 219.219 83.2048 219.567 84.9088 220.263C86.6128 220.959 88.1008 221.931 89.3728 223.179C90.6448 224.403 91.6288 225.855 92.3248 227.535C93.0448 229.215 93.4048 231.051 93.4048 233.043C93.4048 235.011 93.0448 236.847 92.3248 238.551C91.6048 240.231 90.6088 241.695 89.3368 242.943C88.0648 244.191 86.5768 245.163 84.8728 245.859C83.1928 246.555 81.3568 246.903 79.3648 246.903ZM79.3648 242.439C80.6848 242.439 81.8968 242.211 83.0008 241.755C84.1048 241.275 85.0648 240.615 85.8808 239.775C86.7208 238.935 87.3568 237.939 87.7888 236.787C88.2448 235.635 88.4728 234.387 88.4728 233.043C88.4728 231.699 88.2448 230.463 87.7888 229.335C87.3568 228.183 86.7208 227.187 85.8808 226.347C85.0648 225.483 84.1048 224.823 83.0008 224.367C81.8968 223.911 80.6848 223.683 79.3648 223.683C78.0688 223.683 76.8688 223.911 75.7648 224.367C74.6608 224.823 73.6888 225.483 72.8488 226.347C72.0328 227.187 71.3968 228.183 70.9408 229.335C70.4848 230.463 70.2568 231.699 70.2568 233.043C70.2568 234.387 70.4848 235.635 70.9408 236.787C71.3968 237.939 72.0328 238.935 72.8488 239.775C73.6888 240.615 74.6608 241.275 75.7648 241.755C76.8688 242.211 78.0688 242.439 79.3648 242.439ZM104.346 246.903C102.834 246.903 101.514 246.567 100.386 245.895C99.2823 245.223 98.4303 244.287 97.8303 243.087C97.2543 241.887 96.9663 240.483 96.9663 238.875V226.887H101.682V238.479C101.682 239.295 101.838 240.015 102.15 240.639C102.486 241.239 102.954 241.719 103.554 242.079C104.178 242.415 104.874 242.583 105.642 242.583C106.41 242.583 107.094 242.415 107.694 242.079C108.294 241.719 108.762 241.227 109.098 240.603C109.434 239.979 109.602 239.235 109.602 238.371V226.887H114.318V246.471H109.854V242.619L110.25 243.303C109.794 244.503 109.038 245.403 107.982 246.003C106.95 246.603 105.738 246.903 104.346 246.903ZM118.702 246.471V226.887H123.13V231.243L122.77 230.595C123.226 229.131 123.934 228.111 124.894 227.535C125.878 226.959 127.054 226.671 128.422 226.671H129.574V230.847H127.882C126.538 230.847 125.458 231.267 124.642 232.107C123.826 232.923 123.418 234.075 123.418 235.563V246.471H118.702ZM138.961 246.471V219.651H143.641L153.685 233.295H151.453L161.281 219.651H165.961V246.471H161.029V225.231L162.937 225.699L152.749 239.271H152.173L142.237 225.699L143.857 225.231V246.471H138.961ZM170.698 246.471V226.887H175.414V246.471H170.698ZM170.698 224.691V219.651H175.414V224.691H170.698ZM187.221 246.903C185.133 246.903 183.309 246.411 181.749 245.427C180.213 244.419 179.157 243.063 178.581 241.359L182.109 239.667C182.613 240.771 183.309 241.635 184.197 242.259C185.109 242.883 186.117 243.195 187.221 243.195C188.085 243.195 188.769 243.003 189.273 242.619C189.777 242.235 190.029 241.731 190.029 241.107C190.029 240.723 189.921 240.411 189.705 240.171C189.513 239.907 189.237 239.691 188.877 239.523C188.541 239.331 188.169 239.175 187.761 239.055L184.557 238.155C182.901 237.675 181.641 236.943 180.777 235.959C179.937 234.975 179.517 233.811 179.517 232.467C179.517 231.267 179.817 230.223 180.417 229.335C181.041 228.423 181.893 227.715 182.973 227.211C184.077 226.707 185.337 226.455 186.753 226.455C188.601 226.455 190.233 226.899 191.649 227.787C193.065 228.675 194.073 229.923 194.673 231.531L191.073 233.223C190.737 232.335 190.173 231.627 189.381 231.099C188.589 230.571 187.701 230.307 186.717 230.307C185.925 230.307 185.301 230.487 184.845 230.847C184.389 231.207 184.161 231.675 184.161 232.251C184.161 232.611 184.257 232.923 184.449 233.187C184.641 233.451 184.905 233.667 185.241 233.835C185.601 234.003 186.009 234.159 186.465 234.303L189.597 235.239C191.205 235.719 192.441 236.439 193.305 237.399C194.193 238.359 194.637 239.535 194.637 240.927C194.637 242.103 194.325 243.147 193.701 244.059C193.077 244.947 192.213 245.643 191.109 246.147C190.005 246.651 188.709 246.903 187.221 246.903ZM205.713 246.903C203.625 246.903 201.801 246.411 200.241 245.427C198.705 244.419 197.649 243.063 197.073 241.359L200.601 239.667C201.105 240.771 201.801 241.635 202.689 242.259C203.601 242.883 204.609 243.195 205.713 243.195C206.577 243.195 207.261 243.003 207.765 242.619C208.269 242.235 208.521 241.731 208.521 241.107C208.521 240.723 208.413 240.411 208.197 240.171C208.005 239.907 207.729 239.691 207.369 239.523C207.033 239.331 206.661 239.175 206.253 239.055L203.049 238.155C201.393 237.675 200.133 236.943 199.269 235.959C198.429 234.975 198.009 233.811 198.009 232.467C198.009 231.267 198.309 230.223 198.909 229.335C199.533 228.423 200.385 227.715 201.465 227.211C202.569 226.707 203.829 226.455 205.245 226.455C207.093 226.455 208.725 226.899 210.141 227.787C211.557 228.675 212.565 229.923 213.165 231.531L209.565 233.223C209.229 232.335 208.665 231.627 207.873 231.099C207.081 230.571 206.193 230.307 205.209 230.307C204.417 230.307 203.793 230.487 203.337 230.847C202.881 231.207 202.653 231.675 202.653 232.251C202.653 232.611 202.749 232.923 202.941 233.187C203.133 233.451 203.397 233.667 203.733 233.835C204.093 234.003 204.501 234.159 204.957 234.303L208.089 235.239C209.697 235.719 210.933 236.439 211.797 237.399C212.685 238.359 213.129 239.535 213.129 240.927C213.129 242.103 212.817 243.147 212.193 244.059C211.569 244.947 210.705 245.643 209.601 246.147C208.497 246.651 207.201 246.903 205.713 246.903ZM216.753 246.471V226.887H221.469V246.471H216.753ZM216.753 224.691V219.651H221.469V224.691H216.753ZM235.399 246.903C233.479 246.903 231.727 246.459 230.143 245.571C228.583 244.683 227.335 243.471 226.399 241.935C225.487 240.399 225.031 238.647 225.031 236.679C225.031 234.711 225.487 232.959 226.399 231.423C227.335 229.887 228.583 228.675 230.143 227.787C231.703 226.899 233.455 226.455 235.399 226.455C237.319 226.455 239.059 226.899 240.619 227.787C242.179 228.675 243.415 229.887 244.327 231.423C245.263 232.935 245.731 234.687 245.731 236.679C245.731 238.647 245.263 240.399 244.327 241.935C243.391 243.471 242.143 244.683 240.583 245.571C239.023 246.459 237.295 246.903 235.399 246.903ZM235.399 242.583C236.455 242.583 237.379 242.331 238.171 241.827C238.987 241.323 239.623 240.627 240.079 239.739C240.559 238.827 240.799 237.807 240.799 236.679C240.799 235.527 240.559 234.519 240.079 233.655C239.623 232.767 238.987 232.071 238.171 231.567C237.379 231.039 236.455 230.775 235.399 230.775C234.319 230.775 233.371 231.039 232.555 231.567C231.739 232.071 231.091 232.767 230.611 233.655C230.155 234.519 229.927 235.527 229.927 236.679C229.927 237.807 230.155 238.827 230.611 239.739C231.091 240.627 231.739 241.323 232.555 241.827C233.371 242.331 234.319 242.583 235.399 242.583ZM249.308 246.471V226.887H253.736V230.739L253.376 230.055C253.832 228.879 254.576 227.991 255.608 227.391C256.664 226.767 257.888 226.455 259.28 226.455C260.72 226.455 261.992 226.767 263.096 227.391C264.224 228.015 265.1 228.891 265.724 230.019C266.348 231.123 266.66 232.407 266.66 233.871V246.471H261.944V234.987C261.944 234.123 261.776 233.379 261.44 232.755C261.104 232.131 260.636 231.651 260.036 231.315C259.46 230.955 258.776 230.775 257.984 230.775C257.216 230.775 256.532 230.955 255.932 231.315C255.332 231.651 254.864 232.131 254.528 232.755C254.192 233.379 254.024 234.123 254.024 234.987V246.471H249.308Z" fill="#212121"/>
<mask id="mask0_2659_394" style="mask-type:alpha" maskUnits="userSpaceOnUse" x="113" y="82" width="112" height="113">
<rect x="113.051" y="82.7845" width="111.49" height="111.49" fill="#DE3730"/>
</mask>
<g mask="url(#mask0_2659_394)">
<path d="M134.767 130.284L147.077 135.51C148.471 132.723 149.961 129.974 151.549 127.264C153.136 124.555 154.82 121.961 156.6 119.483L147.426 117.625L134.767 130.284ZM152.652 139.691L168.098 155.137C172.511 153.124 176.653 150.84 180.524 148.285C184.395 145.73 187.531 143.252 189.931 140.852C196.203 134.581 200.809 128.155 203.751 121.574C206.693 114.993 208.281 107.56 208.513 99.2758C200.229 99.5081 192.796 101.095 186.215 104.037C179.634 106.979 173.208 111.586 166.936 117.857C164.536 120.258 162.059 123.393 159.504 127.264C156.949 131.136 154.665 135.278 152.652 139.691ZM179.247 128.542C177.698 126.993 176.924 125.077 176.924 122.793C176.924 120.509 177.698 118.593 179.247 117.045C180.795 115.496 182.712 114.722 184.996 114.722C187.279 114.722 189.196 115.496 190.744 117.045C192.293 118.593 193.067 120.509 193.067 122.793C193.067 125.077 192.293 126.993 190.744 128.542C189.196 130.09 187.279 130.865 184.996 130.865C182.712 130.865 180.795 130.09 179.247 128.542ZM177.505 173.022L190.164 160.363L188.305 151.188C185.828 152.969 183.234 154.653 180.524 156.24C177.814 157.827 175.066 159.318 172.279 160.711L177.505 173.022ZM215.365 92.4238C216.062 102.953 214.746 112.554 211.416 121.225C208.087 129.897 202.59 138.065 194.925 145.73L194.461 146.195L197.016 158.969C197.248 160.131 197.19 161.253 196.841 162.337C196.493 163.421 195.893 164.389 195.041 165.241L175.182 185.216L165.311 162.221L145.568 142.478L122.573 132.607L142.548 112.748C143.4 111.896 144.367 111.296 145.451 110.947C146.535 110.599 147.658 110.541 148.819 110.773L161.594 113.328C161.672 113.251 161.749 113.193 161.826 113.154C161.904 113.115 161.981 113.057 162.059 112.98C169.724 105.315 177.892 99.7984 186.563 96.4305C195.235 93.0626 204.835 91.727 215.365 92.4238ZM130.354 156.531C133.064 153.821 136.373 152.446 140.283 152.408C144.193 152.369 147.503 153.705 150.213 156.414C152.923 159.124 154.258 162.434 154.22 166.344C154.181 170.254 152.807 173.564 150.097 176.274C148.084 178.287 144.967 179.951 140.748 181.267C136.528 182.584 130.199 183.822 121.76 184.984C122.921 176.545 124.141 170.196 125.418 165.938C126.696 161.679 128.341 158.544 130.354 156.531ZM135.231 161.524C134.148 162.686 133.18 164.505 132.328 166.983C131.476 169.46 130.741 172.635 130.122 176.506C133.993 175.886 137.167 175.151 139.645 174.299C142.122 173.448 143.942 172.48 145.103 171.396C146.574 170.08 147.329 168.434 147.368 166.46C147.406 164.486 146.729 162.763 145.335 161.292C143.864 159.898 142.142 159.221 140.167 159.26C138.193 159.298 136.548 160.053 135.231 161.524Z" fill="#DE3730"/>
</g>
</svg>
