<svg width="330" height="330" viewBox="0 0 330 330" fill="none" xmlns="http://www.w3.org/2000/svg">
<circle cx="165.5" cy="165.5" r="158.5" stroke="#212121" stroke-width="3" stroke-linecap="round" stroke-linejoin="round" stroke-dasharray="0.1 8"/>
<path d="M7 163C7 121.626 23.4357 81.947 52.6913 52.6913C81.947 23.4357 121.626 7 163 7" stroke="#2B74E2" stroke-width="14"/>
<path d="M322.836 159C324.956 203.343 306.313 247.929 276.9 277.233C247.488 306.537 207.596 323 166 323" stroke="#2B74E2" stroke-width="14"/>
<mask id="mask0_2659_391" style="mask-type:alpha" maskUnits="userSpaceOnUse" x="109" y="80" width="113" height="113">
<rect x="109.848" y="80.9911" width="111.493" height="111.493" fill="#2B74E2"/>
</mask>
<g mask="url(#mask0_2659_391)">
<path d="M165.593 154.158C171.09 154.158 175.755 152.242 179.588 148.409C183.42 144.577 185.336 139.912 185.336 134.415C185.336 128.917 183.42 124.253 179.588 120.42C175.755 116.587 171.09 114.671 165.593 114.671C160.096 114.671 155.431 116.587 151.598 120.42C147.766 124.253 145.849 128.917 145.849 134.415C145.849 139.912 147.766 144.577 151.598 148.409C155.431 152.242 160.096 154.158 165.593 154.158ZM165.593 147.422C161.954 147.422 158.876 146.164 156.36 143.648C153.844 141.131 152.585 138.054 152.585 134.415C152.585 130.776 153.844 127.698 156.36 125.182C158.876 122.665 161.954 121.407 165.593 121.407C169.232 121.407 172.31 122.665 174.826 125.182C177.342 127.698 178.6 130.776 178.6 134.415C178.6 138.054 177.342 141.131 174.826 143.648C172.31 146.164 169.232 147.422 165.593 147.422ZM165.593 169.256C154.289 169.256 144.069 166.043 134.932 159.617C125.796 153.19 118.983 144.79 114.492 134.415C118.983 124.04 125.796 115.639 134.932 109.213C144.069 102.786 154.289 99.5732 165.593 99.5732C176.897 99.5732 187.117 102.786 196.253 109.213C205.39 115.639 212.203 124.04 216.694 134.415C212.203 144.79 205.39 153.19 196.253 159.617C187.117 166.043 176.897 169.256 165.593 169.256ZM165.593 162.288C174.961 162.288 183.575 159.752 191.434 154.681C199.292 149.609 205.273 142.854 209.377 134.415C205.273 125.975 199.292 119.22 191.434 114.149C183.575 109.077 174.961 106.542 165.593 106.542C156.224 106.542 147.611 109.077 139.752 114.149C131.894 119.22 125.874 125.975 121.693 134.415C125.874 142.854 131.894 149.609 139.752 154.681C147.611 159.752 156.224 162.288 165.593 162.288Z" fill="#2B74E2"/>
</g>
<path d="M92.6204 229.432C90.6524 229.432 88.8164 229.084 87.1124 228.388C85.4084 227.692 83.9204 226.72 82.6484 225.472C81.3764 224.224 80.3804 222.76 79.6604 221.08C78.9644 219.376 78.6164 217.54 78.6164 215.572C78.6164 213.58 78.9644 211.744 79.6604 210.064C80.3564 208.384 81.3404 206.92 82.6124 205.672C83.8844 204.424 85.3724 203.464 87.0764 202.792C88.7804 202.096 90.6284 201.748 92.6204 201.748C94.6124 201.748 96.4604 202.096 98.1644 202.792C99.8684 203.488 101.356 204.46 102.628 205.708C103.9 206.932 104.884 208.384 105.58 210.064C106.3 211.744 106.66 213.58 106.66 215.572C106.66 217.54 106.3 219.376 105.58 221.08C104.86 222.76 103.864 224.224 102.592 225.472C101.32 226.72 99.8324 227.692 98.1284 228.388C96.4484 229.084 94.6124 229.432 92.6204 229.432ZM92.6204 224.968C93.9404 224.968 95.1524 224.74 96.2564 224.284C97.3604 223.804 98.3204 223.144 99.1364 222.304C99.9764 221.464 100.612 220.468 101.044 219.316C101.5 218.164 101.728 216.916 101.728 215.572C101.728 214.228 101.5 212.992 101.044 211.864C100.612 210.712 99.9764 209.716 99.1364 208.876C98.3204 208.012 97.3604 207.352 96.2564 206.896C95.1524 206.44 93.9404 206.212 92.6204 206.212C91.3244 206.212 90.1244 206.44 89.0204 206.896C87.9164 207.352 86.9444 208.012 86.1044 208.876C85.2884 209.716 84.6524 210.712 84.1964 211.864C83.7404 212.992 83.5124 214.228 83.5124 215.572C83.5124 216.916 83.7404 218.164 84.1964 219.316C84.6524 220.468 85.2884 221.464 86.1044 222.304C86.9444 223.144 87.9164 223.804 89.0204 224.284C90.1244 224.74 91.3244 224.968 92.6204 224.968ZM117.602 229.432C116.09 229.432 114.77 229.096 113.642 228.424C112.538 227.752 111.686 226.816 111.086 225.616C110.51 224.416 110.222 223.012 110.222 221.404V209.416H114.938V221.008C114.938 221.824 115.094 222.544 115.406 223.168C115.742 223.768 116.21 224.248 116.81 224.608C117.434 224.944 118.13 225.112 118.898 225.112C119.666 225.112 120.35 224.944 120.95 224.608C121.55 224.248 122.018 223.756 122.354 223.132C122.69 222.508 122.858 221.764 122.858 220.9V209.416H127.574V229H123.11V225.148L123.506 225.832C123.05 227.032 122.294 227.932 121.238 228.532C120.206 229.132 118.994 229.432 117.602 229.432ZM131.958 229V209.416H136.386V213.772L136.026 213.124C136.482 211.66 137.19 210.64 138.15 210.064C139.134 209.488 140.31 209.2 141.678 209.2H142.83V213.376H141.138C139.794 213.376 138.714 213.796 137.898 214.636C137.082 215.452 136.674 216.604 136.674 218.092V229H131.958ZM159.381 229L150.021 202.18H155.349L162.693 224.392H161.649L168.993 202.18H174.321L164.997 229H159.381ZM176.923 229V209.416H181.639V229H176.923ZM176.923 207.22V202.18H181.639V207.22H176.923ZM193.445 229.432C191.357 229.432 189.533 228.94 187.973 227.956C186.437 226.948 185.381 225.592 184.805 223.888L188.333 222.196C188.837 223.3 189.533 224.164 190.421 224.788C191.333 225.412 192.341 225.724 193.445 225.724C194.309 225.724 194.993 225.532 195.497 225.148C196.001 224.764 196.253 224.26 196.253 223.636C196.253 223.252 196.145 222.94 195.929 222.7C195.737 222.436 195.461 222.22 195.101 222.052C194.765 221.86 194.393 221.704 193.985 221.584L190.781 220.684C189.125 220.204 187.865 219.472 187.001 218.488C186.161 217.504 185.741 216.34 185.741 214.996C185.741 213.796 186.041 212.752 186.641 211.864C187.265 210.952 188.117 210.244 189.197 209.74C190.301 209.236 191.561 208.984 192.977 208.984C194.825 208.984 196.457 209.428 197.873 210.316C199.289 211.204 200.297 212.452 200.897 214.06L197.297 215.752C196.961 214.864 196.397 214.156 195.605 213.628C194.813 213.1 193.925 212.836 192.941 212.836C192.149 212.836 191.525 213.016 191.069 213.376C190.613 213.736 190.385 214.204 190.385 214.78C190.385 215.14 190.481 215.452 190.673 215.716C190.865 215.98 191.129 216.196 191.465 216.364C191.825 216.532 192.233 216.688 192.689 216.832L195.821 217.768C197.429 218.248 198.665 218.968 199.529 219.928C200.417 220.888 200.861 222.064 200.861 223.456C200.861 224.632 200.549 225.676 199.925 226.588C199.301 227.476 198.437 228.172 197.333 228.676C196.229 229.18 194.933 229.432 193.445 229.432ZM204.485 229V209.416H209.201V229H204.485ZM204.485 207.22V202.18H209.201V207.22H204.485ZM223.131 229.432C221.211 229.432 219.459 228.988 217.875 228.1C216.315 227.212 215.067 226 214.131 224.464C213.219 222.928 212.763 221.176 212.763 219.208C212.763 217.24 213.219 215.488 214.131 213.952C215.067 212.416 216.315 211.204 217.875 210.316C219.435 209.428 221.187 208.984 223.131 208.984C225.051 208.984 226.791 209.428 228.351 210.316C229.911 211.204 231.147 212.416 232.059 213.952C232.995 215.464 233.463 217.216 233.463 219.208C233.463 221.176 232.995 222.928 232.059 224.464C231.123 226 229.875 227.212 228.315 228.1C226.755 228.988 225.027 229.432 223.131 229.432ZM223.131 225.112C224.187 225.112 225.111 224.86 225.903 224.356C226.719 223.852 227.355 223.156 227.811 222.268C228.291 221.356 228.531 220.336 228.531 219.208C228.531 218.056 228.291 217.048 227.811 216.184C227.355 215.296 226.719 214.6 225.903 214.096C225.111 213.568 224.187 213.304 223.131 213.304C222.051 213.304 221.103 213.568 220.287 214.096C219.471 214.6 218.823 215.296 218.343 216.184C217.887 217.048 217.659 218.056 217.659 219.208C217.659 220.336 217.887 221.356 218.343 222.268C218.823 223.156 219.471 223.852 220.287 224.356C221.103 224.86 222.051 225.112 223.131 225.112ZM237.04 229V209.416H241.468V213.268L241.108 212.584C241.564 211.408 242.308 210.52 243.34 209.92C244.396 209.296 245.62 208.984 247.012 208.984C248.452 208.984 249.724 209.296 250.828 209.92C251.956 210.544 252.832 211.42 253.456 212.548C254.08 213.652 254.392 214.936 254.392 216.4V229H249.676V217.516C249.676 216.652 249.508 215.908 249.172 215.284C248.836 214.66 248.368 214.18 247.768 213.844C247.192 213.484 246.508 213.304 245.716 213.304C244.948 213.304 244.264 213.484 243.664 213.844C243.064 214.18 242.596 214.66 242.26 215.284C241.924 215.908 241.756 216.652 241.756 217.516V229H237.04Z" fill="#212121"/>
</svg>
