<svg width="331" height="331" viewBox="0 0 331 331" fill="none" xmlns="http://www.w3.org/2000/svg">
<circle cx="165.5" cy="165.5" r="158.5" stroke="#212121" stroke-width="3" stroke-linecap="round" stroke-linejoin="round" stroke-dasharray="0.1 8"/>
<path d="M7 163.699C7 122.14 23.652 82.2828 53.2928 52.896C82.9336 23.5093 123.135 7 165.054 7" stroke="#68C42A" stroke-width="14"/>
<path d="M322.943 159.196C325.076 203.513 306.308 248.073 276.698 277.36C247.088 306.646 206.929 323.099 165.054 323.099" stroke="#68C42A" stroke-width="14"/>
<mask id="mask0_2659_395" style="mask-type:alpha" maskUnits="userSpaceOnUse" x="110" y="85" width="112" height="112">
<rect x="110" y="85" width="111.49" height="111.49" fill="#68C42A"/>
</mask>
<g mask="url(#mask0_2659_395)">
<path d="M150.182 189.522L141.356 174.424L123.819 170.824L125.794 153.752L114.645 140.745L125.794 127.854L123.819 110.782L141.356 107.182L150.182 91.968L165.744 99.1684L181.306 91.968L190.249 107.182L207.669 110.782L205.695 127.854L216.844 140.745L205.695 153.752L207.669 170.824L190.249 174.424L181.306 189.522L165.744 182.321L150.182 189.522ZM153.318 180.347L165.744 175.121L178.519 180.347L186.3 168.734L199.888 165.249L198.494 151.429L207.901 140.745L198.494 129.828L199.888 116.008L186.3 112.756L178.287 101.143L165.744 106.369L152.969 101.143L145.188 112.756L131.6 116.008L132.994 129.828L123.587 140.745L132.994 151.429L131.6 165.482L145.188 168.734L153.318 180.347ZM160.75 156.191L187.113 130.06L181.887 125.299L160.75 146.203L149.717 134.706L144.375 139.932L160.75 156.191Z" fill="#68C42A"/>
</g>
<path d="M87.1556 246.432C85.1876 246.432 83.3516 246.084 81.6476 245.388C79.9436 244.692 78.4556 243.72 77.1836 242.472C75.9116 241.224 74.9156 239.76 74.1956 238.08C73.4996 236.376 73.1516 234.54 73.1516 232.572C73.1516 230.58 73.4996 228.744 74.1956 227.064C74.8916 225.384 75.8756 223.92 77.1476 222.672C78.4196 221.424 79.9076 220.464 81.6116 219.792C83.3156 219.096 85.1636 218.748 87.1556 218.748C89.1476 218.748 90.9956 219.096 92.6996 219.792C94.4036 220.488 95.8916 221.46 97.1636 222.708C98.4356 223.932 99.4196 225.384 100.116 227.064C100.836 228.744 101.196 230.58 101.196 232.572C101.196 234.54 100.836 236.376 100.116 238.08C99.3956 239.76 98.3996 241.224 97.1276 242.472C95.8556 243.72 94.3676 244.692 92.6636 245.388C90.9836 246.084 89.1476 246.432 87.1556 246.432ZM87.1556 241.968C88.4756 241.968 89.6876 241.74 90.7916 241.284C91.8956 240.804 92.8556 240.144 93.6716 239.304C94.5116 238.464 95.1476 237.468 95.5796 236.316C96.0356 235.164 96.2636 233.916 96.2636 232.572C96.2636 231.228 96.0356 229.992 95.5796 228.864C95.1476 227.712 94.5116 226.716 93.6716 225.876C92.8556 225.012 91.8956 224.352 90.7916 223.896C89.6876 223.44 88.4756 223.212 87.1556 223.212C85.8596 223.212 84.6596 223.44 83.5556 223.896C82.4516 224.352 81.4796 225.012 80.6396 225.876C79.8236 226.716 79.1876 227.712 78.7316 228.864C78.2756 229.992 78.0476 231.228 78.0476 232.572C78.0476 233.916 78.2756 235.164 78.7316 236.316C79.1876 237.468 79.8236 238.464 80.6396 239.304C81.4796 240.144 82.4516 240.804 83.5556 241.284C84.6596 241.74 85.8596 241.968 87.1556 241.968ZM112.137 246.432C110.625 246.432 109.305 246.096 108.177 245.424C107.073 244.752 106.221 243.816 105.621 242.616C105.045 241.416 104.757 240.012 104.757 238.404V226.416H109.473V238.008C109.473 238.824 109.629 239.544 109.941 240.168C110.277 240.768 110.745 241.248 111.345 241.608C111.969 241.944 112.665 242.112 113.433 242.112C114.201 242.112 114.885 241.944 115.485 241.608C116.085 241.248 116.553 240.756 116.889 240.132C117.225 239.508 117.393 238.764 117.393 237.9V226.416H122.109V246H117.645V242.148L118.041 242.832C117.585 244.032 116.829 244.932 115.773 245.532C114.741 246.132 113.529 246.432 112.137 246.432ZM126.493 246V226.416H130.921V230.772L130.561 230.124C131.017 228.66 131.725 227.64 132.685 227.064C133.669 226.488 134.845 226.2 136.213 226.2H137.365V230.376H135.673C134.329 230.376 133.249 230.796 132.433 231.636C131.617 232.452 131.209 233.604 131.209 235.092V246H126.493ZM153.916 246L144.556 219.18H149.884L157.228 241.392H156.184L163.528 219.18H168.856L159.532 246H153.916ZM175.956 246.432C174.588 246.432 173.4 246.204 172.392 245.748C171.384 245.292 170.604 244.644 170.052 243.804C169.5 242.94 169.224 241.944 169.224 240.816C169.224 239.736 169.464 238.776 169.944 237.936C170.424 237.072 171.168 236.352 172.176 235.776C173.184 235.2 174.456 234.792 175.992 234.552L182.4 233.508V237.108L176.892 238.044C175.956 238.212 175.26 238.512 174.804 238.944C174.348 239.376 174.12 239.94 174.12 240.636C174.12 241.308 174.372 241.848 174.876 242.256C175.404 242.64 176.052 242.832 176.82 242.832C177.804 242.832 178.668 242.628 179.412 242.22C180.18 241.788 180.768 241.2 181.176 240.456C181.608 239.712 181.824 238.896 181.824 238.008V232.968C181.824 232.128 181.488 231.432 180.816 230.88C180.168 230.304 179.304 230.016 178.224 230.016C177.216 230.016 176.316 230.292 175.524 230.844C174.756 231.372 174.192 232.08 173.832 232.968L169.98 231.096C170.364 230.064 170.964 229.176 171.78 228.432C172.62 227.664 173.604 227.064 174.732 226.632C175.86 226.2 177.084 225.984 178.404 225.984C180.012 225.984 181.428 226.284 182.652 226.884C183.876 227.46 184.824 228.276 185.496 229.332C186.192 230.364 186.54 231.576 186.54 232.968V246H182.076V242.652L183.084 242.58C182.58 243.42 181.98 244.128 181.284 244.704C180.588 245.256 179.796 245.688 178.908 246C178.02 246.288 177.036 246.432 175.956 246.432ZM190.899 246V218.748H195.615V246H190.899ZM206.953 246.432C205.441 246.432 204.121 246.096 202.993 245.424C201.889 244.752 201.037 243.816 200.437 242.616C199.861 241.416 199.573 240.012 199.573 238.404V226.416H204.289V238.008C204.289 238.824 204.445 239.544 204.757 240.168C205.093 240.768 205.561 241.248 206.161 241.608C206.785 241.944 207.481 242.112 208.249 242.112C209.017 242.112 209.701 241.944 210.301 241.608C210.901 241.248 211.369 240.756 211.705 240.132C212.041 239.508 212.209 238.764 212.209 237.9V226.416H216.925V246H212.461V242.148L212.857 242.832C212.401 244.032 211.645 244.932 210.589 245.532C209.557 246.132 208.345 246.432 206.953 246.432ZM230.597 246.432C228.581 246.432 226.817 245.976 225.305 245.064C223.793 244.152 222.617 242.916 221.777 241.356C220.937 239.796 220.517 238.068 220.517 236.172C220.517 234.204 220.937 232.464 221.777 230.952C222.641 229.416 223.805 228.204 225.269 227.316C226.757 226.428 228.413 225.984 230.237 225.984C231.773 225.984 233.117 226.236 234.269 226.74C235.445 227.244 236.441 227.94 237.257 228.828C238.073 229.716 238.697 230.736 239.129 231.888C239.561 233.016 239.777 234.24 239.777 235.56C239.777 235.896 239.753 236.244 239.705 236.604C239.681 236.964 239.621 237.276 239.525 237.54H224.405V233.94H236.861L234.629 235.632C234.845 234.528 234.785 233.544 234.449 232.68C234.137 231.816 233.609 231.132 232.865 230.628C232.145 230.124 231.269 229.872 230.237 229.872C229.253 229.872 228.377 230.124 227.609 230.628C226.841 231.108 226.253 231.828 225.845 232.788C225.461 233.724 225.317 234.864 225.413 236.208C225.317 237.408 225.473 238.476 225.881 239.412C226.313 240.324 226.937 241.032 227.753 241.536C228.593 242.04 229.553 242.292 230.633 242.292C231.713 242.292 232.625 242.064 233.369 241.608C234.137 241.152 234.737 240.54 235.169 239.772L238.985 241.644C238.601 242.58 238.001 243.408 237.185 244.128C236.369 244.848 235.397 245.412 234.269 245.82C233.165 246.228 231.941 246.432 230.597 246.432ZM250.804 246.432C248.716 246.432 246.892 245.94 245.332 244.956C243.796 243.948 242.74 242.592 242.164 240.888L245.692 239.196C246.196 240.3 246.892 241.164 247.78 241.788C248.692 242.412 249.7 242.724 250.804 242.724C251.668 242.724 252.352 242.532 252.856 242.148C253.36 241.764 253.612 241.26 253.612 240.636C253.612 240.252 253.504 239.94 253.288 239.7C253.096 239.436 252.82 239.22 252.46 239.052C252.124 238.86 251.752 238.704 251.344 238.584L248.14 237.684C246.484 237.204 245.224 236.472 244.36 235.488C243.52 234.504 243.1 233.34 243.1 231.996C243.1 230.796 243.4 229.752 244 228.864C244.624 227.952 245.476 227.244 246.556 226.74C247.66 226.236 248.92 225.984 250.336 225.984C252.184 225.984 253.816 226.428 255.232 227.316C256.648 228.204 257.656 229.452 258.256 231.06L254.656 232.752C254.32 231.864 253.756 231.156 252.964 230.628C252.172 230.1 251.284 229.836 250.3 229.836C249.508 229.836 248.884 230.016 248.428 230.376C247.972 230.736 247.744 231.204 247.744 231.78C247.744 232.14 247.84 232.452 248.032 232.716C248.224 232.98 248.488 233.196 248.824 233.364C249.184 233.532 249.592 233.688 250.048 233.832L253.18 234.768C254.788 235.248 256.024 235.968 256.888 236.928C257.776 237.888 258.22 239.064 258.22 240.456C258.22 241.632 257.908 242.676 257.284 243.588C256.66 244.476 255.796 245.172 254.692 245.676C253.588 246.18 252.292 246.432 250.804 246.432Z" fill="#212121"/>
</svg>
