<?xml version="1.0" encoding="utf-8"?>
<!-- Generator: Adobe Illustrator 27.8.0, SVG Export Plug-In . SVG Version: 6.00 Build 0)  -->
<svg version="1.1" id="Layer_1" xmlns="http://www.w3.org/2000/svg" xmlns:xlink="http://www.w3.org/1999/xlink" x="0px" y="0px"
	 viewBox="0 0 308 296" style="enable-background:new 0 0 308 296;" xml:space="preserve">
<style type="text/css">
	.st0{fill-rule:evenodd;clip-rule:evenodd;fill:url(#SVGID_1_);}
	.st1{fill:#DE3730;}
	.st2{fill:#2B74E2;}
</style>
<linearGradient id="SVGID_1_" gradientUnits="userSpaceOnUse" x1="19.4577" y1="224.103" x2="301.4726" y2="104.8827" gradientTransform="matrix(1 0 0 -1 0 298)">
	<stop  offset="0" style="stop-color:#EE1E5C"/>
	<stop  offset="0.2475" style="stop-color:#E2792D"/>
	<stop  offset="0.5173" style="stop-color:#4BBA73"/>
	<stop  offset="0.7797" style="stop-color:#45AAE0"/>
	<stop  offset="1" style="stop-color:#255EAC"/>
</linearGradient>
<path class="st0" d="M17.7,213.2c-1.2,0.6-1.7,2-1.1,3.2c0.3,0.5,0.7,0.9,1.3,1.1c0.6,0.2,1.4,0.2,2-0.1c1.2-0.6,1.7-2,1.1-3.2
	C20.3,213.1,18.9,212.6,17.7,213.2z M13.7,204.7c-1.2,0.5-1.8,1.9-1.3,3.1c0.3,0.6,0.7,1,1.3,1.2c0.6,0.2,1.2,0.3,1.9,0
	c1.2-0.5,1.8-1.9,1.3-3.1C16.4,204.8,15,204.2,13.7,204.7z M10.4,196c-1.3,0.4-1.9,1.8-1.5,3c0.2,0.7,0.8,1.2,1.4,1.4
	c0.5,0.2,1.2,0.2,1.7,0c1.3-0.4,1.9-1.8,1.5-3C13,196.2,11.6,195.6,10.4,196z M7.6,187.1c-1.3,0.4-2,1.7-1.7,2.9
	c0.2,0.7,0.8,1.3,1.4,1.5c0.5,0.2,1.1,0.2,1.6,0.1c1.3-0.4,2.1-1.7,1.7-2.9C10.2,187.5,8.9,186.8,7.6,187.1z M5.4,178.1
	c-1.3,0.3-2.2,1.5-1.9,2.8c0.2,0.8,0.8,1.4,1.5,1.7c0.4,0.2,0.9,0.2,1.4,0.1c1.3-0.3,2.1-1.5,1.9-2.8C8,178.6,6.7,177.8,5.4,178.1z
	 M3.8,168.9c-1.3,0.2-2.2,1.4-2,2.7c0.1,0.9,0.7,1.5,1.5,1.8c0.4,0.2,0.8,0.2,1.3,0.1c1.3-0.2,2.2-1.4,2-2.7
	C6.4,169.6,5.1,168.7,3.8,168.9z M2.8,159.7c-1.3,0.1-2.3,1.3-2.2,2.6c0.1,0.9,0.7,1.6,1.5,2c0.3,0.1,0.7,0.2,1.1,0.2
	c1.3-0.1,2.3-1.3,2.2-2.6C5.3,160.5,4.1,159.6,2.8,159.7z M2.4,150.4c-1.4,0-2.4,1.1-2.4,2.4c0,1,0.6,1.8,1.5,2.1
	c0.3,0.1,0.6,0.2,1,0.2c1.4,0,2.4-1.1,2.4-2.4C4.8,151.4,3.7,150.4,2.4,150.4z M2.6,141.1c-1.4,0-2.5,1-2.5,2.3
	c-0.1,1,0.6,1.9,1.5,2.3c0.3,0.1,0.5,0.2,0.8,0.2c1.4,0,2.5-1,2.5-2.3C5,142.3,4,141.2,2.6,141.1z M3.4,131.8
	c-1.3-0.1-2.5,0.8-2.7,2.1c-0.1,1.1,0.5,2.1,1.5,2.4c0.2,0.1,0.4,0.1,0.7,0.2c1.3,0.1,2.5-0.8,2.7-2.1C5.7,133.1,4.8,132,3.4,131.8z
	 M4.9,122.7c-1.3-0.2-2.6,0.7-2.8,1.9c-0.2,1.1,0.5,2.2,1.5,2.6c0.2,0.1,0.3,0.1,0.5,0.2c1.3,0.2,2.6-0.7,2.8-1.9
	C7.1,124.1,6.2,122.9,4.9,122.7z M278.6,227.8c-0.7,1.1-0.4,2.6,0.7,3.3c0.1,0.1,0.3,0.2,0.4,0.2c1.1,0.4,2.3,0.1,3-0.9
	c0.7-1.1,0.4-2.6-0.7-3.3C280.9,226.4,279.4,226.7,278.6,227.8z M6.9,113.6c-1.3-0.3-2.6,0.5-2.9,1.8c-0.3,1.1,0.4,2.3,1.5,2.7l0,0
	c0.1,0,0.2,0.1,0.4,0.1c1.3,0.3,2.6-0.5,2.9-1.8C9,115.1,8.2,113.9,6.9,113.6z M283.6,220c-0.7,1.2-0.2,2.6,0.9,3.2l0.3,0.1
	c1.1,0.4,2.4,0,3-1l0,0c0.7-1.1,0.3-2.6-0.9-3.2C285.7,218.5,284.2,218.9,283.6,220L283.6,220z M9.5,104.6c-1.3-0.4-2.7,0.3-3,1.6
	c-0.4,1.2,0.3,2.4,1.4,2.9c0.1,0,0.1,0.1,0.2,0.1c1.3,0.4,2.7-0.3,3-1.6C11.6,106.3,10.8,105,9.5,104.6z M287.9,211.9
	c-0.6,1.2-0.1,2.6,1.1,3.2c0.1,0,0.1,0,0.2,0.1c1.2,0.5,2.6,0,3.1-1.2c0.6-1.2,0.1-2.6-1.1-3.2C290,210.2,288.5,210.7,287.9,211.9z
	 M12.7,95.8c-1.3-0.4-2.7,0.2-3.1,1.4c-0.5,1.2,0.2,2.5,1.4,3c0,0,0,0,0,0c0,0,0,0,0,0c1.3,0.5,2.7-0.2,3.1-1.4
	C14.6,97.7,14,96.3,12.7,95.8z M291.9,203.4c0,0-0.1,0.1-0.1,0.1c-0.5,1.2,0.1,2.6,1.3,3.1c1.2,0.5,2.7-0.1,3.2-1.3c0,0,0-0.1,0-0.1
	c0,0,0-0.1,0-0.1c0,0,0-0.1,0-0.1c0,0,0-0.1,0-0.1c0.5-1.2-0.1-2.6-1.3-3.1c-1.3-0.5-2.7,0.1-3.2,1.3
	C291.9,203.3,291.9,203.3,291.9,203.4z M13.3,88.5c-0.5,1.2,0,2.6,1.2,3.1c0,0,0,0,0.1,0c1.2,0.5,2.6-0.1,3.1-1.2
	c0.6-1.2,0-2.6-1.2-3.1C15.3,86.8,13.8,87.3,13.3,88.5z M298.3,193.1c-1.3-0.4-2.7,0.2-3.1,1.5c-0.4,1.2,0.2,2.5,1.4,2.9
	c0.1,0,0.1,0,0.2,0.1v0c1.3,0.4,2.7-0.2,3.1-1.5C300.3,194.9,299.6,193.6,298.3,193.1z M17.6,80c-0.6,1.2-0.2,2.6,1,3.2
	c0,0,0.1,0.1,0.2,0.1c0,0,0,0,0,0c1.2,0.5,2.5,0,3.1-1.1c0.6-1.2,0.2-2.6-1-3.2C19.6,78.4,18.2,78.8,17.6,80z M300.9,184.2
	c-1.3-0.3-2.6,0.4-3,1.7c-0.3,1.2,0.3,2.3,1.4,2.8c0.1,0,0.2,0.1,0.3,0.1c1.3,0.3,2.6-0.4,3-1.7C303,185.8,302.2,184.5,300.9,184.2z
	 M22.3,71.7c-0.7,1.1-0.3,2.6,0.8,3.2c0.1,0.1,0.2,0.1,0.3,0.2l0,0c1.1,0.4,2.4,0,3-1c0.7-1.1,0.3-2.6-0.8-3.2
	C24.5,70.3,23,70.6,22.3,71.7z M302.9,175.1c-1.3-0.3-2.6,0.6-2.9,1.9c-0.2,1.1,0.4,2.2,1.5,2.6c0.1,0.1,0.3,0.1,0.4,0.1
	c1.3,0.3,2.6-0.6,2.9-1.9C305.1,176.6,304.3,175.4,302.9,175.1z M27.7,63.8c-0.8,1.1-0.5,2.5,0.6,3.3c0.1,0.1,0.3,0.2,0.5,0.3
	c1,0.4,2.3,0.1,2.9-0.8c0.8-1.1,0.5-2.5-0.6-3.3C29.9,62.5,28.4,62.7,27.7,63.8z M304.4,165.9c-1.3-0.2-2.6,0.7-2.7,2
	c-0.2,1.1,0.5,2.1,1.5,2.5c0.2,0.1,0.4,0.1,0.6,0.2c1.3,0.2,2.6-0.7,2.7-2C306.6,167.3,305.7,166.1,304.4,165.9z M33.5,56.2
	c-0.8,1-0.7,2.5,0.4,3.3c0.2,0.1,0.4,0.3,0.6,0.3c1,0.4,2.1,0.1,2.8-0.7c0.8-1,0.7-2.5-0.4-3.3C35.9,55,34.3,55.2,33.5,56.2
	L33.5,56.2z M305.2,156.6c-1.3-0.1-2.5,0.9-2.6,2.2c-0.1,1,0.5,2,1.5,2.3c0.2,0.1,0.5,0.2,0.8,0.2c1.3,0.1,2.5-0.9,2.6-2.2
	C307.5,157.8,306.5,156.7,305.2,156.6z M39.8,49c-0.9,1-0.8,2.5,0.2,3.3c0.2,0.2,0.5,0.3,0.7,0.4c0.9,0.4,2,0.2,2.7-0.6
	c0.9-1,0.8-2.5-0.2-3.3C42.2,48,40.7,48.1,39.8,49z M305.4,147.3c-1.3,0-2.4,1-2.4,2.3c0,1,0.6,1.8,1.5,2.2c0.3,0.1,0.6,0.2,0.9,0.2
	c1.4,0,2.4-1,2.5-2.4C307.8,148.4,306.7,147.3,305.4,147.3z M46.6,42.2c-1,0.9-1,2.4,0,3.3c0.2,0.2,0.5,0.4,0.8,0.5
	c0.9,0.3,1.9,0.2,2.6-0.5c1-0.9,1-2.4,0-3.3C49.1,41.3,47.6,41.3,46.6,42.2z M305,138.1c-1.3,0.1-2.4,1.2-2.3,2.5
	c0.1,0.9,0.7,1.7,1.5,2.1c0.3,0.1,0.7,0.2,1.1,0.2c1.3-0.1,2.4-1.2,2.3-2.5C307.5,139,306.3,138,305,138.1z M53.8,35.8
	c-1,0.9-1.1,2.3-0.3,3.3c0.3,0.3,0.6,0.5,0.9,0.7c0.8,0.3,1.8,0.2,2.5-0.4l0,0c1-0.8,1.1-2.3,0.3-3.3C56.4,35.1,54.9,35,53.8,35.8z
	 M304,128.8c-1.3,0.2-2.3,1.3-2.1,2.6c0.1,0.9,0.7,1.6,1.5,1.9c0.4,0.1,0.8,0.2,1.2,0.2c1.3-0.2,2.3-1.3,2.1-2.6
	C306.5,129.6,305.3,128.7,304,128.8z M61.5,29.9c-1.1,0.8-1.3,2.3-0.5,3.3c0.3,0.4,0.6,0.6,1,0.8c0.8,0.3,1.7,0.2,2.4-0.3
	c1.1-0.8,1.3-2.3,0.5-3.3C64.1,29.3,62.6,29.1,61.5,29.9z M302.3,119.7c-1.3,0.2-2.2,1.5-1.9,2.8c0.2,0.8,0.7,1.5,1.5,1.7
	c0.4,0.2,0.9,0.2,1.4,0.1c1.3-0.2,2.2-1.5,1.9-2.8C304.9,120.3,303.7,119.4,302.3,119.7z M69.5,24.5c-1.1,0.7-1.4,2.2-0.7,3.3
	c0.3,0.4,0.7,0.7,1.1,0.9c0.7,0.3,1.6,0.2,2.3-0.2c1.1-0.7,1.4-2.2,0.7-3.3C72.1,24.1,70.6,23.8,69.5,24.5z M300.1,110.6
	c-1.3,0.3-2.1,1.6-1.8,2.9c0.2,0.8,0.8,1.3,1.4,1.6c0.5,0.2,1,0.2,1.5,0.1c1.3-0.3,2.1-1.6,1.8-2.9
	C302.7,111,301.4,110.3,300.1,110.6z M77.8,19.6c-1.2,0.6-1.6,2.1-0.9,3.2c0.3,0.5,0.7,0.8,1.2,1c0.7,0.3,1.4,0.2,2.1-0.1
	c1.2-0.6,1.6-2.1,0.9-3.2C80.5,19.3,79,18.9,77.8,19.6z M297.3,101.7c-1.3,0.4-2,1.7-1.6,3c0.2,0.7,0.8,1.2,1.4,1.5
	c0.5,0.2,1.1,0.2,1.7,0.1c1.3-0.4,2-1.7,1.6-3C300,102,298.6,101.3,297.3,101.7z M86.4,15.1c-1.2,0.6-1.7,2-1.1,3.1
	c0.3,0.6,0.7,0.9,1.3,1.1c0.6,0.3,1.3,0.3,2-0.1c1.2-0.6,1.7-2,1.1-3.1C89.1,15.1,87.6,14.6,86.4,15.1z M293.9,93
	c-1.3,0.5-1.9,1.9-1.4,3.1c0.2,0.6,0.7,1.1,1.3,1.3c0.6,0.2,1.2,0.2,1.8,0c1.3-0.5,1.9-1.8,1.4-3.1C296.6,93.1,295.2,92.5,293.9,93z
	 M95.4,11.3c-1.3,0.5-1.8,1.9-1.3,3.1c0.2,0.6,0.7,1.1,1.3,1.3c0.6,0.2,1.2,0.2,1.9,0c1.2-0.5,1.8-1.9,1.3-3.1
	C98,11.3,96.6,10.8,95.4,11.3z M290,84.5c-1.2,0.5-1.7,1.9-1.2,3.1c0.3,0.6,0.7,1,1.3,1.2c0.6,0.2,1.3,0.2,2-0.1
	c1.2-0.5,1.7-2,1.2-3.1C292.7,84.5,291.2,84,290,84.5z M104.5,7.9c-1.3,0.4-2,1.8-1.5,3c0.2,0.7,0.8,1.2,1.4,1.4
	c0.5,0.2,1.1,0.2,1.7,0c1.3-0.4,1.9-1.8,1.5-3C107.2,8.2,105.8,7.5,104.5,7.9z M285.5,76.3c-1.2,0.6-1.6,2.1-1,3.2
	c0.3,0.5,0.7,0.8,1.2,1.1c0.6,0.3,1.4,0.2,2.1-0.1c1.2-0.6,1.6-2.1,1-3.2l0,0C288.2,76.1,286.7,75.7,285.5,76.3z M113.8,5.2
	c-1.3,0.3-2.1,1.7-1.7,2.9c0.2,0.7,0.7,1.3,1.4,1.6c0.5,0.2,1,0.2,1.6,0.1c1.3-0.3,2.1-1.6,1.7-2.9C116.5,5.6,115.1,4.8,113.8,5.2z
	 M280.5,68.4c-1.1,0.7-1.5,2.2-0.8,3.3c0.3,0.4,0.7,0.7,1.1,0.9c0.7,0.3,1.5,0.2,2.2-0.2c1.1-0.7,1.5-2.2,0.8-3.3
	C283.1,68,281.6,67.7,280.5,68.4z M123.3,3c-1.3,0.3-2.2,1.5-1.9,2.8c0.2,0.8,0.7,1.4,1.5,1.7c0.4,0.2,0.9,0.2,1.4,0.1l0,0
	c1.3-0.3,2.2-1.5,1.9-2.8C125.9,3.6,124.7,2.7,123.3,3C123.3,3,123.3,3,123.3,3z M275,60.7c-1.1,0.8-1.3,2.2-0.5,3.3
	c0.3,0.4,0.6,0.6,1,0.8c0.8,0.3,1.7,0.2,2.4-0.3c1.1-0.8,1.3-2.3,0.5-3.3C277.6,60.2,276,60,275,60.7z M132.9,1.4
	c-1.3,0.2-2.3,1.4-2.1,2.7c0.1,0.9,0.7,1.6,1.5,1.8c0.4,0.2,0.8,0.2,1.3,0.2c1.3-0.2,2.3-1.4,2.1-2.7C135.5,2.1,134.3,1.2,132.9,1.4
	z M268.9,53.5c-1,0.8-1.2,2.3-0.3,3.3c0.3,0.3,0.6,0.5,0.9,0.7c0.8,0.3,1.8,0.2,2.5-0.4c1-0.8,1.2-2.3,0.3-3.3
	C271.5,52.8,270,52.7,268.9,53.5z M142.6,0.4c-1.4,0.1-2.4,1.2-2.3,2.5c0.1,0.9,0.7,1.7,1.5,2c0.3,0.1,0.7,0.2,1.1,0.2
	c1.4-0.1,2.4-1.2,2.3-2.5C145.1,1.3,144,0.3,142.6,0.4z M262.5,46.6c-1,0.9-1,2.4-0.1,3.3c0.2,0.2,0.5,0.4,0.9,0.6
	c0.8,0.3,1.9,0.2,2.6-0.5c1-0.9,1-2.4,0.1-3.3C265,45.8,263.4,45.7,262.5,46.6z M152.4,0C151,0,150,1.1,150,2.4c0,1,0.6,1.8,1.5,2.2
	c0.3,0.1,0.6,0.2,0.9,0.2c1.3,0,2.4-1.1,2.4-2.4C154.8,1,153.7,0,152.4,0z M255.5,40.2c-0.9,0.9-0.9,2.4,0.1,3.3
	c0.2,0.2,0.5,0.4,0.7,0.5c0.9,0.4,2,0.2,2.7-0.6c0.9-1,0.9-2.4-0.1-3.3C258,39.2,256.5,39.2,255.5,40.2z M162.1,0.2
	c-1.4-0.1-2.5,0.9-2.6,2.2c-0.1,1,0.6,1.9,1.5,2.3c0.2,0.1,0.5,0.2,0.8,0.2c1.3,0.1,2.5-0.9,2.6-2.2C164.5,1.4,163.5,0.3,162.1,0.2z
	 M248.2,34.1c-0.9,1-0.7,2.5,0.3,3.3c0.2,0.2,0.4,0.3,0.6,0.4c1,0.4,2.1,0.1,2.8-0.7c0.8-1,0.7-2.5-0.3-3.3
	C250.6,33,249,33.1,248.2,34.1z M171.9,1c-1.3-0.1-2.5,0.8-2.7,2.1c-0.1,1.1,0.5,2.1,1.5,2.4c0.2,0.1,0.4,0.1,0.6,0.2
	c1.3,0.2,2.5-0.8,2.7-2.1C174.1,2.3,173.2,1.1,171.9,1z M240.5,28.6c-0.8,1.1-0.5,2.5,0.6,3.3c0.2,0.1,0.3,0.2,0.5,0.3
	c1,0.4,2.2,0.1,2.9-0.8c0.8-1.1,0.5-2.5-0.6-3.3C242.8,27.3,241.3,27.5,240.5,28.6z M181.5,2.4c-1.3-0.2-2.6,0.6-2.8,1.9
	c-0.2,1.1,0.4,2.2,1.5,2.6c0.2,0.1,0.3,0.1,0.5,0.1c1.3,0.2,2.6-0.6,2.8-1.9C183.7,3.9,182.8,2.6,181.5,2.4z M232.4,23.5
	c-0.7,1.1-0.4,2.6,0.8,3.3c0.1,0.1,0.2,0.1,0.4,0.2c1.1,0.4,2.4,0.1,3-0.9c0.7-1.1,0.4-2.6-0.8-3.3
	C234.6,22.1,233.1,22.4,232.4,23.5z M191.1,4.4c-1.3-0.3-2.6,0.5-3,1.7c-0.3,1.1,0.3,2.3,1.4,2.8c0.1,0,0.2,0.1,0.3,0.1
	c1.3,0.3,2.6-0.5,3-1.7C193.1,6,192.3,4.7,191.1,4.4z M224,19c-0.6,1.1-0.2,2.6,1,3.2c0.1,0,0.1,0,0.1,0.1c0,0,0.1,0,0.1,0
	c1.1,0.4,2.5,0,3.1-1.1c0.6-1.1,0.2-2.6-1-3.2C226.2,17.4,224.7,17.8,224,19z M200.4,7c-1.3-0.4-2.7,0.3-3.1,1.5
	c-0.4,1.2,0.2,2.4,1.4,2.9l0.2,0.1l0,0c1.3,0.4,2.7-0.3,3.1-1.5C202.4,8.7,201.7,7.4,200.4,7z M215.4,15c-0.6,1.2,0,2.6,1.2,3.1
	c0,0,0.1,0,0.1,0c1.2,0.5,2.6,0,3.1-1.2c0.6-1.2,0-2.6-1.2-3.1l0,0C217.4,13.3,216,13.8,215.4,15z M209.6,10.1
	c-1.3-0.5-2.7,0.1-3.2,1.4c-0.5,1.2,0.1,2.6,1.4,3l0,0c1.2,0.5,2.7-0.1,3.2-1.4C211.5,11.9,210.9,10.6,209.6,10.1z"/>
<path class="st1" d="M53,246.9c0-1.4-0.9-2.1-2.6-2.1c-3.2,0-6.2,1.5-8.9,4.5c-1.6,1.8-2.7,3.7-3.3,5.7c-0.3,1-0.5,1.9-0.5,2.7
	c0,0.8,0.1,1.4,0.3,1.8c0.2,0.4,0.4,0.8,0.7,1.1c0.6,0.6,1.3,0.9,2,0.7c0.8-0.3,1.6-0.5,2.2-0.5c0.6,0,1.2,0.1,1.5,0.3
	c0.4,0.2,0.7,0.3,0.9,0.6c0.5,0.5,0.7,0.9,0.7,1.4c0,0.9-0.3,1.3-0.9,1.4c-0.9,0.1-1.8,0.3-2.8,0.7c-1,0.4-1.9,0.9-2.9,1.6
	c-1,0.6-1.9,1.4-2.6,2.2c-1.8,1.9-2.6,3.8-2.6,5.6c0,0.9,0.2,1.6,0.6,2c0.7,0.8,1.6,1.2,2.6,1.2c1,0,1.9-0.2,2.9-0.6
	c1-0.4,1.8-0.9,2.6-1.4c1.2-0.8,2.3-1.9,3.4-3.2c0.5-0.6,1-1,1.4-1c0.4,0,0.7,0.2,0.9,0.7c0.2,0.5,0.3,1,0.3,1.5
	c0,1.1-0.2,2-0.6,2.5c-0.4,0.5-1,1.1-1.6,1.6c-0.6,0.5-1.4,1-2.3,1.5c-2.1,1.1-4.4,1.6-6.8,1.6c-4.1,0-6.9-1.3-8.4-4
	c-0.5-1-0.8-2-0.8-3.1s0.2-2,0.5-2.9c0.3-0.9,0.7-1.7,1.2-2.5c0.5-0.8,1-1.5,1.7-2.1c0.6-0.6,1.2-1.2,1.8-1.6
	c1.2-0.9,2.1-1.4,2.9-1.6c-1.9-0.8-3.2-2.3-3.9-4.5c-0.2-0.7-0.3-1.6-0.3-2.6c0-1,0.2-2.1,0.6-3.4c0.4-1.2,0.9-2.4,1.7-3.5
	c0.7-1.1,1.6-2.2,2.6-3.2c1-1,2.1-1.8,3.3-2.6c2.6-1.6,5.3-2.3,8.1-2.3c3,0,5.2,0.7,6.7,2.2c1.2,1.2,1.8,2.7,1.8,4.6
	c0,2.1-0.9,4.2-2.7,6.4c-1.1,1.3-2,2.2-2.9,2.6c-0.9,0.5-1.5,0.7-2,0.8c-0.5,0-0.9,0-1.4-0.2c-0.4-0.2-0.8-0.4-1.1-0.7
	c-0.7-0.6-1-1.2-1-1.7c0-0.6,0.2-1.1,0.7-1.5l2.3-1.6C51.6,250.1,53,248.4,53,246.9z"/>
<path class="st1" d="M56.5,280.3c-0.7,0.5-1.3,0.8-1.7,0.8c-0.4,0-0.7-0.1-1-0.2c-0.3-0.1-0.5-0.2-0.7-0.4c-0.5-0.4-0.8-0.8-0.8-1.1
	c0-0.4,0.2-0.7,0.6-1c0,0,0.5-0.4,1.6-1.2c2.8-2.3,5.1-4.8,6.9-7.5c-1.5-4.2-2.2-7.6-2-10.4c0.1-1.4,0.7-2.5,1.8-3.5
	c1-0.9,2.1-1.3,3.3-1.3c0.3,0,0.6,0.1,0.7,0.4c0.1,0.2,0.2,0.6,0.2,1c0,0.4,0,0.9-0.1,1.4c0,0.5,0,1,0,1.6c0,0.5,0.1,1.1,0.1,1.8
	c0.2,1.7,0.3,3.1,0.5,4.1l0.8-1.4c1.9-3.1,4.2-5.5,6.8-7.3c1.5-1,2.7-1.5,3.8-1.5c1,0,1.7,0.1,2.2,0.4c1,0.5,1.3,1,1,1.6
	c-0.1,0.1-0.2,0.2-0.3,0.2l-0.6,0.3c-2.7,1.2-6.1,4-10.3,8.6c-0.9,1-1.6,1.9-2.3,2.7l0.9,3c1.1,3.6,2.4,5.4,3.9,5.4
	c0.7,0,1.2-0.1,1.6-0.3l0.9-0.4c0.2-0.1,0.4-0.1,0.5-0.1c0.4,0,0.5,0.2,0.5,0.5c0,1.5-0.8,2.8-2.3,3.8c-1,0.7-2.2,1-3.5,1
	c-2.5,0-4.8-2.6-6.8-7.7C60.5,276.6,58.5,278.9,56.5,280.3z"/>
<path class="st1" d="M84.9,278.5c0,0.3-0.4,1.6-1.1,4c-0.7,2.4-1.3,4.4-1.8,5.8c-1.1,3.2-2,5.2-2.7,6c-0.6,0.6-1.2,0.9-2,0.9
	c-1,0-1.7-0.5-2.2-1.4c-0.2-0.3-0.2-0.6-0.2-0.9c0-0.3,0.3-1,0.8-2.1c1.3-2.8,3.1-8.3,5.4-16.6c0.9-3.3,1.5-5.5,1.8-6.7l0.8-3.2
	c0.5-2.1,0.8-3.5,0.9-4.3c0.1-0.8,0.1-1.3-0.1-1.6c-0.2-0.3-0.4-0.6-0.6-0.7c-0.2-0.2-0.5-0.3-0.7-0.4c-0.2-0.1-0.3-0.3-0.3-0.6
	c0-0.3,0.2-0.6,0.4-0.9c0.3-0.3,0.6-0.5,0.9-0.7c0.8-0.4,1.5-0.5,2.3-0.5c0.8,0,1.4,0.1,1.8,0.3s0.8,0.4,1.1,0.8
	c0.6,0.7,0.9,1.3,0.8,1.9c-0.2,1.3-0.4,2.4-0.6,3.4c3-4.2,6.1-6.4,9.3-6.4c2.9,0,4.9,1.5,5.8,4.5c0.3,1.1,0.5,2.3,0.5,3.9
	s-0.2,3-0.7,4.6c-0.5,1.5-1.1,3-1.9,4.3c-0.8,1.4-1.7,2.6-2.7,3.8c-1,1.1-2.1,2.1-3.3,3c-2.4,1.8-4.8,2.7-6.9,2.7
	C87.6,281.2,86,280.3,84.9,278.5z M88.9,267.6c-0.6,1.2-1.1,2.4-1.5,3.6c-0.4,1.2-0.6,2.3-0.6,3.3s0.2,1.8,0.6,2.4
	c0.4,0.6,1.1,0.9,1.9,0.9c0.8,0,1.7-0.2,2.5-0.7c0.8-0.5,1.6-1.1,2.4-1.8c0.8-0.8,1.5-1.7,2.2-2.7c0.7-1,1.3-2.1,1.8-3.3
	c1.1-2.5,1.6-4.9,1.6-7.2c0-1.2-0.2-2.2-0.5-2.9c-0.3-0.7-0.8-1-1.5-1c-0.7,0-1.4,0.3-2.1,0.8c-0.7,0.5-1.5,1.2-2.3,2.1
	c-0.8,0.9-1.6,1.8-2.4,3C90.2,265.2,89.5,266.4,88.9,267.6z"/>
<path class="st1" d="M109.9,272c0.1-1.5,0.3-2.9,0.7-4.2c0.4-1.4,1-2.7,1.7-3.9c0.7-1.3,1.5-2.5,2.5-3.6c1-1.1,2-2.1,3.1-3
	c2.4-1.8,4.9-2.7,7.4-2.7c2.9,0,4.8,1.2,5.8,3.6c0.3,0.8,0.5,1.8,0.5,2.9c0,1.1-0.2,2.1-0.6,3.1c-0.4,0.9-1,1.8-1.7,2.6
	c-0.7,0.8-1.6,1.5-2.6,2.1c-1,0.6-2.1,1.1-3.2,1.6c-2.4,0.9-5,1.3-7.8,1.3c-0.1,0.2-0.1,0.6-0.1,1.1c0,0.5,0,1,0.2,1.6
	c0.1,0.6,0.3,1.1,0.6,1.6c0.6,1,1.5,1.5,2.7,1.5c2,0,3.9-0.6,5.8-1.7c0.7-0.4,1.2-0.8,1.6-1.2c0.4-0.4,0.8-0.6,1.1-0.6
	s0.6,0.2,0.8,0.6c0.2,0.4,0.4,0.8,0.4,1.2c0,0.9-0.3,1.7-0.8,2.3c-2.1,2.1-5.3,3.2-9.6,3.2c-2.5,0-4.5-0.7-6-2.2
	C110.6,277.2,109.8,274.9,109.9,272z M124.8,257.9c-1.8,0-3.5,1.2-5.2,3.7c-1.4,2.1-2.5,4.6-3.4,7.5c2.8-0.3,5.3-1.4,7.4-3.4
	c1.9-1.8,2.9-3.6,2.9-5.3C126.6,258.7,126,257.9,124.8,257.9z"/>
<path class="st1" d="M134.9,280.3c-0.3-0.3-0.6-0.5-0.8-0.8c-0.2-0.3-0.3-0.6-0.3-0.8c0-0.2,0-0.5,0.1-0.8c0.1-0.3,0.3-0.7,0.5-1.2
	c3.5-8.5,5.2-14.3,5.2-17.2c-0.1-0.8-0.3-1.4-0.8-1.7l-0.5-0.4c-0.2-0.1-0.2-0.3-0.3-0.6c0-0.3,0.1-0.6,0.3-0.9
	c0.2-0.3,0.5-0.5,0.9-0.7c0.7-0.4,1.5-0.6,2.2-0.6c0.8,0,1.4,0.1,1.8,0.3c0.4,0.2,0.8,0.4,1.1,0.7c0.6,0.6,1,1.3,1,1.9
	c0,0.7-0.1,1.4-0.2,2.1c-0.2,0.7-0.3,1.4-0.6,2.1c-0.2,0.7-0.4,1.3-0.7,1.9c-0.2,0.6-0.4,1-0.4,1.3c-0.1,0.6-0.2,1-0.2,1.1
	c0.4-0.4,0.7-0.7,0.7-1l1-1.9c2.2-4,4.4-6.6,6.5-7.9c0.6-0.4,1.3-0.5,2.2-0.5c0.9,0,1.6,0.3,2.1,0.9c0.5,0.6,0.8,1.3,0.8,2
	c0,0.7,0,1.3-0.2,1.8c-0.1,0.5-0.3,0.9-0.6,1.4c-0.6,1-1.2,1.4-2,1.4c-0.2,0-0.4-0.1-0.6-0.2l-0.6-0.5c-0.6-0.5-1.1-0.7-1.6-0.7
	c-0.5,0-1.1,0.3-1.9,1c-0.7,0.7-1.5,1.6-2.3,2.6c-2.7,3.6-4.9,7.5-6.6,11.9l-1.1,3c-0.3,0.7-0.5,1.3-0.8,1.6c-0.2,0.3-0.6,0.5-1,0.5
	c-0.4,0-0.9-0.1-1.3-0.3C135.7,280.7,135.3,280.5,134.9,280.3z"/>
<path class="st1" d="M170.5,248.5c-0.4,0.4-0.8,0.7-1.3,1c-0.5,0.2-1,0.4-1.5,0.5c-0.5,0.1-1,0-1.5-0.3c-0.5-0.2-0.9-0.5-1.2-0.9
	c-0.7-0.9-1.1-1.7-1.1-2.6c0-0.9,0.1-1.5,0.4-1.9c0.3-0.4,0.6-0.8,1.1-1.1c0.8-0.5,1.6-0.8,2.3-0.8c0.7,0,1.3,0.1,1.7,0.2
	c0.4,0.1,0.8,0.3,1.1,0.5c0.8,0.6,1.2,1.2,1.2,2.1c0,0.8-0.1,1.5-0.4,2C171.1,247.6,170.8,248.1,170.5,248.5z M165.2,276.1
	c0.4,0,0.7,0.3,0.7,0.9c0,0.8-0.3,1.6-1,2.4c-1,1.2-2.4,1.8-4.1,1.8c-2,0-3.3-0.8-4.1-2.4c-0.3-0.6-0.4-1.2-0.4-2
	c0-0.8,0.1-1.7,0.4-2.7c0.3-1,0.6-2,1-3.1c0.4-1.1,0.9-2.2,1.4-3.3l1.4-3.2c1-2.4,1.5-4,1.5-4.7c0-0.8-0.1-1.3-0.3-1.5
	c-0.2-0.3-0.3-0.5-0.5-0.6l-0.5-0.4c-0.2-0.1-0.3-0.3-0.3-0.6c0-0.3,0.1-0.6,0.3-0.9c0.2-0.3,0.5-0.5,0.9-0.7
	c0.8-0.4,1.7-0.6,2.7-0.6c2.5,0,3.8,0.7,3.8,2c0,1.5-0.4,3.3-1.2,5.3c-0.8,2-1.5,3.5-2,4.7l-1.5,3.5c-1.1,2.6-1.7,4.4-1.7,5.6
	c0,0.7,0.4,1.1,1.1,1.1c0.7,0,1.3-0.1,1.7-0.3C164.8,276.2,165.1,276.1,165.2,276.1z"/>
<path class="st1" d="M172.4,272c0.1-1.5,0.3-2.9,0.7-4.2c0.4-1.4,1-2.7,1.7-3.9c0.7-1.3,1.5-2.5,2.5-3.6c1-1.1,2-2.1,3.1-3
	c2.4-1.8,4.9-2.7,7.4-2.7c2.9,0,4.8,1.2,5.8,3.6c0.3,0.8,0.5,1.8,0.5,2.9c0,1.1-0.2,2.1-0.6,3.1c-0.4,0.9-1,1.8-1.7,2.6
	c-0.7,0.8-1.6,1.5-2.6,2.1c-1,0.6-2.1,1.1-3.2,1.6c-2.4,0.9-5,1.3-7.8,1.3c-0.1,0.2-0.1,0.6-0.1,1.1c0,0.5,0,1,0.2,1.6
	c0.1,0.6,0.3,1.1,0.6,1.6c0.6,1,1.5,1.5,2.7,1.5c2,0,3.9-0.6,5.8-1.7c0.7-0.4,1.2-0.8,1.6-1.2c0.4-0.4,0.8-0.6,1.1-0.6
	s0.6,0.2,0.8,0.6c0.2,0.4,0.4,0.8,0.4,1.2c0,0.9-0.3,1.7-0.8,2.3c-2.1,2.1-5.3,3.2-9.6,3.2c-2.5,0-4.5-0.7-6-2.2
	C173.1,277.2,172.3,274.9,172.4,272z M187.3,257.9c-1.8,0-3.5,1.2-5.2,3.7c-1.4,2.1-2.5,4.6-3.4,7.5c2.8-0.3,5.3-1.4,7.4-3.4
	c1.9-1.8,2.9-3.6,2.9-5.3C189.1,258.7,188.5,257.9,187.3,257.9z"/>
<path class="st1" d="M215.7,259.3c-0.5,0-1.3,0.5-2.2,1.5c-1,1-1.8,1.9-2.5,2.8l-2.2,2.6l-4.2,5.3c-1,1.9-1.8,3.4-2.3,4.7l-1.4,3
	c-0.4,0.7-0.7,1.2-0.9,1.6c-0.3,0.3-0.6,0.4-1.1,0.4c-0.4,0-0.9-0.1-1.3-0.3c-0.4-0.2-0.8-0.4-1.1-0.6c-0.6-0.5-1-1.1-1-1.8
	c0-0.3,0.2-0.8,0.6-1.5l1-2.1c0.3-0.6,0.7-1.4,1.1-2.3l1.4-3.5c2-5,3-8.3,3-9.7c0-0.8-0.3-1.4-0.8-1.7l-0.5-0.4
	c-0.2-0.1-0.3-0.3-0.3-0.6c0-0.3,0.1-0.6,0.3-0.9c0.2-0.3,0.5-0.5,0.9-0.7c0.8-0.4,1.5-0.6,2.3-0.6c0.8,0,1.4,0.1,1.8,0.3
	c0.4,0.2,0.8,0.4,1.1,0.7c0.6,0.6,0.9,1.2,0.9,1.9c0,0.6-0.1,1.3-0.3,2c-0.2,0.6-0.4,1.3-0.6,2c-0.2,0.7-0.5,1.3-0.8,2
	c-0.3,0.6-0.5,1.2-0.7,1.7l-0.5,1.1c-0.1,0.3-0.2,0.4-0.1,0.3c1.9-2.6,3.1-4.3,3.7-5.1l1.8-2.1c1.3-1.5,2.3-2.5,3.1-3
	c1.5-1,2.7-1.5,3.6-1.5s1.6,0.1,2.2,0.3c0.6,0.2,1.1,0.5,1.6,0.9c0.9,0.9,1.4,2,1.4,3.3c0,1.3-0.3,2.7-0.9,4.2
	c-0.6,1.5-1.1,2.7-1.6,3.6c-0.4,0.9-0.9,1.8-1.3,2.8c-1.3,2.8-1.9,4.9-1.9,6.2c0,0.6,0.5,0.9,1.4,0.9c0.7,0,1.4-0.2,1.9-0.5
	c0.6-0.3,1-0.5,1.1-0.5c0.4,0,0.5,0.2,0.5,0.5c0,1.5-0.8,2.8-2.3,3.8c-1,0.7-2,1-2.9,1c-0.9,0-1.6-0.1-2.2-0.3
	c-0.6-0.2-1.1-0.5-1.5-0.9c-1-0.9-1.5-2.2-1.5-3.8c0-2,0.6-4.4,1.9-7.4c0.9-2,1.5-3.4,1.9-4.2l0.9-1.8c0.5-1.1,0.8-1.9,0.8-2.6
	C217.1,259.6,216.7,259.3,215.7,259.3z"/>
<path class="st1" d="M227.1,272.1c0-1.5,0.3-3,0.7-4.4c0.4-1.5,1-2.9,1.7-4.2c0.7-1.3,1.6-2.5,2.6-3.6c1-1.1,2.1-2.1,3.3-2.9
	c2.4-1.7,5-2.5,7.7-2.5c2.8,0,4.7,1.1,5.7,3.3c0.4,0.8,0.5,1.7,0.5,2.7c0,1-0.2,1.9-0.5,2.8c-0.3,0.8-0.7,1.6-1.1,2.2
	c-1,1.5-2.1,2.2-3.1,2.2c-1.2,0-2-0.3-2.6-1c-0.5-0.6-0.6-1.2-0.5-2c0.1-0.2,0.2-0.4,0.5-0.6c0.3-0.2,0.6-0.5,1-0.9
	c1.1-1.2,1.7-2.5,1.7-4.1c0-1.1-0.6-1.6-1.9-1.6c-1.4,0-2.9,0.8-4.5,2.4c-2.3,2.3-3.9,5.3-4.8,9c-0.8,3.2-0.7,5.5,0.5,6.9
	c0.7,0.8,1.6,1.3,2.7,1.3c1.9,0,3.8-0.7,5.6-2c0.5-0.4,1-0.9,1.3-1.3c0.3-0.4,0.7-0.7,0.9-0.7c0.3,0,0.5,0.1,0.7,0.4
	c0.2,0.3,0.3,0.6,0.3,1.1c0,1-0.5,2-1.4,3c-2.3,2.2-5.1,3.3-8.3,3.3c-2.8,0-4.9-0.8-6.4-2.4C227.8,277.2,227,275,227.1,272.1z"/>
<path class="st1" d="M252.3,272c0.1-1.5,0.3-2.9,0.7-4.2c0.4-1.4,1-2.7,1.7-3.9c0.7-1.3,1.5-2.5,2.5-3.6c1-1.1,2-2.1,3.1-3
	c2.4-1.8,4.9-2.7,7.4-2.7c2.9,0,4.8,1.2,5.8,3.6c0.3,0.8,0.5,1.8,0.5,2.9c0,1.1-0.2,2.1-0.6,3.1c-0.4,0.9-1,1.8-1.7,2.6
	c-0.7,0.8-1.6,1.5-2.6,2.1c-1,0.6-2.1,1.1-3.2,1.6c-2.4,0.9-5,1.3-7.8,1.3c-0.1,0.2-0.1,0.6-0.1,1.1c0,0.5,0,1,0.2,1.6
	c0.1,0.6,0.3,1.1,0.6,1.6c0.6,1,1.5,1.5,2.7,1.5c2,0,3.9-0.6,5.8-1.7c0.7-0.4,1.2-0.8,1.6-1.2c0.4-0.4,0.8-0.6,1.1-0.6
	s0.6,0.2,0.8,0.6c0.2,0.4,0.4,0.8,0.4,1.2c0,0.9-0.3,1.7-0.8,2.3c-2.1,2.1-5.3,3.2-9.6,3.2c-2.5,0-4.5-0.7-6-2.2
	C253,277.2,252.2,274.9,252.3,272z M267.2,257.9c-1.8,0-3.5,1.2-5.2,3.7c-1.4,2.1-2.5,4.6-3.4,7.5c2.8-0.3,5.3-1.4,7.4-3.4
	c1.9-1.8,2.9-3.6,2.9-5.3C269,258.7,268.4,257.9,267.2,257.9z"/>
<path class="st1" d="M79.5,225.1c0,1.4,0.5,2.1,1.6,2.1c1.9,0,4.4-2.4,7.5-7.2c0.9-1.4,1.8-2.9,2.7-4.5l2.7-4.9
	c3.8-7.4,6-11.6,6.6-12.6c0.3-0.5,0.7-0.8,1.2-0.8s1,0.1,1.4,0.2c0.4,0.1,0.7,0.3,0.9,0.6c0.6,0.6,0.8,1.2,0.5,1.7
	c-1,1.9-2,4-2.8,6.3l-5.5,15.2c-0.6,1.5-1.2,3-1.8,4.5c-0.6,1.4-1.3,2.8-2.1,4.3c-0.8,1.4-1.6,2.8-2.5,4c-0.9,1.3-1.8,2.5-2.8,3.6
	c-1,1.1-2,2.1-3,2.9c-2.2,1.7-4.2,2.6-6.2,2.6c-0.4,0-0.7-0.1-1.1-0.3c-0.4-0.2-0.6-0.4-0.7-0.7c-0.1-0.3,0-0.5,0.2-0.7
	c0.2-0.1,0.4-0.2,0.7-0.3c4-1.5,7.8-5.5,11.4-12c1-1.9,2-3.9,2.9-6c1-2.7,1.7-4.4,2-5.3l-2.2,3.4c-4.6,6.6-8.5,9.9-11.7,9.9
	c-2.2,0-3.6-0.9-4.3-2.8c-0.2-0.6-0.3-1.1-0.3-1.5v-0.8c0-1.8,1-5.1,3.1-10l4.5-10.6c0.9-2.1,1.3-3.4,1.3-3.9c0-0.5-0.1-0.9-0.3-1.1
	c-0.2-0.2-0.4-0.4-0.6-0.6l-0.6-0.4c-0.2-0.1-0.3-0.3-0.3-0.5c0-0.2,0.1-0.5,0.3-0.7c0.2-0.2,0.5-0.4,0.9-0.6
	c0.8-0.3,1.5-0.5,2.2-0.5c0.7,0,1.3,0.1,1.7,0.2c0.4,0.1,0.7,0.3,1,0.6c0.5,0.5,0.8,1.1,0.8,1.7c0,0.7-0.1,1.5-0.4,2.4
	c-0.2,0.9-0.6,1.9-1,3c-0.4,1.1-0.9,2.2-1.4,3.4l-3.3,7.3c-2.1,4.6-3.2,7.7-3.2,9.2V225.1z"/>
<path class="st1" d="M102.1,223.2c0.1-1.3,0.3-2.5,0.6-3.6c0.4-1.2,0.8-2.3,1.5-3.4c0.6-1.1,1.3-2.1,2.1-3.1c0.8-1,1.7-1.8,2.7-2.6
	c2.1-1.6,4.2-2.3,6.3-2.3c2.5,0,4.1,1,5,3.1c0.3,0.7,0.4,1.5,0.4,2.5c0,0.9-0.2,1.8-0.5,2.6c-0.3,0.8-0.8,1.5-1.5,2.2
	c-0.6,0.7-1.3,1.2-2.2,1.8c-0.8,0.5-1.8,1-2.8,1.3c-2.1,0.7-4.3,1.1-6.6,1.1c-0.1,0.2-0.1,0.5-0.1,0.9c0,0.4,0,0.9,0.1,1.4
	c0.1,0.5,0.3,0.9,0.5,1.3c0.5,0.9,1.3,1.3,2.3,1.3c1.7,0,3.3-0.5,4.9-1.5c0.6-0.3,1-0.7,1.4-1c0.4-0.4,0.7-0.5,0.9-0.5
	s0.5,0.2,0.7,0.5c0.2,0.3,0.3,0.7,0.3,1c0,0.8-0.2,1.4-0.7,2c-1.8,1.8-4.6,2.7-8.2,2.7c-2.1,0-3.9-0.6-5.1-1.9
	C102.7,227.6,102,225.7,102.1,223.2z M114.8,211.1c-1.5,0-3,1-4.4,3.1c-1.2,1.8-2.2,3.9-2.9,6.4c2.4-0.2,4.5-1.2,6.3-2.9
	c1.6-1.6,2.5-3.1,2.5-4.5C116.3,211.8,115.8,211.1,114.8,211.1z"/>
<path class="st1" d="M140.2,225c0,1.3,0.5,2,1.4,2c0.7,0,1.2-0.1,1.6-0.3c0.4-0.2,0.7-0.3,0.9-0.3c0.3,0,0.5,0.2,0.5,0.5
	c0,1.2-0.7,2.3-2,3.2c-1.4,0.9-2.8,1.2-4.2,0.7c-0.9-0.3-1.6-1.1-2.1-2.2c-0.2-0.6-0.3-1.1-0.3-1.5c0-0.8,0.1-1.6,0.2-2.4
	c-1.4,2.8-3,4.7-5,5.7c-0.8,0.4-1.6,0.6-2.6,0.6c-0.9,0-1.7-0.2-2.4-0.5c-0.7-0.4-1.2-0.9-1.7-1.5c-0.9-1.4-1.4-3.1-1.3-5.1
	c0.1-2.6,0.8-5.1,2.3-7.6c1.3-2.3,3-4.2,5-5.7c2-1.5,3.9-2.2,5.7-2.2s3.2,0.8,4.3,2.4c1-1.6,1.9-2.4,2.7-2.4c0.8,0,1.5,0.2,1.9,0.5
	c0.8,0.6,1.1,1.1,0.9,1.5c-3.6,7.5-5.5,12.1-5.6,14C140.2,224.4,140.2,224.7,140.2,225z M128.1,225.1c0,1.7,0.6,2.6,1.7,2.6
	c0.9,0,1.9-0.7,3.2-2.2c1.8-2.1,3.5-5,4.9-8.6c0.5-1.1,0.8-2.3,1.1-3.4c-0.1-1-0.5-1.7-1.2-2.2c-0.3-0.2-0.7-0.2-1.2-0.2
	c-0.5,0-1.1,0.2-1.8,0.6c-0.7,0.4-1.4,0.9-2,1.5c-0.6,0.7-1.2,1.4-1.8,2.3c-0.6,0.9-1,1.9-1.5,2.9
	C128.6,220.6,128.1,222.9,128.1,225.1z"/>
<path class="st1" d="M148.1,230.3c-0.3-0.2-0.5-0.5-0.7-0.7c-0.2-0.3-0.3-0.5-0.3-0.7c0-0.2,0-0.4,0.1-0.7c0.1-0.3,0.2-0.6,0.4-1
	c3-7.3,4.4-12.2,4.4-14.7c0-0.7-0.3-1.2-0.7-1.5l-0.4-0.3c-0.1-0.1-0.2-0.3-0.2-0.5c0-0.3,0.1-0.5,0.3-0.7c0.2-0.2,0.4-0.4,0.7-0.6
	c0.6-0.3,1.3-0.5,1.9-0.5c0.7,0,1.2,0.1,1.5,0.2c0.4,0.1,0.7,0.3,1,0.6c0.6,0.5,0.8,1.1,0.8,1.7c0,0.6-0.1,1.2-0.2,1.8
	c-0.1,0.6-0.3,1.2-0.5,1.8c-0.2,0.6-0.4,1.1-0.6,1.6c-0.2,0.5-0.3,0.9-0.4,1.1c-0.1,0.5-0.2,0.8-0.1,1c0.3-0.3,0.6-0.6,0.6-0.9
	l0.8-1.6c1.9-3.4,3.7-5.7,5.5-6.8c0.5-0.3,1.1-0.5,1.9-0.5c0.7,0,1.3,0.3,1.8,0.8c0.5,0.5,0.7,1.1,0.7,1.7c0,0.6,0,1.1-0.1,1.6
	c-0.1,0.4-0.3,0.8-0.5,1.2c-0.5,0.8-1.1,1.2-1.7,1.2c-0.2,0-0.4-0.1-0.5-0.2l-0.5-0.4c-0.5-0.4-0.9-0.6-1.4-0.6
	c-0.4,0-1,0.3-1.6,0.9c-0.6,0.6-1.3,1.3-2,2.2c-2.3,3-4.2,6.4-5.6,10.2l-1,2.5c-0.2,0.6-0.5,1.1-0.7,1.4c-0.2,0.3-0.5,0.4-0.9,0.4
	c-0.4,0-0.7-0.1-1.1-0.2C148.7,230.7,148.4,230.5,148.1,230.3z"/>
<path class="st1" d="M165.7,227c0-0.5,0.1-0.9,0.3-1.2c0.2-0.4,0.5-0.7,0.7-1c0.6-0.6,1.2-0.9,1.9-0.9c0.6,0,0.9,0.3,0.9,0.9
	c0,1.5,0.5,2.6,1.5,3.2c0.4,0.2,0.7,0.3,1.1,0.3c0.4,0,0.7,0,1-0.1c0.3-0.1,0.5-0.2,0.8-0.4c0.5-0.4,0.8-0.9,0.8-1.5
	c0-0.6-0.1-1.1-0.4-1.6c-0.3-0.5-0.6-1-1-1.5l-1.2-1.7c-1.7-2.3-2.6-4.5-2.6-6.4c0-1.6,0.7-3.1,2.1-4.4c1.6-1.5,3.6-2.2,6-2.2
	c2.2,0,3.8,0.5,5,1.6c1,0.9,1.5,1.8,1.5,2.9c0,1.1-0.4,2.1-1.3,2.7c-0.8,0.6-1.6,0.8-2.4,0.7c-0.3-0.1-0.6-0.2-0.8-0.5
	c-0.2-0.3-0.2-0.6-0.1-1c0.1-0.4,0.2-0.7,0.2-1.1c0-0.4-0.1-0.8-0.2-1.1c-0.1-0.3-0.3-0.6-0.6-0.8c-0.5-0.5-1-0.7-1.6-0.7
	c-0.6,0-1,0.1-1.4,0.2c-0.4,0.1-0.7,0.3-1,0.5c-0.6,0.5-0.9,1.2-0.9,1.9c0,0.8,0.1,1.4,0.4,2c0.3,0.6,0.6,1.1,1,1.7
	c0.4,0.6,0.8,1.1,1.3,1.7c0.5,0.6,0.9,1.2,1.2,1.8c0.9,1.5,1.4,2.8,1.4,3.9c0,1.1-0.2,2-0.7,2.8c-0.5,0.7-1.1,1.4-1.8,1.9
	c-1.6,1.2-3.4,1.8-5.3,1.8c-1.9,0-3.4-0.5-4.4-1.4C166.1,228.9,165.7,228,165.7,227z"/>
<path class="st1" d="M191.1,229.8c-0.4-0.4-0.8-0.9-1-1.5c-0.2-0.6-0.4-1.4-0.4-2.2c0-0.8,0.1-1.7,0.3-2.6c0.2-0.9,0.5-1.7,0.9-2.5
	c0.4-0.8,0.9-1.6,1.4-2.3c0.6-0.7,1.2-1.3,1.9-1.8c1.5-1.1,3-1.7,4.6-1.7c2.1,0,3.5,0.9,4.2,2.7c0.5,1.3,0.6,2.9,0.1,4.8
	c-0.4,1.7-1.2,3.3-2.3,4.8c-1.1,1.4-2.4,2.5-4,3.1c-0.8,0.3-1.5,0.5-2.3,0.5c-0.7,0-1.4-0.1-2-0.3
	C192,230.5,191.5,230.2,191.1,229.8z M194,222.4c-0.3,0.7-0.5,1.5-0.7,2.3c-0.2,0.8-0.3,1.5-0.2,2.2c0,0.7,0.1,1.2,0.3,1.6
	c0.2,0.4,0.5,0.6,1,0.6s0.9-0.2,1.4-0.5c0.5-0.3,0.9-0.7,1.3-1.3c0.4-0.5,0.8-1.1,1.2-1.8s0.7-1.4,1-2.1c0.6-1.6,0.9-3.1,0.9-4.3
	c0-1.1-0.2-1.8-0.7-2.1c-0.2-0.1-0.4-0.2-0.8-0.2c-0.3,0-0.7,0.2-1.1,0.5c-0.4,0.3-0.8,0.7-1.3,1.2c-0.4,0.5-0.8,1.1-1.2,1.8
	C194.6,221,194.3,221.7,194,222.4z"/>
<path class="st1" d="M204.2,234.1c0-0.2,0.2-0.6,0.5-1.3c0.3-0.6,0.7-1.4,1-2.4c0.4-1,0.7-2,1.1-3.1c0.3-1.1,0.7-2.2,1-3.4l1.2-4
	l-1.6,0.4c-0.4,0-0.7-0.2-1-0.6c-0.1-0.1-0.1-0.2-0.1-0.4c0-0.2,0.1-0.3,0.4-0.5c0.2-0.2,0.5-0.4,0.9-0.6c0.7-0.4,1.4-0.6,2.2-0.8
	l0.1-0.4c0.3-0.8,0.5-1.7,0.8-2.6c0.3-0.9,0.5-1.8,0.8-2.7c0.3-0.9,0.6-1.7,1-2.5c0.4-0.8,0.8-1.5,1.2-2.1c1.1-1.3,2.4-1.9,4-1.9
	c1.2,0,2.1,0.3,2.8,0.9c0.7,0.6,1,1.5,1,2.5c0,1.1-0.3,2.1-1,2.9c-0.5,0.7-1.1,1-1.8,1c-0.8,0-1.4-0.4-1.7-1.1
	c-0.1-0.2-0.1-0.4-0.1-0.5c0-0.2,0.2-0.4,0.5-0.6c0.6-0.4,0.9-1,1.2-1.7c0.1-0.2,0.1-0.4,0.1-0.7c0-0.8-0.3-1.2-1-1.2
	c-0.9,0-1.7,1-2.5,3c-0.2,0.6-0.4,1.3-0.7,2l-1.4,4.8c0.9-0.1,1.6-0.2,2-0.2c0.4,0,0.8,0.1,1.1,0.2c0.3,0.1,0.6,0.2,0.9,0.4
	c0.6,0.4,0.9,0.9,0.9,1.5c0,0.6-0.3,0.9-0.8,0.9l-1.9-0.1c-1,0-2,0-2.9,0.1l-1.2,4.4c-0.8,3-1.5,5.1-2,6.5c-0.5,1.4-1,2.5-1.5,3.4
	c-0.5,0.9-1.1,1.3-2.1,1.3C204.7,235,204.2,234.7,204.2,234.1z"/>
<g>
	<path class="st2" d="M117.6,142.2c0,4,0.2,7.2,0.5,9.6c0.4,2.4,1.1,4.3,2.2,5.7c1.1,1.4,2.7,2.3,4.8,2.8c2.1,0.5,4.9,0.8,8.4,0.9
		v5.8H86.6v-5.8c3.4-0.1,6.1-0.4,8.2-1c2.1-0.6,3.7-1.5,4.9-2.8c1.2-1.3,1.9-3.1,2.3-5.4c0.4-2.3,0.5-5.2,0.5-8.8V87
		c0-5.9,0-10.8-0.1-14.7c-0.1-3.9-0.2-6.4-0.5-7.7c-0.5-2.2-2-3.6-4.6-4.1c-2.6-0.5-6.4-0.8-11.5-0.8v-5.8c5-0.2,10.3-0.9,15.9-2.1
		c5.6-1.2,10.9-2.6,15.9-4.4V142.2z"/>
	<path class="st2" d="M222.1,127.3c0,5.7-1.1,11.1-3.1,16.1c-2.1,5-5,9.4-8.7,13.1c-3.7,3.7-8,6.7-13,8.8c-5,2.1-10.3,3.2-15.9,3.2
		c-5.8,0-11.2-1.3-16.1-3.9c-4.9-2.6-9.1-6.3-12.7-11c-3.5-4.7-6.3-10.3-8.2-16.8c-1.9-6.5-2.9-13.7-2.9-21.6
		c0-9.3,1.3-18.1,3.8-26.3c2.6-8.2,6-15.4,10.4-21.6c4.4-6.2,9.6-11.1,15.5-14.7c5.9-3.6,12.2-5.4,18.9-5.4c3.7,0,7.1,0.4,10.4,1.2
		c3.2,0.8,6,1.9,8.4,3.3c2.4,1.4,4.3,3,5.7,5c1.4,1.9,2.1,4,2.1,6.1c0,2.5-0.7,4.4-2.2,5.8c-1.5,1.4-3.5,2.1-6.1,2.1
		c-3,0-5.1-0.9-6.4-2.6c-1.3-1.7-2.5-3.7-3.6-5.8c-1.1-2.1-2.6-4-4.3-5.8c-1.7-1.7-4.6-2.6-8.4-2.6c-3.6,0-6.9,1.2-9.8,3.7
		c-3,2.5-5.6,5.8-7.8,10.1c-2.3,4.3-4,9.4-5.2,15.3c-1.2,5.9-1.8,12.3-1.8,19.2l0.5,0.3c3.3-4.8,6.8-8.3,10.7-10.5
		c3.8-2.2,8.4-3.3,13.6-3.3c5.2,0,10,1,14.4,2.9c4.4,1.9,8.2,4.6,11.5,8.1c3.3,3.4,5.8,7.5,7.7,12.1S222.1,121.9,222.1,127.3z
		 M160.8,123.6c0,25.4,7.1,38,21.3,38c7.1,0,12.3-2.7,15.7-8.2c3.4-5.5,5.1-14,5.1-25.5c0-10.2-1.6-18-4.9-23.3
		c-3.3-5.3-8.1-8-14.4-8c-4.7,0-8.8,1.5-12.4,4.6c-3.6,3.1-7.1,8-10.4,14.9V123.6z"/>
</g>
</svg>
